999
dxflib 3.17.0.0
  0
SECTION
  2
HEADER
  9
$ACADVER
  1
AC1015
  9
$HANDSEED
  5
FFFF
  9
$DIMADEC
 70
0
  9
$DIMASZ
 40
2.5
  9
$DIMAUNIT
 70
0
  9
$DIMAZIN
 70
2
  9
$DIMDEC
 70
4
  9
$DIMDSEP
 70
46
  9
$DIMEXE
 40
1.25
  9
$DIMEXO
 40
0.625
  9
$DIMGAP
 40
0.625
  9
$DIMLUNIT
 70
2
  9
$DIMSCALE
 40
1.0
  9
$DIMTSZ
 40
0.0
  9
$DIMTXT
 40
2.5
  9
$DIMZIN
 70
8
  9
$DWGCODEPAGE
  3
ANSI_1252
  9
$INSUNITS
 70
4
  9
$LTSCALE
 40
1.0
  9
$MAXACTVP
 70
64
  9
$MEASUREMENT
 70
1
  9
$PDMODE
 70
0
  9
$PDSIZE
 40
0.0
  0
ENDSEC
  0
SECTION
  2
TABLES
  0
TABLE
  2
VPORT
  5
8
100
AcDbSymbolTable
 70
1
  0
VPORT
  5
30
100
AcDbSymbolTableRecord
100
AcDbViewportTableRecord
  2
*Active
 70
0
 10
0.0
 20
0.0
 11
1.0
 21
1.0
 12
286.3055555555554861
 22
148.5
 13
0.0
 23
0.0
 14
10.0
 24
10.0
 15
10.0
 25
10.0
 16
0.0
 26
0.0
 36
1.0
 17
0.0
 27
0.0
 37
0.0
 40
297.0
 41
1.92798353909465
 42
50.0
 43
0.0
 44
0.0
 50
0.0
 51
0.0
 71
0
 72
100
 73
1
 74
3
 75
1
 76
1
 77
0
 78
0
281
0
 65
1
110
0.0
120
0.0
130
0.0
111
1.0
121
0.0
131
0.0
112
0.0
122
1.0
132
0.0
 79
0
146
0.0
  0
ENDTAB
  0
TABLE
  2
LTYPE
  5
5
100
AcDbSymbolTable
 70
41
  0
LTYPE
  5
16
100
AcDbSymbolTableRecord
100
AcDbLinetypeTableRecord
  2
Continuous
 70
0
  3
Solid line
 72
65
 73
0
 40
0.0
  0
LTYPE
  5
31
100
AcDbSymbolTableRecord
100
AcDbLinetypeTableRecord
  2
ACAD_ISO15W100
 70
0
  3
ISO double-dash triple-dot __ __ . . . __ __ . .
 72
65
 73
10
 40
39.0000000000000071
 49
12.0
 74
0
 49
-3.0
 74
0
 49
12.0
 74
0
 49
-2.9500000000000002
 74
0
 49
0.1
 74
0
 49
-2.9000000000000004
 74
0
 49
0.1
 74
0
 49
-2.9000000000000004
 74
0
 49
0.1
 74
0
 49
-2.9500000000000002
 74
0
  0
LTYPE
  5
32
100
AcDbSymbolTableRecord
100
AcDbLinetypeTableRecord
  2
DIVIDE
 70
0
  3
Divide ____ . . ____ . . ____ . . ____ . . ____
 72
65
 73
6
 40
31.7500000000000036
 49
12.6999999999999993
 74
0
 49
-6.2999999999999998
 74
0
 49
0.1
 74
0
 49
-6.25
 74
0
 49
0.1
 74
0
 49
-6.2999999999999998
 74
0
  0
LTYPE
  5
33
100
AcDbSymbolTableRecord
100
AcDbLinetypeTableRecord
  2
ACAD_ISO10W100
 70
0
  3
ISO dash dot __ . __ . __ . __ . __ . __ . __ . 
 72
65
 73
4
 40
18.0
 49
12.0
 74
0
 49
-2.9500000000000002
 74
0
 49
0.1
 74
0
 49
-2.9500000000000002
 74
0
  0
LTYPE
  5
34
100
AcDbSymbolTableRecord
100
AcDbLinetypeTableRecord
  2
ACAD_ISO04W100
 70
0
  3
ISO long-dash dot ____ . ____ . ____ . ____ . _
 72
65
 73
4
 40
30.0
 49
24.0
 74
0
 49
-2.9500000000000002
 74
0
 49
0.1
 74
0
 49
-2.9500000000000002
 74
0
  0
LTYPE
  5
35
100
AcDbSymbolTableRecord
100
AcDbLinetypeTableRecord
  2
CENTER2
 70
0
  3
Center (.5x) ___ _ ___ _ ___ _ ___ _ ___ _ ___
 72
65
 73
4
 40
28.5750000000000028
 49
19.0500000000000007
 74
0
 49
-3.1749999999999998
 74
0
 49
3.1749999999999998
 74
0
 49
-3.1749999999999998
 74
0
  0
LTYPE
  5
36
100
AcDbSymbolTableRecord
100
AcDbLinetypeTableRecord
  2
ACAD_ISO11W100
 70
0
  3
ISO double-dash dot __ __ . __ __ . __ __ . __ _
 72
65
 73
6
 40
33.0
 49
12.0
 74
0
 49
-3.0
 74
0
 49
12.0
 74
0
 49
-2.9500000000000002
 74
0
 49
0.1
 74
0
 49
-2.9500000000000002
 74
0
  0
LTYPE
  5
37
100
AcDbSymbolTableRecord
100
AcDbLinetypeTableRecord
  2
HIDDEN2
 70
0
  3
Hidden (.5x) _ _ _ _ _ _ _ _ _ _ _ _ _ _ _ _ _ 
 72
65
 73
2
 40
4.7624999999999993
 49
3.1749999999999998
 74
0
 49
-1.5874999999999999
 74
0
  0
LTYPE
  5
38
100
AcDbSymbolTableRecord
100
AcDbLinetypeTableRecord
  2
BORDERX2
 70
0
  3
Border (2x) ____  ____  .  ____  ____  .  ___
 72
65
 73
6
 40
88.8999999999999773
 49
25.3999999999999986
 74
0
 49
-12.6999999999999993
 74
0
 49
25.3999999999999986
 74
0
 49
-12.6499999999999986
 74
0
 49
0.1
 74
0
 49
-12.6499999999999986
 74
0
  0
LTYPE
  5
39
100
AcDbSymbolTableRecord
100
AcDbLinetypeTableRecord
  2
ACAD_ISO05W100
 70
0
  3
ISO long-dash double-dot ____ .. ____ .. ____ . 
 72
65
 73
6
 40
33.0000000000000071
 49
24.0
 74
0
 49
-2.9500000000000002
 74
0
 49
0.1
 74
0
 49
-2.9000000000000004
 74
0
 49
0.1
 74
0
 49
-2.9500000000000002
 74
0
  0
LTYPE
  5
3A
100
AcDbSymbolTableRecord
100
AcDbLinetypeTableRecord
  2
DASHDOTX2
 70
0
  3
Dash dot (2x) ____  .  ____  .  ____  .  ___
 72
65
 73
4
 40
50.7999999999999972
 49
25.3999999999999986
 74
0
 49
-12.6499999999999986
 74
0
 49
0.1
 74
0
 49
-12.6499999999999986
 74
0
  0
LTYPE
  5
3B
100
AcDbSymbolTableRecord
100
AcDbLinetypeTableRecord
  2
HIDDENX2
 70
0
  3
Hidden (2x) ____ ____ ____ ____ ____ ____ ____ 
 72
65
 73
2
 40
19.0499999999999972
 49
12.6999999999999993
 74
0
 49
-6.3499999999999996
 74
0
  0
LTYPE
  5
3C
100
AcDbSymbolTableRecord
100
AcDbLinetypeTableRecord
  2
CENTERX2
 70
0
  3
Center (2x) ________  __  ________  __  _____
 72
65
 73
4
 40
101.6000000000000085
 49
63.5
 74
0
 49
-12.6999999999999993
 74
0
 49
12.6999999999999993
 74
0
 49
-12.6999999999999993
 74
0
  0
LTYPE
  5
3D
100
AcDbSymbolTableRecord
100
AcDbLinetypeTableRecord
  2
BORDER2
 70
0
  3
Border (.5x) __.__.__.__.__.__.__.__.__.__.__.
 72
65
 73
6
 40
22.2250000000000014
 49
6.3499999999999996
 74
0
 49
-3.1749999999999998
 74
0
 49
6.3499999999999996
 74
0
 49
-3.125
 74
0
 49
0.1
 74
0
 49
-3.125
 74
0
  0
LTYPE
  5
3E
100
AcDbSymbolTableRecord
100
AcDbLinetypeTableRecord
  2
DASHDOT2
 70
0
  3
Dash dot (.5x) _._._._._._._._._._._._._._._.
 72
65
 73
4
 40
12.6999999999999993
 49
6.3499999999999996
 74
0
 49
-3.125
 74
0
 49
0.1
 74
0
 49
-3.125
 74
0
  0
LTYPE
  5
3F
100
AcDbSymbolTableRecord
100
AcDbLinetypeTableRecord
  2
ACAD_ISO12W100
 70
0
  3
ISO dash double-dot __ . . __ . . __ . . __ . . 
 72
65
 73
6
 40
21.0
 49
12.0
 74
0
 49
-2.9500000000000002
 74
0
 49
0.1
 74
0
 49
-2.9000000000000004
 74
0
 49
0.1
 74
0
 49
-2.9500000000000002
 74
0
  0
LTYPE
  5
40
100
AcDbSymbolTableRecord
100
AcDbLinetypeTableRecord
  2
ACAD_ISO07W100
 70
0
  3
ISO dot . . . . . . . . . . . . . . . . . . . . 
 72
65
 73
2
 40
3.0
 49
0.1
 74
0
 49
-2.8999999999999999
 74
0
  0
LTYPE
  5
41
100
AcDbSymbolTableRecord
100
AcDbLinetypeTableRecord
  2
HIDDEN
 70
0
  3
Hidden __ __ __ __ __ __ __ __ __ __ __ __ __ __
 72
65
 73
2
 40
9.5249999999999986
 49
6.3499999999999996
 74
0
 49
-3.1749999999999998
 74
0
  0
LTYPE
  5
42
100
AcDbSymbolTableRecord
100
AcDbLinetypeTableRecord
  2
ACAD_ISO06W100
 70
0
  3
ISO long-dash triple-dot ____ ... ____ ... ____
 72
65
 73
8
 40
36.0000000000000071
 49
24.0
 74
0
 49
-2.9500000000000002
 74
0
 49
0.1
 74
0
 49
-2.9000000000000004
 74
0
 49
0.1
 74
0
 49
-2.9000000000000004
 74
0
 49
0.1
 74
0
 49
-2.9500000000000002
 74
0
  0
LTYPE
  5
43
100
AcDbSymbolTableRecord
100
AcDbLinetypeTableRecord
  2
CENTER
 70
0
  3
Center ____ _ ____ _ ____ _ ____ _ ____ _ ____
 72
65
 73
4
 40
50.8000000000000043
 49
31.75
 74
0
 49
-6.3499999999999996
 74
0
 49
6.3499999999999996
 74
0
 49
-6.3499999999999996
 74
0
  0
LTYPE
  5
44
100
AcDbSymbolTableRecord
100
AcDbLinetypeTableRecord
  2
DOTX2
 70
0
  3
Dot (2x) .  .  .  .  .  .  .  .  .  .  .  .  .  .
 72
65
 73
2
 40
12.6999999999999993
 49
0.1
 74
0
 49
-12.5999999999999996
 74
0
  0
LTYPE
  5
45
100
AcDbSymbolTableRecord
100
AcDbLinetypeTableRecord
  2
PHANTOM
 70
0
  3
Phantom ______  __  __  ______  __  __  ______ 
 72
65
 73
6
 40
63.5000000000000071
 49
31.75
 74
0
 49
-6.3499999999999996
 74
0
 49
6.3499999999999996
 74
0
 49
-6.3499999999999996
 74
0
 49
6.3499999999999996
 74
0
 49
-6.3499999999999996
 74
0
  0
LTYPE
  5
46
100
AcDbSymbolTableRecord
100
AcDbLinetypeTableRecord
  2
ACAD_ISO08W100
 70
0
  3
ISO long-dash short-dash ____ __ ____ __ ____ _
 72
65
 73
4
 40
36.0
 49
24.0
 74
0
 49
-3.0
 74
0
 49
6.0
 74
0
 49
-3.0
 74
0
  0
LTYPE
  5
47
100
AcDbSymbolTableRecord
100
AcDbLinetypeTableRecord
  2
DASHEDX2
 70
0
  3
Dashed (2x) ____  ____  ____  ____  ____  ___
 72
65
 73
2
 40
38.0999999999999943
 49
25.3999999999999986
 74
0
 49
-12.6999999999999993
 74
0
  0
LTYPE
  5
48
100
AcDbSymbolTableRecord
100
AcDbLinetypeTableRecord
  2
ACAD_ISO02W100
 70
0
  3
ISO dash __ __ __ __ __ __ __ __ __ __ __ __ __
 72
65
 73
2
 40
15.0
 49
12.0
 74
0
 49
-3.0
 74
0
  0
LTYPE
  5
49
100
AcDbSymbolTableRecord
100
AcDbLinetypeTableRecord
  2
PHANTOM2
 70
0
  3
Phantom (.5x) ___ _ _ ___ _ _ ___ _ _ ___ _ _
 72
65
 73
6
 40
31.7500000000000036
 49
15.875
 74
0
 49
-3.1749999999999998
 74
0
 49
3.1749999999999998
 74
0
 49
-3.1749999999999998
 74
0
 49
3.1749999999999998
 74
0
 49
-3.1749999999999998
 74
0
  0
LTYPE
  5
4A
100
AcDbSymbolTableRecord
100
AcDbLinetypeTableRecord
  2
DASHED2
 70
0
  3
Dashed (.5x) _ _ _ _ _ _ _ _ _ _ _ _ _ _ _ _ _ 
 72
65
 73
2
 40
9.5249999999999986
 49
6.3499999999999996
 74
0
 49
-3.1749999999999998
 74
0
  0
LTYPE
  5
4B
100
AcDbSymbolTableRecord
100
AcDbLinetypeTableRecord
  2
ACAD_ISO09W100
 70
0
  3
ISO long-dash double-short-dash ____ __ __ ____
 72
65
 73
6
 40
45.0
 49
24.0
 74
0
 49
-3.0
 74
0
 49
6.0
 74
0
 49
-3.0
 74
0
 49
6.0
 74
0
 49
-3.0
 74
0
  0
LTYPE
  5
4C
100
AcDbSymbolTableRecord
100
AcDbLinetypeTableRecord
  2
ACAD_ISO13W100
 70
0
  3
ISO double-dash double-dot __ __ . . __ __ . . _
 72
65
 73
8
 40
36.0000000000000071
 49
12.0
 74
0
 49
-3.0
 74
0
 49
12.0
 74
0
 49
-2.9500000000000002
 74
0
 49
0.1
 74
0
 49
-2.9000000000000004
 74
0
 49
0.1
 74
0
 49
-2.9500000000000002
 74
0
  0
LTYPE
  5
4D
100
AcDbSymbolTableRecord
100
AcDbLinetypeTableRecord
  2
DOT2
 70
0
  3
Dot (.5x) ........................................
 72
65
 73
2
 40
3.1749999999999998
 49
0.1
 74
0
 49
-3.0749999999999997
 74
0
  0
LTYPE
  5
4E
100
AcDbSymbolTableRecord
100
AcDbLinetypeTableRecord
  2
DASHED
 70
0
  3
Dashed __ __ __ __ __ __ __ __ __ __ __ __ __ _
 72
65
 73
2
 40
19.0499999999999972
 49
12.6999999999999993
 74
0
 49
-6.3499999999999996
 74
0
  0
LTYPE
  5
4F
100
AcDbSymbolTableRecord
100
AcDbLinetypeTableRecord
  2
ACAD_ISO14W100
 70
0
  3
ISO dash triple-dot __ . . . __ . . . __ . . . _
 72
65
 73
8
 40
24.0000000000000036
 49
12.0
 74
0
 49
-2.9500000000000002
 74
0
 49
0.1
 74
0
 49
-2.9000000000000004
 74
0
 49
0.1
 74
0
 49
-2.9000000000000004
 74
0
 49
0.1
 74
0
 49
-2.9500000000000002
 74
0
  0
LTYPE
  5
15
100
AcDbSymbolTableRecord
100
AcDbLinetypeTableRecord
  2
BYLAYER
 70
0
  3

 72
65
 73
0
 40
0.0
  0
LTYPE
  5
50
100
AcDbSymbolTableRecord
100
AcDbLinetypeTableRecord
  2
PHANTOMX2
 70
0
  3
Phantom (2x) ____________    ____    ____   _
 72
65
 73
6
 40
127.0000000000000142
 49
63.5
 74
0
 49
-12.6999999999999993
 74
0
 49
12.6999999999999993
 74
0
 49
-12.6999999999999993
 74
0
 49
12.6999999999999993
 74
0
 49
-12.6999999999999993
 74
0
  0
LTYPE
  5
14
100
AcDbSymbolTableRecord
100
AcDbLinetypeTableRecord
  2
BYBLOCK
 70
0
  3

 72
65
 73
0
 40
0.0
  0
LTYPE
  5
51
100
AcDbSymbolTableRecord
100
AcDbLinetypeTableRecord
  2
DIVIDEX2
 70
0
  3
Divide (2x) ________  .  .  ________  .  .  _
 72
65
 73
6
 40
63.5
 49
25.3999999999999986
 74
0
 49
-12.6499999999999986
 74
0
 49
0.1
 74
0
 49
-12.5999999999999979
 74
0
 49
0.1
 74
0
 49
-12.6499999999999986
 74
0
  0
LTYPE
  5
52
100
AcDbSymbolTableRecord
100
AcDbLinetypeTableRecord
  2
BORDER
 70
0
  3
Border __ __ . __ __ . __ __ . __ __ . __ __ .
 72
65
 73
6
 40
44.4499999999999957
 49
12.6999999999999993
 74
0
 49
-6.3499999999999996
 74
0
 49
12.6999999999999993
 74
0
 49
-6.2999999999999998
 74
0
 49
0.1
 74
0
 49
-6.2999999999999998
 74
0
  0
LTYPE
  5
53
100
AcDbSymbolTableRecord
100
AcDbLinetypeTableRecord
  2
DIVIDE2
 70
0
  3
Divide (.5x) __..__..__..__..__..__..__..__.._
 72
65
 73
6
 40
15.8749999999999982
 49
6.3499999999999996
 74
0
 49
-3.125
 74
0
 49
0.1
 74
0
 49
-3.0750000000000002
 74
0
 49
0.1
 74
0
 49
-3.125
 74
0
  0
LTYPE
  5
54
100
AcDbSymbolTableRecord
100
AcDbLinetypeTableRecord
  2
DOT
 70
0
  3
Dot . . . . . . . . . . . . . . . . . . . . . . . .
 72
65
 73
2
 40
6.3499999999999996
 49
0.1
 74
0
 49
-6.25
 74
0
  0
LTYPE
  5
55
100
AcDbSymbolTableRecord
100
AcDbLinetypeTableRecord
  2
DASHDOT
 70
0
  3
Dash dot __ . __ . __ . __ . __ . __ . __ . __
 72
65
 73
4
 40
25.4000000000000021
 49
12.6999999999999993
 74
0
 49
-6.2999999999999998
 74
0
 49
0.1
 74
0
 49
-6.2999999999999998
 74
0
  0
LTYPE
  5
56
100
AcDbSymbolTableRecord
100
AcDbLinetypeTableRecord
  2
ACAD_ISO03W100
 70
0
  3
ISO dash space __    __    __    __    __    __
 72
65
 73
2
 40
30.0
 49
12.0
 74
0
 49
-18.0
 74
0
  0
ENDTAB
  0
TABLE
  2
LAYER
  5
2
100
AcDbSymbolTable
 70
3
  0
LAYER
  5
57
100
AcDbSymbolTableRecord
100
AcDbLayerTableRecord
  2
icon
 70
0
 62
3
420
65280
  6
Continuous
370
9
390
F
  0
LAYER
  5
10
100
AcDbSymbolTableRecord
100
AcDbLayerTableRecord
  2
0
 70
0
 62
7
420
16777215
  6
Continuous
370
25
390
F
  0
LAYER
  5
58
100
AcDbSymbolTableRecord
100
AcDbLayerTableRecord
  2
text
 70
0
 62
4
420
65535
  6
Continuous
370
25
390
F
  0
ENDTAB
  0
TABLE
  2
STYLE
  5
3
100
AcDbSymbolTable
 70
17
  0
STYLE
  5
59
100
AcDbSymbolTableRecord
100
AcDbTextStyleTableRecord
  2
Standard
 70
0
 40
0.0
 41
1.0
 50
0.0
 71
0
 42
2.5
  3

  4

1001
ACAD
1000
txt
1071
0
  0
STYLE
  5
5A
100
AcDbSymbolTableRecord
100
AcDbTextStyleTableRecord
  2
textstyle0
 70
0
 40
0.0
 41
1.0
 50
0.0
 71
0
 42
5.0
  3

  4

1001
ACAD
1000
Arial
1071
0
  0
STYLE
  5
5B
100
AcDbSymbolTableRecord
100
AcDbTextStyleTableRecord
  2
textstyle1
 70
0
 40
0.0
 41
1.0
 50
0.0
 71
0
 42
5.0
  3

  4

1001
ACAD
1000
Arial
1071
0
  0
STYLE
  5
5C
100
AcDbSymbolTableRecord
100
AcDbTextStyleTableRecord
  2
textstyle2
 70
0
 40
0.0
 41
1.0
 50
0.0
 71
0
 42
5.0
  3

  4

1001
ACAD
1000
Arial
1071
0
  0
STYLE
  5
5D
100
AcDbSymbolTableRecord
100
AcDbTextStyleTableRecord
  2
textstyle3
 70
0
 40
0.0
 41
1.0
 50
0.0
 71
0
 42
5.0
  3

  4

1001
ACAD
1000
Arial
1071
0
  0
STYLE
  5
5E
100
AcDbSymbolTableRecord
100
AcDbTextStyleTableRecord
  2
textstyle4
 70
0
 40
0.0
 41
1.0
 50
0.0
 71
0
 42
5.0
  3

  4

1001
ACAD
1000
Arial
1071
0
  0
STYLE
  5
5F
100
AcDbSymbolTableRecord
100
AcDbTextStyleTableRecord
  2
textstyle5
 70
0
 40
0.0
 41
1.0
 50
0.0
 71
0
 42
5.0
  3

  4

1001
ACAD
1000
Arial
1071
0
  0
STYLE
  5
60
100
AcDbSymbolTableRecord
100
AcDbTextStyleTableRecord
  2
textstyle6
 70
0
 40
0.0
 41
1.0
 50
0.0
 71
0
 42
6.0
  3

  4

1001
ACAD
1000
Arial
1071
0
  0
STYLE
  5
61
100
AcDbSymbolTableRecord
100
AcDbTextStyleTableRecord
  2
textstyle7
 70
0
 40
0.0
 41
1.0
 50
0.0
 71
0
 42
6.0
  3

  4

1001
ACAD
1000
Arial
1071
0
  0
STYLE
  5
62
100
AcDbSymbolTableRecord
100
AcDbTextStyleTableRecord
  2
textstyle8
 70
0
 40
0.0
 41
1.0
 50
0.0
 71
0
 42
1.6000000000000001
  3

  4

1001
ACAD
1000
Arial
1071
0
  0
STYLE
  5
63
100
AcDbSymbolTableRecord
100
AcDbTextStyleTableRecord
  2
textstyle9
 70
0
 40
0.0
 41
1.0
 50
0.0
 71
0
 42
1.6000000000000001
  3

  4

1001
ACAD
1000
Arial
1071
0
  0
STYLE
  5
64
100
AcDbSymbolTableRecord
100
AcDbTextStyleTableRecord
  2
textstyle10
 70
0
 40
0.0
 41
1.0
 50
0.0
 71
0
 42
1.6000000000000001
  3

  4

1001
ACAD
1000
Arial
1071
0
  0
STYLE
  5
65
100
AcDbSymbolTableRecord
100
AcDbTextStyleTableRecord
  2
textstyle11
 70
0
 40
0.0
 41
1.0
 50
0.0
 71
0
 42
1.6000000000000001
  3

  4

1001
ACAD
1000
Arial
1071
0
  0
STYLE
  5
66
100
AcDbSymbolTableRecord
100
AcDbTextStyleTableRecord
  2
textstyle12
 70
0
 40
0.0
 41
1.0
 50
0.0
 71
0
 42
1.6000000000000001
  3

  4

1001
ACAD
1000
Arial
1071
0
  0
STYLE
  5
67
100
AcDbSymbolTableRecord
100
AcDbTextStyleTableRecord
  2
textstyle13
 70
0
 40
0.0
 41
1.0
 50
0.0
 71
0
 42
1.6000000000000001
  3

  4

1001
ACAD
1000
Arial
1071
0
  0
STYLE
  5
68
100
AcDbSymbolTableRecord
100
AcDbTextStyleTableRecord
  2
textstyle14
 70
0
 40
0.0
 41
1.0
 50
0.0
 71
0
 42
1.6000000000000001
  3

  4

1001
ACAD
1000
Arial
1071
0
  0
STYLE
  5
69
100
AcDbSymbolTableRecord
100
AcDbTextStyleTableRecord
  2
textstyle15
 70
0
 40
0.0
 41
1.0
 50
0.0
 71
0
 42
1.6000000000000001
  3

  4

1001
ACAD
1000
Arial
1071
0
  0
ENDTAB
  0
TABLE
  2
VIEW
  5
6
100
AcDbSymbolTable
 70
0
  0
ENDTAB
  0
TABLE
  2
UCS
  5
7
100
AcDbSymbolTable
 70
0
  0
ENDTAB
  0
TABLE
  2
APPID
  5
9
100
AcDbSymbolTable
 70
1
  0
APPID
  5
12
100
AcDbSymbolTableRecord
100
AcDbRegAppTableRecord
  2
ACAD
 70
0
  0
APPID
  5
6A
100
AcDbSymbolTableRecord
100
AcDbRegAppTableRecord
  2
QCAD
 70
0
  0
ENDTAB
  0
TABLE
  2
DIMSTYLE
  5
A
100
AcDbSymbolTable
 70
1
100
AcDbDimStyleTable
 71
0
  0
DIMSTYLE
105
27
100
AcDbSymbolTableRecord
100
AcDbDimStyleTableRecord
  2
Standard
 41
2.5
 42
0.625
 43
3.75
 44
1.25
 70
0
 73
0
 74
0
 77
1
 78
8
140
2.5
141
2.5
143
0.03937007874016
147
0.625
171
3
172
1
271
2
272
2
274
3
278
44
283
0
284
8
340
59
  0
ENDTAB
  0
TABLE
  2
BLOCK_RECORD
  5
1
100
AcDbSymbolTable
 70
1
  0
BLOCK_RECORD
  5
1F
100
AcDbSymbolTableRecord
100
AcDbBlockTableRecord
  2
*Model_Space
340
22
  0
BLOCK_RECORD
  5
1B
100
AcDbSymbolTableRecord
100
AcDbBlockTableRecord
  2
*Paper_Space
340
1E
  0
BLOCK_RECORD
  5
23
100
AcDbSymbolTableRecord
100
AcDbBlockTableRecord
  2
*Paper_Space0
340
26
  0
ENDTAB
  0
ENDSEC
  0
SECTION
  2
BLOCKS
  0
BLOCK
  5
20
100
AcDbEntity
  8
0
100
AcDbBlockBegin
  2
*Model_Space
 70
0
 10
0.0
 20
0.0
 30
0.0
  3
*Model_Space
  1

  0
ENDBLK
  5
21
100
AcDbEntity
  8
0
100
AcDbBlockEnd
  0
BLOCK
  5
1C
100
AcDbEntity
 67
1
  8
0
100
AcDbBlockBegin
  2
*Paper_Space
 70
0
 10
0.0
 20
0.0
 30
0.0
  3
*Paper_Space
  1

  0
ENDBLK
  5
1D
100
AcDbEntity
 67
1
  8
0
100
AcDbBlockEnd
  0
BLOCK
  5
24
100
AcDbEntity
  8
0
100
AcDbBlockBegin
  2
*Paper_Space0
 70
0
 10
0.0
 20
0.0
 30
0.0
  3
*Paper_Space0
  1

  0
ENDBLK
  5
25
100
AcDbEntity
  8
0
100
AcDbBlockEnd
  0
ENDSEC
  0
SECTION
  2
ENTITIES
  0
LINE
  5
6B
100
AcDbEntity
  8
0
 62
256
370
13
 48
1.0
  6
BYLAYER
100
AcDbLine
 10
30.0000000000000071
 20
22.4000000000000021
 30
0.0
 11
30.0000000000000071
 21
27.5000000000000036
 31
0.0
  0
LINE
  5
6C
100
AcDbEntity
  8
0
 62
256
370
13
 48
1.0
  6
BYLAYER
100
AcDbLine
 10
93.0
 20
22.4000000000000021
 30
0.0
 11
93.0
 21
27.5000000000000036
 31
0.0
  0
LINE
  5
6D
100
AcDbEntity
  8
0
 62
256
370
13
 48
1.0
  6
BYLAYER
100
AcDbLine
 10
408.0
 20
22.399999999999995
 30
0.0
 11
408.0
 21
27.5000000000000036
 31
0.0
  0
LINE
  5
6E
100
AcDbEntity
  8
0
 62
256
370
13
 48
1.0
  6
BYLAYER
100
AcDbLine
 10
471.0
 20
22.399999999999995
 30
0.0
 11
471.0
 21
27.5000000000000036
 31
0.0
  0
LINE
  5
6F
100
AcDbEntity
  8
0
 62
256
370
13
 48
1.0
  6
BYLAYER
100
AcDbLine
 10
282.0
 20
22.3999999999999915
 30
0.0
 11
282.0
 21
27.5
 31
0.0
  0
LINE
  5
70
100
AcDbEntity
  8
0
 62
256
370
13
 48
1.0
  6
BYLAYER
100
AcDbLine
 10
345.0
 20
22.3999999999999915
 30
0.0
 11
345.0
 21
27.5
 31
0.0
  0
LINE
  5
71
100
AcDbEntity
  8
0
 62
256
370
13
 48
1.0
  6
BYLAYER
100
AcDbLine
 10
156.0
 20
22.3999999999999915
 30
0.0
 11
156.0
 21
27.5
 31
0.0
  0
LINE
  5
72
100
AcDbEntity
  8
0
 62
256
370
13
 48
1.0
  6
BYLAYER
100
AcDbLine
 10
219.0
 20
22.3999999999999915
 30
0.0
 11
219.0
 21
27.5
 31
0.0
  0
LINE
  5
73
100
AcDbEntity
  8
0
 62
256
370
13
 48
1.0
  6
BYLAYER
100
AcDbLine
 10
62.0000000000000071
 20
22.4000000000000021
 30
0.0
 11
62.0000000000000071
 21
27.5000000000000036
 31
0.0
  0
LINE
  5
74
100
AcDbEntity
  8
0
 62
256
370
13
 48
1.0
  6
BYLAYER
100
AcDbLine
 10
125.0
 20
22.4000000000000021
 30
0.0
 11
125.0
 21
27.5000000000000036
 31
0.0
  0
LINE
  5
75
100
AcDbEntity
  8
0
 62
256
370
13
 48
1.0
  6
BYLAYER
100
AcDbLine
 10
440.0
 20
22.399999999999995
 30
0.0
 11
440.0
 21
27.5000000000000036
 31
0.0
  0
LINE
  5
76
100
AcDbEntity
  8
0
 62
256
370
13
 48
1.0
  6
BYLAYER
100
AcDbLine
 10
503.0
 20
22.399999999999995
 30
0.0
 11
503.0
 21
27.5000000000000036
 31
0.0
  0
LINE
  5
77
100
AcDbEntity
  8
0
 62
256
370
13
 48
1.0
  6
BYLAYER
100
AcDbLine
 10
314.0
 20
22.3999999999999915
 30
0.0
 11
314.0
 21
27.5
 31
0.0
  0
LINE
  5
78
100
AcDbEntity
  8
0
 62
256
370
13
 48
1.0
  6
BYLAYER
100
AcDbLine
 10
377.0
 20
22.3999999999999915
 30
0.0
 11
377.0
 21
27.5
 31
0.0
  0
LINE
  5
79
100
AcDbEntity
  8
0
 62
256
370
13
 48
1.0
  6
BYLAYER
100
AcDbLine
 10
188.0
 20
22.3999999999999915
 30
0.0
 11
188.0
 21
27.5
 31
0.0
  0
LINE
  5
7A
100
AcDbEntity
  8
0
 62
256
370
13
 48
1.0
  6
BYLAYER
100
AcDbLine
 10
251.0
 20
22.3999999999999915
 30
0.0
 11
251.0
 21
27.5
 31
0.0
  0
LINE
  5
7B
100
AcDbEntity
  8
0
 62
256
370
13
 48
1.0
  6
BYLAYER
100
AcDbLine
 10
30.0000000000000071
 20
7.4000000000000021
 30
0.0
 11
30.0000000000000071
 21
15.100000000000005
 31
0.0
  0
LINE
  5
7C
100
AcDbEntity
  8
0
 62
256
370
13
 48
1.0
  6
BYLAYER
100
AcDbLine
 10
93.0
 20
7.4000000000000021
 30
0.0
 11
93.0
 21
15.100000000000005
 31
0.0
  0
LINE
  5
7D
100
AcDbEntity
  8
0
 62
256
370
13
 48
1.0
  6
BYLAYER
100
AcDbLine
 10
408.0
 20
7.399999999999995
 30
0.0
 11
408.0
 21
15.0999999999999979
 31
0.0
  0
LINE
  5
7E
100
AcDbEntity
  8
0
 62
256
370
13
 48
1.0
  6
BYLAYER
100
AcDbLine
 10
471.0
 20
7.399999999999995
 30
0.0
 11
471.0
 21
15.0999999999999979
 31
0.0
  0
LINE
  5
7F
100
AcDbEntity
  8
0
 62
256
370
13
 48
1.0
  6
BYLAYER
100
AcDbLine
 10
282.0
 20
7.3999999999999915
 30
0.0
 11
282.0
 21
15.0999999999999943
 31
0.0
  0
LINE
  5
80
100
AcDbEntity
  8
0
 62
256
370
13
 48
1.0
  6
BYLAYER
100
AcDbLine
 10
345.0
 20
7.3999999999999915
 30
0.0
 11
345.0
 21
15.0999999999999943
 31
0.0
  0
LINE
  5
81
100
AcDbEntity
  8
0
 62
256
370
13
 48
1.0
  6
BYLAYER
100
AcDbLine
 10
156.0
 20
7.3999999999999915
 30
0.0
 11
156.0
 21
15.0999999999999943
 31
0.0
  0
LINE
  5
82
100
AcDbEntity
  8
0
 62
256
370
13
 48
1.0
  6
BYLAYER
100
AcDbLine
 10
219.0
 20
7.3999999999999915
 30
0.0
 11
219.0
 21
15.0999999999999943
 31
0.0
  0
LINE
  5
83
100
AcDbEntity
  8
0
 62
256
370
13
 48
1.0
  6
BYLAYER
100
AcDbLine
 10
62.0000000000000071
 20
7.4000000000000021
 30
0.0
 11
62.0000000000000071
 21
15.100000000000005
 31
0.0
  0
LINE
  5
84
100
AcDbEntity
  8
0
 62
256
370
13
 48
1.0
  6
BYLAYER
100
AcDbLine
 10
125.0
 20
7.4000000000000021
 30
0.0
 11
125.0
 21
15.100000000000005
 31
0.0
  0
LINE
  5
85
100
AcDbEntity
  8
0
 62
256
370
13
 48
1.0
  6
BYLAYER
100
AcDbLine
 10
440.0
 20
7.399999999999995
 30
0.0
 11
440.0
 21
15.0999999999999979
 31
0.0
  0
LINE
  5
86
100
AcDbEntity
  8
0
 62
256
370
13
 48
1.0
  6
BYLAYER
100
AcDbLine
 10
503.0
 20
7.399999999999995
 30
0.0
 11
503.0
 21
15.0999999999999979
 31
0.0
  0
LINE
  5
87
100
AcDbEntity
  8
0
 62
256
370
13
 48
1.0
  6
BYLAYER
100
AcDbLine
 10
314.0
 20
7.3999999999999915
 30
0.0
 11
314.0
 21
15.0999999999999943
 31
0.0
  0
LINE
  5
88
100
AcDbEntity
  8
0
 62
256
370
13
 48
1.0
  6
BYLAYER
100
AcDbLine
 10
377.0
 20
7.3999999999999915
 30
0.0
 11
377.0
 21
15.0999999999999943
 31
0.0
  0
LINE
  5
89
100
AcDbEntity
  8
0
 62
256
370
13
 48
1.0
  6
BYLAYER
100
AcDbLine
 10
188.0
 20
7.3999999999999915
 30
0.0
 11
188.0
 21
15.0999999999999943
 31
0.0
  0
LINE
  5
8A
100
AcDbEntity
  8
0
 62
256
370
13
 48
1.0
  6
BYLAYER
100
AcDbLine
 10
251.0
 20
7.3999999999999915
 30
0.0
 11
251.0
 21
15.0999999999999943
 31
0.0
  0
LINE
  5
8B
100
AcDbEntity
  8
0
 62
256
370
13
 48
1.0
  6
BYLAYER
100
AcDbLine
 10
7.5999999999999943
 20
0.0
 30
0.0
 11
0.0
 21
0.0000000000000053
 31
0.0
  0
LINE
  5
8C
100
AcDbEntity
  8
0
 62
256
370
13
 48
1.0
  6
BYLAYER
100
AcDbLine
 10
70.5999999999999943
 20
0.0
 30
0.0
 11
63.0
 21
0.0000000000000053
 31
0.0
  0
LINE
  5
8D
100
AcDbEntity
  8
0
 62
256
370
13
 48
1.0
  6
BYLAYER
100
AcDbLine
 10
385.6000000000000227
 20
-0.0000000000000036
 30
0.0
 11
378.0
 21
0.0000000000000036
 31
0.0
  0
LINE
  5
8E
100
AcDbEntity
  8
0
 62
256
370
13
 48
1.0
  6
BYLAYER
100
AcDbLine
 10
448.6000000000000227
 20
-0.0000000000000036
 30
0.0
 11
441.0
 21
0.0000000000000036
 31
0.0
  0
LINE
  5
8F
100
AcDbEntity
  8
0
 62
256
370
13
 48
1.0
  6
BYLAYER
100
AcDbLine
 10
259.6000000000000227
 20
0.0
 30
0.0
 11
252.0
 21
0.0
 31
0.0
  0
LINE
  5
90
100
AcDbEntity
  8
0
 62
256
370
13
 48
1.0
  6
BYLAYER
100
AcDbLine
 10
322.6000000000000227
 20
0.0
 30
0.0
 11
315.0
 21
0.0
 31
0.0
  0
LINE
  5
91
100
AcDbEntity
  8
0
 62
256
370
13
 48
1.0
  6
BYLAYER
100
AcDbLine
 10
133.5999999999999943
 20
0.0
 30
0.0
 11
126.0
 21
0.0
 31
0.0
  0
LINE
  5
92
100
AcDbEntity
  8
0
 62
256
370
13
 48
1.0
  6
BYLAYER
100
AcDbLine
 10
196.5999999999999943
 20
0.0
 30
0.0
 11
189.0
 21
0.0
 31
0.0
  0
LINE
  5
93
100
AcDbEntity
  8
0
 62
256
370
13
 48
1.0
  6
BYLAYER
100
AcDbLine
 10
39.6000000000000014
 20
-0.0000000000000018
 30
0.0
 11
32.0000000000000071
 21
0.0000000000000036
 31
0.0
  0
LINE
  5
94
100
AcDbEntity
  8
0
 62
256
370
13
 48
1.0
  6
BYLAYER
100
AcDbLine
 10
102.5999999999999943
 20
-0.0000000000000018
 30
0.0
 11
95.0
 21
0.0000000000000036
 31
0.0
  0
LINE
  5
95
100
AcDbEntity
  8
0
 62
256
370
13
 48
1.0
  6
BYLAYER
100
AcDbLine
 10
417.6000000000000227
 20
-0.0000000000000036
 30
0.0
 11
410.0
 21
0.0
 31
0.0
  0
LINE
  5
96
100
AcDbEntity
  8
0
 62
256
370
13
 48
1.0
  6
BYLAYER
100
AcDbLine
 10
480.6000000000000227
 20
-0.0000000000000036
 30
0.0
 11
473.0
 21
0.0
 31
0.0
  0
LINE
  5
97
100
AcDbEntity
  8
0
 62
256
370
13
 48
1.0
  6
BYLAYER
100
AcDbLine
 10
291.6000000000000227
 20
0.0
 30
0.0
 11
284.0
 21
0.0
 31
0.0
  0
LINE
  5
98
100
AcDbEntity
  8
0
 62
256
370
13
 48
1.0
  6
BYLAYER
100
AcDbLine
 10
354.6000000000000227
 20
0.0
 30
0.0
 11
347.0
 21
0.0
 31
0.0
  0
LINE
  5
99
100
AcDbEntity
  8
0
 62
256
370
13
 48
1.0
  6
BYLAYER
100
AcDbLine
 10
165.5999999999999943
 20
0.0
 30
0.0
 11
158.0
 21
0.0
 31
0.0
  0
LINE
  5
9A
100
AcDbEntity
  8
0
 62
256
370
13
 48
1.0
  6
BYLAYER
100
AcDbLine
 10
228.5999999999999943
 20
0.0
 30
0.0
 11
221.0
 21
0.0
 31
0.0
  0
LINE
  5
9B
100
AcDbEntity
  8
0
 62
256
370
13
 48
1.0
  6
BYLAYER
100
AcDbLine
 10
22.6000000000000156
 20
0.0000000000000107
 30
0.0
 11
14.8999999999999986
 21
0.0000000000000036
 31
0.0
  0
LINE
  5
9C
100
AcDbEntity
  8
0
 62
256
370
13
 48
1.0
  6
BYLAYER
100
AcDbLine
 10
85.6000000000000227
 20
0.0000000000000107
 30
0.0
 11
77.9000000000000057
 21
0.0000000000000036
 31
0.0
  0
LINE
  5
9D
100
AcDbEntity
  8
0
 62
256
370
13
 48
1.0
  6
BYLAYER
100
AcDbLine
 10
400.6000000000000227
 20
0.0000000000000071
 30
0.0
 11
392.8999999999999773
 21
0.0
 31
0.0
  0
LINE
  5
9E
100
AcDbEntity
  8
0
 62
256
370
13
 48
1.0
  6
BYLAYER
100
AcDbLine
 10
463.6000000000000227
 20
0.0000000000000071
 30
0.0
 11
455.8999999999999773
 21
0.0
 31
0.0
  0
LINE
  5
9F
100
AcDbEntity
  8
0
 62
256
370
13
 48
1.0
  6
BYLAYER
100
AcDbLine
 10
274.6000000000000227
 20
0.0000000000000071
 30
0.0
 11
266.8999999999999773
 21
0.0
 31
0.0
  0
LINE
  5
A0
100
AcDbEntity
  8
0
 62
256
370
13
 48
1.0
  6
BYLAYER
100
AcDbLine
 10
337.6000000000000227
 20
0.0000000000000071
 30
0.0
 11
329.8999999999999773
 21
0.0
 31
0.0
  0
LINE
  5
A1
100
AcDbEntity
  8
0
 62
256
370
13
 48
1.0
  6
BYLAYER
100
AcDbLine
 10
148.6000000000000227
 20
0.0
 30
0.0
 11
140.9000000000000057
 21
0.0
 31
0.0
  0
LINE
  5
A2
100
AcDbEntity
  8
0
 62
256
370
13
 48
1.0
  6
BYLAYER
100
AcDbLine
 10
211.6000000000000227
 20
0.0
 30
0.0
 11
203.9000000000000057
 21
0.0
 31
0.0
  0
LINE
  5
A3
100
AcDbEntity
  8
0
 62
256
370
13
 48
1.0
  6
BYLAYER
100
AcDbLine
 10
54.6000000000000298
 20
0.0000000000000089
 30
0.0
 11
46.9000000000000057
 21
0.0000000000000018
 31
0.0
  0
LINE
  5
A4
100
AcDbEntity
  8
0
 62
256
370
13
 48
1.0
  6
BYLAYER
100
AcDbLine
 10
117.6000000000000227
 20
0.0000000000000089
 30
0.0
 11
109.9000000000000057
 21
0.0000000000000018
 31
0.0
  0
LINE
  5
A5
100
AcDbEntity
  8
0
 62
256
370
13
 48
1.0
  6
BYLAYER
100
AcDbLine
 10
432.6000000000000227
 20
0.0000000000000036
 30
0.0
 11
424.8999999999999773
 21
-0.0000000000000036
 31
0.0
  0
LINE
  5
A6
100
AcDbEntity
  8
0
 62
256
370
13
 48
1.0
  6
BYLAYER
100
AcDbLine
 10
495.6000000000000227
 20
0.0000000000000036
 30
0.0
 11
487.8999999999999773
 21
-0.0000000000000036
 31
0.0
  0
LINE
  5
A7
100
AcDbEntity
  8
0
 62
256
370
13
 48
1.0
  6
BYLAYER
100
AcDbLine
 10
306.6000000000000227
 20
0.0
 30
0.0
 11
298.8999999999999773
 21
0.0
 31
0.0
  0
LINE
  5
A8
100
AcDbEntity
  8
0
 62
256
370
13
 48
1.0
  6
BYLAYER
100
AcDbLine
 10
369.6000000000000227
 20
0.0
 30
0.0
 11
361.8999999999999773
 21
0.0
 31
0.0
  0
LINE
  5
A9
100
AcDbEntity
  8
0
 62
256
370
13
 48
1.0
  6
BYLAYER
100
AcDbLine
 10
180.6000000000000227
 20
0.0
 30
0.0
 11
172.9000000000000057
 21
0.0
 31
0.0
  0
LINE
  5
AA
100
AcDbEntity
  8
0
 62
256
370
13
 48
1.0
  6
BYLAYER
100
AcDbLine
 10
243.6000000000000227
 20
0.0
 30
0.0
 11
235.9000000000000057
 21
0.0
 31
0.0
  0
LINE
  5
AB
100
AcDbEntity
  8
0
 62
256
370
13
 48
1.0
  6
BYLAYER
100
AcDbLine
 10
7.6000000000000085
 20
30.0000000000000036
 30
0.0
 11
0.0000000000000071
 21
30.0000000000000036
 31
0.0
  0
LINE
  5
AC
100
AcDbEntity
  8
0
 62
256
370
13
 48
1.0
  6
BYLAYER
100
AcDbLine
 10
70.6000000000000085
 20
30.0000000000000036
 30
0.0
 11
63.0000000000000071
 21
30.0000000000000036
 31
0.0
  0
LINE
  5
AD
100
AcDbEntity
  8
0
 62
256
370
13
 48
1.0
  6
BYLAYER
100
AcDbLine
 10
385.6000000000000227
 20
30.0000000000000036
 30
0.0
 11
378.0
 21
30.0000000000000036
 31
0.0
  0
LINE
  5
AE
100
AcDbEntity
  8
0
 62
256
370
13
 48
1.0
  6
BYLAYER
100
AcDbLine
 10
448.6000000000000227
 20
30.0000000000000036
 30
0.0
 11
441.0
 21
30.0000000000000036
 31
0.0
  0
LINE
  5
AF
100
AcDbEntity
  8
0
 62
256
370
13
 48
1.0
  6
BYLAYER
100
AcDbLine
 10
259.6000000000000227
 20
30.0
 30
0.0
 11
252.0
 21
30.0
 31
0.0
  0
LINE
  5
B0
100
AcDbEntity
  8
0
 62
256
370
13
 48
1.0
  6
BYLAYER
100
AcDbLine
 10
322.6000000000000227
 20
30.0
 30
0.0
 11
315.0
 21
30.0
 31
0.0
  0
LINE
  5
B1
100
AcDbEntity
  8
0
 62
256
370
13
 48
1.0
  6
BYLAYER
100
AcDbLine
 10
133.6000000000000227
 20
30.0
 30
0.0
 11
126.0
 21
30.0
 31
0.0
  0
LINE
  5
B2
100
AcDbEntity
  8
0
 62
256
370
13
 48
1.0
  6
BYLAYER
100
AcDbLine
 10
196.6000000000000227
 20
30.0
 30
0.0
 11
189.0
 21
30.0
 31
0.0
  0
LINE
  5
B3
100
AcDbEntity
  8
0
 62
256
370
13
 48
1.0
  6
BYLAYER
100
AcDbLine
 10
39.6000000000000156
 20
30.0000000000000036
 30
0.0
 11
32.0000000000000142
 21
30.0000000000000036
 31
0.0
  0
LINE
  5
B4
100
AcDbEntity
  8
0
 62
256
370
13
 48
1.0
  6
BYLAYER
100
AcDbLine
 10
102.6000000000000227
 20
30.0000000000000036
 30
0.0
 11
95.0000000000000142
 21
30.0000000000000036
 31
0.0
  0
LINE
  5
B5
100
AcDbEntity
  8
0
 62
256
370
13
 48
1.0
  6
BYLAYER
100
AcDbLine
 10
417.6000000000000227
 20
30.0000000000000036
 30
0.0
 11
410.0
 21
30.0000000000000036
 31
0.0
  0
LINE
  5
B6
100
AcDbEntity
  8
0
 62
256
370
13
 48
1.0
  6
BYLAYER
100
AcDbLine
 10
480.6000000000000227
 20
30.0000000000000036
 30
0.0
 11
473.0
 21
30.0000000000000036
 31
0.0
  0
LINE
  5
B7
100
AcDbEntity
  8
0
 62
256
370
13
 48
1.0
  6
BYLAYER
100
AcDbLine
 10
291.6000000000000227
 20
30.0
 30
0.0
 11
284.0
 21
30.0
 31
0.0
  0
LINE
  5
B8
100
AcDbEntity
  8
0
 62
256
370
13
 48
1.0
  6
BYLAYER
100
AcDbLine
 10
354.6000000000000227
 20
30.0
 30
0.0
 11
347.0
 21
30.0
 31
0.0
  0
LINE
  5
B9
100
AcDbEntity
  8
0
 62
256
370
13
 48
1.0
  6
BYLAYER
100
AcDbLine
 10
165.6000000000000227
 20
30.0
 30
0.0
 11
158.0
 21
30.0
 31
0.0
  0
LINE
  5
BA
100
AcDbEntity
  8
0
 62
256
370
13
 48
1.0
  6
BYLAYER
100
AcDbLine
 10
228.6000000000000227
 20
30.0
 30
0.0
 11
221.0
 21
30.0
 31
0.0
  0
LINE
  5
BB
100
AcDbEntity
  8
0
 62
256
370
13
 48
1.0
  6
BYLAYER
100
AcDbLine
 10
22.6000000000000085
 20
30.0000000000000036
 30
0.0
 11
14.9000000000000057
 21
30.0000000000000036
 31
0.0
  0
LINE
  5
BC
100
AcDbEntity
  8
0
 62
256
370
13
 48
1.0
  6
BYLAYER
100
AcDbLine
 10
85.6000000000000085
 20
30.0000000000000036
 30
0.0
 11
77.9000000000000057
 21
30.0000000000000036
 31
0.0
  0
LINE
  5
BD
100
AcDbEntity
  8
0
 62
256
370
13
 48
1.0
  6
BYLAYER
100
AcDbLine
 10
400.6000000000000227
 20
30.0000000000000036
 30
0.0
 11
392.8999999999999773
 21
30.0000000000000036
 31
0.0
  0
LINE
  5
BE
100
AcDbEntity
  8
0
 62
256
370
13
 48
1.0
  6
BYLAYER
100
AcDbLine
 10
463.6000000000000227
 20
30.0000000000000036
 30
0.0
 11
455.8999999999999773
 21
30.0000000000000036
 31
0.0
  0
LINE
  5
BF
100
AcDbEntity
  8
0
 62
256
370
13
 48
1.0
  6
BYLAYER
100
AcDbLine
 10
274.6000000000000227
 20
30.0
 30
0.0
 11
266.8999999999999773
 21
30.0
 31
0.0
  0
LINE
  5
C0
100
AcDbEntity
  8
0
 62
256
370
13
 48
1.0
  6
BYLAYER
100
AcDbLine
 10
337.6000000000000227
 20
30.0
 30
0.0
 11
329.8999999999999773
 21
30.0
 31
0.0
  0
LINE
  5
C1
100
AcDbEntity
  8
0
 62
256
370
13
 48
1.0
  6
BYLAYER
100
AcDbLine
 10
148.6000000000000227
 20
30.0
 30
0.0
 11
140.9000000000000057
 21
30.0
 31
0.0
  0
LINE
  5
C2
100
AcDbEntity
  8
0
 62
256
370
13
 48
1.0
  6
BYLAYER
100
AcDbLine
 10
211.6000000000000227
 20
30.0
 30
0.0
 11
203.9000000000000057
 21
30.0
 31
0.0
  0
LINE
  5
C3
100
AcDbEntity
  8
0
 62
256
370
13
 48
1.0
  6
BYLAYER
100
AcDbLine
 10
54.6000000000000156
 20
30.0000000000000036
 30
0.0
 11
46.9000000000000128
 21
30.0000000000000036
 31
0.0
  0
LINE
  5
C4
100
AcDbEntity
  8
0
 62
256
370
13
 48
1.0
  6
BYLAYER
100
AcDbLine
 10
117.6000000000000227
 20
30.0000000000000036
 30
0.0
 11
109.9000000000000057
 21
30.0000000000000036
 31
0.0
  0
LINE
  5
C5
100
AcDbEntity
  8
0
 62
256
370
13
 48
1.0
  6
BYLAYER
100
AcDbLine
 10
432.6000000000000227
 20
30.0000000000000036
 30
0.0
 11
424.9000000000000341
 21
30.0000000000000036
 31
0.0
  0
LINE
  5
C6
100
AcDbEntity
  8
0
 62
256
370
13
 48
1.0
  6
BYLAYER
100
AcDbLine
 10
495.6000000000000227
 20
30.0000000000000036
 30
0.0
 11
487.8999999999999773
 21
30.0000000000000036
 31
0.0
  0
LINE
  5
C7
100
AcDbEntity
  8
0
 62
256
370
13
 48
1.0
  6
BYLAYER
100
AcDbLine
 10
306.6000000000000227
 20
30.0
 30
0.0
 11
298.9000000000000341
 21
30.0
 31
0.0
  0
LINE
  5
C8
100
AcDbEntity
  8
0
 62
256
370
13
 48
1.0
  6
BYLAYER
100
AcDbLine
 10
369.6000000000000227
 20
30.0
 30
0.0
 11
361.8999999999999773
 21
30.0
 31
0.0
  0
LINE
  5
C9
100
AcDbEntity
  8
0
 62
256
370
13
 48
1.0
  6
BYLAYER
100
AcDbLine
 10
180.6000000000000227
 20
30.0
 30
0.0
 11
172.9000000000000057
 21
30.0
 31
0.0
  0
LINE
  5
CA
100
AcDbEntity
  8
0
 62
256
370
13
 48
1.0
  6
BYLAYER
100
AcDbLine
 10
243.6000000000000227
 20
30.0
 30
0.0
 11
235.9000000000000057
 21
30.0
 31
0.0
  0
LINE
  5
CB
100
AcDbEntity
  8
0
 62
256
370
13
 48
1.0
  6
BYLAYER
100
AcDbLine
 10
0.0
 20
7.4000000000000021
 30
0.0
 11
0.0
 21
15.100000000000005
 31
0.0
  0
LINE
  5
CC
100
AcDbEntity
  8
0
 62
256
370
13
 48
1.0
  6
BYLAYER
100
AcDbLine
 10
63.0
 20
7.4000000000000021
 30
0.0
 11
63.0
 21
15.100000000000005
 31
0.0
  0
LINE
  5
CD
100
AcDbEntity
  8
0
 62
256
370
13
 48
1.0
  6
BYLAYER
100
AcDbLine
 10
378.0
 20
7.399999999999995
 30
0.0
 11
378.0
 21
15.0999999999999979
 31
0.0
  0
LINE
  5
CE
100
AcDbEntity
  8
0
 62
256
370
13
 48
1.0
  6
BYLAYER
100
AcDbLine
 10
441.0
 20
7.399999999999995
 30
0.0
 11
441.0
 21
15.0999999999999979
 31
0.0
  0
LINE
  5
CF
100
AcDbEntity
  8
0
 62
256
370
13
 48
1.0
  6
BYLAYER
100
AcDbLine
 10
252.0
 20
7.3999999999999915
 30
0.0
 11
252.0
 21
15.0999999999999943
 31
0.0
  0
LINE
  5
D0
100
AcDbEntity
  8
0
 62
256
370
13
 48
1.0
  6
BYLAYER
100
AcDbLine
 10
315.0
 20
7.3999999999999915
 30
0.0
 11
315.0
 21
15.0999999999999943
 31
0.0
  0
LINE
  5
D1
100
AcDbEntity
  8
0
 62
256
370
13
 48
1.0
  6
BYLAYER
100
AcDbLine
 10
126.0
 20
7.3999999999999915
 30
0.0
 11
126.0
 21
15.0999999999999943
 31
0.0
  0
LINE
  5
D2
100
AcDbEntity
  8
0
 62
256
370
13
 48
1.0
  6
BYLAYER
100
AcDbLine
 10
189.0
 20
7.3999999999999915
 30
0.0
 11
189.0
 21
15.0999999999999943
 31
0.0
  0
LINE
  5
D3
100
AcDbEntity
  8
0
 62
256
370
13
 48
1.0
  6
BYLAYER
100
AcDbLine
 10
32.0000000000000071
 20
7.4000000000000021
 30
0.0
 11
32.0000000000000071
 21
15.100000000000005
 31
0.0
  0
LINE
  5
D4
100
AcDbEntity
  8
0
 62
256
370
13
 48
1.0
  6
BYLAYER
100
AcDbLine
 10
95.0
 20
7.4000000000000021
 30
0.0
 11
95.0
 21
15.100000000000005
 31
0.0
  0
LINE
  5
D5
100
AcDbEntity
  8
0
 62
256
370
13
 48
1.0
  6
BYLAYER
100
AcDbLine
 10
410.0
 20
7.399999999999995
 30
0.0
 11
410.0
 21
15.0999999999999979
 31
0.0
  0
LINE
  5
D6
100
AcDbEntity
  8
0
 62
256
370
13
 48
1.0
  6
BYLAYER
100
AcDbLine
 10
473.0
 20
7.399999999999995
 30
0.0
 11
473.0
 21
15.0999999999999979
 31
0.0
  0
LINE
  5
D7
100
AcDbEntity
  8
0
 62
256
370
13
 48
1.0
  6
BYLAYER
100
AcDbLine
 10
284.0
 20
7.3999999999999915
 30
0.0
 11
284.0
 21
15.0999999999999943
 31
0.0
  0
LINE
  5
D8
100
AcDbEntity
  8
0
 62
256
370
13
 48
1.0
  6
BYLAYER
100
AcDbLine
 10
347.0
 20
7.3999999999999915
 30
0.0
 11
347.0
 21
15.0999999999999943
 31
0.0
  0
LINE
  5
D9
100
AcDbEntity
  8
0
 62
256
370
13
 48
1.0
  6
BYLAYER
100
AcDbLine
 10
158.0
 20
7.3999999999999915
 30
0.0
 11
158.0
 21
15.0999999999999943
 31
0.0
  0
LINE
  5
DA
100
AcDbEntity
  8
0
 62
256
370
13
 48
1.0
  6
BYLAYER
100
AcDbLine
 10
221.0
 20
7.3999999999999915
 30
0.0
 11
221.0
 21
15.0999999999999943
 31
0.0
  0
LINE
  5
DB
100
AcDbEntity
  8
0
 62
256
370
13
 48
1.0
  6
BYLAYER
100
AcDbLine
 10
0.0000000000000036
 20
22.4000000000000021
 30
0.0
 11
0.0000000000000071
 21
30.0000000000000036
 31
0.0
  0
LINE
  5
DC
100
AcDbEntity
  8
0
 62
256
370
13
 48
1.0
  6
BYLAYER
100
AcDbLine
 10
63.0
 20
22.4000000000000021
 30
0.0
 11
63.0000000000000071
 21
30.0000000000000036
 31
0.0
  0
LINE
  5
DD
100
AcDbEntity
  8
0
 62
256
370
13
 48
1.0
  6
BYLAYER
100
AcDbLine
 10
378.0
 20
22.399999999999995
 30
0.0
 11
378.0
 21
30.0000000000000036
 31
0.0
  0
LINE
  5
DE
100
AcDbEntity
  8
0
 62
256
370
13
 48
1.0
  6
BYLAYER
100
AcDbLine
 10
441.0
 20
22.399999999999995
 30
0.0
 11
441.0
 21
30.0000000000000036
 31
0.0
  0
LINE
  5
DF
100
AcDbEntity
  8
0
 62
256
370
13
 48
1.0
  6
BYLAYER
100
AcDbLine
 10
252.0
 20
22.3999999999999915
 30
0.0
 11
252.0
 21
30.0
 31
0.0
  0
LINE
  5
E0
100
AcDbEntity
  8
0
 62
256
370
13
 48
1.0
  6
BYLAYER
100
AcDbLine
 10
315.0
 20
22.3999999999999915
 30
0.0
 11
315.0
 21
30.0
 31
0.0
  0
LINE
  5
E1
100
AcDbEntity
  8
0
 62
256
370
13
 48
1.0
  6
BYLAYER
100
AcDbLine
 10
126.0
 20
22.3999999999999915
 30
0.0
 11
126.0
 21
30.0
 31
0.0
  0
LINE
  5
E2
100
AcDbEntity
  8
0
 62
256
370
13
 48
1.0
  6
BYLAYER
100
AcDbLine
 10
189.0
 20
22.3999999999999915
 30
0.0
 11
189.0
 21
30.0
 31
0.0
  0
LINE
  5
E3
100
AcDbEntity
  8
0
 62
256
370
13
 48
1.0
  6
BYLAYER
100
AcDbLine
 10
32.0000000000000071
 20
22.4000000000000021
 30
0.0
 11
32.0000000000000142
 21
30.0000000000000036
 31
0.0
  0
LINE
  5
E4
100
AcDbEntity
  8
0
 62
256
370
13
 48
1.0
  6
BYLAYER
100
AcDbLine
 10
95.0
 20
22.4000000000000021
 30
0.0
 11
95.0000000000000142
 21
30.0000000000000036
 31
0.0
  0
LINE
  5
E5
100
AcDbEntity
  8
0
 62
256
370
13
 48
1.0
  6
BYLAYER
100
AcDbLine
 10
410.0
 20
22.399999999999995
 30
0.0
 11
410.0
 21
30.0000000000000036
 31
0.0
  0
LINE
  5
E6
100
AcDbEntity
  8
0
 62
256
370
13
 48
1.0
  6
BYLAYER
100
AcDbLine
 10
473.0
 20
22.399999999999995
 30
0.0
 11
473.0
 21
30.0000000000000036
 31
0.0
  0
LINE
  5
E7
100
AcDbEntity
  8
0
 62
256
370
13
 48
1.0
  6
BYLAYER
100
AcDbLine
 10
284.0
 20
22.3999999999999915
 30
0.0
 11
284.0
 21
30.0
 31
0.0
  0
LINE
  5
E8
100
AcDbEntity
  8
0
 62
256
370
13
 48
1.0
  6
BYLAYER
100
AcDbLine
 10
347.0
 20
22.3999999999999915
 30
0.0
 11
347.0
 21
30.0
 31
0.0
  0
LINE
  5
E9
100
AcDbEntity
  8
0
 62
256
370
13
 48
1.0
  6
BYLAYER
100
AcDbLine
 10
158.0
 20
22.3999999999999915
 30
0.0
 11
158.0
 21
30.0
 31
0.0
  0
LINE
  5
EA
100
AcDbEntity
  8
0
 62
256
370
13
 48
1.0
  6
BYLAYER
100
AcDbLine
 10
221.0
 20
22.3999999999999915
 30
0.0
 11
221.0
 21
30.0
 31
0.0
  0
MTEXT
  5
EB
100
AcDbEntity
  8
text
 62
256
370
-1
 48
1.0
  6
BYLAYER
100
AcDbMText
 10
15.0000000000000071
 20
15.0000000000000018
 30
0.0
 40
5.0
 41
0.0
 71
5
 72
1
  1
ClasseLab
  7
textstyle0
 50
315.0
 73
2
 44
1.0
  0
MTEXT
  5
EC
100
AcDbEntity
  8
text
 62
256
370
-1
 48
1.0
  6
BYLAYER
100
AcDbMText
 10
78.0
 20
15.0000000000000018
 30
0.0
 40
5.0
 41
0.0
 71
5
 72
1
  1
ClasseLab
  7
textstyle1
 50
315.0
 73
2
 44
1.0
  0
MTEXT
  5
ED
100
AcDbEntity
  8
text
 62
256
370
-1
 48
1.0
  6
BYLAYER
100
AcDbMText
 10
393.0
 20
14.9999999999999964
 30
0.0
 40
5.0
 41
0.0
 71
5
 72
1
  1
ClasseLab
  7
textstyle2
 50
315.0
 73
2
 44
1.0
  0
MTEXT
  5
EE
100
AcDbEntity
  8
text
 62
256
370
-1
 48
1.0
  6
BYLAYER
100
AcDbMText
 10
456.0
 20
14.9999999999999538
 30
0.0
 40
5.0
 41
0.0
 71
5
 72
1
  1
ClasseLab
  7
textstyle3
 50
315.0
 73
2
 44
1.0
  0
MTEXT
  5
EF
100
AcDbEntity
  8
text
 62
256
370
-1
 48
1.0
  6
BYLAYER
100
AcDbMText
 10
267.0
 20
14.9999999999999858
 30
0.0
 40
5.0
 41
0.0
 71
5
 72
1
  1
ClasseLab
  7
textstyle4
 50
315.0
 73
2
 44
1.0
  0
MTEXT
  5
F0
100
AcDbEntity
  8
text
 62
256
370
-1
 48
1.0
  6
BYLAYER
100
AcDbMText
 10
330.0
 20
14.9999999999999574
 30
0.0
 40
5.0
 41
0.0
 71
5
 72
1
  1
ClasseLab
  7
textstyle5
 50
315.0
 73
2
 44
1.0
  0
MTEXT
  5
F1
100
AcDbEntity
  8
text
 62
256
370
-1
 48
1.0
  6
BYLAYER
100
AcDbMText
 10
141.0000000000000284
 20
14.9999999999999716
 30
0.0
 40
6.0
 41
0.0
 71
5
 72
1
  1
J\U+00e9r\U+00f4me
  7
textstyle6
 50
315.0
 73
2
 44
1.0
  0
MTEXT
  5
F2
100
AcDbEntity
  8
text
 62
256
370
-1
 48
1.0
  6
BYLAYER
100
AcDbMText
 10
204.0
 20
14.9999999999999574
 30
0.0
 40
6.0
 41
0.0
 71
5
 72
1
  1
Gilles
  7
textstyle7
 50
315.0
 73
2
 44
1.0
  0
LINE
  5
F3
100
AcDbEntity
  8
0
 62
256
370
13
 48
1.0
  6
BYLAYER
100
AcDbLine
 10
14.9000000000000057
 20
27.5000000000000036
 30
0.0
 11
7.600000000000005
 21
27.5000000000000036
 31
0.0
  0
LINE
  5
F4
100
AcDbEntity
  8
0
 62
256
370
13
 48
1.0
  6
BYLAYER
100
AcDbLine
 10
77.9000000000000057
 20
27.5000000000000036
 30
0.0
 11
70.6000000000000085
 21
27.5000000000000036
 31
0.0
  0
LINE
  5
F5
100
AcDbEntity
  8
0
 62
256
370
13
 48
1.0
  6
BYLAYER
100
AcDbLine
 10
392.8999999999999773
 20
27.5000000000000036
 30
0.0
 11
385.6000000000000227
 21
27.5000000000000036
 31
0.0
  0
LINE
  5
F6
100
AcDbEntity
  8
0
 62
256
370
13
 48
1.0
  6
BYLAYER
100
AcDbLine
 10
455.8999999999999773
 20
27.5000000000000036
 30
0.0
 11
448.6000000000000227
 21
27.5000000000000036
 31
0.0
  0
LINE
  5
F7
100
AcDbEntity
  8
0
 62
256
370
13
 48
1.0
  6
BYLAYER
100
AcDbLine
 10
266.8999999999999773
 20
27.5
 30
0.0
 11
259.6000000000000227
 21
27.5
 31
0.0
  0
LINE
  5
F8
100
AcDbEntity
  8
0
 62
256
370
13
 48
1.0
  6
BYLAYER
100
AcDbLine
 10
329.8999999999999773
 20
27.5
 30
0.0
 11
322.6000000000000227
 21
27.5
 31
0.0
  0
LINE
  5
F9
100
AcDbEntity
  8
0
 62
256
370
13
 48
1.0
  6
BYLAYER
100
AcDbLine
 10
140.9000000000000057
 20
27.5
 30
0.0
 11
133.5999999999999943
 21
27.5
 31
0.0
  0
LINE
  5
FA
100
AcDbEntity
  8
0
 62
256
370
13
 48
1.0
  6
BYLAYER
100
AcDbLine
 10
203.9000000000000057
 20
27.5
 30
0.0
 11
196.6000000000000227
 21
27.5
 31
0.0
  0
LINE
  5
FB
100
AcDbEntity
  8
0
 62
256
370
13
 48
1.0
  6
BYLAYER
100
AcDbLine
 10
46.9000000000000128
 20
27.5000000000000036
 30
0.0
 11
39.6000000000000156
 21
27.5000000000000036
 31
0.0
  0
LINE
  5
FC
100
AcDbEntity
  8
0
 62
256
370
13
 48
1.0
  6
BYLAYER
100
AcDbLine
 10
109.9000000000000057
 20
27.5000000000000036
 30
0.0
 11
102.6000000000000227
 21
27.5000000000000036
 31
0.0
  0
LINE
  5
FD
100
AcDbEntity
  8
0
 62
256
370
13
 48
1.0
  6
BYLAYER
100
AcDbLine
 10
424.9000000000000341
 20
27.5000000000000036
 30
0.0
 11
417.6000000000000227
 21
27.5000000000000036
 31
0.0
  0
LINE
  5
FE
100
AcDbEntity
  8
0
 62
256
370
13
 48
1.0
  6
BYLAYER
100
AcDbLine
 10
487.8999999999999773
 20
27.5000000000000036
 30
0.0
 11
480.6000000000000227
 21
27.5000000000000036
 31
0.0
  0
LINE
  5
FF
100
AcDbEntity
  8
0
 62
256
370
13
 48
1.0
  6
BYLAYER
100
AcDbLine
 10
298.9000000000000341
 20
27.5
 30
0.0
 11
291.6000000000000227
 21
27.5
 31
0.0
  0
LINE
  5
100
100
AcDbEntity
  8
0
 62
256
370
13
 48
1.0
  6
BYLAYER
100
AcDbLine
 10
361.8999999999999773
 20
27.5
 30
0.0
 11
354.6000000000000227
 21
27.5
 31
0.0
  0
LINE
  5
101
100
AcDbEntity
  8
0
 62
256
370
13
 48
1.0
  6
BYLAYER
100
AcDbLine
 10
172.9000000000000057
 20
27.5
 30
0.0
 11
165.6000000000000227
 21
27.5
 31
0.0
  0
LINE
  5
102
100
AcDbEntity
  8
0
 62
256
370
13
 48
1.0
  6
BYLAYER
100
AcDbLine
 10
235.9000000000000057
 20
27.5
 30
0.0
 11
228.6000000000000227
 21
27.5
 31
0.0
  0
LINE
  5
103
100
AcDbEntity
  8
0
 62
256
370
13
 48
1.0
  6
BYLAYER
100
AcDbLine
 10
2.5000000000000071
 20
15.100000000000005
 30
0.0
 11
2.5000000000000036
 21
22.4000000000000092
 31
0.0
  0
LINE
  5
104
100
AcDbEntity
  8
0
 62
256
370
13
 48
1.0
  6
BYLAYER
100
AcDbLine
 10
65.5
 20
15.100000000000005
 30
0.0
 11
65.5
 21
22.4000000000000092
 31
0.0
  0
LINE
  5
105
100
AcDbEntity
  8
0
 62
256
370
13
 48
1.0
  6
BYLAYER
100
AcDbLine
 10
380.5
 20
15.0999999999999979
 30
0.0
 11
380.5
 21
22.4000000000000092
 31
0.0
  0
LINE
  5
106
100
AcDbEntity
  8
0
 62
256
370
13
 48
1.0
  6
BYLAYER
100
AcDbLine
 10
443.5
 20
15.0999999999999979
 30
0.0
 11
443.5
 21
22.4000000000000092
 31
0.0
  0
LINE
  5
107
100
AcDbEntity
  8
0
 62
256
370
13
 48
1.0
  6
BYLAYER
100
AcDbLine
 10
254.5
 20
15.0999999999999943
 30
0.0
 11
254.5
 21
22.4000000000000057
 31
0.0
  0
LINE
  5
108
100
AcDbEntity
  8
0
 62
256
370
13
 48
1.0
  6
BYLAYER
100
AcDbLine
 10
317.5
 20
15.0999999999999943
 30
0.0
 11
317.5
 21
22.4000000000000057
 31
0.0
  0
LINE
  5
109
100
AcDbEntity
  8
0
 62
256
370
13
 48
1.0
  6
BYLAYER
100
AcDbLine
 10
128.5
 20
15.0999999999999943
 30
0.0
 11
128.5
 21
22.4000000000000057
 31
0.0
  0
LINE
  5
10A
100
AcDbEntity
  8
0
 62
256
370
13
 48
1.0
  6
BYLAYER
100
AcDbLine
 10
191.5
 20
15.0999999999999943
 30
0.0
 11
191.5
 21
22.4000000000000057
 31
0.0
  0
LINE
  5
10B
100
AcDbEntity
  8
0
 62
256
370
13
 48
1.0
  6
BYLAYER
100
AcDbLine
 10
34.5000000000000142
 20
15.100000000000005
 30
0.0
 11
34.5000000000000071
 21
22.4000000000000092
 31
0.0
  0
LINE
  5
10C
100
AcDbEntity
  8
0
 62
256
370
13
 48
1.0
  6
BYLAYER
100
AcDbLine
 10
97.5000000000000142
 20
15.100000000000005
 30
0.0
 11
97.5
 21
22.4000000000000092
 31
0.0
  0
LINE
  5
10D
100
AcDbEntity
  8
0
 62
256
370
13
 48
1.0
  6
BYLAYER
100
AcDbLine
 10
412.5
 20
15.0999999999999979
 30
0.0
 11
412.5
 21
22.4000000000000092
 31
0.0
  0
LINE
  5
10E
100
AcDbEntity
  8
0
 62
256
370
13
 48
1.0
  6
BYLAYER
100
AcDbLine
 10
475.5
 20
15.0999999999999979
 30
0.0
 11
475.5
 21
22.4000000000000092
 31
0.0
  0
LINE
  5
10F
100
AcDbEntity
  8
0
 62
256
370
13
 48
1.0
  6
BYLAYER
100
AcDbLine
 10
286.5
 20
15.0999999999999943
 30
0.0
 11
286.5
 21
22.4000000000000057
 31
0.0
  0
LINE
  5
110
100
AcDbEntity
  8
0
 62
256
370
13
 48
1.0
  6
BYLAYER
100
AcDbLine
 10
349.5
 20
15.0999999999999943
 30
0.0
 11
349.5
 21
22.4000000000000057
 31
0.0
  0
LINE
  5
111
100
AcDbEntity
  8
0
 62
256
370
13
 48
1.0
  6
BYLAYER
100
AcDbLine
 10
160.5
 20
15.0999999999999943
 30
0.0
 11
160.5
 21
22.4000000000000057
 31
0.0
  0
LINE
  5
112
100
AcDbEntity
  8
0
 62
256
370
13
 48
1.0
  6
BYLAYER
100
AcDbLine
 10
223.5
 20
15.0999999999999943
 30
0.0
 11
223.5
 21
22.4000000000000057
 31
0.0
  0
LINE
  5
113
100
AcDbEntity
  8
0
 62
256
370
13
 48
1.0
  6
BYLAYER
100
AcDbLine
 10
30.0000000000000071
 20
27.5000000000000036
 30
0.0
 11
22.6000000000000085
 21
27.5000000000000036
 31
0.0
  0
LINE
  5
114
100
AcDbEntity
  8
0
 62
256
370
13
 48
1.0
  6
BYLAYER
100
AcDbLine
 10
93.0
 20
27.5000000000000036
 30
0.0
 11
85.6000000000000085
 21
27.5000000000000036
 31
0.0
  0
LINE
  5
115
100
AcDbEntity
  8
0
 62
256
370
13
 48
1.0
  6
BYLAYER
100
AcDbLine
 10
408.0
 20
27.5000000000000036
 30
0.0
 11
400.6000000000000227
 21
27.5000000000000036
 31
0.0
  0
LINE
  5
116
100
AcDbEntity
  8
0
 62
256
370
13
 48
1.0
  6
BYLAYER
100
AcDbLine
 10
471.0
 20
27.5000000000000036
 30
0.0
 11
463.6000000000000227
 21
27.5000000000000036
 31
0.0
  0
LINE
  5
117
100
AcDbEntity
  8
0
 62
256
370
13
 48
1.0
  6
BYLAYER
100
AcDbLine
 10
282.0
 20
27.5
 30
0.0
 11
274.6000000000000227
 21
27.5
 31
0.0
  0
LINE
  5
118
100
AcDbEntity
  8
0
 62
256
370
13
 48
1.0
  6
BYLAYER
100
AcDbLine
 10
345.0
 20
27.5
 30
0.0
 11
337.6000000000000227
 21
27.5
 31
0.0
  0
LINE
  5
119
100
AcDbEntity
  8
0
 62
256
370
13
 48
1.0
  6
BYLAYER
100
AcDbLine
 10
156.0
 20
27.5
 30
0.0
 11
148.6000000000000227
 21
27.5
 31
0.0
  0
LINE
  5
11A
100
AcDbEntity
  8
0
 62
256
370
13
 48
1.0
  6
BYLAYER
100
AcDbLine
 10
219.0
 20
27.5
 30
0.0
 11
211.6000000000000227
 21
27.5
 31
0.0
  0
LINE
  5
11B
100
AcDbEntity
  8
0
 62
256
370
13
 48
1.0
  6
BYLAYER
100
AcDbLine
 10
62.0000000000000071
 20
27.5000000000000036
 30
0.0
 11
54.6000000000000156
 21
27.5000000000000036
 31
0.0
  0
LINE
  5
11C
100
AcDbEntity
  8
0
 62
256
370
13
 48
1.0
  6
BYLAYER
100
AcDbLine
 10
125.0
 20
27.5000000000000036
 30
0.0
 11
117.6000000000000227
 21
27.5000000000000036
 31
0.0
  0
LINE
  5
11D
100
AcDbEntity
  8
0
 62
256
370
13
 48
1.0
  6
BYLAYER
100
AcDbLine
 10
440.0
 20
27.5000000000000036
 30
0.0
 11
432.6000000000000227
 21
27.5000000000000036
 31
0.0
  0
LINE
  5
11E
100
AcDbEntity
  8
0
 62
256
370
13
 48
1.0
  6
BYLAYER
100
AcDbLine
 10
503.0
 20
27.5000000000000036
 30
0.0
 11
495.6000000000000227
 21
27.5000000000000036
 31
0.0
  0
LINE
  5
11F
100
AcDbEntity
  8
0
 62
256
370
13
 48
1.0
  6
BYLAYER
100
AcDbLine
 10
314.0
 20
27.5
 30
0.0
 11
306.6000000000000227
 21
27.5
 31
0.0
  0
LINE
  5
120
100
AcDbEntity
  8
0
 62
256
370
13
 48
1.0
  6
BYLAYER
100
AcDbLine
 10
377.0
 20
27.5
 30
0.0
 11
369.6000000000000227
 21
27.5
 31
0.0
  0
LINE
  5
121
100
AcDbEntity
  8
0
 62
256
370
13
 48
1.0
  6
BYLAYER
100
AcDbLine
 10
188.0
 20
27.5
 30
0.0
 11
180.6000000000000227
 21
27.5
 31
0.0
  0
LINE
  5
122
100
AcDbEntity
  8
0
 62
256
370
13
 48
1.0
  6
BYLAYER
100
AcDbLine
 10
251.0
 20
27.5
 30
0.0
 11
243.6000000000000227
 21
27.5
 31
0.0
  0
LINE
  5
123
100
AcDbEntity
  8
0
 62
256
370
13
 48
1.0
  6
BYLAYER
100
AcDbLine
 10
2.4999999999999787
 20
2.5000000000000018
 30
0.0
 11
2.4999999999999858
 21
7.4000000000000021
 31
0.0
  0
LINE
  5
124
100
AcDbEntity
  8
0
 62
256
370
13
 48
1.0
  6
BYLAYER
100
AcDbLine
 10
65.4999999999999716
 20
2.5000000000000018
 30
0.0
 11
65.4999999999999858
 21
7.4000000000000021
 31
0.0
  0
LINE
  5
125
100
AcDbEntity
  8
0
 62
256
370
13
 48
1.0
  6
BYLAYER
100
AcDbLine
 10
380.5
 20
2.4999999999999964
 30
0.0
 11
380.5
 21
7.399999999999995
 31
0.0
  0
LINE
  5
126
100
AcDbEntity
  8
0
 62
256
370
13
 48
1.0
  6
BYLAYER
100
AcDbLine
 10
443.5
 20
2.4999999999999964
 30
0.0
 11
443.5
 21
7.399999999999995
 31
0.0
  0
LINE
  5
127
100
AcDbEntity
  8
0
 62
256
370
13
 48
1.0
  6
BYLAYER
100
AcDbLine
 10
254.4999999999999716
 20
2.5
 30
0.0
 11
254.5
 21
7.3999999999999915
 31
0.0
  0
LINE
  5
128
100
AcDbEntity
  8
0
 62
256
370
13
 48
1.0
  6
BYLAYER
100
AcDbLine
 10
317.5
 20
2.5
 30
0.0
 11
317.5
 21
7.3999999999999915
 31
0.0
  0
LINE
  5
129
100
AcDbEntity
  8
0
 62
256
370
13
 48
1.0
  6
BYLAYER
100
AcDbLine
 10
128.4999999999999716
 20
2.5
 30
0.0
 11
128.5
 21
7.3999999999999915
 31
0.0
  0
LINE
  5
12A
100
AcDbEntity
  8
0
 62
256
370
13
 48
1.0
  6
BYLAYER
100
AcDbLine
 10
191.4999999999999716
 20
2.5
 30
0.0
 11
191.5
 21
7.3999999999999915
 31
0.0
  0
LINE
  5
12B
100
AcDbEntity
  8
0
 62
256
370
13
 48
1.0
  6
BYLAYER
100
AcDbLine
 10
34.4999999999999858
 20
2.5000000000000018
 30
0.0
 11
34.4999999999999929
 21
7.4000000000000021
 31
0.0
  0
LINE
  5
12C
100
AcDbEntity
  8
0
 62
256
370
13
 48
1.0
  6
BYLAYER
100
AcDbLine
 10
97.4999999999999858
 20
2.5000000000000018
 30
0.0
 11
97.5
 21
7.4000000000000021
 31
0.0
  0
LINE
  5
12D
100
AcDbEntity
  8
0
 62
256
370
13
 48
1.0
  6
BYLAYER
100
AcDbLine
 10
412.5
 20
2.4999999999999964
 30
0.0
 11
412.5
 21
7.399999999999995
 31
0.0
  0
LINE
  5
12E
100
AcDbEntity
  8
0
 62
256
370
13
 48
1.0
  6
BYLAYER
100
AcDbLine
 10
475.5
 20
2.4999999999999964
 30
0.0
 11
475.5
 21
7.399999999999995
 31
0.0
  0
LINE
  5
12F
100
AcDbEntity
  8
0
 62
256
370
13
 48
1.0
  6
BYLAYER
100
AcDbLine
 10
286.5
 20
2.5
 30
0.0
 11
286.5
 21
7.3999999999999915
 31
0.0
  0
LINE
  5
130
100
AcDbEntity
  8
0
 62
256
370
13
 48
1.0
  6
BYLAYER
100
AcDbLine
 10
349.5
 20
2.5
 30
0.0
 11
349.5
 21
7.3999999999999915
 31
0.0
  0
LINE
  5
131
100
AcDbEntity
  8
0
 62
256
370
13
 48
1.0
  6
BYLAYER
100
AcDbLine
 10
160.5
 20
2.5
 30
0.0
 11
160.5
 21
7.3999999999999915
 31
0.0
  0
LINE
  5
132
100
AcDbEntity
  8
0
 62
256
370
13
 48
1.0
  6
BYLAYER
100
AcDbLine
 10
223.5
 20
2.5
 30
0.0
 11
223.5
 21
7.3999999999999915
 31
0.0
  0
LINE
  5
133
100
AcDbEntity
  8
0
 62
256
370
13
 48
1.0
  6
BYLAYER
100
AcDbLine
 10
27.5000000000000071
 20
15.100000000000005
 30
0.0
 11
27.5000000000000071
 21
22.4000000000000021
 31
0.0
  0
LINE
  5
134
100
AcDbEntity
  8
0
 62
256
370
13
 48
1.0
  6
BYLAYER
100
AcDbLine
 10
90.5
 20
15.100000000000005
 30
0.0
 11
90.5
 21
22.4000000000000021
 31
0.0
  0
LINE
  5
135
100
AcDbEntity
  8
0
 62
256
370
13
 48
1.0
  6
BYLAYER
100
AcDbLine
 10
405.5
 20
15.0999999999999979
 30
0.0
 11
405.5
 21
22.399999999999995
 31
0.0
  0
LINE
  5
136
100
AcDbEntity
  8
0
 62
256
370
13
 48
1.0
  6
BYLAYER
100
AcDbLine
 10
468.5
 20
15.0999999999999979
 30
0.0
 11
468.5
 21
22.399999999999995
 31
0.0
  0
LINE
  5
137
100
AcDbEntity
  8
0
 62
256
370
13
 48
1.0
  6
BYLAYER
100
AcDbLine
 10
279.5
 20
15.0999999999999943
 30
0.0
 11
279.5
 21
22.3999999999999915
 31
0.0
  0
LINE
  5
138
100
AcDbEntity
  8
0
 62
256
370
13
 48
1.0
  6
BYLAYER
100
AcDbLine
 10
342.5
 20
15.0999999999999943
 30
0.0
 11
342.5
 21
22.3999999999999915
 31
0.0
  0
LINE
  5
139
100
AcDbEntity
  8
0
 62
256
370
13
 48
1.0
  6
BYLAYER
100
AcDbLine
 10
153.5
 20
15.0999999999999943
 30
0.0
 11
153.5
 21
22.3999999999999915
 31
0.0
  0
LINE
  5
13A
100
AcDbEntity
  8
0
 62
256
370
13
 48
1.0
  6
BYLAYER
100
AcDbLine
 10
216.5
 20
15.0999999999999943
 30
0.0
 11
216.5
 21
22.3999999999999915
 31
0.0
  0
LINE
  5
13B
100
AcDbEntity
  8
0
 62
256
370
13
 48
1.0
  6
BYLAYER
100
AcDbLine
 10
59.5000000000000071
 20
15.100000000000005
 30
0.0
 11
59.5000000000000071
 21
22.4000000000000021
 31
0.0
  0
LINE
  5
13C
100
AcDbEntity
  8
0
 62
256
370
13
 48
1.0
  6
BYLAYER
100
AcDbLine
 10
122.5
 20
15.100000000000005
 30
0.0
 11
122.5
 21
22.4000000000000021
 31
0.0
  0
LINE
  5
13D
100
AcDbEntity
  8
0
 62
256
370
13
 48
1.0
  6
BYLAYER
100
AcDbLine
 10
437.5
 20
15.0999999999999979
 30
0.0
 11
437.5
 21
22.399999999999995
 31
0.0
  0
LINE
  5
13E
100
AcDbEntity
  8
0
 62
256
370
13
 48
1.0
  6
BYLAYER
100
AcDbLine
 10
500.5
 20
15.0999999999999979
 30
0.0
 11
500.5
 21
22.399999999999995
 31
0.0
  0
LINE
  5
13F
100
AcDbEntity
  8
0
 62
256
370
13
 48
1.0
  6
BYLAYER
100
AcDbLine
 10
311.5
 20
15.0999999999999943
 30
0.0
 11
311.5
 21
22.3999999999999915
 31
0.0
  0
LINE
  5
140
100
AcDbEntity
  8
0
 62
256
370
13
 48
1.0
  6
BYLAYER
100
AcDbLine
 10
374.5
 20
15.0999999999999943
 30
0.0
 11
374.5
 21
22.3999999999999915
 31
0.0
  0
LINE
  5
141
100
AcDbEntity
  8
0
 62
256
370
13
 48
1.0
  6
BYLAYER
100
AcDbLine
 10
185.5
 20
15.0999999999999943
 30
0.0
 11
185.5
 21
22.3999999999999915
 31
0.0
  0
LINE
  5
142
100
AcDbEntity
  8
0
 62
256
370
13
 48
1.0
  6
BYLAYER
100
AcDbLine
 10
248.5
 20
15.0999999999999943
 30
0.0
 11
248.5
 21
22.3999999999999915
 31
0.0
  0
LINE
  5
143
100
AcDbEntity
  8
0
 62
256
370
13
 48
1.0
  6
BYLAYER
100
AcDbLine
 10
14.8999999999999986
 20
2.5
 30
0.0
 11
7.6000000000000156
 21
2.5000000000000036
 31
0.0
  0
LINE
  5
144
100
AcDbEntity
  8
0
 62
256
370
13
 48
1.0
  6
BYLAYER
100
AcDbLine
 10
77.9000000000000057
 20
2.5
 30
0.0
 11
70.6000000000000227
 21
2.5000000000000036
 31
0.0
  0
LINE
  5
145
100
AcDbEntity
  8
0
 62
256
370
13
 48
1.0
  6
BYLAYER
100
AcDbLine
 10
392.8999999999999773
 20
2.4999999999999964
 30
0.0
 11
385.6000000000000227
 21
2.5000000000000036
 31
0.0
  0
LINE
  5
146
100
AcDbEntity
  8
0
 62
256
370
13
 48
1.0
  6
BYLAYER
100
AcDbLine
 10
455.8999999999999773
 20
2.4999999999999964
 30
0.0
 11
448.6000000000000227
 21
2.5000000000000036
 31
0.0
  0
LINE
  5
147
100
AcDbEntity
  8
0
 62
256
370
13
 48
1.0
  6
BYLAYER
100
AcDbLine
 10
266.8999999999999773
 20
2.5
 30
0.0
 11
259.6000000000000227
 21
2.5
 31
0.0
  0
LINE
  5
148
100
AcDbEntity
  8
0
 62
256
370
13
 48
1.0
  6
BYLAYER
100
AcDbLine
 10
329.8999999999999773
 20
2.5
 30
0.0
 11
322.6000000000000227
 21
2.5
 31
0.0
  0
LINE
  5
149
100
AcDbEntity
  8
0
 62
256
370
13
 48
1.0
  6
BYLAYER
100
AcDbLine
 10
140.9000000000000057
 20
2.5
 30
0.0
 11
133.6000000000000227
 21
2.5
 31
0.0
  0
LINE
  5
14A
100
AcDbEntity
  8
0
 62
256
370
13
 48
1.0
  6
BYLAYER
100
AcDbLine
 10
203.9000000000000057
 20
2.5
 30
0.0
 11
196.6000000000000227
 21
2.5
 31
0.0
  0
LINE
  5
14B
100
AcDbEntity
  8
0
 62
256
370
13
 48
1.0
  6
BYLAYER
100
AcDbLine
 10
46.9000000000000057
 20
2.4999999999999982
 30
0.0
 11
39.6000000000000227
 21
2.5000000000000018
 31
0.0
  0
LINE
  5
14C
100
AcDbEntity
  8
0
 62
256
370
13
 48
1.0
  6
BYLAYER
100
AcDbLine
 10
109.9000000000000057
 20
2.4999999999999982
 30
0.0
 11
102.6000000000000227
 21
2.5000000000000018
 31
0.0
  0
LINE
  5
14D
100
AcDbEntity
  8
0
 62
256
370
13
 48
1.0
  6
BYLAYER
100
AcDbLine
 10
424.8999999999999773
 20
2.4999999999999964
 30
0.0
 11
417.6000000000000227
 21
2.4999999999999964
 31
0.0
  0
LINE
  5
14E
100
AcDbEntity
  8
0
 62
256
370
13
 48
1.0
  6
BYLAYER
100
AcDbLine
 10
487.8999999999999773
 20
2.4999999999999964
 30
0.0
 11
480.6000000000000227
 21
2.4999999999999964
 31
0.0
  0
LINE
  5
14F
100
AcDbEntity
  8
0
 62
256
370
13
 48
1.0
  6
BYLAYER
100
AcDbLine
 10
298.8999999999999773
 20
2.5
 30
0.0
 11
291.6000000000000227
 21
2.5
 31
0.0
  0
LINE
  5
150
100
AcDbEntity
  8
0
 62
256
370
13
 48
1.0
  6
BYLAYER
100
AcDbLine
 10
361.8999999999999773
 20
2.5
 30
0.0
 11
354.6000000000000227
 21
2.5
 31
0.0
  0
LINE
  5
151
100
AcDbEntity
  8
0
 62
256
370
13
 48
1.0
  6
BYLAYER
100
AcDbLine
 10
172.9000000000000057
 20
2.5
 30
0.0
 11
165.6000000000000227
 21
2.5
 31
0.0
  0
LINE
  5
152
100
AcDbEntity
  8
0
 62
256
370
13
 48
1.0
  6
BYLAYER
100
AcDbLine
 10
235.9000000000000057
 20
2.5
 30
0.0
 11
228.6000000000000227
 21
2.5
 31
0.0
  0
LINE
  5
153
100
AcDbEntity
  8
0
 62
256
370
13
 48
1.0
  6
BYLAYER
100
AcDbLine
 10
27.5000000000000071
 20
2.4999999999999947
 30
0.0
 11
27.5000000000000071
 21
7.4000000000000021
 31
0.0
  0
LINE
  5
154
100
AcDbEntity
  8
0
 62
256
370
13
 48
1.0
  6
BYLAYER
100
AcDbLine
 10
90.5
 20
2.4999999999999947
 30
0.0
 11
90.5
 21
7.4000000000000021
 31
0.0
  0
LINE
  5
155
100
AcDbEntity
  8
0
 62
256
370
13
 48
1.0
  6
BYLAYER
100
AcDbLine
 10
405.5
 20
2.4999999999999893
 30
0.0
 11
405.5
 21
7.399999999999995
 31
0.0
  0
LINE
  5
156
100
AcDbEntity
  8
0
 62
256
370
13
 48
1.0
  6
BYLAYER
100
AcDbLine
 10
468.5
 20
2.4999999999999893
 30
0.0
 11
468.5
 21
7.399999999999995
 31
0.0
  0
LINE
  5
157
100
AcDbEntity
  8
0
 62
256
370
13
 48
1.0
  6
BYLAYER
100
AcDbLine
 10
279.5
 20
2.4999999999999858
 30
0.0
 11
279.5
 21
7.3999999999999915
 31
0.0
  0
LINE
  5
158
100
AcDbEntity
  8
0
 62
256
370
13
 48
1.0
  6
BYLAYER
100
AcDbLine
 10
342.5
 20
2.4999999999999858
 30
0.0
 11
342.5
 21
7.3999999999999915
 31
0.0
  0
LINE
  5
159
100
AcDbEntity
  8
0
 62
256
370
13
 48
1.0
  6
BYLAYER
100
AcDbLine
 10
153.5
 20
2.4999999999999858
 30
0.0
 11
153.5
 21
7.3999999999999915
 31
0.0
  0
LINE
  5
15A
100
AcDbEntity
  8
0
 62
256
370
13
 48
1.0
  6
BYLAYER
100
AcDbLine
 10
216.5
 20
2.4999999999999858
 30
0.0
 11
216.5
 21
7.3999999999999915
 31
0.0
  0
LINE
  5
15B
100
AcDbEntity
  8
0
 62
256
370
13
 48
1.0
  6
BYLAYER
100
AcDbLine
 10
59.5000000000000071
 20
2.4999999999999929
 30
0.0
 11
59.5000000000000071
 21
7.4000000000000021
 31
0.0
  0
LINE
  5
15C
100
AcDbEntity
  8
0
 62
256
370
13
 48
1.0
  6
BYLAYER
100
AcDbLine
 10
122.5
 20
2.4999999999999929
 30
0.0
 11
122.5
 21
7.4000000000000021
 31
0.0
  0
LINE
  5
15D
100
AcDbEntity
  8
0
 62
256
370
13
 48
1.0
  6
BYLAYER
100
AcDbLine
 10
437.5
 20
2.4999999999999893
 30
0.0
 11
437.5
 21
7.399999999999995
 31
0.0
  0
LINE
  5
15E
100
AcDbEntity
  8
0
 62
256
370
13
 48
1.0
  6
BYLAYER
100
AcDbLine
 10
500.5
 20
2.4999999999999893
 30
0.0
 11
500.5
 21
7.399999999999995
 31
0.0
  0
LINE
  5
15F
100
AcDbEntity
  8
0
 62
256
370
13
 48
1.0
  6
BYLAYER
100
AcDbLine
 10
311.5
 20
2.4999999999999858
 30
0.0
 11
311.5
 21
7.3999999999999915
 31
0.0
  0
LINE
  5
160
100
AcDbEntity
  8
0
 62
256
370
13
 48
1.0
  6
BYLAYER
100
AcDbLine
 10
374.5
 20
2.4999999999999858
 30
0.0
 11
374.5
 21
7.3999999999999915
 31
0.0
  0
LINE
  5
161
100
AcDbEntity
  8
0
 62
256
370
13
 48
1.0
  6
BYLAYER
100
AcDbLine
 10
185.5
 20
2.4999999999999858
 30
0.0
 11
185.5
 21
7.3999999999999915
 31
0.0
  0
LINE
  5
162
100
AcDbEntity
  8
0
 62
256
370
13
 48
1.0
  6
BYLAYER
100
AcDbLine
 10
248.5
 20
2.4999999999999858
 30
0.0
 11
248.5
 21
7.3999999999999915
 31
0.0
  0
LINE
  5
163
100
AcDbEntity
  8
0
 62
256
370
13
 48
1.0
  6
BYLAYER
100
AcDbLine
 10
27.5000000000000071
 20
2.4999999999999947
 30
0.0
 11
22.6000000000000085
 21
2.5000000000000071
 31
0.0
  0
LINE
  5
164
100
AcDbEntity
  8
0
 62
256
370
13
 48
1.0
  6
BYLAYER
100
AcDbLine
 10
90.5
 20
2.4999999999999947
 30
0.0
 11
85.6000000000000085
 21
2.5000000000000071
 31
0.0
  0
LINE
  5
165
100
AcDbEntity
  8
0
 62
256
370
13
 48
1.0
  6
BYLAYER
100
AcDbLine
 10
405.5
 20
2.4999999999999893
 30
0.0
 11
400.6000000000000227
 21
2.5000000000000036
 31
0.0
  0
LINE
  5
166
100
AcDbEntity
  8
0
 62
256
370
13
 48
1.0
  6
BYLAYER
100
AcDbLine
 10
468.5
 20
2.4999999999999893
 30
0.0
 11
463.6000000000000227
 21
2.5000000000000036
 31
0.0
  0
LINE
  5
167
100
AcDbEntity
  8
0
 62
256
370
13
 48
1.0
  6
BYLAYER
100
AcDbLine
 10
279.5
 20
2.4999999999999858
 30
0.0
 11
274.6000000000000227
 21
2.5
 31
0.0
  0
LINE
  5
168
100
AcDbEntity
  8
0
 62
256
370
13
 48
1.0
  6
BYLAYER
100
AcDbLine
 10
342.5
 20
2.4999999999999858
 30
0.0
 11
337.6000000000000227
 21
2.5
 31
0.0
  0
LINE
  5
169
100
AcDbEntity
  8
0
 62
256
370
13
 48
1.0
  6
BYLAYER
100
AcDbLine
 10
153.5
 20
2.4999999999999858
 30
0.0
 11
148.6000000000000227
 21
2.5
 31
0.0
  0
LINE
  5
16A
100
AcDbEntity
  8
0
 62
256
370
13
 48
1.0
  6
BYLAYER
100
AcDbLine
 10
216.5
 20
2.4999999999999858
 30
0.0
 11
211.6000000000000227
 21
2.5
 31
0.0
  0
LINE
  5
16B
100
AcDbEntity
  8
0
 62
256
370
13
 48
1.0
  6
BYLAYER
100
AcDbLine
 10
7.6000000000000085
 20
30.0000000000000036
 30
0.0
 11
7.6000000000000085
 21
27.5000000000000036
 31
0.0
  0
LINE
  5
16C
100
AcDbEntity
  8
0
 62
256
370
13
 48
1.0
  6
BYLAYER
100
AcDbLine
 10
70.6000000000000085
 20
30.0000000000000036
 30
0.0
 11
70.6000000000000085
 21
27.5000000000000036
 31
0.0
  0
LINE
  5
16D
100
AcDbEntity
  8
0
 62
256
370
13
 48
1.0
  6
BYLAYER
100
AcDbLine
 10
385.6000000000000227
 20
30.0000000000000036
 30
0.0
 11
385.6000000000000227
 21
27.5000000000000036
 31
0.0
  0
LINE
  5
16E
100
AcDbEntity
  8
0
 62
256
370
13
 48
1.0
  6
BYLAYER
100
AcDbLine
 10
448.6000000000000227
 20
30.0000000000000036
 30
0.0
 11
448.6000000000000227
 21
27.5000000000000036
 31
0.0
  0
LINE
  5
16F
100
AcDbEntity
  8
0
 62
256
370
13
 48
1.0
  6
BYLAYER
100
AcDbLine
 10
259.6000000000000227
 20
30.0
 30
0.0
 11
259.6000000000000227
 21
27.5
 31
0.0
  0
LINE
  5
170
100
AcDbEntity
  8
0
 62
256
370
13
 48
1.0
  6
BYLAYER
100
AcDbLine
 10
322.6000000000000227
 20
30.0
 30
0.0
 11
322.6000000000000227
 21
27.5
 31
0.0
  0
LINE
  5
171
100
AcDbEntity
  8
0
 62
256
370
13
 48
1.0
  6
BYLAYER
100
AcDbLine
 10
133.6000000000000227
 20
30.0
 30
0.0
 11
133.6000000000000227
 21
27.5
 31
0.0
  0
LINE
  5
172
100
AcDbEntity
  8
0
 62
256
370
13
 48
1.0
  6
BYLAYER
100
AcDbLine
 10
196.6000000000000227
 20
30.0
 30
0.0
 11
196.6000000000000227
 21
27.5
 31
0.0
  0
LINE
  5
173
100
AcDbEntity
  8
0
 62
256
370
13
 48
1.0
  6
BYLAYER
100
AcDbLine
 10
39.6000000000000156
 20
30.0000000000000036
 30
0.0
 11
39.6000000000000156
 21
27.5000000000000036
 31
0.0
  0
LINE
  5
174
100
AcDbEntity
  8
0
 62
256
370
13
 48
1.0
  6
BYLAYER
100
AcDbLine
 10
102.6000000000000227
 20
30.0000000000000036
 30
0.0
 11
102.6000000000000227
 21
27.5000000000000036
 31
0.0
  0
LINE
  5
175
100
AcDbEntity
  8
0
 62
256
370
13
 48
1.0
  6
BYLAYER
100
AcDbLine
 10
417.6000000000000227
 20
30.0000000000000036
 30
0.0
 11
417.6000000000000227
 21
27.5000000000000036
 31
0.0
  0
LINE
  5
176
100
AcDbEntity
  8
0
 62
256
370
13
 48
1.0
  6
BYLAYER
100
AcDbLine
 10
480.6000000000000227
 20
30.0000000000000036
 30
0.0
 11
480.6000000000000227
 21
27.5000000000000036
 31
0.0
  0
LINE
  5
177
100
AcDbEntity
  8
0
 62
256
370
13
 48
1.0
  6
BYLAYER
100
AcDbLine
 10
291.6000000000000227
 20
30.0
 30
0.0
 11
291.6000000000000227
 21
27.5
 31
0.0
  0
LINE
  5
178
100
AcDbEntity
  8
0
 62
256
370
13
 48
1.0
  6
BYLAYER
100
AcDbLine
 10
354.6000000000000227
 20
30.0
 30
0.0
 11
354.6000000000000227
 21
27.5
 31
0.0
  0
LINE
  5
179
100
AcDbEntity
  8
0
 62
256
370
13
 48
1.0
  6
BYLAYER
100
AcDbLine
 10
165.6000000000000227
 20
30.0
 30
0.0
 11
165.6000000000000227
 21
27.5
 31
0.0
  0
LINE
  5
17A
100
AcDbEntity
  8
0
 62
256
370
13
 48
1.0
  6
BYLAYER
100
AcDbLine
 10
228.6000000000000227
 20
30.0
 30
0.0
 11
228.6000000000000227
 21
27.5
 31
0.0
  0
LINE
  5
17B
100
AcDbEntity
  8
0
 62
256
370
13
 48
1.0
  6
BYLAYER
100
AcDbLine
 10
0.0000000000000036
 20
22.4000000000000021
 30
0.0
 11
2.5000000000000071
 21
22.4000000000000021
 31
0.0
  0
LINE
  5
17C
100
AcDbEntity
  8
0
 62
256
370
13
 48
1.0
  6
BYLAYER
100
AcDbLine
 10
63.0
 20
22.4000000000000021
 30
0.0
 11
65.5
 21
22.4000000000000021
 31
0.0
  0
LINE
  5
17D
100
AcDbEntity
  8
0
 62
256
370
13
 48
1.0
  6
BYLAYER
100
AcDbLine
 10
378.0
 20
22.399999999999995
 30
0.0
 11
380.5
 21
22.399999999999995
 31
0.0
  0
LINE
  5
17E
100
AcDbEntity
  8
0
 62
256
370
13
 48
1.0
  6
BYLAYER
100
AcDbLine
 10
441.0
 20
22.399999999999995
 30
0.0
 11
443.5
 21
22.399999999999995
 31
0.0
  0
LINE
  5
17F
100
AcDbEntity
  8
0
 62
256
370
13
 48
1.0
  6
BYLAYER
100
AcDbLine
 10
252.0
 20
22.3999999999999915
 30
0.0
 11
254.5
 21
22.3999999999999915
 31
0.0
  0
LINE
  5
180
100
AcDbEntity
  8
0
 62
256
370
13
 48
1.0
  6
BYLAYER
100
AcDbLine
 10
315.0
 20
22.3999999999999915
 30
0.0
 11
317.5
 21
22.3999999999999915
 31
0.0
  0
LINE
  5
181
100
AcDbEntity
  8
0
 62
256
370
13
 48
1.0
  6
BYLAYER
100
AcDbLine
 10
126.0
 20
22.3999999999999915
 30
0.0
 11
128.5
 21
22.3999999999999915
 31
0.0
  0
LINE
  5
182
100
AcDbEntity
  8
0
 62
256
370
13
 48
1.0
  6
BYLAYER
100
AcDbLine
 10
189.0
 20
22.3999999999999915
 30
0.0
 11
191.5
 21
22.3999999999999915
 31
0.0
  0
LINE
  5
183
100
AcDbEntity
  8
0
 62
256
370
13
 48
1.0
  6
BYLAYER
100
AcDbLine
 10
32.0000000000000071
 20
22.4000000000000021
 30
0.0
 11
34.5000000000000142
 21
22.4000000000000021
 31
0.0
  0
LINE
  5
184
100
AcDbEntity
  8
0
 62
256
370
13
 48
1.0
  6
BYLAYER
100
AcDbLine
 10
95.0
 20
22.4000000000000021
 30
0.0
 11
97.5000000000000142
 21
22.4000000000000021
 31
0.0
  0
LINE
  5
185
100
AcDbEntity
  8
0
 62
256
370
13
 48
1.0
  6
BYLAYER
100
AcDbLine
 10
410.0
 20
22.399999999999995
 30
0.0
 11
412.5
 21
22.399999999999995
 31
0.0
  0
LINE
  5
186
100
AcDbEntity
  8
0
 62
256
370
13
 48
1.0
  6
BYLAYER
100
AcDbLine
 10
473.0
 20
22.399999999999995
 30
0.0
 11
475.5
 21
22.399999999999995
 31
0.0
  0
LINE
  5
187
100
AcDbEntity
  8
0
 62
256
370
13
 48
1.0
  6
BYLAYER
100
AcDbLine
 10
284.0
 20
22.3999999999999915
 30
0.0
 11
286.5
 21
22.3999999999999915
 31
0.0
  0
LINE
  5
188
100
AcDbEntity
  8
0
 62
256
370
13
 48
1.0
  6
BYLAYER
100
AcDbLine
 10
347.0
 20
22.3999999999999915
 30
0.0
 11
349.5
 21
22.3999999999999915
 31
0.0
  0
LINE
  5
189
100
AcDbEntity
  8
0
 62
256
370
13
 48
1.0
  6
BYLAYER
100
AcDbLine
 10
158.0
 20
22.3999999999999915
 30
0.0
 11
160.5
 21
22.3999999999999915
 31
0.0
  0
LINE
  5
18A
100
AcDbEntity
  8
0
 62
256
370
13
 48
1.0
  6
BYLAYER
100
AcDbLine
 10
221.0
 20
22.3999999999999915
 30
0.0
 11
223.5
 21
22.3999999999999915
 31
0.0
  0
LINE
  5
18B
100
AcDbEntity
  8
0
 62
256
370
13
 48
1.0
  6
BYLAYER
100
AcDbLine
 10
14.9000000000000057
 20
30.0000000000000036
 30
0.0
 11
14.9000000000000057
 21
27.5000000000000036
 31
0.0
  0
LINE
  5
18C
100
AcDbEntity
  8
0
 62
256
370
13
 48
1.0
  6
BYLAYER
100
AcDbLine
 10
77.9000000000000057
 20
30.0000000000000036
 30
0.0
 11
77.9000000000000057
 21
27.5000000000000036
 31
0.0
  0
LINE
  5
18D
100
AcDbEntity
  8
0
 62
256
370
13
 48
1.0
  6
BYLAYER
100
AcDbLine
 10
392.8999999999999773
 20
30.0000000000000036
 30
0.0
 11
392.8999999999999773
 21
27.5000000000000036
 31
0.0
  0
LINE
  5
18E
100
AcDbEntity
  8
0
 62
256
370
13
 48
1.0
  6
BYLAYER
100
AcDbLine
 10
455.8999999999999773
 20
30.0000000000000036
 30
0.0
 11
455.8999999999999773
 21
27.5000000000000036
 31
0.0
  0
LINE
  5
18F
100
AcDbEntity
  8
0
 62
256
370
13
 48
1.0
  6
BYLAYER
100
AcDbLine
 10
266.8999999999999773
 20
30.0
 30
0.0
 11
266.8999999999999773
 21
27.5
 31
0.0
  0
LINE
  5
190
100
AcDbEntity
  8
0
 62
256
370
13
 48
1.0
  6
BYLAYER
100
AcDbLine
 10
329.8999999999999773
 20
30.0
 30
0.0
 11
329.8999999999999773
 21
27.5
 31
0.0
  0
LINE
  5
191
100
AcDbEntity
  8
0
 62
256
370
13
 48
1.0
  6
BYLAYER
100
AcDbLine
 10
140.9000000000000057
 20
30.0
 30
0.0
 11
140.9000000000000057
 21
27.5
 31
0.0
  0
LINE
  5
192
100
AcDbEntity
  8
0
 62
256
370
13
 48
1.0
  6
BYLAYER
100
AcDbLine
 10
203.9000000000000057
 20
30.0
 30
0.0
 11
203.9000000000000057
 21
27.5
 31
0.0
  0
LINE
  5
193
100
AcDbEntity
  8
0
 62
256
370
13
 48
1.0
  6
BYLAYER
100
AcDbLine
 10
46.9000000000000128
 20
30.0000000000000036
 30
0.0
 11
46.9000000000000128
 21
27.5000000000000036
 31
0.0
  0
LINE
  5
194
100
AcDbEntity
  8
0
 62
256
370
13
 48
1.0
  6
BYLAYER
100
AcDbLine
 10
109.9000000000000057
 20
30.0000000000000036
 30
0.0
 11
109.9000000000000057
 21
27.5000000000000036
 31
0.0
  0
LINE
  5
195
100
AcDbEntity
  8
0
 62
256
370
13
 48
1.0
  6
BYLAYER
100
AcDbLine
 10
424.9000000000000341
 20
30.0000000000000036
 30
0.0
 11
424.9000000000000341
 21
27.5000000000000036
 31
0.0
  0
LINE
  5
196
100
AcDbEntity
  8
0
 62
256
370
13
 48
1.0
  6
BYLAYER
100
AcDbLine
 10
487.8999999999999773
 20
30.0000000000000036
 30
0.0
 11
487.8999999999999773
 21
27.5000000000000036
 31
0.0
  0
LINE
  5
197
100
AcDbEntity
  8
0
 62
256
370
13
 48
1.0
  6
BYLAYER
100
AcDbLine
 10
298.9000000000000341
 20
30.0
 30
0.0
 11
298.9000000000000341
 21
27.5
 31
0.0
  0
LINE
  5
198
100
AcDbEntity
  8
0
 62
256
370
13
 48
1.0
  6
BYLAYER
100
AcDbLine
 10
361.8999999999999773
 20
30.0
 30
0.0
 11
361.8999999999999773
 21
27.5
 31
0.0
  0
LINE
  5
199
100
AcDbEntity
  8
0
 62
256
370
13
 48
1.0
  6
BYLAYER
100
AcDbLine
 10
172.9000000000000057
 20
30.0
 30
0.0
 11
172.9000000000000057
 21
27.5
 31
0.0
  0
LINE
  5
19A
100
AcDbEntity
  8
0
 62
256
370
13
 48
1.0
  6
BYLAYER
100
AcDbLine
 10
235.9000000000000057
 20
30.0
 30
0.0
 11
235.9000000000000057
 21
27.5
 31
0.0
  0
LINE
  5
19B
100
AcDbEntity
  8
0
 62
256
370
13
 48
1.0
  6
BYLAYER
100
AcDbLine
 10
0.0
 20
15.100000000000005
 30
0.0
 11
2.5000000000000071
 21
15.100000000000005
 31
0.0
  0
LINE
  5
19C
100
AcDbEntity
  8
0
 62
256
370
13
 48
1.0
  6
BYLAYER
100
AcDbLine
 10
63.0
 20
15.100000000000005
 30
0.0
 11
65.5
 21
15.100000000000005
 31
0.0
  0
LINE
  5
19D
100
AcDbEntity
  8
0
 62
256
370
13
 48
1.0
  6
BYLAYER
100
AcDbLine
 10
378.0
 20
15.0999999999999979
 30
0.0
 11
380.5
 21
15.0999999999999979
 31
0.0
  0
LINE
  5
19E
100
AcDbEntity
  8
0
 62
256
370
13
 48
1.0
  6
BYLAYER
100
AcDbLine
 10
441.0
 20
15.0999999999999979
 30
0.0
 11
443.5
 21
15.0999999999999979
 31
0.0
  0
LINE
  5
19F
100
AcDbEntity
  8
0
 62
256
370
13
 48
1.0
  6
BYLAYER
100
AcDbLine
 10
252.0
 20
15.0999999999999943
 30
0.0
 11
254.5
 21
15.0999999999999943
 31
0.0
  0
LINE
  5
1A0
100
AcDbEntity
  8
0
 62
256
370
13
 48
1.0
  6
BYLAYER
100
AcDbLine
 10
315.0
 20
15.0999999999999943
 30
0.0
 11
317.5
 21
15.0999999999999943
 31
0.0
  0
LINE
  5
1A1
100
AcDbEntity
  8
0
 62
256
370
13
 48
1.0
  6
BYLAYER
100
AcDbLine
 10
126.0
 20
15.0999999999999943
 30
0.0
 11
128.5
 21
15.0999999999999943
 31
0.0
  0
LINE
  5
1A2
100
AcDbEntity
  8
0
 62
256
370
13
 48
1.0
  6
BYLAYER
100
AcDbLine
 10
189.0
 20
15.0999999999999943
 30
0.0
 11
191.5
 21
15.0999999999999943
 31
0.0
  0
LINE
  5
1A3
100
AcDbEntity
  8
0
 62
256
370
13
 48
1.0
  6
BYLAYER
100
AcDbLine
 10
32.0000000000000071
 20
15.100000000000005
 30
0.0
 11
34.5000000000000142
 21
15.100000000000005
 31
0.0
  0
LINE
  5
1A4
100
AcDbEntity
  8
0
 62
256
370
13
 48
1.0
  6
BYLAYER
100
AcDbLine
 10
95.0
 20
15.100000000000005
 30
0.0
 11
97.5000000000000142
 21
15.100000000000005
 31
0.0
  0
LINE
  5
1A5
100
AcDbEntity
  8
0
 62
256
370
13
 48
1.0
  6
BYLAYER
100
AcDbLine
 10
410.0
 20
15.0999999999999979
 30
0.0
 11
412.5
 21
15.0999999999999979
 31
0.0
  0
LINE
  5
1A6
100
AcDbEntity
  8
0
 62
256
370
13
 48
1.0
  6
BYLAYER
100
AcDbLine
 10
473.0
 20
15.0999999999999979
 30
0.0
 11
475.5
 21
15.0999999999999979
 31
0.0
  0
LINE
  5
1A7
100
AcDbEntity
  8
0
 62
256
370
13
 48
1.0
  6
BYLAYER
100
AcDbLine
 10
284.0
 20
15.0999999999999943
 30
0.0
 11
286.5
 21
15.0999999999999943
 31
0.0
  0
LINE
  5
1A8
100
AcDbEntity
  8
0
 62
256
370
13
 48
1.0
  6
BYLAYER
100
AcDbLine
 10
347.0
 20
15.0999999999999943
 30
0.0
 11
349.5
 21
15.0999999999999943
 31
0.0
  0
LINE
  5
1A9
100
AcDbEntity
  8
0
 62
256
370
13
 48
1.0
  6
BYLAYER
100
AcDbLine
 10
158.0
 20
15.0999999999999943
 30
0.0
 11
160.5
 21
15.0999999999999943
 31
0.0
  0
LINE
  5
1AA
100
AcDbEntity
  8
0
 62
256
370
13
 48
1.0
  6
BYLAYER
100
AcDbLine
 10
221.0
 20
15.0999999999999943
 30
0.0
 11
223.5
 21
15.0999999999999943
 31
0.0
  0
LINE
  5
1AB
100
AcDbEntity
  8
0
 62
256
370
13
 48
1.0
  6
BYLAYER
100
AcDbLine
 10
22.6000000000000085
 20
30.0000000000000036
 30
0.0
 11
22.6000000000000085
 21
27.5000000000000036
 31
0.0
  0
LINE
  5
1AC
100
AcDbEntity
  8
0
 62
256
370
13
 48
1.0
  6
BYLAYER
100
AcDbLine
 10
85.6000000000000085
 20
30.0000000000000036
 30
0.0
 11
85.6000000000000085
 21
27.5000000000000036
 31
0.0
  0
LINE
  5
1AD
100
AcDbEntity
  8
0
 62
256
370
13
 48
1.0
  6
BYLAYER
100
AcDbLine
 10
400.6000000000000227
 20
30.0000000000000036
 30
0.0
 11
400.6000000000000227
 21
27.5000000000000036
 31
0.0
  0
LINE
  5
1AE
100
AcDbEntity
  8
0
 62
256
370
13
 48
1.0
  6
BYLAYER
100
AcDbLine
 10
463.6000000000000227
 20
30.0000000000000036
 30
0.0
 11
463.6000000000000227
 21
27.5000000000000036
 31
0.0
  0
LINE
  5
1AF
100
AcDbEntity
  8
0
 62
256
370
13
 48
1.0
  6
BYLAYER
100
AcDbLine
 10
274.6000000000000227
 20
30.0
 30
0.0
 11
274.6000000000000227
 21
27.5
 31
0.0
  0
LINE
  5
1B0
100
AcDbEntity
  8
0
 62
256
370
13
 48
1.0
  6
BYLAYER
100
AcDbLine
 10
337.6000000000000227
 20
30.0
 30
0.0
 11
337.6000000000000227
 21
27.5
 31
0.0
  0
LINE
  5
1B1
100
AcDbEntity
  8
0
 62
256
370
13
 48
1.0
  6
BYLAYER
100
AcDbLine
 10
148.6000000000000227
 20
30.0
 30
0.0
 11
148.6000000000000227
 21
27.5
 31
0.0
  0
LINE
  5
1B2
100
AcDbEntity
  8
0
 62
256
370
13
 48
1.0
  6
BYLAYER
100
AcDbLine
 10
211.6000000000000227
 20
30.0
 30
0.0
 11
211.6000000000000227
 21
27.5
 31
0.0
  0
LINE
  5
1B3
100
AcDbEntity
  8
0
 62
256
370
13
 48
1.0
  6
BYLAYER
100
AcDbLine
 10
54.6000000000000156
 20
30.0000000000000036
 30
0.0
 11
54.6000000000000156
 21
27.5000000000000036
 31
0.0
  0
LINE
  5
1B4
100
AcDbEntity
  8
0
 62
256
370
13
 48
1.0
  6
BYLAYER
100
AcDbLine
 10
117.6000000000000227
 20
30.0000000000000036
 30
0.0
 11
117.6000000000000227
 21
27.5000000000000036
 31
0.0
  0
LINE
  5
1B5
100
AcDbEntity
  8
0
 62
256
370
13
 48
1.0
  6
BYLAYER
100
AcDbLine
 10
432.6000000000000227
 20
30.0000000000000036
 30
0.0
 11
432.6000000000000227
 21
27.5000000000000036
 31
0.0
  0
LINE
  5
1B6
100
AcDbEntity
  8
0
 62
256
370
13
 48
1.0
  6
BYLAYER
100
AcDbLine
 10
495.6000000000000227
 20
30.0000000000000036
 30
0.0
 11
495.6000000000000227
 21
27.5000000000000036
 31
0.0
  0
LINE
  5
1B7
100
AcDbEntity
  8
0
 62
256
370
13
 48
1.0
  6
BYLAYER
100
AcDbLine
 10
306.6000000000000227
 20
30.0
 30
0.0
 11
306.6000000000000227
 21
27.5
 31
0.0
  0
LINE
  5
1B8
100
AcDbEntity
  8
0
 62
256
370
13
 48
1.0
  6
BYLAYER
100
AcDbLine
 10
369.6000000000000227
 20
30.0
 30
0.0
 11
369.6000000000000227
 21
27.5
 31
0.0
  0
LINE
  5
1B9
100
AcDbEntity
  8
0
 62
256
370
13
 48
1.0
  6
BYLAYER
100
AcDbLine
 10
180.6000000000000227
 20
30.0
 30
0.0
 11
180.6000000000000227
 21
27.5
 31
0.0
  0
LINE
  5
1BA
100
AcDbEntity
  8
0
 62
256
370
13
 48
1.0
  6
BYLAYER
100
AcDbLine
 10
243.6000000000000227
 20
30.0
 30
0.0
 11
243.6000000000000227
 21
27.5
 31
0.0
  0
LINE
  5
1BB
100
AcDbEntity
  8
0
 62
256
370
13
 48
1.0
  6
BYLAYER
100
AcDbLine
 10
0.0
 20
7.4000000000000021
 30
0.0
 11
2.4999999999999858
 21
7.4000000000000021
 31
0.0
  0
LINE
  5
1BC
100
AcDbEntity
  8
0
 62
256
370
13
 48
1.0
  6
BYLAYER
100
AcDbLine
 10
63.0
 20
7.4000000000000021
 30
0.0
 11
65.4999999999999858
 21
7.4000000000000021
 31
0.0
  0
LINE
  5
1BD
100
AcDbEntity
  8
0
 62
256
370
13
 48
1.0
  6
BYLAYER
100
AcDbLine
 10
378.0
 20
7.399999999999995
 30
0.0
 11
380.5
 21
7.399999999999995
 31
0.0
  0
LINE
  5
1BE
100
AcDbEntity
  8
0
 62
256
370
13
 48
1.0
  6
BYLAYER
100
AcDbLine
 10
441.0
 20
7.399999999999995
 30
0.0
 11
443.5
 21
7.399999999999995
 31
0.0
  0
LINE
  5
1BF
100
AcDbEntity
  8
0
 62
256
370
13
 48
1.0
  6
BYLAYER
100
AcDbLine
 10
252.0
 20
7.3999999999999915
 30
0.0
 11
254.5
 21
7.3999999999999915
 31
0.0
  0
LINE
  5
1C0
100
AcDbEntity
  8
0
 62
256
370
13
 48
1.0
  6
BYLAYER
100
AcDbLine
 10
315.0
 20
7.3999999999999915
 30
0.0
 11
317.5
 21
7.3999999999999915
 31
0.0
  0
LINE
  5
1C1
100
AcDbEntity
  8
0
 62
256
370
13
 48
1.0
  6
BYLAYER
100
AcDbLine
 10
126.0
 20
7.3999999999999915
 30
0.0
 11
128.5
 21
7.3999999999999915
 31
0.0
  0
LINE
  5
1C2
100
AcDbEntity
  8
0
 62
256
370
13
 48
1.0
  6
BYLAYER
100
AcDbLine
 10
189.0
 20
7.3999999999999915
 30
0.0
 11
191.5
 21
7.3999999999999915
 31
0.0
  0
LINE
  5
1C3
100
AcDbEntity
  8
0
 62
256
370
13
 48
1.0
  6
BYLAYER
100
AcDbLine
 10
32.0000000000000071
 20
7.4000000000000021
 30
0.0
 11
34.4999999999999929
 21
7.4000000000000021
 31
0.0
  0
LINE
  5
1C4
100
AcDbEntity
  8
0
 62
256
370
13
 48
1.0
  6
BYLAYER
100
AcDbLine
 10
95.0
 20
7.4000000000000021
 30
0.0
 11
97.5
 21
7.4000000000000021
 31
0.0
  0
LINE
  5
1C5
100
AcDbEntity
  8
0
 62
256
370
13
 48
1.0
  6
BYLAYER
100
AcDbLine
 10
410.0
 20
7.399999999999995
 30
0.0
 11
412.5
 21
7.399999999999995
 31
0.0
  0
LINE
  5
1C6
100
AcDbEntity
  8
0
 62
256
370
13
 48
1.0
  6
BYLAYER
100
AcDbLine
 10
473.0
 20
7.399999999999995
 30
0.0
 11
475.5
 21
7.399999999999995
 31
0.0
  0
LINE
  5
1C7
100
AcDbEntity
  8
0
 62
256
370
13
 48
1.0
  6
BYLAYER
100
AcDbLine
 10
284.0
 20
7.3999999999999915
 30
0.0
 11
286.5
 21
7.3999999999999915
 31
0.0
  0
LINE
  5
1C8
100
AcDbEntity
  8
0
 62
256
370
13
 48
1.0
  6
BYLAYER
100
AcDbLine
 10
347.0
 20
7.3999999999999915
 30
0.0
 11
349.5
 21
7.3999999999999915
 31
0.0
  0
LINE
  5
1C9
100
AcDbEntity
  8
0
 62
256
370
13
 48
1.0
  6
BYLAYER
100
AcDbLine
 10
158.0
 20
7.3999999999999915
 30
0.0
 11
160.5
 21
7.3999999999999915
 31
0.0
  0
LINE
  5
1CA
100
AcDbEntity
  8
0
 62
256
370
13
 48
1.0
  6
BYLAYER
100
AcDbLine
 10
221.0
 20
7.3999999999999915
 30
0.0
 11
223.5
 21
7.3999999999999915
 31
0.0
  0
LINE
  5
1CB
100
AcDbEntity
  8
0
 62
256
370
13
 48
1.0
  6
BYLAYER
100
AcDbLine
 10
27.5000000000000071
 20
22.4000000000000021
 30
0.0
 11
30.0000000000000071
 21
22.4000000000000021
 31
0.0
  0
LINE
  5
1CC
100
AcDbEntity
  8
0
 62
256
370
13
 48
1.0
  6
BYLAYER
100
AcDbLine
 10
90.5
 20
22.4000000000000021
 30
0.0
 11
93.0
 21
22.4000000000000021
 31
0.0
  0
LINE
  5
1CD
100
AcDbEntity
  8
0
 62
256
370
13
 48
1.0
  6
BYLAYER
100
AcDbLine
 10
405.5
 20
22.399999999999995
 30
0.0
 11
408.0
 21
22.399999999999995
 31
0.0
  0
LINE
  5
1CE
100
AcDbEntity
  8
0
 62
256
370
13
 48
1.0
  6
BYLAYER
100
AcDbLine
 10
468.5
 20
22.399999999999995
 30
0.0
 11
471.0
 21
22.399999999999995
 31
0.0
  0
LINE
  5
1CF
100
AcDbEntity
  8
0
 62
256
370
13
 48
1.0
  6
BYLAYER
100
AcDbLine
 10
279.5
 20
22.3999999999999915
 30
0.0
 11
282.0
 21
22.3999999999999915
 31
0.0
  0
LINE
  5
1D0
100
AcDbEntity
  8
0
 62
256
370
13
 48
1.0
  6
BYLAYER
100
AcDbLine
 10
342.5
 20
22.3999999999999915
 30
0.0
 11
345.0
 21
22.3999999999999915
 31
0.0
  0
LINE
  5
1D1
100
AcDbEntity
  8
0
 62
256
370
13
 48
1.0
  6
BYLAYER
100
AcDbLine
 10
153.5
 20
22.3999999999999915
 30
0.0
 11
156.0
 21
22.3999999999999915
 31
0.0
  0
LINE
  5
1D2
100
AcDbEntity
  8
0
 62
256
370
13
 48
1.0
  6
BYLAYER
100
AcDbLine
 10
216.5
 20
22.3999999999999915
 30
0.0
 11
219.0
 21
22.3999999999999915
 31
0.0
  0
LINE
  5
1D3
100
AcDbEntity
  8
0
 62
256
370
13
 48
1.0
  6
BYLAYER
100
AcDbLine
 10
59.5000000000000071
 20
22.4000000000000021
 30
0.0
 11
62.0000000000000071
 21
22.4000000000000021
 31
0.0
  0
LINE
  5
1D4
100
AcDbEntity
  8
0
 62
256
370
13
 48
1.0
  6
BYLAYER
100
AcDbLine
 10
122.5
 20
22.4000000000000021
 30
0.0
 11
125.0
 21
22.4000000000000021
 31
0.0
  0
LINE
  5
1D5
100
AcDbEntity
  8
0
 62
256
370
13
 48
1.0
  6
BYLAYER
100
AcDbLine
 10
437.5
 20
22.399999999999995
 30
0.0
 11
440.0
 21
22.399999999999995
 31
0.0
  0
LINE
  5
1D6
100
AcDbEntity
  8
0
 62
256
370
13
 48
1.0
  6
BYLAYER
100
AcDbLine
 10
500.5
 20
22.399999999999995
 30
0.0
 11
503.0
 21
22.399999999999995
 31
0.0
  0
LINE
  5
1D7
100
AcDbEntity
  8
0
 62
256
370
13
 48
1.0
  6
BYLAYER
100
AcDbLine
 10
311.5
 20
22.3999999999999915
 30
0.0
 11
314.0
 21
22.3999999999999915
 31
0.0
  0
LINE
  5
1D8
100
AcDbEntity
  8
0
 62
256
370
13
 48
1.0
  6
BYLAYER
100
AcDbLine
 10
374.5
 20
22.3999999999999915
 30
0.0
 11
377.0
 21
22.3999999999999915
 31
0.0
  0
LINE
  5
1D9
100
AcDbEntity
  8
0
 62
256
370
13
 48
1.0
  6
BYLAYER
100
AcDbLine
 10
185.5
 20
22.3999999999999915
 30
0.0
 11
188.0
 21
22.3999999999999915
 31
0.0
  0
LINE
  5
1DA
100
AcDbEntity
  8
0
 62
256
370
13
 48
1.0
  6
BYLAYER
100
AcDbLine
 10
248.5
 20
22.3999999999999915
 30
0.0
 11
251.0
 21
22.3999999999999915
 31
0.0
  0
LINE
  5
1DB
100
AcDbEntity
  8
0
 62
256
370
13
 48
1.0
  6
BYLAYER
100
AcDbLine
 10
7.6000000000000156
 20
2.5000000000000036
 30
0.0
 11
7.5999999999999943
 21
0.0
 31
0.0
  0
LINE
  5
1DC
100
AcDbEntity
  8
0
 62
256
370
13
 48
1.0
  6
BYLAYER
100
AcDbLine
 10
70.6000000000000227
 20
2.5000000000000036
 30
0.0
 11
70.5999999999999943
 21
0.0
 31
0.0
  0
LINE
  5
1DD
100
AcDbEntity
  8
0
 62
256
370
13
 48
1.0
  6
BYLAYER
100
AcDbLine
 10
385.6000000000000227
 20
2.5000000000000036
 30
0.0
 11
385.6000000000000227
 21
-0.0000000000000036
 31
0.0
  0
LINE
  5
1DE
100
AcDbEntity
  8
0
 62
256
370
13
 48
1.0
  6
BYLAYER
100
AcDbLine
 10
448.6000000000000227
 20
2.5000000000000036
 30
0.0
 11
448.6000000000000227
 21
-0.0000000000000036
 31
0.0
  0
LINE
  5
1DF
100
AcDbEntity
  8
0
 62
256
370
13
 48
1.0
  6
BYLAYER
100
AcDbLine
 10
259.6000000000000227
 20
2.5
 30
0.0
 11
259.6000000000000227
 21
0.0
 31
0.0
  0
LINE
  5
1E0
100
AcDbEntity
  8
0
 62
256
370
13
 48
1.0
  6
BYLAYER
100
AcDbLine
 10
322.6000000000000227
 20
2.5
 30
0.0
 11
322.6000000000000227
 21
0.0
 31
0.0
  0
LINE
  5
1E1
100
AcDbEntity
  8
0
 62
256
370
13
 48
1.0
  6
BYLAYER
100
AcDbLine
 10
133.6000000000000227
 20
2.5
 30
0.0
 11
133.5999999999999943
 21
0.0
 31
0.0
  0
LINE
  5
1E2
100
AcDbEntity
  8
0
 62
256
370
13
 48
1.0
  6
BYLAYER
100
AcDbLine
 10
196.6000000000000227
 20
2.5
 30
0.0
 11
196.5999999999999943
 21
0.0
 31
0.0
  0
LINE
  5
1E3
100
AcDbEntity
  8
0
 62
256
370
13
 48
1.0
  6
BYLAYER
100
AcDbLine
 10
39.6000000000000227
 20
2.5000000000000018
 30
0.0
 11
39.6000000000000014
 21
-0.0000000000000018
 31
0.0
  0
LINE
  5
1E4
100
AcDbEntity
  8
0
 62
256
370
13
 48
1.0
  6
BYLAYER
100
AcDbLine
 10
102.6000000000000227
 20
2.5000000000000018
 30
0.0
 11
102.5999999999999943
 21
-0.0000000000000018
 31
0.0
  0
LINE
  5
1E5
100
AcDbEntity
  8
0
 62
256
370
13
 48
1.0
  6
BYLAYER
100
AcDbLine
 10
417.6000000000000227
 20
2.4999999999999964
 30
0.0
 11
417.6000000000000227
 21
-0.0000000000000036
 31
0.0
  0
LINE
  5
1E6
100
AcDbEntity
  8
0
 62
256
370
13
 48
1.0
  6
BYLAYER
100
AcDbLine
 10
480.6000000000000227
 20
2.4999999999999964
 30
0.0
 11
480.6000000000000227
 21
-0.0000000000000036
 31
0.0
  0
LINE
  5
1E7
100
AcDbEntity
  8
0
 62
256
370
13
 48
1.0
  6
BYLAYER
100
AcDbLine
 10
291.6000000000000227
 20
2.5
 30
0.0
 11
291.6000000000000227
 21
0.0
 31
0.0
  0
LINE
  5
1E8
100
AcDbEntity
  8
0
 62
256
370
13
 48
1.0
  6
BYLAYER
100
AcDbLine
 10
354.6000000000000227
 20
2.5
 30
0.0
 11
354.6000000000000227
 21
0.0
 31
0.0
  0
LINE
  5
1E9
100
AcDbEntity
  8
0
 62
256
370
13
 48
1.0
  6
BYLAYER
100
AcDbLine
 10
165.6000000000000227
 20
2.5
 30
0.0
 11
165.5999999999999943
 21
0.0
 31
0.0
  0
LINE
  5
1EA
100
AcDbEntity
  8
0
 62
256
370
13
 48
1.0
  6
BYLAYER
100
AcDbLine
 10
228.6000000000000227
 20
2.5
 30
0.0
 11
228.5999999999999943
 21
0.0
 31
0.0
  0
LINE
  5
1EB
100
AcDbEntity
  8
0
 62
256
370
13
 48
1.0
  6
BYLAYER
100
AcDbLine
 10
27.5000000000000071
 20
15.100000000000005
 30
0.0
 11
30.0000000000000071
 21
15.100000000000005
 31
0.0
  0
LINE
  5
1EC
100
AcDbEntity
  8
0
 62
256
370
13
 48
1.0
  6
BYLAYER
100
AcDbLine
 10
90.5
 20
15.100000000000005
 30
0.0
 11
93.0
 21
15.100000000000005
 31
0.0
  0
LINE
  5
1ED
100
AcDbEntity
  8
0
 62
256
370
13
 48
1.0
  6
BYLAYER
100
AcDbLine
 10
405.5
 20
15.0999999999999979
 30
0.0
 11
408.0
 21
15.0999999999999979
 31
0.0
  0
LINE
  5
1EE
100
AcDbEntity
  8
0
 62
256
370
13
 48
1.0
  6
BYLAYER
100
AcDbLine
 10
468.5
 20
15.0999999999999979
 30
0.0
 11
471.0
 21
15.0999999999999979
 31
0.0
  0
LINE
  5
1EF
100
AcDbEntity
  8
0
 62
256
370
13
 48
1.0
  6
BYLAYER
100
AcDbLine
 10
279.5
 20
15.0999999999999943
 30
0.0
 11
282.0
 21
15.0999999999999943
 31
0.0
  0
LINE
  5
1F0
100
AcDbEntity
  8
0
 62
256
370
13
 48
1.0
  6
BYLAYER
100
AcDbLine
 10
342.5
 20
15.0999999999999943
 30
0.0
 11
345.0
 21
15.0999999999999943
 31
0.0
  0
LINE
  5
1F1
100
AcDbEntity
  8
0
 62
256
370
13
 48
1.0
  6
BYLAYER
100
AcDbLine
 10
153.5
 20
15.0999999999999943
 30
0.0
 11
156.0
 21
15.0999999999999943
 31
0.0
  0
LINE
  5
1F2
100
AcDbEntity
  8
0
 62
256
370
13
 48
1.0
  6
BYLAYER
100
AcDbLine
 10
216.5
 20
15.0999999999999943
 30
0.0
 11
219.0
 21
15.0999999999999943
 31
0.0
  0
LINE
  5
1F3
100
AcDbEntity
  8
0
 62
256
370
13
 48
1.0
  6
BYLAYER
100
AcDbLine
 10
59.5000000000000071
 20
15.100000000000005
 30
0.0
 11
62.0000000000000071
 21
15.100000000000005
 31
0.0
  0
LINE
  5
1F4
100
AcDbEntity
  8
0
 62
256
370
13
 48
1.0
  6
BYLAYER
100
AcDbLine
 10
122.5
 20
15.100000000000005
 30
0.0
 11
125.0
 21
15.100000000000005
 31
0.0
  0
LINE
  5
1F5
100
AcDbEntity
  8
0
 62
256
370
13
 48
1.0
  6
BYLAYER
100
AcDbLine
 10
437.5
 20
15.0999999999999979
 30
0.0
 11
440.0
 21
15.0999999999999979
 31
0.0
  0
LINE
  5
1F6
100
AcDbEntity
  8
0
 62
256
370
13
 48
1.0
  6
BYLAYER
100
AcDbLine
 10
500.5
 20
15.0999999999999979
 30
0.0
 11
503.0
 21
15.0999999999999979
 31
0.0
  0
LINE
  5
1F7
100
AcDbEntity
  8
0
 62
256
370
13
 48
1.0
  6
BYLAYER
100
AcDbLine
 10
311.5
 20
15.0999999999999943
 30
0.0
 11
314.0
 21
15.0999999999999943
 31
0.0
  0
LINE
  5
1F8
100
AcDbEntity
  8
0
 62
256
370
13
 48
1.0
  6
BYLAYER
100
AcDbLine
 10
374.5
 20
15.0999999999999943
 30
0.0
 11
377.0
 21
15.0999999999999943
 31
0.0
  0
LINE
  5
1F9
100
AcDbEntity
  8
0
 62
256
370
13
 48
1.0
  6
BYLAYER
100
AcDbLine
 10
185.5
 20
15.0999999999999943
 30
0.0
 11
188.0
 21
15.0999999999999943
 31
0.0
  0
LINE
  5
1FA
100
AcDbEntity
  8
0
 62
256
370
13
 48
1.0
  6
BYLAYER
100
AcDbLine
 10
248.5
 20
15.0999999999999943
 30
0.0
 11
251.0
 21
15.0999999999999943
 31
0.0
  0
LINE
  5
1FB
100
AcDbEntity
  8
0
 62
256
370
13
 48
1.0
  6
BYLAYER
100
AcDbLine
 10
14.8999999999999986
 20
2.5
 30
0.0
 11
14.8999999999999986
 21
0.0000000000000036
 31
0.0
  0
LINE
  5
1FC
100
AcDbEntity
  8
0
 62
256
370
13
 48
1.0
  6
BYLAYER
100
AcDbLine
 10
77.9000000000000057
 20
2.5
 30
0.0
 11
77.9000000000000057
 21
0.0000000000000036
 31
0.0
  0
LINE
  5
1FD
100
AcDbEntity
  8
0
 62
256
370
13
 48
1.0
  6
BYLAYER
100
AcDbLine
 10
392.8999999999999773
 20
2.4999999999999964
 30
0.0
 11
392.8999999999999773
 21
0.0
 31
0.0
  0
LINE
  5
1FE
100
AcDbEntity
  8
0
 62
256
370
13
 48
1.0
  6
BYLAYER
100
AcDbLine
 10
455.8999999999999773
 20
2.4999999999999964
 30
0.0
 11
455.8999999999999773
 21
0.0
 31
0.0
  0
LINE
  5
1FF
100
AcDbEntity
  8
0
 62
256
370
13
 48
1.0
  6
BYLAYER
100
AcDbLine
 10
266.8999999999999773
 20
2.5
 30
0.0
 11
266.8999999999999773
 21
0.0
 31
0.0
  0
LINE
  5
200
100
AcDbEntity
  8
0
 62
256
370
13
 48
1.0
  6
BYLAYER
100
AcDbLine
 10
329.8999999999999773
 20
2.5
 30
0.0
 11
329.8999999999999773
 21
0.0
 31
0.0
  0
LINE
  5
201
100
AcDbEntity
  8
0
 62
256
370
13
 48
1.0
  6
BYLAYER
100
AcDbLine
 10
140.9000000000000057
 20
2.5
 30
0.0
 11
140.9000000000000057
 21
0.0
 31
0.0
  0
LINE
  5
202
100
AcDbEntity
  8
0
 62
256
370
13
 48
1.0
  6
BYLAYER
100
AcDbLine
 10
203.9000000000000057
 20
2.5
 30
0.0
 11
203.9000000000000057
 21
0.0
 31
0.0
  0
LINE
  5
203
100
AcDbEntity
  8
0
 62
256
370
13
 48
1.0
  6
BYLAYER
100
AcDbLine
 10
46.9000000000000057
 20
2.4999999999999982
 30
0.0
 11
46.9000000000000057
 21
0.0000000000000018
 31
0.0
  0
LINE
  5
204
100
AcDbEntity
  8
0
 62
256
370
13
 48
1.0
  6
BYLAYER
100
AcDbLine
 10
109.9000000000000057
 20
2.4999999999999982
 30
0.0
 11
109.9000000000000057
 21
0.0000000000000018
 31
0.0
  0
LINE
  5
205
100
AcDbEntity
  8
0
 62
256
370
13
 48
1.0
  6
BYLAYER
100
AcDbLine
 10
424.8999999999999773
 20
2.4999999999999964
 30
0.0
 11
424.8999999999999773
 21
-0.0000000000000036
 31
0.0
  0
LINE
  5
206
100
AcDbEntity
  8
0
 62
256
370
13
 48
1.0
  6
BYLAYER
100
AcDbLine
 10
487.8999999999999773
 20
2.4999999999999964
 30
0.0
 11
487.8999999999999773
 21
-0.0000000000000036
 31
0.0
  0
LINE
  5
207
100
AcDbEntity
  8
0
 62
256
370
13
 48
1.0
  6
BYLAYER
100
AcDbLine
 10
298.8999999999999773
 20
2.5
 30
0.0
 11
298.8999999999999773
 21
0.0
 31
0.0
  0
LINE
  5
208
100
AcDbEntity
  8
0
 62
256
370
13
 48
1.0
  6
BYLAYER
100
AcDbLine
 10
361.8999999999999773
 20
2.5
 30
0.0
 11
361.8999999999999773
 21
0.0
 31
0.0
  0
LINE
  5
209
100
AcDbEntity
  8
0
 62
256
370
13
 48
1.0
  6
BYLAYER
100
AcDbLine
 10
172.9000000000000057
 20
2.5
 30
0.0
 11
172.9000000000000057
 21
0.0
 31
0.0
  0
LINE
  5
20A
100
AcDbEntity
  8
0
 62
256
370
13
 48
1.0
  6
BYLAYER
100
AcDbLine
 10
235.9000000000000057
 20
2.5
 30
0.0
 11
235.9000000000000057
 21
0.0
 31
0.0
  0
LINE
  5
20B
100
AcDbEntity
  8
0
 62
256
370
13
 48
1.0
  6
BYLAYER
100
AcDbLine
 10
27.5000000000000071
 20
7.4000000000000021
 30
0.0
 11
30.0000000000000071
 21
7.4000000000000021
 31
0.0
  0
LINE
  5
20C
100
AcDbEntity
  8
0
 62
256
370
13
 48
1.0
  6
BYLAYER
100
AcDbLine
 10
90.5
 20
7.4000000000000021
 30
0.0
 11
93.0
 21
7.4000000000000021
 31
0.0
  0
LINE
  5
20D
100
AcDbEntity
  8
0
 62
256
370
13
 48
1.0
  6
BYLAYER
100
AcDbLine
 10
405.5
 20
7.399999999999995
 30
0.0
 11
408.0
 21
7.399999999999995
 31
0.0
  0
LINE
  5
20E
100
AcDbEntity
  8
0
 62
256
370
13
 48
1.0
  6
BYLAYER
100
AcDbLine
 10
468.5
 20
7.399999999999995
 30
0.0
 11
471.0
 21
7.399999999999995
 31
0.0
  0
LINE
  5
20F
100
AcDbEntity
  8
0
 62
256
370
13
 48
1.0
  6
BYLAYER
100
AcDbLine
 10
279.5
 20
7.3999999999999915
 30
0.0
 11
282.0
 21
7.3999999999999915
 31
0.0
  0
LINE
  5
210
100
AcDbEntity
  8
0
 62
256
370
13
 48
1.0
  6
BYLAYER
100
AcDbLine
 10
342.5
 20
7.3999999999999915
 30
0.0
 11
345.0
 21
7.3999999999999915
 31
0.0
  0
LINE
  5
211
100
AcDbEntity
  8
0
 62
256
370
13
 48
1.0
  6
BYLAYER
100
AcDbLine
 10
153.5
 20
7.3999999999999915
 30
0.0
 11
156.0
 21
7.3999999999999915
 31
0.0
  0
LINE
  5
212
100
AcDbEntity
  8
0
 62
256
370
13
 48
1.0
  6
BYLAYER
100
AcDbLine
 10
216.5
 20
7.3999999999999915
 30
0.0
 11
219.0
 21
7.3999999999999915
 31
0.0
  0
LINE
  5
213
100
AcDbEntity
  8
0
 62
256
370
13
 48
1.0
  6
BYLAYER
100
AcDbLine
 10
59.5000000000000071
 20
7.4000000000000021
 30
0.0
 11
62.0000000000000071
 21
7.4000000000000021
 31
0.0
  0
LINE
  5
214
100
AcDbEntity
  8
0
 62
256
370
13
 48
1.0
  6
BYLAYER
100
AcDbLine
 10
122.5
 20
7.4000000000000021
 30
0.0
 11
125.0
 21
7.4000000000000021
 31
0.0
  0
LINE
  5
215
100
AcDbEntity
  8
0
 62
256
370
13
 48
1.0
  6
BYLAYER
100
AcDbLine
 10
437.5
 20
7.399999999999995
 30
0.0
 11
440.0
 21
7.399999999999995
 31
0.0
  0
LINE
  5
216
100
AcDbEntity
  8
0
 62
256
370
13
 48
1.0
  6
BYLAYER
100
AcDbLine
 10
500.5
 20
7.399999999999995
 30
0.0
 11
503.0
 21
7.399999999999995
 31
0.0
  0
LINE
  5
217
100
AcDbEntity
  8
0
 62
256
370
13
 48
1.0
  6
BYLAYER
100
AcDbLine
 10
311.5
 20
7.3999999999999915
 30
0.0
 11
314.0
 21
7.3999999999999915
 31
0.0
  0
LINE
  5
218
100
AcDbEntity
  8
0
 62
256
370
13
 48
1.0
  6
BYLAYER
100
AcDbLine
 10
374.5
 20
7.3999999999999915
 30
0.0
 11
377.0
 21
7.3999999999999915
 31
0.0
  0
LINE
  5
219
100
AcDbEntity
  8
0
 62
256
370
13
 48
1.0
  6
BYLAYER
100
AcDbLine
 10
185.5
 20
7.3999999999999915
 30
0.0
 11
188.0
 21
7.3999999999999915
 31
0.0
  0
LINE
  5
21A
100
AcDbEntity
  8
0
 62
256
370
13
 48
1.0
  6
BYLAYER
100
AcDbLine
 10
248.5
 20
7.3999999999999915
 30
0.0
 11
251.0
 21
7.3999999999999915
 31
0.0
  0
LINE
  5
21B
100
AcDbEntity
  8
0
 62
256
370
13
 48
1.0
  6
BYLAYER
100
AcDbLine
 10
22.6000000000000085
 20
2.5000000000000071
 30
0.0
 11
22.6000000000000156
 21
0.0000000000000107
 31
0.0
  0
LINE
  5
21C
100
AcDbEntity
  8
0
 62
256
370
13
 48
1.0
  6
BYLAYER
100
AcDbLine
 10
85.6000000000000085
 20
2.5000000000000071
 30
0.0
 11
85.6000000000000227
 21
0.0000000000000107
 31
0.0
  0
LINE
  5
21D
100
AcDbEntity
  8
0
 62
256
370
13
 48
1.0
  6
BYLAYER
100
AcDbLine
 10
400.6000000000000227
 20
2.5000000000000036
 30
0.0
 11
400.6000000000000227
 21
0.0000000000000071
 31
0.0
  0
LINE
  5
21E
100
AcDbEntity
  8
0
 62
256
370
13
 48
1.0
  6
BYLAYER
100
AcDbLine
 10
463.6000000000000227
 20
2.5000000000000036
 30
0.0
 11
463.6000000000000227
 21
0.0000000000000071
 31
0.0
  0
LINE
  5
21F
100
AcDbEntity
  8
0
 62
256
370
13
 48
1.0
  6
BYLAYER
100
AcDbLine
 10
274.6000000000000227
 20
2.5
 30
0.0
 11
274.6000000000000227
 21
0.0000000000000071
 31
0.0
  0
LINE
  5
220
100
AcDbEntity
  8
0
 62
256
370
13
 48
1.0
  6
BYLAYER
100
AcDbLine
 10
337.6000000000000227
 20
2.5
 30
0.0
 11
337.6000000000000227
 21
0.0000000000000071
 31
0.0
  0
LINE
  5
221
100
AcDbEntity
  8
0
 62
256
370
13
 48
1.0
  6
BYLAYER
100
AcDbLine
 10
148.6000000000000227
 20
2.5
 30
0.0
 11
148.6000000000000227
 21
0.0
 31
0.0
  0
LINE
  5
222
100
AcDbEntity
  8
0
 62
256
370
13
 48
1.0
  6
BYLAYER
100
AcDbLine
 10
211.6000000000000227
 20
2.5
 30
0.0
 11
211.6000000000000227
 21
0.0
 31
0.0
  0
LINE
  5
223
100
AcDbEntity
  8
0
 62
256
370
13
 48
1.0
  6
BYLAYER
100
AcDbLine
 10
54.6000000000000156
 20
2.5000000000000053
 30
0.0
 11
54.6000000000000298
 21
0.0000000000000089
 31
0.0
  0
LINE
  5
224
100
AcDbEntity
  8
0
 62
256
370
13
 48
1.0
  6
BYLAYER
100
AcDbLine
 10
117.6000000000000227
 20
2.5000000000000053
 30
0.0
 11
117.6000000000000227
 21
0.0000000000000089
 31
0.0
  0
LINE
  5
225
100
AcDbEntity
  8
0
 62
256
370
13
 48
1.0
  6
BYLAYER
100
AcDbLine
 10
432.6000000000000227
 20
2.5000000000000036
 30
0.0
 11
432.6000000000000227
 21
0.0000000000000036
 31
0.0
  0
LINE
  5
226
100
AcDbEntity
  8
0
 62
256
370
13
 48
1.0
  6
BYLAYER
100
AcDbLine
 10
495.6000000000000227
 20
2.5000000000000036
 30
0.0
 11
495.6000000000000227
 21
0.0000000000000036
 31
0.0
  0
LINE
  5
227
100
AcDbEntity
  8
0
 62
256
370
13
 48
1.0
  6
BYLAYER
100
AcDbLine
 10
306.6000000000000227
 20
2.5
 30
0.0
 11
306.6000000000000227
 21
0.0
 31
0.0
  0
LINE
  5
228
100
AcDbEntity
  8
0
 62
256
370
13
 48
1.0
  6
BYLAYER
100
AcDbLine
 10
369.6000000000000227
 20
2.5
 30
0.0
 11
369.6000000000000227
 21
0.0
 31
0.0
  0
LINE
  5
229
100
AcDbEntity
  8
0
 62
256
370
13
 48
1.0
  6
BYLAYER
100
AcDbLine
 10
180.6000000000000227
 20
2.5
 30
0.0
 11
180.6000000000000227
 21
0.0
 31
0.0
  0
LINE
  5
22A
100
AcDbEntity
  8
0
 62
256
370
13
 48
1.0
  6
BYLAYER
100
AcDbLine
 10
243.6000000000000227
 20
2.5
 30
0.0
 11
243.6000000000000227
 21
0.0
 31
0.0
  0
LINE
  5
22B
100
AcDbEntity
  8
icon
 62
256
370
9
 48
1.0
  6
BYLAYER
100
AcDbLine
 10
48.351135463360329
 20
26.7643324788994228
 30
0.0
 11
45.5828241260690348
 21
23.9960211416081428
 31
0.0
  0
LINE
  5
22C
100
AcDbEntity
  8
icon
 62
256
370
9
 48
1.0
  6
BYLAYER
100
AcDbLine
 10
111.3511354633603219
 20
26.7643324788994228
 30
0.0
 11
108.5828241260690277
 21
23.9960211416081428
 31
0.0
  0
LINE
  5
22D
100
AcDbEntity
  8
icon
 62
256
370
9
 48
1.0
  6
BYLAYER
100
AcDbLine
 10
426.3511354633603219
 20
26.7643324788994228
 30
0.0
 11
423.5828241260690561
 21
23.9960211416081428
 31
0.0
  0
LINE
  5
22E
100
AcDbEntity
  8
icon
 62
256
370
9
 48
1.0
  6
BYLAYER
100
AcDbLine
 10
489.3511354633603219
 20
26.7643324788994228
 30
0.0
 11
486.5828241260689992
 21
23.9960211416081428
 31
0.0
  0
LINE
  5
22F
100
AcDbEntity
  8
icon
 62
256
370
9
 48
1.0
  6
BYLAYER
100
AcDbLine
 10
300.3511354633603219
 20
26.7643324788994192
 30
0.0
 11
297.5828241260690561
 21
23.9960211416081393
 31
0.0
  0
LINE
  5
230
100
AcDbEntity
  8
icon
 62
256
370
9
 48
1.0
  6
BYLAYER
100
AcDbLine
 10
363.3511354633603219
 20
26.7643324788994192
 30
0.0
 11
360.5828241260689992
 21
23.9960211416081393
 31
0.0
  0
LINE
  5
231
100
AcDbEntity
  8
icon
 62
256
370
9
 48
1.0
  6
BYLAYER
100
AcDbLine
 10
174.3511354633603219
 20
26.7643324788994192
 30
0.0
 11
171.5828241260690277
 21
23.9960211416081393
 31
0.0
  0
LINE
  5
232
100
AcDbEntity
  8
icon
 62
256
370
9
 48
1.0
  6
BYLAYER
100
AcDbLine
 10
237.3511354633603219
 20
26.7643324788994192
 30
0.0
 11
234.5828241260690277
 21
23.9960211416081393
 31
0.0
  0
LINE
  5
233
100
AcDbEntity
  8
icon
 62
256
370
9
 48
1.0
  6
BYLAYER
100
AcDbLine
 10
37.5429969257121527
 20
15.9561939412512537
 30
0.0
 11
35.3448608086418758
 21
13.7580578241809697
 31
0.0
  0
LINE
  5
234
100
AcDbEntity
  8
icon
 62
256
370
9
 48
1.0
  6
BYLAYER
100
AcDbLine
 10
100.5429969257121456
 20
15.9561939412512537
 30
0.0
 11
98.3448608086418687
 21
13.7580578241809697
 31
0.0
  0
LINE
  5
235
100
AcDbEntity
  8
icon
 62
256
370
9
 48
1.0
  6
BYLAYER
100
AcDbLine
 10
415.5429969257121456
 20
15.9561939412512466
 30
0.0
 11
413.3448608086418972
 21
13.7580578241809697
 31
0.0
  0
LINE
  5
236
100
AcDbEntity
  8
icon
 62
256
370
9
 48
1.0
  6
BYLAYER
100
AcDbLine
 10
478.5429969257121456
 20
15.9561939412512466
 30
0.0
 11
476.3448608086418972
 21
13.7580578241809697
 31
0.0
  0
LINE
  5
237
100
AcDbEntity
  8
icon
 62
256
370
9
 48
1.0
  6
BYLAYER
100
AcDbLine
 10
289.5429969257121456
 20
15.956193941251243
 30
0.0
 11
287.3448608086418972
 21
13.7580578241809661
 31
0.0
  0
LINE
  5
238
100
AcDbEntity
  8
icon
 62
256
370
9
 48
1.0
  6
BYLAYER
100
AcDbLine
 10
352.5429969257121456
 20
15.956193941251243
 30
0.0
 11
350.3448608086418972
 21
13.7580578241809661
 31
0.0
  0
LINE
  5
239
100
AcDbEntity
  8
icon
 62
256
370
9
 48
1.0
  6
BYLAYER
100
AcDbLine
 10
163.5429969257121456
 20
15.956193941251243
 30
0.0
 11
161.3448608086418687
 21
13.7580578241809661
 31
0.0
  0
LINE
  5
23A
100
AcDbEntity
  8
icon
 62
256
370
9
 48
1.0
  6
BYLAYER
100
AcDbLine
 10
226.5429969257121456
 20
15.956193941251243
 30
0.0
 11
224.3448608086418687
 21
13.7580578241809661
 31
0.0
  0
LINE
  5
23B
100
AcDbEntity
  8
icon
 62
256
370
9
 48
1.0
  6
BYLAYER
100
AcDbLine
 10
42.1330857461115968
 20
6.9698328867112416
 30
0.0
 11
44.9124199263475035
 21
9.7491670669471553
 31
0.0
  0
LINE
  5
23C
100
AcDbEntity
  8
icon
 62
256
370
9
 48
1.0
  6
BYLAYER
100
AcDbLine
 10
105.1330857461115897
 20
6.9698328867112416
 30
0.0
 11
107.9124199263474964
 21
9.7491670669471553
 31
0.0
  0
LINE
  5
23D
100
AcDbEntity
  8
icon
 62
256
370
9
 48
1.0
  6
BYLAYER
100
AcDbLine
 10
420.1330857461115897
 20
6.9698328867112345
 30
0.0
 11
422.9124199263475248
 21
9.7491670669471553
 31
0.0
  0
LINE
  5
23E
100
AcDbEntity
  8
icon
 62
256
370
9
 48
1.0
  6
BYLAYER
100
AcDbLine
 10
483.1330857461115897
 20
6.9698328867112345
 30
0.0
 11
485.9124199263475248
 21
9.7491670669471553
 31
0.0
  0
LINE
  5
23F
100
AcDbEntity
  8
icon
 62
256
370
9
 48
1.0
  6
BYLAYER
100
AcDbLine
 10
294.1330857461115897
 20
6.9698328867112309
 30
0.0
 11
296.9124199263475248
 21
9.7491670669471517
 31
0.0
  0
LINE
  5
240
100
AcDbEntity
  8
icon
 62
256
370
9
 48
1.0
  6
BYLAYER
100
AcDbLine
 10
357.1330857461115897
 20
6.9698328867112309
 30
0.0
 11
359.9124199263475248
 21
9.7491670669471517
 31
0.0
  0
LINE
  5
241
100
AcDbEntity
  8
icon
 62
256
370
9
 48
1.0
  6
BYLAYER
100
AcDbLine
 10
168.1330857461115897
 20
6.9698328867112309
 30
0.0
 11
170.9124199263474964
 21
9.7491670669471517
 31
0.0
  0
LINE
  5
242
100
AcDbEntity
  8
icon
 62
256
370
9
 48
1.0
  6
BYLAYER
100
AcDbLine
 10
231.1330857461115897
 20
6.9698328867112309
 30
0.0
 11
233.9124199263474964
 21
9.7491670669471517
 31
0.0
  0
LINE
  5
243
100
AcDbEntity
  8
icon
 62
256
370
9
 48
1.0
  6
BYLAYER
100
AcDbLine
 10
51.7898510003730976
 20
16.6265981409727495
 30
0.0
 11
55.1393604008301068
 21
19.9761075414296876
 31
0.0
  0
LINE
  5
244
100
AcDbEntity
  8
icon
 62
256
370
9
 48
1.0
  6
BYLAYER
100
AcDbLine
 10
114.7898510003730905
 20
16.6265981409727495
 30
0.0
 11
118.1393604008300997
 21
19.9761075414296876
 31
0.0
  0
LINE
  5
245
100
AcDbEntity
  8
icon
 62
256
370
9
 48
1.0
  6
BYLAYER
100
AcDbLine
 10
429.7898510003731189
 20
16.6265981409727495
 30
0.0
 11
433.1393604008301281
 21
19.9761075414296876
 31
0.0
  0
LINE
  5
246
100
AcDbEntity
  8
icon
 62
256
370
9
 48
1.0
  6
BYLAYER
100
AcDbLine
 10
492.7898510003731189
 20
16.6265981409727495
 30
0.0
 11
496.1393604008301281
 21
19.9761075414296876
 31
0.0
  0
LINE
  5
247
100
AcDbEntity
  8
icon
 62
256
370
9
 48
1.0
  6
BYLAYER
100
AcDbLine
 10
303.7898510003731189
 20
16.6265981409727459
 30
0.0
 11
307.1393604008301281
 21
19.976107541429684
 31
0.0
  0
LINE
  5
248
100
AcDbEntity
  8
icon
 62
256
370
9
 48
1.0
  6
BYLAYER
100
AcDbLine
 10
366.7898510003731189
 20
16.6265981409727459
 30
0.0
 11
370.1393604008301281
 21
19.976107541429684
 31
0.0
  0
LINE
  5
249
100
AcDbEntity
  8
icon
 62
256
370
9
 48
1.0
  6
BYLAYER
100
AcDbLine
 10
177.7898510003730905
 20
16.6265981409727459
 30
0.0
 11
181.1393604008300997
 21
19.976107541429684
 31
0.0
  0
LINE
  5
24A
100
AcDbEntity
  8
icon
 62
256
370
9
 48
1.0
  6
BYLAYER
100
AcDbLine
 10
240.7898510003730905
 20
16.6265981409727459
 30
0.0
 11
244.1393604008300997
 21
19.976107541429684
 31
0.0
  0
LINE
  5
24B
100
AcDbEntity
  8
icon
 62
256
370
9
 48
1.0
  6
BYLAYER
100
AcDbLine
 10
55.1393604008301068
 20
19.9761075414296876
 30
0.0
 11
55.1376042272268947
 21
19.9778637150328713
 31
0.0
  0
LINE
  5
24C
100
AcDbEntity
  8
icon
 62
256
370
9
 48
1.0
  6
BYLAYER
100
AcDbLine
 10
118.1393604008300997
 20
19.9761075414296876
 30
0.0
 11
118.1376042272268876
 21
19.9778637150328713
 31
0.0
  0
LINE
  5
24D
100
AcDbEntity
  8
icon
 62
256
370
9
 48
1.0
  6
BYLAYER
100
AcDbLine
 10
433.1393604008301281
 20
19.9761075414296876
 30
0.0
 11
433.137604227226916
 21
19.9778637150328713
 31
0.0
  0
LINE
  5
24E
100
AcDbEntity
  8
icon
 62
256
370
9
 48
1.0
  6
BYLAYER
100
AcDbLine
 10
496.1393604008301281
 20
19.9761075414296876
 30
0.0
 11
496.137604227226916
 21
19.9778637150328713
 31
0.0
  0
LINE
  5
24F
100
AcDbEntity
  8
icon
 62
256
370
9
 48
1.0
  6
BYLAYER
100
AcDbLine
 10
307.1393604008301281
 20
19.976107541429684
 30
0.0
 11
307.137604227226916
 21
19.9778637150328677
 31
0.0
  0
LINE
  5
250
100
AcDbEntity
  8
icon
 62
256
370
9
 48
1.0
  6
BYLAYER
100
AcDbLine
 10
370.1393604008301281
 20
19.976107541429684
 30
0.0
 11
370.137604227226916
 21
19.9778637150328677
 31
0.0
  0
LINE
  5
251
100
AcDbEntity
  8
icon
 62
256
370
9
 48
1.0
  6
BYLAYER
100
AcDbLine
 10
181.1393604008300997
 20
19.976107541429684
 30
0.0
 11
181.1376042272268876
 21
19.9778637150328677
 31
0.0
  0
LINE
  5
252
100
AcDbEntity
  8
icon
 62
256
370
9
 48
1.0
  6
BYLAYER
100
AcDbLine
 10
244.1393604008300997
 20
19.976107541429684
 30
0.0
 11
244.1376042272268876
 21
19.9778637150328677
 31
0.0
  0
LINE
  5
253
100
AcDbEntity
  8
0
 62
256
370
9
 48
1.0
  6
BYLAYER
100
AcDbLine
 10
48.3528903597715285
 20
26.7625775824882091
 30
0.0
 11
48.351135463360329
 21
26.7643324788994228
 31
0.0
  0
LINE
  5
254
100
AcDbEntity
  8
icon
 62
256
370
9
 48
1.0
  6
BYLAYER
100
AcDbLine
 10
111.3528903597715214
 20
26.7625775824882091
 30
0.0
 11
111.3511354633603219
 21
26.7643324788994228
 31
0.0
  0
LINE
  5
255
100
AcDbEntity
  8
0
 62
256
370
9
 48
1.0
  6
BYLAYER
100
AcDbLine
 10
426.3528903597715498
 20
26.7625775824882091
 30
0.0
 11
426.3511354633603219
 21
26.7643324788994228
 31
0.0
  0
LINE
  5
256
100
AcDbEntity
  8
icon
 62
256
370
9
 48
1.0
  6
BYLAYER
100
AcDbLine
 10
489.3528903597715498
 20
26.7625775824882091
 30
0.0
 11
489.3511354633603219
 21
26.7643324788994228
 31
0.0
  0
LINE
  5
257
100
AcDbEntity
  8
0
 62
256
370
9
 48
1.0
  6
BYLAYER
100
AcDbLine
 10
300.3528903597715498
 20
26.7625775824882055
 30
0.0
 11
300.3511354633603219
 21
26.7643324788994192
 31
0.0
  0
LINE
  5
258
100
AcDbEntity
  8
icon
 62
256
370
9
 48
1.0
  6
BYLAYER
100
AcDbLine
 10
363.3528903597715498
 20
26.7625775824882055
 30
0.0
 11
363.3511354633603219
 21
26.7643324788994192
 31
0.0
  0
LINE
  5
259
100
AcDbEntity
  8
0
 62
256
370
9
 48
1.0
  6
BYLAYER
100
AcDbLine
 10
174.3528903597715214
 20
26.7625775824882055
 30
0.0
 11
174.3511354633603219
 21
26.7643324788994192
 31
0.0
  0
LINE
  5
25A
100
AcDbEntity
  8
icon
 62
256
370
9
 48
1.0
  6
BYLAYER
100
AcDbLine
 10
237.3528903597715214
 20
26.7625775824882055
 30
0.0
 11
237.3511354633603219
 21
26.7643324788994192
 31
0.0
  0
LINE
  5
25B
100
AcDbEntity
  8
icon
 62
256
370
9
 48
1.0
  6
BYLAYER
100
AcDbLine
 10
39.8807270624725803
 20
4.7174750336470961
 30
0.0
 11
42.1434689398746869
 21
6.9802169110491938
 31
0.0
  0
LINE
  5
25C
100
AcDbEntity
  8
icon
 62
256
370
9
 48
1.0
  6
BYLAYER
100
AcDbLine
 10
102.8807270624725732
 20
4.7174750336470961
 30
0.0
 11
105.1434689398746798
 21
6.9802169110491938
 31
0.0
  0
LINE
  5
25D
100
AcDbEntity
  8
icon
 62
256
370
9
 48
1.0
  6
BYLAYER
100
AcDbLine
 10
417.8807270624726016
 20
4.7174750336470943
 30
0.0
 11
420.1434689398747082
 21
6.9802169110491867
 31
0.0
  0
LINE
  5
25E
100
AcDbEntity
  8
icon
 62
256
370
9
 48
1.0
  6
BYLAYER
100
AcDbLine
 10
480.8807270624726016
 20
4.7174750336470943
 30
0.0
 11
483.1434689398746514
 21
6.9802169110491867
 31
0.0
  0
LINE
  5
25F
100
AcDbEntity
  8
icon
 62
256
370
9
 48
1.0
  6
BYLAYER
100
AcDbLine
 10
291.8807270624726016
 20
4.7174750336470908
 30
0.0
 11
294.1434689398747082
 21
6.9802169110491832
 31
0.0
  0
LINE
  5
260
100
AcDbEntity
  8
icon
 62
256
370
9
 48
1.0
  6
BYLAYER
100
AcDbLine
 10
354.8807270624726016
 20
4.7174750336470908
 30
0.0
 11
357.1434689398746514
 21
6.9802169110491832
 31
0.0
  0
LINE
  5
261
100
AcDbEntity
  8
icon
 62
256
370
9
 48
1.0
  6
BYLAYER
100
AcDbLine
 10
165.8807270624725732
 20
4.7174750336470908
 30
0.0
 11
168.1434689398746798
 21
6.9802169110491832
 31
0.0
  0
LINE
  5
262
100
AcDbEntity
  8
icon
 62
256
370
9
 48
1.0
  6
BYLAYER
100
AcDbLine
 10
228.8807270624725732
 20
4.7174750336470908
 30
0.0
 11
231.1434689398746798
 21
6.9802169110491832
 31
0.0
  0
LINE
  5
263
100
AcDbEntity
  8
icon
 62
256
370
9
 48
1.0
  6
BYLAYER
100
AcDbLine
 10
42.1434689398746869
 20
6.9802169110491938
 30
0.0
 11
44.4062105266555776
 21
9.2429584978300703
 31
0.0
  0
LINE
  5
264
100
AcDbEntity
  8
icon
 62
256
370
9
 48
1.0
  6
BYLAYER
100
AcDbLine
 10
105.1434689398746798
 20
6.9802169110491938
 30
0.0
 11
107.4062105266555704
 21
9.2429584978300703
 31
0.0
  0
LINE
  5
265
100
AcDbEntity
  8
icon
 62
256
370
9
 48
1.0
  6
BYLAYER
100
AcDbLine
 10
420.1434689398747082
 20
6.9802169110491867
 30
0.0
 11
422.4062105266555704
 21
9.2429584978300632
 31
0.0
  0
LINE
  5
266
100
AcDbEntity
  8
icon
 62
256
370
9
 48
1.0
  6
BYLAYER
100
AcDbLine
 10
483.1434689398746514
 20
6.9802169110491867
 30
0.0
 11
485.4062105266555704
 21
9.2429584978300632
 31
0.0
  0
LINE
  5
267
100
AcDbEntity
  8
icon
 62
256
370
9
 48
1.0
  6
BYLAYER
100
AcDbLine
 10
294.1434689398747082
 20
6.9802169110491832
 30
0.0
 11
296.4062105266555704
 21
9.2429584978300596
 31
0.0
  0
LINE
  5
268
100
AcDbEntity
  8
icon
 62
256
370
9
 48
1.0
  6
BYLAYER
100
AcDbLine
 10
357.1434689398746514
 20
6.9802169110491832
 30
0.0
 11
359.4062105266555704
 21
9.2429584978300596
 31
0.0
  0
LINE
  5
269
100
AcDbEntity
  8
icon
 62
256
370
9
 48
1.0
  6
BYLAYER
100
AcDbLine
 10
168.1434689398746798
 20
6.9802169110491832
 30
0.0
 11
170.4062105266555704
 21
9.2429584978300596
 31
0.0
  0
LINE
  5
26A
100
AcDbEntity
  8
icon
 62
256
370
9
 48
1.0
  6
BYLAYER
100
AcDbLine
 10
231.1434689398746798
 20
6.9802169110491832
 30
0.0
 11
233.4062105266555704
 21
9.2429584978300596
 31
0.0
  0
LINE
  5
26B
100
AcDbEntity
  8
icon
 62
256
370
9
 48
1.0
  6
BYLAYER
100
AcDbLine
 10
35.3552438284649284
 20
13.7684420224589665
 30
0.0
 11
37.6179858424647833
 21
9.2429584216782636
 31
0.0
  0
LINE
  5
26C
100
AcDbEntity
  8
icon
 62
256
370
9
 48
1.0
  6
BYLAYER
100
AcDbLine
 10
98.3552438284649213
 20
13.7684420224589665
 30
0.0
 11
100.6179858424647762
 21
9.2429584216782636
 31
0.0
  0
LINE
  5
26D
100
AcDbEntity
  8
icon
 62
256
370
9
 48
1.0
  6
BYLAYER
100
AcDbLine
 10
413.3552438284649497
 20
13.7684420224589594
 30
0.0
 11
415.6179858424648046
 21
9.2429584216782565
 31
0.0
  0
LINE
  5
26E
100
AcDbEntity
  8
icon
 62
256
370
9
 48
1.0
  6
BYLAYER
100
AcDbLine
 10
476.3552438284649497
 20
13.7684420224589594
 30
0.0
 11
478.6179858424648046
 21
9.2429584216782565
 31
0.0
  0
LINE
  5
26F
100
AcDbEntity
  8
icon
 62
256
370
9
 48
1.0
  6
BYLAYER
100
AcDbLine
 10
287.3552438284649497
 20
13.7684420224589559
 30
0.0
 11
289.6179858424648046
 21
9.242958421678253
 31
0.0
  0
LINE
  5
270
100
AcDbEntity
  8
icon
 62
256
370
9
 48
1.0
  6
BYLAYER
100
AcDbLine
 10
350.3552438284649497
 20
13.7684420224589559
 30
0.0
 11
352.6179858424648046
 21
9.242958421678253
 31
0.0
  0
LINE
  5
271
100
AcDbEntity
  8
icon
 62
256
370
9
 48
1.0
  6
BYLAYER
100
AcDbLine
 10
161.3552438284649213
 20
13.7684420224589559
 30
0.0
 11
163.6179858424647762
 21
9.242958421678253
 31
0.0
  0
LINE
  5
272
100
AcDbEntity
  8
icon
 62
256
370
9
 48
1.0
  6
BYLAYER
100
AcDbLine
 10
224.3552438284649213
 20
13.7684420224589559
 30
0.0
 11
226.6179858424647762
 21
9.242958421678253
 31
0.0
  0
LINE
  5
273
100
AcDbEntity
  8
icon
 62
256
370
9
 48
1.0
  6
BYLAYER
100
AcDbLine
 10
37.6179858424647833
 20
9.2429584216782636
 30
0.0
 11
39.8807270624725803
 21
4.7174750336470961
 31
0.0
  0
LINE
  5
274
100
AcDbEntity
  8
icon
 62
256
370
9
 48
1.0
  6
BYLAYER
100
AcDbLine
 10
100.6179858424647762
 20
9.2429584216782636
 30
0.0
 11
102.8807270624725732
 21
4.7174750336470961
 31
0.0
  0
LINE
  5
275
100
AcDbEntity
  8
icon
 62
256
370
9
 48
1.0
  6
BYLAYER
100
AcDbLine
 10
415.6179858424648046
 20
9.2429584216782565
 30
0.0
 11
417.8807270624726016
 21
4.7174750336470943
 31
0.0
  0
LINE
  5
276
100
AcDbEntity
  8
icon
 62
256
370
9
 48
1.0
  6
BYLAYER
100
AcDbLine
 10
478.6179858424648046
 20
9.2429584216782565
 30
0.0
 11
480.8807270624726016
 21
4.7174750336470943
 31
0.0
  0
LINE
  5
277
100
AcDbEntity
  8
icon
 62
256
370
9
 48
1.0
  6
BYLAYER
100
AcDbLine
 10
289.6179858424648046
 20
9.242958421678253
 30
0.0
 11
291.8807270624726016
 21
4.7174750336470908
 31
0.0
  0
LINE
  5
278
100
AcDbEntity
  8
icon
 62
256
370
9
 48
1.0
  6
BYLAYER
100
AcDbLine
 10
352.6179858424648046
 20
9.242958421678253
 30
0.0
 11
354.8807270624726016
 21
4.7174750336470908
 31
0.0
  0
LINE
  5
279
100
AcDbEntity
  8
icon
 62
256
370
9
 48
1.0
  6
BYLAYER
100
AcDbLine
 10
163.6179858424647762
 20
9.242958421678253
 30
0.0
 11
165.8807270624725732
 21
4.7174750336470908
 31
0.0
  0
LINE
  5
27A
100
AcDbEntity
  8
icon
 62
256
370
9
 48
1.0
  6
BYLAYER
100
AcDbLine
 10
226.6179858424647762
 20
9.242958421678253
 30
0.0
 11
228.8807270624725732
 21
4.7174750336470908
 31
0.0
  0
ELLIPSE
  5
27B
100
AcDbEntity
  8
icon
 62
256
370
9
 48
1.0
  6
BYLAYER
100
AcDbEllipse
 10
51.7998226648019013
 20
23.4247960200632726
 30
0.0
 11
3.3941124687348632
 21
-3.3941124687348645
 31
0.0
 40
0.4999999999999998
 41
6.2510209148190681
 42
0.0
  0
ELLIPSE
  5
27C
100
AcDbEntity
  8
icon
 62
256
370
9
 48
1.0
  6
BYLAYER
100
AcDbEllipse
 10
114.7998226648018942
 20
23.4247960200632726
 30
0.0
 11
3.3941124687348632
 21
-3.3941124687348645
 31
0.0
 40
0.4999999999999998
 41
6.2510209148190681
 42
0.0
  0
ELLIPSE
  5
27D
100
AcDbEntity
  8
icon
 62
256
370
9
 48
1.0
  6
BYLAYER
100
AcDbEllipse
 10
429.7998226648019227
 20
23.4247960200632726
 30
0.0
 11
3.3941124687348632
 21
-3.3941124687348645
 31
0.0
 40
0.4999999999999998
 41
6.2510209148190681
 42
0.0
  0
ELLIPSE
  5
27E
100
AcDbEntity
  8
icon
 62
256
370
9
 48
1.0
  6
BYLAYER
100
AcDbEllipse
 10
492.7998226648019227
 20
23.4247960200632726
 30
0.0
 11
3.3941124687348632
 21
-3.3941124687348645
 31
0.0
 40
0.4999999999999998
 41
6.2510209148190681
 42
0.0
  0
ELLIPSE
  5
27F
100
AcDbEntity
  8
icon
 62
256
370
9
 48
1.0
  6
BYLAYER
100
AcDbEllipse
 10
303.7998226648019227
 20
23.424796020063269
 30
0.0
 11
3.3941124687348632
 21
-3.3941124687348645
 31
0.0
 40
0.4999999999999998
 41
6.2510209148190681
 42
0.0
  0
ELLIPSE
  5
280
100
AcDbEntity
  8
icon
 62
256
370
9
 48
1.0
  6
BYLAYER
100
AcDbEllipse
 10
366.7998226648019227
 20
23.424796020063269
 30
0.0
 11
3.3941124687348632
 21
-3.3941124687348645
 31
0.0
 40
0.4999999999999998
 41
6.2510209148190681
 42
0.0
  0
ELLIPSE
  5
281
100
AcDbEntity
  8
icon
 62
256
370
9
 48
1.0
  6
BYLAYER
100
AcDbEllipse
 10
177.7998226648018942
 20
23.424796020063269
 30
0.0
 11
3.3941124687348632
 21
-3.3941124687348645
 31
0.0
 40
0.4999999999999998
 41
6.2510209148190681
 42
0.0
  0
ELLIPSE
  5
282
100
AcDbEntity
  8
icon
 62
256
370
9
 48
1.0
  6
BYLAYER
100
AcDbEllipse
 10
240.7998226648018942
 20
23.424796020063269
 30
0.0
 11
3.3941124687348632
 21
-3.3941124687348645
 31
0.0
 40
0.4999999999999998
 41
6.2510209148190681
 42
0.0
  0
ELLIPSE
  5
283
100
AcDbEntity
  8
icon
 62
256
370
9
 48
1.0
  6
BYLAYER
100
AcDbEllipse
 10
51.7998226648019013
 20
23.4247960200632726
 30
0.0
 11
3.3941124687348632
 21
-3.3941124687348645
 31
0.0
 40
0.4999999999999998
 41
1.5707961386032006
 42
3.1737570459503073
  0
ELLIPSE
  5
284
100
AcDbEntity
  8
icon
 62
256
370
9
 48
1.0
  6
BYLAYER
100
AcDbEllipse
 10
114.7998226648018942
 20
23.4247960200632726
 30
0.0
 11
3.3941124687348632
 21
-3.3941124687348645
 31
0.0
 40
0.4999999999999998
 41
1.5707961386032006
 42
3.1737570459503073
  0
ELLIPSE
  5
285
100
AcDbEntity
  8
icon
 62
256
370
9
 48
1.0
  6
BYLAYER
100
AcDbEllipse
 10
429.7998226648019227
 20
23.4247960200632726
 30
0.0
 11
3.3941124687348632
 21
-3.3941124687348645
 31
0.0
 40
0.4999999999999998
 41
1.5707961386032006
 42
3.1737570459503073
  0
ELLIPSE
  5
286
100
AcDbEntity
  8
icon
 62
256
370
9
 48
1.0
  6
BYLAYER
100
AcDbEllipse
 10
492.7998226648019227
 20
23.4247960200632726
 30
0.0
 11
3.3941124687348632
 21
-3.3941124687348645
 31
0.0
 40
0.4999999999999998
 41
1.5707961386032006
 42
3.1737570459503073
  0
ELLIPSE
  5
287
100
AcDbEntity
  8
icon
 62
256
370
9
 48
1.0
  6
BYLAYER
100
AcDbEllipse
 10
303.7998226648019227
 20
23.424796020063269
 30
0.0
 11
3.3941124687348632
 21
-3.3941124687348645
 31
0.0
 40
0.4999999999999998
 41
1.5707961386032006
 42
3.1737570459503073
  0
ELLIPSE
  5
288
100
AcDbEntity
  8
icon
 62
256
370
9
 48
1.0
  6
BYLAYER
100
AcDbEllipse
 10
366.7998226648019227
 20
23.424796020063269
 30
0.0
 11
3.3941124687348632
 21
-3.3941124687348645
 31
0.0
 40
0.4999999999999998
 41
1.5707961386032006
 42
3.1737570459503073
  0
ELLIPSE
  5
289
100
AcDbEntity
  8
icon
 62
256
370
9
 48
1.0
  6
BYLAYER
100
AcDbEllipse
 10
177.7998226648018942
 20
23.424796020063269
 30
0.0
 11
3.3941124687348632
 21
-3.3941124687348645
 31
0.0
 40
0.4999999999999998
 41
1.5707961386032006
 42
3.1737570459503073
  0
ELLIPSE
  5
28A
100
AcDbEntity
  8
icon
 62
256
370
9
 48
1.0
  6
BYLAYER
100
AcDbEllipse
 10
240.7998226648018942
 20
23.424796020063269
 30
0.0
 11
3.3941124687348632
 21
-3.3941124687348645
 31
0.0
 40
0.4999999999999998
 41
1.5707961386032006
 42
3.1737570459503073
  0
LINE
  5
28B
100
AcDbEntity
  8
icon
 62
256
370
9
 48
1.0
  6
BYLAYER
100
AcDbLine
 10
55.1939349738878278
 20
20.0306833916793856
 30
0.0
 11
56.8909912082552651
 21
21.7277396260468088
 31
0.0
  0
LINE
  5
28C
100
AcDbEntity
  8
icon
 62
256
370
9
 48
1.0
  6
BYLAYER
100
AcDbLine
 10
118.1939349738878207
 20
20.0306833916793856
 30
0.0
 11
119.890991208255258
 21
21.7277396260468088
 31
0.0
  0
LINE
  5
28D
100
AcDbEntity
  8
icon
 62
256
370
9
 48
1.0
  6
BYLAYER
100
AcDbLine
 10
433.1939349738878491
 20
20.0306833916793785
 30
0.0
 11
434.8909912082552864
 21
21.7277396260468016
 31
0.0
  0
LINE
  5
28E
100
AcDbEntity
  8
icon
 62
256
370
9
 48
1.0
  6
BYLAYER
100
AcDbLine
 10
496.1939349738878491
 20
20.0306833916793785
 30
0.0
 11
497.8909912082552864
 21
21.7277396260468016
 31
0.0
  0
LINE
  5
28F
100
AcDbEntity
  8
icon
 62
256
370
9
 48
1.0
  6
BYLAYER
100
AcDbLine
 10
307.1939349738878491
 20
20.0306833916793749
 30
0.0
 11
308.8909912082552864
 21
21.7277396260467981
 31
0.0
  0
LINE
  5
290
100
AcDbEntity
  8
icon
 62
256
370
9
 48
1.0
  6
BYLAYER
100
AcDbLine
 10
370.1939349738878491
 20
20.0306833916793749
 30
0.0
 11
371.8909912082552864
 21
21.7277396260467981
 31
0.0
  0
LINE
  5
291
100
AcDbEntity
  8
icon
 62
256
370
9
 48
1.0
  6
BYLAYER
100
AcDbLine
 10
181.1939349738878207
 20
20.0306833916793749
 30
0.0
 11
182.890991208255258
 21
21.7277396260467981
 31
0.0
  0
LINE
  5
292
100
AcDbEntity
  8
icon
 62
256
370
9
 48
1.0
  6
BYLAYER
100
AcDbLine
 10
244.1939349738878207
 20
20.0306833916793749
 30
0.0
 11
245.890991208255258
 21
21.7277396260467981
 31
0.0
  0
LINE
  5
293
100
AcDbEntity
  8
icon
 62
256
370
9
 48
1.0
  6
BYLAYER
100
AcDbLine
 10
56.8909912082552651
 20
21.7277396260468088
 30
0.0
 11
53.4968787395203904
 21
25.1218520947816764
 31
0.0
  0
LINE
  5
294
100
AcDbEntity
  8
icon
 62
256
370
9
 48
1.0
  6
BYLAYER
100
AcDbLine
 10
119.890991208255258
 20
21.7277396260468088
 30
0.0
 11
116.4968787395203833
 21
25.1218520947816764
 31
0.0
  0
LINE
  5
295
100
AcDbEntity
  8
icon
 62
256
370
9
 48
1.0
  6
BYLAYER
100
AcDbLine
 10
434.8909912082552864
 20
21.7277396260468016
 30
0.0
 11
431.4968787395204117
 21
25.1218520947816764
 31
0.0
  0
LINE
  5
296
100
AcDbEntity
  8
icon
 62
256
370
9
 48
1.0
  6
BYLAYER
100
AcDbLine
 10
497.8909912082552864
 20
21.7277396260468016
 30
0.0
 11
494.4968787395204117
 21
25.1218520947816764
 31
0.0
  0
LINE
  5
297
100
AcDbEntity
  8
icon
 62
256
370
9
 48
1.0
  6
BYLAYER
100
AcDbLine
 10
308.8909912082552864
 20
21.7277396260467981
 30
0.0
 11
305.4968787395204117
 21
25.1218520947816728
 31
0.0
  0
LINE
  5
298
100
AcDbEntity
  8
icon
 62
256
370
9
 48
1.0
  6
BYLAYER
100
AcDbLine
 10
371.8909912082552864
 20
21.7277396260467981
 30
0.0
 11
368.4968787395204117
 21
25.1218520947816728
 31
0.0
  0
LINE
  5
299
100
AcDbEntity
  8
icon
 62
256
370
9
 48
1.0
  6
BYLAYER
100
AcDbLine
 10
182.890991208255258
 20
21.7277396260467981
 30
0.0
 11
179.4968787395203833
 21
25.1218520947816728
 31
0.0
  0
LINE
  5
29A
100
AcDbEntity
  8
icon
 62
256
370
9
 48
1.0
  6
BYLAYER
100
AcDbLine
 10
245.890991208255258
 20
21.7277396260467981
 30
0.0
 11
242.4968787395203833
 21
25.1218520947816728
 31
0.0
  0
CIRCLE
  5
29B
100
AcDbEntity
  8
icon
 62
256
370
9
 48
1.0
  6
BYLAYER
100
AcDbCircle
 10
50.7151772719711076
 20
25.8766856476087277
 30
0.0
 40
0.7468922159082372
  0
CIRCLE
  5
29C
100
AcDbEntity
  8
icon
 62
256
370
9
 48
1.0
  6
BYLAYER
100
AcDbCircle
 10
113.7151772719711005
 20
25.8766856476087277
 30
0.0
 40
0.7468922159082372
  0
CIRCLE
  5
29D
100
AcDbEntity
  8
icon
 62
256
370
9
 48
1.0
  6
BYLAYER
100
AcDbCircle
 10
428.7151772719711289
 20
25.8766856476087277
 30
0.0
 40
0.7468922159082372
  0
CIRCLE
  5
29E
100
AcDbEntity
  8
icon
 62
256
370
9
 48
1.0
  6
BYLAYER
100
AcDbCircle
 10
491.7151772719711289
 20
25.8766856476087277
 30
0.0
 40
0.7468922159082372
  0
CIRCLE
  5
29F
100
AcDbEntity
  8
icon
 62
256
370
9
 48
1.0
  6
BYLAYER
100
AcDbCircle
 10
302.7151772719711289
 20
25.8766856476087241
 30
0.0
 40
0.7468922159082372
  0
CIRCLE
  5
2A0
100
AcDbEntity
  8
icon
 62
256
370
9
 48
1.0
  6
BYLAYER
100
AcDbCircle
 10
365.7151772719711289
 20
25.8766856476087241
 30
0.0
 40
0.7468922159082372
  0
CIRCLE
  5
2A1
100
AcDbEntity
  8
icon
 62
256
370
9
 48
1.0
  6
BYLAYER
100
AcDbCircle
 10
176.7151772719711005
 20
25.8766856476087241
 30
0.0
 40
0.7468922159082372
  0
CIRCLE
  5
2A2
100
AcDbEntity
  8
icon
 62
256
370
9
 48
1.0
  6
BYLAYER
100
AcDbCircle
 10
239.7151772719711005
 20
25.8766856476087241
 30
0.0
 40
0.7468922159082372
  0
ELLIPSE
  5
2A3
100
AcDbEntity
  8
icon
 62
256
370
9
 48
1.0
  6
BYLAYER
100
AcDbEllipse
 10
44.6377243604249045
 20
16.9012937068953697
 30
0.0
 11
5.0610462880949179
 21
-5.0610462915969991
 31
0.0
 40
0.9999998738213495
 41
0.0
 42
6.2831853071795862
  0
ELLIPSE
  5
2A4
100
AcDbEntity
  8
icon
 62
256
370
9
 48
1.0
  6
BYLAYER
100
AcDbEllipse
 10
107.6377243604248974
 20
16.9012937068953697
 30
0.0
 11
5.0610462880949179
 21
-5.0610462915969991
 31
0.0
 40
0.9999998738213495
 41
0.0
 42
6.2831853071795862
  0
ELLIPSE
  5
2A5
100
AcDbEntity
  8
icon
 62
256
370
9
 48
1.0
  6
BYLAYER
100
AcDbEllipse
 10
422.6377243604248974
 20
16.9012937068953626
 30
0.0
 11
5.0610462880949179
 21
-5.0610462915969991
 31
0.0
 40
0.9999998738213495
 41
0.0
 42
6.2831853071795862
  0
ELLIPSE
  5
2A6
100
AcDbEntity
  8
icon
 62
256
370
9
 48
1.0
  6
BYLAYER
100
AcDbEllipse
 10
485.6377243604248974
 20
16.9012937068953626
 30
0.0
 11
5.0610462880949179
 21
-5.0610462915969991
 31
0.0
 40
0.9999998738213495
 41
0.0
 42
6.2831853071795862
  0
ELLIPSE
  5
2A7
100
AcDbEntity
  8
icon
 62
256
370
9
 48
1.0
  6
BYLAYER
100
AcDbEllipse
 10
296.6377243604248974
 20
16.901293706895359
 30
0.0
 11
5.0610462880949179
 21
-5.0610462915969991
 31
0.0
 40
0.9999998738213495
 41
0.0
 42
6.2831853071795862
  0
ELLIPSE
  5
2A8
100
AcDbEntity
  8
icon
 62
256
370
9
 48
1.0
  6
BYLAYER
100
AcDbEllipse
 10
359.6377243604248974
 20
16.901293706895359
 30
0.0
 11
5.0610462880949179
 21
-5.0610462915969991
 31
0.0
 40
0.9999998738213495
 41
0.0
 42
6.2831853071795862
  0
ELLIPSE
  5
2A9
100
AcDbEntity
  8
icon
 62
256
370
9
 48
1.0
  6
BYLAYER
100
AcDbEllipse
 10
170.6377243604248974
 20
16.901293706895359
 30
0.0
 11
5.0610462880949179
 21
-5.0610462915969991
 31
0.0
 40
0.9999998738213495
 41
0.0
 42
6.2831853071795862
  0
ELLIPSE
  5
2AA
100
AcDbEntity
  8
icon
 62
256
370
9
 48
1.0
  6
BYLAYER
100
AcDbEllipse
 10
233.6377243604248974
 20
16.901293706895359
 30
0.0
 11
5.0610462880949179
 21
-5.0610462915969991
 31
0.0
 40
0.9999998738213495
 41
0.0
 42
6.2831853071795862
  0
ELLIPSE
  5
2AB
100
AcDbEntity
  8
icon
 62
256
370
9
 48
1.0
  6
BYLAYER
100
AcDbEllipse
 10
43.1368203882602259
 20
6.8622163709746751
 30
0.0
 11
0.8045952194777931
 21
0.804595219477793
 31
0.0
 40
0.9998387626815677
 41
3.914205449373199
 42
5.5105725113961794
  0
ELLIPSE
  5
2AC
100
AcDbEntity
  8
icon
 62
256
370
9
 48
1.0
  6
BYLAYER
100
AcDbEllipse
 10
106.1368203882602188
 20
6.8622163709746751
 30
0.0
 11
0.8045952194777931
 21
0.804595219477793
 31
0.0
 40
0.9998387626815677
 41
3.914205449373199
 42
5.5105725113961794
  0
ELLIPSE
  5
2AD
100
AcDbEntity
  8
icon
 62
256
370
9
 48
1.0
  6
BYLAYER
100
AcDbEllipse
 10
421.1368203882602188
 20
6.862216370974668
 30
0.0
 11
0.8045952194777931
 21
0.804595219477793
 31
0.0
 40
0.9998387626815677
 41
3.914205449373199
 42
5.5105725113961794
  0
ELLIPSE
  5
2AE
100
AcDbEntity
  8
icon
 62
256
370
9
 48
1.0
  6
BYLAYER
100
AcDbEllipse
 10
484.1368203882602188
 20
6.862216370974668
 30
0.0
 11
0.8045952194777931
 21
0.804595219477793
 31
0.0
 40
0.9998387626815677
 41
3.914205449373199
 42
5.5105725113961794
  0
ELLIPSE
  5
2AF
100
AcDbEntity
  8
icon
 62
256
370
9
 48
1.0
  6
BYLAYER
100
AcDbEllipse
 10
295.1368203882602188
 20
6.8622163709746644
 30
0.0
 11
0.8045952194777931
 21
0.804595219477793
 31
0.0
 40
0.9998387626815677
 41
3.914205449373199
 42
5.5105725113961794
  0
ELLIPSE
  5
2B0
100
AcDbEntity
  8
icon
 62
256
370
9
 48
1.0
  6
BYLAYER
100
AcDbEllipse
 10
358.1368203882602188
 20
6.8622163709746644
 30
0.0
 11
0.8045952194777931
 21
0.804595219477793
 31
0.0
 40
0.9998387626815677
 41
3.914205449373199
 42
5.5105725113961794
  0
ELLIPSE
  5
2B1
100
AcDbEntity
  8
icon
 62
256
370
9
 48
1.0
  6
BYLAYER
100
AcDbEllipse
 10
169.1368203882602188
 20
6.8622163709746644
 30
0.0
 11
0.8045952194777931
 21
0.804595219477793
 31
0.0
 40
0.9998387626815677
 41
3.914205449373199
 42
5.5105725113961794
  0
ELLIPSE
  5
2B2
100
AcDbEntity
  8
icon
 62
256
370
9
 48
1.0
  6
BYLAYER
100
AcDbEllipse
 10
232.1368203882602188
 20
6.8622163709746644
 30
0.0
 11
0.8045952194777931
 21
0.804595219477793
 31
0.0
 40
0.9998387626815677
 41
3.914205449373199
 42
5.5105725113961794
  0
LINE
  5
2B3
100
AcDbEntity
  8
icon
 62
256
370
9
 48
1.0
  6
BYLAYER
100
AcDbLine
 10
41.5629108769183304
 20
6.3996588480928445
 30
0.0
 11
42.6801107121784824
 21
5.2824590128327085
 31
0.0
  0
LINE
  5
2B4
100
AcDbEntity
  8
icon
 62
256
370
9
 48
1.0
  6
BYLAYER
100
AcDbLine
 10
104.5629108769183233
 20
6.3996588480928445
 30
0.0
 11
105.6801107121784753
 21
5.2824590128327085
 31
0.0
  0
LINE
  5
2B5
100
AcDbEntity
  8
icon
 62
256
370
9
 48
1.0
  6
BYLAYER
100
AcDbLine
 10
419.5629108769183517
 20
6.3996588480928445
 30
0.0
 11
420.6801107121784753
 21
5.2824590128327067
 31
0.0
  0
LINE
  5
2B6
100
AcDbEntity
  8
icon
 62
256
370
9
 48
1.0
  6
BYLAYER
100
AcDbLine
 10
482.5629108769182949
 20
6.3996588480928445
 30
0.0
 11
483.6801107121784753
 21
5.2824590128327067
 31
0.0
  0
LINE
  5
2B7
100
AcDbEntity
  8
icon
 62
256
370
9
 48
1.0
  6
BYLAYER
100
AcDbLine
 10
293.5629108769183517
 20
6.3996588480928409
 30
0.0
 11
294.6801107121784753
 21
5.2824590128327031
 31
0.0
  0
LINE
  5
2B8
100
AcDbEntity
  8
icon
 62
256
370
9
 48
1.0
  6
BYLAYER
100
AcDbLine
 10
356.5629108769182949
 20
6.3996588480928409
 30
0.0
 11
357.6801107121784753
 21
5.2824590128327031
 31
0.0
  0
LINE
  5
2B9
100
AcDbEntity
  8
icon
 62
256
370
9
 48
1.0
  6
BYLAYER
100
AcDbLine
 10
167.5629108769183233
 20
6.3996588480928409
 30
0.0
 11
168.6801107121784753
 21
5.2824590128327031
 31
0.0
  0
LINE
  5
2BA
100
AcDbEntity
  8
icon
 62
256
370
9
 48
1.0
  6
BYLAYER
100
AcDbLine
 10
230.5629108769183233
 20
6.3996588480928409
 30
0.0
 11
231.6801107121784753
 21
5.2824590128327031
 31
0.0
  0
LINE
  5
2BB
100
AcDbEntity
  8
icon
 62
256
370
9
 48
1.0
  6
BYLAYER
100
AcDbLine
 10
42.6801107121784824
 20
5.2824590128327085
 30
0.0
 11
44.7165781934194015
 21
7.3189264940736258
 31
0.0
  0
LINE
  5
2BC
100
AcDbEntity
  8
icon
 62
256
370
9
 48
1.0
  6
BYLAYER
100
AcDbLine
 10
105.6801107121784753
 20
5.2824590128327085
 30
0.0
 11
107.7165781934193944
 21
7.3189264940736258
 31
0.0
  0
LINE
  5
2BD
100
AcDbEntity
  8
icon
 62
256
370
9
 48
1.0
  6
BYLAYER
100
AcDbLine
 10
420.6801107121784753
 20
5.2824590128327067
 30
0.0
 11
422.7165781934194229
 21
7.3189264940736258
 31
0.0
  0
LINE
  5
2BE
100
AcDbEntity
  8
icon
 62
256
370
9
 48
1.0
  6
BYLAYER
100
AcDbLine
 10
483.6801107121784753
 20
5.2824590128327067
 30
0.0
 11
485.7165781934194229
 21
7.3189264940736258
 31
0.0
  0
LINE
  5
2BF
100
AcDbEntity
  8
icon
 62
256
370
9
 48
1.0
  6
BYLAYER
100
AcDbLine
 10
294.6801107121784753
 20
5.2824590128327031
 30
0.0
 11
296.7165781934194229
 21
7.3189264940736223
 31
0.0
  0
LINE
  5
2C0
100
AcDbEntity
  8
icon
 62
256
370
9
 48
1.0
  6
BYLAYER
100
AcDbLine
 10
357.6801107121784753
 20
5.2824590128327031
 30
0.0
 11
359.7165781934194229
 21
7.3189264940736223
 31
0.0
  0
LINE
  5
2C1
100
AcDbEntity
  8
icon
 62
256
370
9
 48
1.0
  6
BYLAYER
100
AcDbLine
 10
168.6801107121784753
 20
5.2824590128327031
 30
0.0
 11
170.7165781934193944
 21
7.3189264940736223
 31
0.0
  0
LINE
  5
2C2
100
AcDbEntity
  8
icon
 62
256
370
9
 48
1.0
  6
BYLAYER
100
AcDbLine
 10
231.6801107121784753
 20
5.2824590128327031
 30
0.0
 11
233.7165781934193944
 21
7.3189264940736223
 31
0.0
  0
LINE
  5
2C3
100
AcDbEntity
  8
icon
 62
256
370
9
 48
1.0
  6
BYLAYER
100
AcDbLine
 10
44.7165781934194015
 20
7.3189264940736258
 30
0.0
 11
43.5993783581592496
 21
8.4361263293337565
 31
0.0
  0
LINE
  5
2C4
100
AcDbEntity
  8
icon
 62
256
370
9
 48
1.0
  6
BYLAYER
100
AcDbLine
 10
107.7165781934193944
 20
7.3189264940736258
 30
0.0
 11
106.5993783581592425
 21
8.4361263293337565
 31
0.0
  0
LINE
  5
2C5
100
AcDbEntity
  8
icon
 62
256
370
9
 48
1.0
  6
BYLAYER
100
AcDbLine
 10
422.7165781934194229
 20
7.3189264940736258
 30
0.0
 11
421.5993783581592425
 21
8.4361263293337494
 31
0.0
  0
LINE
  5
2C6
100
AcDbEntity
  8
icon
 62
256
370
9
 48
1.0
  6
BYLAYER
100
AcDbLine
 10
485.7165781934194229
 20
7.3189264940736258
 30
0.0
 11
484.5993783581592425
 21
8.4361263293337494
 31
0.0
  0
LINE
  5
2C7
100
AcDbEntity
  8
icon
 62
256
370
9
 48
1.0
  6
BYLAYER
100
AcDbLine
 10
296.7165781934194229
 20
7.3189264940736223
 30
0.0
 11
295.5993783581592425
 21
8.4361263293337458
 31
0.0
  0
LINE
  5
2C8
100
AcDbEntity
  8
icon
 62
256
370
9
 48
1.0
  6
BYLAYER
100
AcDbLine
 10
359.7165781934194229
 20
7.3189264940736223
 30
0.0
 11
358.5993783581592425
 21
8.4361263293337458
 31
0.0
  0
LINE
  5
2C9
100
AcDbEntity
  8
icon
 62
256
370
9
 48
1.0
  6
BYLAYER
100
AcDbLine
 10
170.7165781934193944
 20
7.3189264940736223
 30
0.0
 11
169.5993783581592425
 21
8.4361263293337458
 31
0.0
  0
LINE
  5
2CA
100
AcDbEntity
  8
icon
 62
256
370
9
 48
1.0
  6
BYLAYER
100
AcDbLine
 10
233.7165781934193944
 20
7.3189264940736223
 30
0.0
 11
232.5993783581592425
 21
8.4361263293337458
 31
0.0
  0
ARC
  5
2CB
100
AcDbEntity
  8
icon
 62
256
370
9
 48
1.0
  6
BYLAYER
100
AcDbCircle
 10
54.676802015643581
 20
18.4021979983580088
 30
0.0
 40
1.1377777606726667
100
AcDbArc
 50
269.2628882884101245
 51
0.7371117115898815
  0
ARC
  5
2CC
100
AcDbEntity
  8
icon
 62
256
370
9
 48
1.0
  6
BYLAYER
100
AcDbCircle
 10
117.6768020156435739
 20
18.4021979983580088
 30
0.0
 40
1.1377777606726667
100
AcDbArc
 50
269.2628882884101245
 51
0.7371117115898815
  0
ARC
  5
2CD
100
AcDbEntity
  8
icon
 62
256
370
9
 48
1.0
  6
BYLAYER
100
AcDbCircle
 10
432.6768020156436023
 20
18.4021979983580088
 30
0.0
 40
1.1377777606726667
100
AcDbArc
 50
269.2628882884101245
 51
0.7371117115898815
  0
ARC
  5
2CE
100
AcDbEntity
  8
icon
 62
256
370
9
 48
1.0
  6
BYLAYER
100
AcDbCircle
 10
495.6768020156436023
 20
18.4021979983580088
 30
0.0
 40
1.1377777606726667
100
AcDbArc
 50
269.2628882884101245
 51
0.7371117115898815
  0
ARC
  5
2CF
100
AcDbEntity
  8
icon
 62
256
370
9
 48
1.0
  6
BYLAYER
100
AcDbCircle
 10
306.6768020156436023
 20
18.4021979983580053
 30
0.0
 40
1.1377777606726667
100
AcDbArc
 50
269.2628882884101245
 51
0.7371117115898815
  0
ARC
  5
2D0
100
AcDbEntity
  8
icon
 62
256
370
9
 48
1.0
  6
BYLAYER
100
AcDbCircle
 10
369.6768020156436023
 20
18.4021979983580053
 30
0.0
 40
1.1377777606726667
100
AcDbArc
 50
269.2628882884101245
 51
0.7371117115898815
  0
ARC
  5
2D1
100
AcDbEntity
  8
icon
 62
256
370
9
 48
1.0
  6
BYLAYER
100
AcDbCircle
 10
180.6768020156435739
 20
18.4021979983580053
 30
0.0
 40
1.1377777606726667
100
AcDbArc
 50
269.2628882884101245
 51
0.7371117115898815
  0
ARC
  5
2D2
100
AcDbEntity
  8
icon
 62
256
370
9
 48
1.0
  6
BYLAYER
100
AcDbCircle
 10
243.6768020156435739
 20
18.4021979983580053
 30
0.0
 40
1.1377777606726667
100
AcDbArc
 50
269.2628882884101245
 51
0.7371117115898815
  0
LINE
  5
2D3
100
AcDbEntity
  8
icon
 62
256
370
9
 48
1.0
  6
BYLAYER
100
AcDbLine
 10
53.1028929195891592
 20
17.9396400601887755
 30
0.0
 11
54.2200917328957317
 21
16.8224412468822599
 31
0.0
  0
LINE
  5
2D4
100
AcDbEntity
  8
icon
 62
256
370
9
 48
1.0
  6
BYLAYER
100
AcDbLine
 10
116.1028929195891521
 20
17.9396400601887755
 30
0.0
 11
117.2200917328957246
 21
16.8224412468822599
 31
0.0
  0
LINE
  5
2D5
100
AcDbEntity
  8
icon
 62
256
370
9
 48
1.0
  6
BYLAYER
100
AcDbLine
 10
431.1028929195891806
 20
17.9396400601887684
 30
0.0
 11
432.220091732895753
 21
16.8224412468822528
 31
0.0
  0
LINE
  5
2D6
100
AcDbEntity
  8
icon
 62
256
370
9
 48
1.0
  6
BYLAYER
100
AcDbLine
 10
494.1028929195891806
 20
17.9396400601887684
 30
0.0
 11
495.220091732895753
 21
16.8224412468822528
 31
0.0
  0
LINE
  5
2D7
100
AcDbEntity
  8
icon
 62
256
370
9
 48
1.0
  6
BYLAYER
100
AcDbLine
 10
305.1028929195891806
 20
17.9396400601887649
 30
0.0
 11
306.220091732895753
 21
16.8224412468822493
 31
0.0
  0
LINE
  5
2D8
100
AcDbEntity
  8
icon
 62
256
370
9
 48
1.0
  6
BYLAYER
100
AcDbLine
 10
368.1028929195891806
 20
17.9396400601887649
 30
0.0
 11
369.220091732895753
 21
16.8224412468822493
 31
0.0
  0
LINE
  5
2D9
100
AcDbEntity
  8
icon
 62
256
370
9
 48
1.0
  6
BYLAYER
100
AcDbLine
 10
179.1028929195891521
 20
17.9396400601887649
 30
0.0
 11
180.2200917328957246
 21
16.8224412468822493
 31
0.0
  0
LINE
  5
2DA
100
AcDbEntity
  8
icon
 62
256
370
9
 48
1.0
  6
BYLAYER
100
AcDbLine
 10
242.1028929195891521
 20
17.9396400601887649
 30
0.0
 11
243.2200917328957246
 21
16.8224412468822493
 31
0.0
  0
LINE
  5
2DB
100
AcDbEntity
  8
icon
 62
256
370
9
 48
1.0
  6
BYLAYER
100
AcDbLine
 10
54.2200917328957317
 20
16.8224412468822599
 30
0.0
 11
56.2565592141365656
 21
18.8589087281231791
 31
0.0
  0
LINE
  5
2DC
100
AcDbEntity
  8
icon
 62
256
370
9
 48
1.0
  6
BYLAYER
100
AcDbLine
 10
117.2200917328957246
 20
16.8224412468822599
 30
0.0
 11
119.2565592141365585
 21
18.8589087281231791
 31
0.0
  0
LINE
  5
2DD
100
AcDbEntity
  8
icon
 62
256
370
9
 48
1.0
  6
BYLAYER
100
AcDbLine
 10
432.220091732895753
 20
16.8224412468822528
 30
0.0
 11
434.2565592141365869
 21
18.858908728123172
 31
0.0
  0
LINE
  5
2DE
100
AcDbEntity
  8
icon
 62
256
370
9
 48
1.0
  6
BYLAYER
100
AcDbLine
 10
495.220091732895753
 20
16.8224412468822528
 30
0.0
 11
497.2565592141365869
 21
18.858908728123172
 31
0.0
  0
LINE
  5
2DF
100
AcDbEntity
  8
icon
 62
256
370
9
 48
1.0
  6
BYLAYER
100
AcDbLine
 10
306.220091732895753
 20
16.8224412468822493
 30
0.0
 11
308.2565592141365869
 21
18.8589087281231684
 31
0.0
  0
LINE
  5
2E0
100
AcDbEntity
  8
icon
 62
256
370
9
 48
1.0
  6
BYLAYER
100
AcDbLine
 10
369.220091732895753
 20
16.8224412468822493
 30
0.0
 11
371.2565592141365869
 21
18.8589087281231684
 31
0.0
  0
LINE
  5
2E1
100
AcDbEntity
  8
icon
 62
256
370
9
 48
1.0
  6
BYLAYER
100
AcDbLine
 10
180.2200917328957246
 20
16.8224412468822493
 30
0.0
 11
182.2565592141365585
 21
18.8589087281231684
 31
0.0
  0
LINE
  5
2E2
100
AcDbEntity
  8
icon
 62
256
370
9
 48
1.0
  6
BYLAYER
100
AcDbLine
 10
243.2200917328957246
 20
16.8224412468822493
 30
0.0
 11
245.2565592141365585
 21
18.8589087281231684
 31
0.0
  0
LINE
  5
2E3
100
AcDbEntity
  8
icon
 62
256
370
9
 48
1.0
  6
BYLAYER
100
AcDbLine
 10
56.2565592141365656
 20
18.8589087281231791
 30
0.0
 11
55.1376042272268947
 21
19.9778637150328855
 31
0.0
  0
LINE
  5
2E4
100
AcDbEntity
  8
icon
 62
256
370
9
 48
1.0
  6
BYLAYER
100
AcDbLine
 10
119.2565592141365585
 20
18.8589087281231791
 30
0.0
 11
118.1376042272268876
 21
19.9778637150328855
 31
0.0
  0
LINE
  5
2E5
100
AcDbEntity
  8
icon
 62
256
370
9
 48
1.0
  6
BYLAYER
100
AcDbLine
 10
434.2565592141365869
 20
18.858908728123172
 30
0.0
 11
433.137604227226916
 21
19.9778637150328855
 31
0.0
  0
LINE
  5
2E6
100
AcDbEntity
  8
icon
 62
256
370
9
 48
1.0
  6
BYLAYER
100
AcDbLine
 10
497.2565592141365869
 20
18.858908728123172
 30
0.0
 11
496.137604227226916
 21
19.9778637150328855
 31
0.0
  0
LINE
  5
2E7
100
AcDbEntity
  8
icon
 62
256
370
9
 48
1.0
  6
BYLAYER
100
AcDbLine
 10
308.2565592141365869
 20
18.8589087281231684
 30
0.0
 11
307.137604227226916
 21
19.9778637150328819
 31
0.0
  0
LINE
  5
2E8
100
AcDbEntity
  8
icon
 62
256
370
9
 48
1.0
  6
BYLAYER
100
AcDbLine
 10
371.2565592141365869
 20
18.8589087281231684
 30
0.0
 11
370.137604227226916
 21
19.9778637150328819
 31
0.0
  0
LINE
  5
2E9
100
AcDbEntity
  8
icon
 62
256
370
9
 48
1.0
  6
BYLAYER
100
AcDbLine
 10
182.2565592141365585
 20
18.8589087281231684
 30
0.0
 11
181.1376042272268876
 21
19.9778637150328819
 31
0.0
  0
LINE
  5
2EA
100
AcDbEntity
  8
icon
 62
256
370
9
 48
1.0
  6
BYLAYER
100
AcDbLine
 10
245.2565592141365585
 20
18.8589087281231684
 30
0.0
 11
244.1376042272268876
 21
19.9778637150328819
 31
0.0
  0
LINE
  5
2EB
100
AcDbEntity
  8
icon
 62
256
370
9
 48
1.0
  6
BYLAYER
100
AcDbLine
 10
44.109591809923451
 20
17.4294262577622554
 30
0.0
 11
39.5766780723300045
 21
21.9623399984923786
 31
0.0
  0
LINE
  5
2EC
100
AcDbEntity
  8
icon
 62
256
370
9
 48
1.0
  6
BYLAYER
100
AcDbLine
 10
107.1095918099234439
 20
17.4294262577622554
 30
0.0
 11
102.5766780723299973
 21
21.9623399984923786
 31
0.0
  0
LINE
  5
2ED
100
AcDbEntity
  8
icon
 62
256
370
9
 48
1.0
  6
BYLAYER
100
AcDbLine
 10
422.1095918099234723
 20
17.4294262577622483
 30
0.0
 11
417.5766780723300258
 21
21.9623399984923715
 31
0.0
  0
LINE
  5
2EE
100
AcDbEntity
  8
icon
 62
256
370
9
 48
1.0
  6
BYLAYER
100
AcDbLine
 10
485.1095918099234723
 20
17.4294262577622483
 30
0.0
 11
480.5766780723299689
 21
21.9623399984923715
 31
0.0
  0
LINE
  5
2EF
100
AcDbEntity
  8
icon
 62
256
370
9
 48
1.0
  6
BYLAYER
100
AcDbLine
 10
296.1095918099234723
 20
17.4294262577622447
 30
0.0
 11
291.5766780723300258
 21
21.962339998492368
 31
0.0
  0
LINE
  5
2F0
100
AcDbEntity
  8
icon
 62
256
370
9
 48
1.0
  6
BYLAYER
100
AcDbLine
 10
359.1095918099234723
 20
17.4294262577622447
 30
0.0
 11
354.5766780723299689
 21
21.962339998492368
 31
0.0
  0
LINE
  5
2F1
100
AcDbEntity
  8
icon
 62
256
370
9
 48
1.0
  6
BYLAYER
100
AcDbLine
 10
170.1095918099234439
 20
17.4294262577622447
 30
0.0
 11
165.5766780723299973
 21
21.962339998492368
 31
0.0
  0
LINE
  5
2F2
100
AcDbEntity
  8
icon
 62
256
370
9
 48
1.0
  6
BYLAYER
100
AcDbLine
 10
233.1095918099234439
 20
17.4294262577622447
 30
0.0
 11
228.5766780723299973
 21
21.962339998492368
 31
0.0
  0
LINE
  5
2F3
100
AcDbEntity
  8
icon
 62
256
370
9
 48
1.0
  6
BYLAYER
100
AcDbLine
 10
45.3757487492533826
 20
16.7865418717090442
 30
0.0
 11
51.7009114970736974
 21
15.7847345076906187
 31
0.0
  0
LINE
  5
2F4
100
AcDbEntity
  8
icon
 62
256
370
9
 48
1.0
  6
BYLAYER
100
AcDbLine
 10
108.3757487492533755
 20
16.7865418717090442
 30
0.0
 11
114.7009114970736903
 21
15.7847345076906187
 31
0.0
  0
LINE
  5
2F5
100
AcDbEntity
  8
icon
 62
256
370
9
 48
1.0
  6
BYLAYER
100
AcDbLine
 10
423.3757487492533755
 20
16.7865418717090371
 30
0.0
 11
429.7009114970737187
 21
15.7847345076906187
 31
0.0
  0
LINE
  5
2F6
100
AcDbEntity
  8
icon
 62
256
370
9
 48
1.0
  6
BYLAYER
100
AcDbLine
 10
486.3757487492533755
 20
16.7865418717090371
 30
0.0
 11
492.7009114970736618
 21
15.7847345076906187
 31
0.0
  0
LINE
  5
2F7
100
AcDbEntity
  8
icon
 62
256
370
9
 48
1.0
  6
BYLAYER
100
AcDbLine
 10
297.3757487492533755
 20
16.7865418717090336
 30
0.0
 11
303.7009114970737187
 21
15.7847345076906151
 31
0.0
  0
LINE
  5
2F8
100
AcDbEntity
  8
icon
 62
256
370
9
 48
1.0
  6
BYLAYER
100
AcDbLine
 10
360.3757487492533755
 20
16.7865418717090336
 30
0.0
 11
366.7009114970736618
 21
15.7847345076906151
 31
0.0
  0
LINE
  5
2F9
100
AcDbEntity
  8
icon
 62
256
370
9
 48
1.0
  6
BYLAYER
100
AcDbLine
 10
171.3757487492533755
 20
16.7865418717090336
 30
0.0
 11
177.7009114970736903
 21
15.7847345076906151
 31
0.0
  0
LINE
  5
2FA
100
AcDbEntity
  8
icon
 62
256
370
9
 48
1.0
  6
BYLAYER
100
AcDbLine
 10
234.3757487492533755
 20
16.7865418717090336
 30
0.0
 11
240.7009114970736903
 21
15.7847345076906151
 31
0.0
  0
LINE
  5
2FB
100
AcDbEntity
  8
icon
 62
256
370
9
 48
1.0
  6
BYLAYER
100
AcDbLine
 10
43.1097062715317989
 20
16.1265674599517119
 30
0.0
 11
38.2610952107130018
 21
13.6560767318774161
 31
0.0
  0
LINE
  5
2FC
100
AcDbEntity
  8
icon
 62
256
370
9
 48
1.0
  6
BYLAYER
100
AcDbLine
 10
106.1097062715317918
 20
16.1265674599517119
 30
0.0
 11
101.2610952107129947
 21
13.6560767318774161
 31
0.0
  0
LINE
  5
2FD
100
AcDbEntity
  8
icon
 62
256
370
9
 48
1.0
  6
BYLAYER
100
AcDbLine
 10
421.1097062715318202
 20
16.1265674599517048
 30
0.0
 11
416.2610952107129947
 21
13.656076731877409
 31
0.0
  0
LINE
  5
2FE
100
AcDbEntity
  8
icon
 62
256
370
9
 48
1.0
  6
BYLAYER
100
AcDbLine
 10
484.1097062715317634
 20
16.1265674599517048
 30
0.0
 11
479.2610952107129947
 21
13.656076731877409
 31
0.0
  0
LINE
  5
2FF
100
AcDbEntity
  8
icon
 62
256
370
9
 48
1.0
  6
BYLAYER
100
AcDbLine
 10
295.1097062715318202
 20
16.1265674599517013
 30
0.0
 11
290.2610952107129947
 21
13.6560767318774055
 31
0.0
  0
LINE
  5
300
100
AcDbEntity
  8
icon
 62
256
370
9
 48
1.0
  6
BYLAYER
100
AcDbLine
 10
358.1097062715317634
 20
16.1265674599517013
 30
0.0
 11
353.2610952107129947
 21
13.6560767318774055
 31
0.0
  0
LINE
  5
301
100
AcDbEntity
  8
icon
 62
256
370
9
 48
1.0
  6
BYLAYER
100
AcDbLine
 10
169.1097062715317918
 20
16.1265674599517013
 30
0.0
 11
164.2610952107129947
 21
13.6560767318774055
 31
0.0
  0
LINE
  5
302
100
AcDbEntity
  8
icon
 62
256
370
9
 48
1.0
  6
BYLAYER
100
AcDbLine
 10
232.1097062715317918
 20
16.1265674599517013
 30
0.0
 11
227.2610952107129947
 21
13.6560767318774055
 31
0.0
  0
LINE
  5
303
100
AcDbEntity
  8
icon
 62
256
370
9
 48
1.0
  6
BYLAYER
100
AcDbLine
 10
44.768478997954908
 20
16.062231597000288
 30
0.0
 11
45.7542835547421376
 21
9.838106569473954
 31
0.0
  0
LINE
  5
304
100
AcDbEntity
  8
icon
 62
256
370
9
 48
1.0
  6
BYLAYER
100
AcDbLine
 10
107.7684789979549009
 20
16.062231597000288
 30
0.0
 11
108.7542835547421305
 21
9.838106569473954
 31
0.0
  0
LINE
  5
305
100
AcDbEntity
  8
icon
 62
256
370
9
 48
1.0
  6
BYLAYER
100
AcDbLine
 10
422.7684789979549009
 20
16.0622315970002809
 30
0.0
 11
423.7542835547421305
 21
9.838106569473954
 31
0.0
  0
LINE
  5
306
100
AcDbEntity
  8
icon
 62
256
370
9
 48
1.0
  6
BYLAYER
100
AcDbLine
 10
485.7684789979549009
 20
16.0622315970002809
 30
0.0
 11
486.7542835547421305
 21
9.838106569473954
 31
0.0
  0
LINE
  5
307
100
AcDbEntity
  8
icon
 62
256
370
9
 48
1.0
  6
BYLAYER
100
AcDbLine
 10
296.7684789979549009
 20
16.0622315970002774
 30
0.0
 11
297.7542835547421305
 21
9.8381065694739505
 31
0.0
  0
LINE
  5
308
100
AcDbEntity
  8
icon
 62
256
370
9
 48
1.0
  6
BYLAYER
100
AcDbLine
 10
359.7684789979549009
 20
16.0622315970002774
 30
0.0
 11
360.7542835547421305
 21
9.8381065694739505
 31
0.0
  0
LINE
  5
309
100
AcDbEntity
  8
icon
 62
256
370
9
 48
1.0
  6
BYLAYER
100
AcDbLine
 10
170.7684789979549009
 20
16.0622315970002774
 30
0.0
 11
171.7542835547421305
 21
9.8381065694739505
 31
0.0
  0
LINE
  5
30A
100
AcDbEntity
  8
icon
 62
256
370
9
 48
1.0
  6
BYLAYER
100
AcDbLine
 10
233.7684789979549009
 20
16.0622315970002774
 30
0.0
 11
234.7542835547421305
 21
9.8381065694739505
 31
0.0
  0
LINE
  5
30B
100
AcDbEntity
  8
icon
 62
256
370
9
 48
1.0
  6
BYLAYER
100
AcDbLine
 10
45.1113949599760318
 20
17.8384568173683711
 30
0.0
 11
47.8829413398553143
 21
23.2779228543617087
 31
0.0
  0
LINE
  5
30C
100
AcDbEntity
  8
icon
 62
256
370
9
 48
1.0
  6
BYLAYER
100
AcDbLine
 10
108.1113949599760247
 20
17.8384568173683711
 30
0.0
 11
110.8829413398553072
 21
23.2779228543617087
 31
0.0
  0
LINE
  5
30D
100
AcDbEntity
  8
icon
 62
256
370
9
 48
1.0
  6
BYLAYER
100
AcDbLine
 10
423.1113949599760531
 20
17.8384568173683711
 30
0.0
 11
425.8829413398553356
 21
23.2779228543617087
 31
0.0
  0
LINE
  5
30E
100
AcDbEntity
  8
icon
 62
256
370
9
 48
1.0
  6
BYLAYER
100
AcDbLine
 10
486.1113949599759962
 20
17.8384568173683711
 30
0.0
 11
488.8829413398552788
 21
23.2779228543617087
 31
0.0
  0
LINE
  5
30F
100
AcDbEntity
  8
icon
 62
256
370
9
 48
1.0
  6
BYLAYER
100
AcDbLine
 10
297.1113949599760531
 20
17.8384568173683675
 30
0.0
 11
299.8829413398553356
 21
23.2779228543617052
 31
0.0
  0
LINE
  5
310
100
AcDbEntity
  8
icon
 62
256
370
9
 48
1.0
  6
BYLAYER
100
AcDbLine
 10
360.1113949599759962
 20
17.8384568173683675
 30
0.0
 11
362.8829413398552788
 21
23.2779228543617052
 31
0.0
  0
LINE
  5
311
100
AcDbEntity
  8
icon
 62
256
370
9
 48
1.0
  6
BYLAYER
100
AcDbLine
 10
171.1113949599760247
 20
17.8384568173683675
 30
0.0
 11
173.8829413398553072
 21
23.2779228543617052
 31
0.0
  0
LINE
  5
312
100
AcDbEntity
  8
icon
 62
256
370
9
 48
1.0
  6
BYLAYER
100
AcDbLine
 10
234.1113949599760247
 20
17.8384568173683675
 30
0.0
 11
236.8829413398553072
 21
23.2779228543617052
 31
0.0
  0
MTEXT
  5
313
100
AcDbEntity
  8
icon
 62
256
370
9
 48
1.0
  6
BYLAYER
100
AcDbMText
 10
44.6351819349428141
 20
16.9038361323789417
 30
0.0
 40
1.6000000000000001
 41
0.0
 71
5
 72
1
  1
OoRoBoT
  7
textstyle8
 50
45.0
 73
2
 44
1.0
  0
MTEXT
  5
314
100
AcDbEntity
  8
icon
 62
256
370
9
 48
1.0
  6
BYLAYER
100
AcDbMText
 10
107.6351819349428069
 20
16.9038361323789417
 30
0.0
 40
1.6000000000000001
 41
0.0
 71
5
 72
1
  1
OoRoBoT
  7
textstyle9
 50
45.0
 73
2
 44
1.0
  0
MTEXT
  5
315
100
AcDbEntity
  8
icon
 62
256
370
9
 48
1.0
  6
BYLAYER
100
AcDbMText
 10
422.6351819349428069
 20
16.9038361323789523
 30
0.0
 40
1.6000000000000001
 41
0.0
 71
5
 72
1
  1
OoRoBoT
  7
textstyle10
 50
45.0
 73
2
 44
1.0
  0
MTEXT
  5
316
100
AcDbEntity
  8
icon
 62
256
370
9
 48
1.0
  6
BYLAYER
100
AcDbMText
 10
485.6351819349428069
 20
16.9038361323789168
 30
0.0
 40
1.6000000000000001
 41
0.0
 71
5
 72
1
  1
OoRoBoT
  7
textstyle11
 50
45.0
 73
2
 44
1.0
  0
MTEXT
  5
317
100
AcDbEntity
  8
icon
 62
256
370
9
 48
1.0
  6
BYLAYER
100
AcDbMText
 10
296.6351819349428069
 20
16.9038361323789559
 30
0.0
 40
1.6000000000000001
 41
0.0
 71
5
 72
1
  1
OoRoBoT
  7
textstyle12
 50
45.0
 73
2
 44
1.0
  0
MTEXT
  5
318
100
AcDbEntity
  8
icon
 62
256
370
9
 48
1.0
  6
BYLAYER
100
AcDbMText
 10
359.6351819349428069
 20
16.9038361323789417
 30
0.0
 40
1.6000000000000001
 41
0.0
 71
5
 72
1
  1
OoRoBoT
  7
textstyle13
 50
45.0
 73
2
 44
1.0
  0
MTEXT
  5
319
100
AcDbEntity
  8
icon
 62
256
370
9
 48
1.0
  6
BYLAYER
100
AcDbMText
 10
170.6351819349428069
 20
16.9038361323789701
 30
0.0
 40
1.6000000000000001
 41
0.0
 71
5
 72
1
  1
OoRoBoT
  7
textstyle14
 50
45.0
 73
2
 44
1.0
  0
MTEXT
  5
31A
100
AcDbEntity
  8
icon
 62
256
370
9
 48
1.0
  6
BYLAYER
100
AcDbMText
 10
233.6351819349428069
 20
16.9038361323789417
 30
0.0
 40
1.6000000000000001
 41
0.0
 71
5
 72
1
  1
OoRoBoT
  7
textstyle15
 50
45.0
 73
2
 44
1.0
  0
LINE
  5
31B
100
AcDbEntity
  8
0
 62
256
370
13
 48
1.0
  6
BYLAYER
100
AcDbLine
 10
2.4999999999999822
 20
2.5
 30
0.0
 11
0.0
 21
2.4999999999999982
 31
0.0
  0
LINE
  5
31C
100
AcDbEntity
  8
0
 62
256
370
13
 48
1.0
  6
BYLAYER
100
AcDbLine
 10
65.4999999999999858
 20
2.5
 30
0.0
 11
63.0
 21
2.4999999999999982
 31
0.0
  0
LINE
  5
31D
100
AcDbEntity
  8
0
 62
256
370
13
 48
1.0
  6
BYLAYER
100
AcDbLine
 10
380.5
 20
2.4999999999999964
 30
0.0
 11
378.0
 21
2.4999999999999964
 31
0.0
  0
LINE
  5
31E
100
AcDbEntity
  8
0
 62
256
370
13
 48
1.0
  6
BYLAYER
100
AcDbLine
 10
443.5
 20
2.4999999999999964
 30
0.0
 11
441.0
 21
2.4999999999999964
 31
0.0
  0
LINE
  5
31F
100
AcDbEntity
  8
0
 62
256
370
13
 48
1.0
  6
BYLAYER
100
AcDbLine
 10
254.4999999999999716
 20
2.5
 30
0.0
 11
252.0
 21
2.5
 31
0.0
  0
LINE
  5
320
100
AcDbEntity
  8
0
 62
256
370
13
 48
1.0
  6
BYLAYER
100
AcDbLine
 10
317.5
 20
2.5
 30
0.0
 11
315.0
 21
2.5
 31
0.0
  0
LINE
  5
321
100
AcDbEntity
  8
0
 62
256
370
13
 48
1.0
  6
BYLAYER
100
AcDbLine
 10
128.4999999999999716
 20
2.5
 30
0.0
 11
126.0
 21
2.5
 31
0.0
  0
LINE
  5
322
100
AcDbEntity
  8
0
 62
256
370
13
 48
1.0
  6
BYLAYER
100
AcDbLine
 10
191.5
 20
2.5
 30
0.0
 11
189.0
 21
2.5
 31
0.0
  0
LINE
  5
323
100
AcDbEntity
  8
0
 62
256
370
13
 48
1.0
  6
BYLAYER
100
AcDbLine
 10
0.0
 20
2.4999999999999982
 30
0.0
 11
0.0
 21
0.0000000000000053
 31
0.0
  0
LINE
  5
324
100
AcDbEntity
  8
0
 62
256
370
13
 48
1.0
  6
BYLAYER
100
AcDbLine
 10
63.0
 20
2.4999999999999982
 30
0.0
 11
63.0
 21
0.0000000000000053
 31
0.0
  0
LINE
  5
325
100
AcDbEntity
  8
0
 62
256
370
13
 48
1.0
  6
BYLAYER
100
AcDbLine
 10
378.0
 20
2.4999999999999964
 30
0.0
 11
378.0
 21
0.0000000000000036
 31
0.0
  0
LINE
  5
326
100
AcDbEntity
  8
0
 62
256
370
13
 48
1.0
  6
BYLAYER
100
AcDbLine
 10
441.0
 20
2.4999999999999964
 30
0.0
 11
441.0
 21
0.0000000000000036
 31
0.0
  0
LINE
  5
327
100
AcDbEntity
  8
0
 62
256
370
13
 48
1.0
  6
BYLAYER
100
AcDbLine
 10
252.0
 20
2.5
 30
0.0
 11
252.0
 21
0.0
 31
0.0
  0
LINE
  5
328
100
AcDbEntity
  8
0
 62
256
370
13
 48
1.0
  6
BYLAYER
100
AcDbLine
 10
315.0
 20
2.5
 30
0.0
 11
315.0
 21
0.0
 31
0.0
  0
LINE
  5
329
100
AcDbEntity
  8
0
 62
256
370
13
 48
1.0
  6
BYLAYER
100
AcDbLine
 10
126.0
 20
2.5
 30
0.0
 11
126.0
 21
0.0
 31
0.0
  0
LINE
  5
32A
100
AcDbEntity
  8
0
 62
256
370
13
 48
1.0
  6
BYLAYER
100
AcDbLine
 10
189.0
 20
2.5
 30
0.0
 11
189.0
 21
0.0
 31
0.0
  0
LINE
  5
32B
100
AcDbEntity
  8
0
 62
256
370
13
 48
1.0
  6
BYLAYER
100
AcDbLine
 10
32.0
 20
2.5000000000000018
 30
0.0
 11
34.4999999999999787
 21
2.5000000000000018
 31
0.0
  0
LINE
  5
32C
100
AcDbEntity
  8
0
 62
256
370
13
 48
1.0
  6
BYLAYER
100
AcDbLine
 10
95.0
 20
2.5000000000000018
 30
0.0
 11
97.4999999999999716
 21
2.5000000000000018
 31
0.0
  0
LINE
  5
32D
100
AcDbEntity
  8
0
 62
256
370
13
 48
1.0
  6
BYLAYER
100
AcDbLine
 10
410.0
 20
2.4999999999999964
 30
0.0
 11
412.5
 21
2.4999999999999964
 31
0.0
  0
LINE
  5
32E
100
AcDbEntity
  8
0
 62
256
370
13
 48
1.0
  6
BYLAYER
100
AcDbLine
 10
473.0
 20
2.4999999999999964
 30
0.0
 11
475.5
 21
2.4999999999999964
 31
0.0
  0
LINE
  5
32F
100
AcDbEntity
  8
0
 62
256
370
13
 48
1.0
  6
BYLAYER
100
AcDbLine
 10
284.0
 20
2.5
 30
0.0
 11
286.5
 21
2.5
 31
0.0
  0
LINE
  5
330
100
AcDbEntity
  8
0
 62
256
370
13
 48
1.0
  6
BYLAYER
100
AcDbLine
 10
347.0
 20
2.5
 30
0.0
 11
349.5
 21
2.5
 31
0.0
  0
LINE
  5
331
100
AcDbEntity
  8
0
 62
256
370
13
 48
1.0
  6
BYLAYER
100
AcDbLine
 10
158.0
 20
2.5
 30
0.0
 11
160.4999999999999716
 21
2.5
 31
0.0
  0
LINE
  5
332
100
AcDbEntity
  8
0
 62
256
370
13
 48
1.0
  6
BYLAYER
100
AcDbLine
 10
221.0
 20
2.5
 30
0.0
 11
223.4999999999999716
 21
2.5
 31
0.0
  0
LINE
  5
333
100
AcDbEntity
  8
0
 62
256
370
13
 48
1.0
  6
BYLAYER
100
AcDbLine
 10
54.6000000000000156
 20
2.5000000000000053
 30
0.0
 11
59.5000000000000071
 21
2.4999999999999929
 31
0.0
  0
LINE
  5
334
100
AcDbEntity
  8
0
 62
256
370
13
 48
1.0
  6
BYLAYER
100
AcDbLine
 10
117.6000000000000227
 20
2.5000000000000053
 30
0.0
 11
122.5
 21
2.4999999999999929
 31
0.0
  0
LINE
  5
335
100
AcDbEntity
  8
0
 62
256
370
13
 48
1.0
  6
BYLAYER
100
AcDbLine
 10
432.6000000000000227
 20
2.5000000000000036
 30
0.0
 11
437.5
 21
2.4999999999999893
 31
0.0
  0
LINE
  5
336
100
AcDbEntity
  8
0
 62
256
370
13
 48
1.0
  6
BYLAYER
100
AcDbLine
 10
495.6000000000000227
 20
2.5000000000000036
 30
0.0
 11
500.5
 21
2.4999999999999893
 31
0.0
  0
LINE
  5
337
100
AcDbEntity
  8
0
 62
256
370
13
 48
1.0
  6
BYLAYER
100
AcDbLine
 10
306.6000000000000227
 20
2.5
 30
0.0
 11
311.5
 21
2.4999999999999858
 31
0.0
  0
LINE
  5
338
100
AcDbEntity
  8
0
 62
256
370
13
 48
1.0
  6
BYLAYER
100
AcDbLine
 10
369.6000000000000227
 20
2.5
 30
0.0
 11
374.5
 21
2.4999999999999858
 31
0.0
  0
LINE
  5
339
100
AcDbEntity
  8
0
 62
256
370
13
 48
1.0
  6
BYLAYER
100
AcDbLine
 10
180.6000000000000227
 20
2.5
 30
0.0
 11
185.5
 21
2.4999999999999858
 31
0.0
  0
LINE
  5
33A
100
AcDbEntity
  8
0
 62
256
370
13
 48
1.0
  6
BYLAYER
100
AcDbLine
 10
243.6000000000000227
 20
2.5
 30
0.0
 11
248.5
 21
2.4999999999999858
 31
0.0
  0
LINE
  5
33B
100
AcDbEntity
  8
0
 62
256
370
13
 48
1.0
  6
BYLAYER
100
AcDbLine
 10
32.0
 20
2.5000000000000018
 30
0.0
 11
32.0000000000000071
 21
0.0000000000000036
 31
0.0
  0
LINE
  5
33C
100
AcDbEntity
  8
0
 62
256
370
13
 48
1.0
  6
BYLAYER
100
AcDbLine
 10
95.0
 20
2.5000000000000018
 30
0.0
 11
95.0
 21
0.0000000000000036
 31
0.0
  0
LINE
  5
33D
100
AcDbEntity
  8
0
 62
256
370
13
 48
1.0
  6
BYLAYER
100
AcDbLine
 10
410.0
 20
2.4999999999999964
 30
0.0
 11
410.0
 21
0.0
 31
0.0
  0
LINE
  5
33E
100
AcDbEntity
  8
0
 62
256
370
13
 48
1.0
  6
BYLAYER
100
AcDbLine
 10
473.0
 20
2.4999999999999964
 30
0.0
 11
473.0
 21
0.0
 31
0.0
  0
LINE
  5
33F
100
AcDbEntity
  8
0
 62
256
370
13
 48
1.0
  6
BYLAYER
100
AcDbLine
 10
284.0
 20
2.5
 30
0.0
 11
284.0
 21
0.0
 31
0.0
  0
LINE
  5
340
100
AcDbEntity
  8
0
 62
256
370
13
 48
1.0
  6
BYLAYER
100
AcDbLine
 10
347.0
 20
2.5
 30
0.0
 11
347.0
 21
0.0
 31
0.0
  0
LINE
  5
341
100
AcDbEntity
  8
0
 62
256
370
13
 48
1.0
  6
BYLAYER
100
AcDbLine
 10
158.0
 20
2.5
 30
0.0
 11
158.0
 21
0.0
 31
0.0
  0
LINE
  5
342
100
AcDbEntity
  8
0
 62
256
370
13
 48
1.0
  6
BYLAYER
100
AcDbLine
 10
221.0
 20
2.5
 30
0.0
 11
221.0
 21
0.0
 31
0.0
  0
ENDSEC
  0
SECTION
  2
OBJECTS
  0
DICTIONARY
  5
C
100
AcDbDictionary
280
0
281
1
  3
ACAD_GROUP
350
D
  3
ACAD_LAYOUT
350
1A
  3
ACAD_MLINESTYLE
350
17
  3
ACAD_PLOTSETTINGS
350
19
  3
ACAD_PLOTSTYLENAME
350
E
  3
AcDbVariableDictionary
350
343
  3
QCAD_OBJECTS
350
344
  0
DICTIONARY
  5
D
100
AcDbDictionary
280
0
281
1
  0
ACDBDICTIONARYWDFLT
  5
E
100
AcDbDictionary
281
1
  3
Normal
350
F
100
AcDbDictionaryWithDefault
340
F
  0
ACDBPLACEHOLDER
  5
F
  0
DICTIONARY
  5
17
100
AcDbDictionary
280
0
281
1
  3
Standard
350
18
  0
MLINESTYLE
  5
18
100
AcDbMlineStyle
  2
STANDARD
 70
0
  3

 62
256
 51
90.0
 52
90.0
 71
2
 49
0.5
 62
256
  6
BYLAYER
 49
-0.5
 62
256
  6
BYLAYER
  0
DICTIONARY
  5
19
100
AcDbDictionary
280
0
281
1
  0
DICTIONARY
  5
1A
100
AcDbDictionary
281
1
  3
Layout1
350
1E
  3
Layout2
350
26
  3
Model
350
22
  0
LAYOUT
  5
1E
100
AcDbPlotSettings
  1

  2
none_device
  4

  6

 40
0.0
 41
0.0
 42
0.0
 43
0.0
 44
0.0
 45
0.0
 46
0.0
 47
0.0
 48
0.0
 49
0.0
140
0.0
141
0.0
142
1.0
143
1.0
 70
688
 72
0
 73
0
 74
5
  7

 75
16
147
1.0
148
0.0
149
0.0
100
AcDbLayout
  1
Layout1
 70
1
 71
1
 10
0.0
 20
0.0
 11
420.0
 21
297.0
 12
0.0
 22
0.0
 32
0.0
 14
100000000000000000000.0
 24
100000000000000000000.0
 34
100000000000000000000.0
 15
-100000000000000000000.0
 25
-100000000000000000000.0
 35
-100000000000000000000.0
146
0.0
 13
0.0
 23
0.0
 33
0.0
 16
1.0
 26
0.0
 36
0.0
 17
0.0
 27
1.0
 37
0.0
 76
0
330
1B
  0
LAYOUT
  5
22
100
AcDbPlotSettings
  1

  2
none_device
  4

  6

 40
0.0
 41
0.0
 42
0.0
 43
0.0
 44
0.0
 45
0.0
 46
0.0
 47
0.0
 48
0.0
 49
0.0
140
0.0
141
0.0
142
1.0
143
1.0
 70
1712
 72
0
 73
0
 74
0
  7

 75
0
147
1.0
148
0.0
149
0.0
100
AcDbLayout
  1
Model
 70
1
 71
0
 10
0.0
 20
0.0
 11
12.0
 21
9.0
 12
0.0
 22
0.0
 32
0.0
 14
0.0
 24
0.0
 34
0.0
 15
0.0
 25
0.0
 35
0.0
146
0.0
 13
0.0
 23
0.0
 33
0.0
 16
1.0
 26
0.0
 36
0.0
 17
0.0
 27
1.0
 37
0.0
 76
0
330
1F
  0
LAYOUT
  5
26
100
AcDbPlotSettings
  1

  2
none_device
  4

  6

 40
0.0
 41
0.0
 42
0.0
 43
0.0
 44
0.0
 45
0.0
 46
0.0
 47
0.0
 48
0.0
 49
0.0
140
0.0
141
0.0
142
1.0
143
1.0
 70
688
 72
0
 73
0
 74
5
  7

 75
16
147
1.0
148
0.0
149
0.0
100
AcDbLayout
  1
Layout2
 70
1
 71
2
 10
0.0
 20
0.0
 11
12.0
 21
9.0
 12
0.0
 22
0.0
 32
0.0
 14
0.0
 24
0.0
 34
0.0
 15
0.0
 25
0.0
 35
0.0
146
0.0
 13
0.0
 23
0.0
 33
0.0
 16
1.0
 26
0.0
 36
0.0
 17
0.0
 27
1.0
 37
0.0
 76
0
330
23
  0
DICTIONARY
  5
343
100
AcDbDictionary
281
1
  3
DIMASSOC
350
346
  3
HIDETEXT
350
345
  0
DICTIONARYVAR
  5
345
100
DictionaryVariables
280
0
  1
2
  0
DICTIONARYVAR
  5
346
100
DictionaryVariables
280
0
  1
1
  0
DICTIONARY
  5
344
100
AcDbDictionary
281
1
  3
ColorSettings/BackgroundColor
350
347
  3
ColorSettings/ColorMode
350
348
  3
Grid/DisplayGrid00
350
349
  3
Grid/DisplayGrid01
350
34A
  3
Grid/DisplayGrid02
350
34B
  3
Grid/DisplayGrid03
350
34C
  3
Grid/GridSpacingX00
350
34D
  3
Grid/GridSpacingX01
350
34E
  3
Grid/GridSpacingX02
350
34F
  3
Grid/GridSpacingX03
350
350
  3
Grid/GridSpacingY00
350
351
  3
Grid/GridSpacingY01
350
352
  3
Grid/GridSpacingY02
350
353
  3
Grid/GridSpacingY03
350
354
  3
Grid/IsometricGrid00
350
355
  3
Grid/IsometricGrid01
350
356
  3
Grid/IsometricGrid02
350
357
  3
Grid/IsometricGrid03
350
358
  3
Grid/IsometricProjection00
350
359
  3
Grid/IsometricProjection01
350
35A
  3
Grid/IsometricProjection02
350
35B
  3
Grid/IsometricProjection03
350
35C
  3
Grid/MetaGridSpacingX00
350
35D
  3
Grid/MetaGridSpacingX01
350
35E
  3
Grid/MetaGridSpacingX02
350
35F
  3
Grid/MetaGridSpacingX03
350
360
  3
Grid/MetaGridSpacingY00
350
361
  3
Grid/MetaGridSpacingY01
350
362
  3
Grid/MetaGridSpacingY02
350
363
  3
Grid/MetaGridSpacingY03
350
364
  3
MultiPageSettings/Columns
350
365
  3
MultiPageSettings/GlueMarginsBottom
350
366
  3
MultiPageSettings/GlueMarginsLeft
350
367
  3
MultiPageSettings/GlueMarginsRight
350
368
  3
MultiPageSettings/GlueMarginsTop
350
369
  3
MultiPageSettings/PrintCropMarks
350
36A
  3
MultiPageSettings/Rows
350
36B
  3
PageSettings/OffsetX
350
36C
  3
PageSettings/OffsetY
350
36D
  3
PageSettings/PageOrientation
350
36E
  3
PageSettings/PaperHeight
350
36F
  3
PageSettings/PaperWidth
350
370
  3
PageSettings/Scale
350
371
  3
PageSettings/ShowPaperBorders
350
372
  3
QCADVersion
350
373
  3
UnitSettings/PaperUnit
350
374
  3
ViewportCenter
350
375
  3
ViewportHeight
350
376
  3
ViewportWidth
350
377
  0
XRECORD
  5
347
330
344
100
AcDbXrecord
280
1
1000
Blanc
  0
XRECORD
  5
348
330
344
100
AcDbXrecord
280
1
1000
FullColor
  0
XRECORD
  5
349
330
344
100
AcDbXrecord
280
1
290
1
  0
XRECORD
  5
34A
330
344
100
AcDbXrecord
280
1
290
1
  0
XRECORD
  5
34B
330
344
100
AcDbXrecord
280
1
290
1
  0
XRECORD
  5
34C
330
344
100
AcDbXrecord
280
1
290
1
  0
XRECORD
  5
34D
330
344
100
AcDbXrecord
280
1
1000
auto
  0
XRECORD
  5
34E
330
344
100
AcDbXrecord
280
1
1000
auto
  0
XRECORD
  5
34F
330
344
100
AcDbXrecord
280
1
1000
auto
  0
XRECORD
  5
350
330
344
100
AcDbXrecord
280
1
1000
auto
  0
XRECORD
  5
351
330
344
100
AcDbXrecord
280
1
1000
auto
  0
XRECORD
  5
352
330
344
100
AcDbXrecord
280
1
1000
auto
  0
XRECORD
  5
353
330
344
100
AcDbXrecord
280
1
1000
auto
  0
XRECORD
  5
354
330
344
100
AcDbXrecord
280
1
1000
auto
  0
XRECORD
  5
355
330
344
100
AcDbXrecord
280
1
290
0
  0
XRECORD
  5
356
330
344
100
AcDbXrecord
280
1
290
0
  0
XRECORD
  5
357
330
344
100
AcDbXrecord
280
1
290
0
  0
XRECORD
  5
358
330
344
100
AcDbXrecord
280
1
290
0
  0
XRECORD
  5
359
330
344
100
AcDbXrecord
280
1
 90
65537
  0
XRECORD
  5
35A
330
344
100
AcDbXrecord
280
1
 90
65537
  0
XRECORD
  5
35B
330
344
100
AcDbXrecord
280
1
 90
65537
  0
XRECORD
  5
35C
330
344
100
AcDbXrecord
280
1
 90
65537
  0
XRECORD
  5
35D
330
344
100
AcDbXrecord
280
1
1000
auto
  0
XRECORD
  5
35E
330
344
100
AcDbXrecord
280
1
1000
auto
  0
XRECORD
  5
35F
330
344
100
AcDbXrecord
280
1
1000
auto
  0
XRECORD
  5
360
330
344
100
AcDbXrecord
280
1
1000
auto
  0
XRECORD
  5
361
330
344
100
AcDbXrecord
280
1
1000
auto
  0
XRECORD
  5
362
330
344
100
AcDbXrecord
280
1
1000
auto
  0
XRECORD
  5
363
330
344
100
AcDbXrecord
280
1
1000
auto
  0
XRECORD
  5
364
330
344
100
AcDbXrecord
280
1
1000
auto
  0
XRECORD
  5
365
330
344
100
AcDbXrecord
280
1
 90
1
  0
XRECORD
  5
366
330
344
100
AcDbXrecord
280
1
 40
10.0
  0
XRECORD
  5
367
330
344
100
AcDbXrecord
280
1
 40
10.0
  0
XRECORD
  5
368
330
344
100
AcDbXrecord
280
1
 40
10.0
  0
XRECORD
  5
369
330
344
100
AcDbXrecord
280
1
 40
10.0
  0
XRECORD
  5
36A
330
344
100
AcDbXrecord
280
1
290
0
  0
XRECORD
  5
36B
330
344
100
AcDbXrecord
280
1
 90
1
  0
XRECORD
  5
36C
330
344
100
AcDbXrecord
280
1
 40
0.0
  0
XRECORD
  5
36D
330
344
100
AcDbXrecord
280
1
 40
0.0
  0
XRECORD
  5
36E
330
344
100
AcDbXrecord
280
1
1000
Landscape
  0
XRECORD
  5
36F
330
344
100
AcDbXrecord
280
1
 40
297.0
  0
XRECORD
  5
370
330
344
100
AcDbXrecord
280
1
 40
210.0
  0
XRECORD
  5
371
330
344
100
AcDbXrecord
280
1
1000
1:1
  0
XRECORD
  5
372
330
344
100
AcDbXrecord
280
1
290
1
  0
XRECORD
  5
373
330
344
100
AcDbXrecord
280
1
1000
3.19.2.2
  0
XRECORD
  5
374
330
344
100
AcDbXrecord
280
1
 90
4
  0
XRECORD
  5
376
330
344
100
AcDbXrecord
280
1
 40
192.5718367346938464
  0
XRECORD
  5
377
330
344
100
AcDbXrecord
280
1
 40
330.2093877551020569
  0
ENDSEC
  0
EOF
