999
dxflib 3.17.0.0
  0
SECTION
  2
HEADER
  9
$ACADVER
  1
AC1015
  9
$HANDSEED
  5
FFFF
  9
$DIMADEC
 70
0
  9
$DIMASZ
 40
0.18
  9
$DIMAUNIT
 70
0
  9
$DIMAZIN
 70
0
  9
$DIMDEC
 70
4
  9
$DIMDSEP
 70
46
  9
$DIMEXE
 40
0.18
  9
$DIMEXO
 40
0.0625
  9
$DIMGAP
 40
0.09
  9
$DIMLUNIT
 70
2
  9
$DIMSCALE
 40
1.0
  9
$DIMTSZ
 40
0.0
  9
$DIMTXT
 40
0.18
  9
$DIMZIN
 70
0
  9
$DWGCODEPAGE
  3
ANSI_1252
  9
$EXTMAX
 10
0.0
 20
0.0
 30
0.0
  9
$EXTMIN
 10
0.0
 20
0.0
 30
0.0
  9
$INSBASE
 10
0.0
 20
0.0
 30
0.0
  9
$INSUNITS
 70
0
  9
$LTSCALE
 40
1.0
  9
$MAXACTVP
 70
64
  9
$MEASUREMENT
 70
1
  9
$PDMODE
 70
0
  9
$PDSIZE
 40
0.0
  0
ENDSEC
  0
SECTION
  2
TABLES
  0
TABLE
  2
VPORT
  5
8
100
AcDbSymbolTable
 70
1
  0
VPORT
  5
30
100
AcDbSymbolTableRecord
100
AcDbViewportTableRecord
  2
*Active
 70
0
 10
0.0
 20
0.0
 11
1.0
 21
1.0
 12
286.3055555555554861
 22
148.5
 13
0.0
 23
0.0
 14
10.0
 24
10.0
 15
10.0
 25
10.0
 16
0.0
 26
0.0
 36
1.0
 17
0.0
 27
0.0
 37
0.0
 40
297.0
 41
1.92798353909465
 42
50.0
 43
0.0
 44
0.0
 50
0.0
 51
0.0
 71
0
 72
100
 73
1
 74
3
 75
1
 76
1
 77
0
 78
0
281
0
 65
1
110
0.0
120
0.0
130
0.0
111
1.0
121
0.0
131
0.0
112
0.0
122
1.0
132
0.0
 79
0
146
0.0
  0
ENDTAB
  0
TABLE
  2
LTYPE
  5
5
100
AcDbSymbolTable
 70
41
  0
LTYPE
  5
16
100
AcDbSymbolTableRecord
100
AcDbLinetypeTableRecord
  2
CONTINUOUS
 70
0
  3
Solid line
 72
65
 73
0
 40
0.0
  0
LTYPE
  5
31
100
AcDbSymbolTableRecord
100
AcDbLinetypeTableRecord
  2
ACAD_ISO15W100
 70
0
  3
ISO double-dash triple-dot __ __ . . . __ __ . .
 72
65
 73
10
 40
39.0000000000000071
 49
12.0
 74
0
 49
-3.0
 74
0
 49
12.0
 74
0
 49
-2.9500000000000002
 74
0
 49
0.1
 74
0
 49
-2.9000000000000004
 74
0
 49
0.1
 74
0
 49
-2.9000000000000004
 74
0
 49
0.1
 74
0
 49
-2.9500000000000002
 74
0
  0
LTYPE
  5
32
100
AcDbSymbolTableRecord
100
AcDbLinetypeTableRecord
  2
DIVIDE
 70
0
  3
Divide ____ . . ____ . . ____ . . ____ . . ____
 72
65
 73
6
 40
31.7500000000000036
 49
12.6999999999999993
 74
0
 49
-6.2999999999999998
 74
0
 49
0.1
 74
0
 49
-6.25
 74
0
 49
0.1
 74
0
 49
-6.2999999999999998
 74
0
  0
LTYPE
  5
33
100
AcDbSymbolTableRecord
100
AcDbLinetypeTableRecord
  2
ACAD_ISO10W100
 70
0
  3
ISO dash dot __ . __ . __ . __ . __ . __ . __ . 
 72
65
 73
4
 40
18.0
 49
12.0
 74
0
 49
-2.9500000000000002
 74
0
 49
0.1
 74
0
 49
-2.9500000000000002
 74
0
  0
LTYPE
  5
34
100
AcDbSymbolTableRecord
100
AcDbLinetypeTableRecord
  2
ACAD_ISO04W100
 70
0
  3
ISO long-dash dot ____ . ____ . ____ . ____ . _
 72
65
 73
4
 40
30.0
 49
24.0
 74
0
 49
-2.9500000000000002
 74
0
 49
0.1
 74
0
 49
-2.9500000000000002
 74
0
  0
LTYPE
  5
35
100
AcDbSymbolTableRecord
100
AcDbLinetypeTableRecord
  2
CENTER2
 70
0
  3
Center (.5x) ___ _ ___ _ ___ _ ___ _ ___ _ ___
 72
65
 73
4
 40
28.5750000000000028
 49
19.0500000000000007
 74
0
 49
-3.1749999999999998
 74
0
 49
3.1749999999999998
 74
0
 49
-3.1749999999999998
 74
0
  0
LTYPE
  5
36
100
AcDbSymbolTableRecord
100
AcDbLinetypeTableRecord
  2
ACAD_ISO11W100
 70
0
  3
ISO double-dash dot __ __ . __ __ . __ __ . __ _
 72
65
 73
6
 40
33.0
 49
12.0
 74
0
 49
-3.0
 74
0
 49
12.0
 74
0
 49
-2.9500000000000002
 74
0
 49
0.1
 74
0
 49
-2.9500000000000002
 74
0
  0
LTYPE
  5
37
100
AcDbSymbolTableRecord
100
AcDbLinetypeTableRecord
  2
HIDDEN2
 70
0
  3
Hidden (.5x) _ _ _ _ _ _ _ _ _ _ _ _ _ _ _ _ _ 
 72
65
 73
2
 40
4.7624999999999993
 49
3.1749999999999998
 74
0
 49
-1.5874999999999999
 74
0
  0
LTYPE
  5
38
100
AcDbSymbolTableRecord
100
AcDbLinetypeTableRecord
  2
BORDERX2
 70
0
  3
Border (2x) ____  ____  .  ____  ____  .  ___
 72
65
 73
6
 40
88.8999999999999773
 49
25.3999999999999986
 74
0
 49
-12.6999999999999993
 74
0
 49
25.3999999999999986
 74
0
 49
-12.6499999999999986
 74
0
 49
0.1
 74
0
 49
-12.6499999999999986
 74
0
  0
LTYPE
  5
39
100
AcDbSymbolTableRecord
100
AcDbLinetypeTableRecord
  2
ACAD_ISO05W100
 70
0
  3
ISO long-dash double-dot ____ .. ____ .. ____ . 
 72
65
 73
6
 40
33.0000000000000071
 49
24.0
 74
0
 49
-2.9500000000000002
 74
0
 49
0.1
 74
0
 49
-2.9000000000000004
 74
0
 49
0.1
 74
0
 49
-2.9500000000000002
 74
0
  0
LTYPE
  5
3A
100
AcDbSymbolTableRecord
100
AcDbLinetypeTableRecord
  2
DASHDOTX2
 70
0
  3
Dash dot (2x) ____  .  ____  .  ____  .  ___
 72
65
 73
4
 40
50.7999999999999972
 49
25.3999999999999986
 74
0
 49
-12.6499999999999986
 74
0
 49
0.1
 74
0
 49
-12.6499999999999986
 74
0
  0
LTYPE
  5
3B
100
AcDbSymbolTableRecord
100
AcDbLinetypeTableRecord
  2
HIDDENX2
 70
0
  3
Hidden (2x) ____ ____ ____ ____ ____ ____ ____ 
 72
65
 73
2
 40
19.0499999999999972
 49
12.6999999999999993
 74
0
 49
-6.3499999999999996
 74
0
  0
LTYPE
  5
3C
100
AcDbSymbolTableRecord
100
AcDbLinetypeTableRecord
  2
CENTERX2
 70
0
  3
Center (2x) ________  __  ________  __  _____
 72
65
 73
4
 40
101.6000000000000085
 49
63.5
 74
0
 49
-12.6999999999999993
 74
0
 49
12.6999999999999993
 74
0
 49
-12.6999999999999993
 74
0
  0
LTYPE
  5
3D
100
AcDbSymbolTableRecord
100
AcDbLinetypeTableRecord
  2
BORDER2
 70
0
  3
Border (.5x) __.__.__.__.__.__.__.__.__.__.__.
 72
65
 73
6
 40
22.2250000000000014
 49
6.3499999999999996
 74
0
 49
-3.1749999999999998
 74
0
 49
6.3499999999999996
 74
0
 49
-3.125
 74
0
 49
0.1
 74
0
 49
-3.125
 74
0
  0
LTYPE
  5
3E
100
AcDbSymbolTableRecord
100
AcDbLinetypeTableRecord
  2
DASHDOT2
 70
0
  3
Dash dot (.5x) _._._._._._._._._._._._._._._.
 72
65
 73
4
 40
12.6999999999999993
 49
6.3499999999999996
 74
0
 49
-3.125
 74
0
 49
0.1
 74
0
 49
-3.125
 74
0
  0
LTYPE
  5
3F
100
AcDbSymbolTableRecord
100
AcDbLinetypeTableRecord
  2
ACAD_ISO12W100
 70
0
  3
ISO dash double-dot __ . . __ . . __ . . __ . . 
 72
65
 73
6
 40
21.0
 49
12.0
 74
0
 49
-2.9500000000000002
 74
0
 49
0.1
 74
0
 49
-2.9000000000000004
 74
0
 49
0.1
 74
0
 49
-2.9500000000000002
 74
0
  0
LTYPE
  5
40
100
AcDbSymbolTableRecord
100
AcDbLinetypeTableRecord
  2
ACAD_ISO07W100
 70
0
  3
ISO dot . . . . . . . . . . . . . . . . . . . . 
 72
65
 73
2
 40
3.0
 49
0.1
 74
0
 49
-2.8999999999999999
 74
0
  0
LTYPE
  5
41
100
AcDbSymbolTableRecord
100
AcDbLinetypeTableRecord
  2
HIDDEN
 70
0
  3
Hidden __ __ __ __ __ __ __ __ __ __ __ __ __ __
 72
65
 73
2
 40
9.5249999999999986
 49
6.3499999999999996
 74
0
 49
-3.1749999999999998
 74
0
  0
LTYPE
  5
42
100
AcDbSymbolTableRecord
100
AcDbLinetypeTableRecord
  2
ACAD_ISO06W100
 70
0
  3
ISO long-dash triple-dot ____ ... ____ ... ____
 72
65
 73
8
 40
36.0000000000000071
 49
24.0
 74
0
 49
-2.9500000000000002
 74
0
 49
0.1
 74
0
 49
-2.9000000000000004
 74
0
 49
0.1
 74
0
 49
-2.9000000000000004
 74
0
 49
0.1
 74
0
 49
-2.9500000000000002
 74
0
  0
LTYPE
  5
43
100
AcDbSymbolTableRecord
100
AcDbLinetypeTableRecord
  2
CENTER
 70
0
  3
Center ____ _ ____ _ ____ _ ____ _ ____ _ ____
 72
65
 73
4
 40
50.8000000000000043
 49
31.75
 74
0
 49
-6.3499999999999996
 74
0
 49
6.3499999999999996
 74
0
 49
-6.3499999999999996
 74
0
  0
LTYPE
  5
44
100
AcDbSymbolTableRecord
100
AcDbLinetypeTableRecord
  2
DOTX2
 70
0
  3
Dot (2x) .  .  .  .  .  .  .  .  .  .  .  .  .  .
 72
65
 73
2
 40
12.6999999999999993
 49
0.1
 74
0
 49
-12.5999999999999996
 74
0
  0
LTYPE
  5
45
100
AcDbSymbolTableRecord
100
AcDbLinetypeTableRecord
  2
PHANTOM
 70
0
  3
Phantom ______  __  __  ______  __  __  ______ 
 72
65
 73
6
 40
63.5000000000000071
 49
31.75
 74
0
 49
-6.3499999999999996
 74
0
 49
6.3499999999999996
 74
0
 49
-6.3499999999999996
 74
0
 49
6.3499999999999996
 74
0
 49
-6.3499999999999996
 74
0
  0
LTYPE
  5
46
100
AcDbSymbolTableRecord
100
AcDbLinetypeTableRecord
  2
ACAD_ISO08W100
 70
0
  3
ISO long-dash short-dash ____ __ ____ __ ____ _
 72
65
 73
4
 40
36.0
 49
24.0
 74
0
 49
-3.0
 74
0
 49
6.0
 74
0
 49
-3.0
 74
0
  0
LTYPE
  5
47
100
AcDbSymbolTableRecord
100
AcDbLinetypeTableRecord
  2
DASHEDX2
 70
0
  3
Dashed (2x) ____  ____  ____  ____  ____  ___
 72
65
 73
2
 40
38.0999999999999943
 49
25.3999999999999986
 74
0
 49
-12.6999999999999993
 74
0
  0
LTYPE
  5
48
100
AcDbSymbolTableRecord
100
AcDbLinetypeTableRecord
  2
ACAD_ISO02W100
 70
0
  3
ISO dash __ __ __ __ __ __ __ __ __ __ __ __ __
 72
65
 73
2
 40
15.0
 49
12.0
 74
0
 49
-3.0
 74
0
  0
LTYPE
  5
49
100
AcDbSymbolTableRecord
100
AcDbLinetypeTableRecord
  2
PHANTOM2
 70
0
  3
Phantom (.5x) ___ _ _ ___ _ _ ___ _ _ ___ _ _
 72
65
 73
6
 40
31.7500000000000036
 49
15.875
 74
0
 49
-3.1749999999999998
 74
0
 49
3.1749999999999998
 74
0
 49
-3.1749999999999998
 74
0
 49
3.1749999999999998
 74
0
 49
-3.1749999999999998
 74
0
  0
LTYPE
  5
4A
100
AcDbSymbolTableRecord
100
AcDbLinetypeTableRecord
  2
DASHED2
 70
0
  3
Dashed (.5x) _ _ _ _ _ _ _ _ _ _ _ _ _ _ _ _ _ 
 72
65
 73
2
 40
9.5249999999999986
 49
6.3499999999999996
 74
0
 49
-3.1749999999999998
 74
0
  0
LTYPE
  5
4B
100
AcDbSymbolTableRecord
100
AcDbLinetypeTableRecord
  2
ACAD_ISO09W100
 70
0
  3
ISO long-dash double-short-dash ____ __ __ ____
 72
65
 73
6
 40
45.0
 49
24.0
 74
0
 49
-3.0
 74
0
 49
6.0
 74
0
 49
-3.0
 74
0
 49
6.0
 74
0
 49
-3.0
 74
0
  0
LTYPE
  5
4C
100
AcDbSymbolTableRecord
100
AcDbLinetypeTableRecord
  2
ACAD_ISO13W100
 70
0
  3
ISO double-dash double-dot __ __ . . __ __ . . _
 72
65
 73
8
 40
36.0000000000000071
 49
12.0
 74
0
 49
-3.0
 74
0
 49
12.0
 74
0
 49
-2.9500000000000002
 74
0
 49
0.1
 74
0
 49
-2.9000000000000004
 74
0
 49
0.1
 74
0
 49
-2.9500000000000002
 74
0
  0
LTYPE
  5
4D
100
AcDbSymbolTableRecord
100
AcDbLinetypeTableRecord
  2
DOT2
 70
0
  3
Dot (.5x) ........................................
 72
65
 73
2
 40
3.1749999999999998
 49
0.1
 74
0
 49
-3.0749999999999997
 74
0
  0
LTYPE
  5
4E
100
AcDbSymbolTableRecord
100
AcDbLinetypeTableRecord
  2
DASHED
 70
0
  3
Dashed __ __ __ __ __ __ __ __ __ __ __ __ __ _
 72
65
 73
2
 40
19.0499999999999972
 49
12.6999999999999993
 74
0
 49
-6.3499999999999996
 74
0
  0
LTYPE
  5
4F
100
AcDbSymbolTableRecord
100
AcDbLinetypeTableRecord
  2
ACAD_ISO14W100
 70
0
  3
ISO dash triple-dot __ . . . __ . . . __ . . . _
 72
65
 73
8
 40
24.0000000000000036
 49
12.0
 74
0
 49
-2.9500000000000002
 74
0
 49
0.1
 74
0
 49
-2.9000000000000004
 74
0
 49
0.1
 74
0
 49
-2.9000000000000004
 74
0
 49
0.1
 74
0
 49
-2.9500000000000002
 74
0
  0
LTYPE
  5
15
100
AcDbSymbolTableRecord
100
AcDbLinetypeTableRecord
  2
BYLAYER
 70
0
  3

 72
65
 73
0
 40
0.0
  0
LTYPE
  5
50
100
AcDbSymbolTableRecord
100
AcDbLinetypeTableRecord
  2
PHANTOMX2
 70
0
  3
Phantom (2x) ____________    ____    ____   _
 72
65
 73
6
 40
127.0000000000000142
 49
63.5
 74
0
 49
-12.6999999999999993
 74
0
 49
12.6999999999999993
 74
0
 49
-12.6999999999999993
 74
0
 49
12.6999999999999993
 74
0
 49
-12.6999999999999993
 74
0
  0
LTYPE
  5
14
100
AcDbSymbolTableRecord
100
AcDbLinetypeTableRecord
  2
BYBLOCK
 70
0
  3

 72
65
 73
0
 40
0.0
  0
LTYPE
  5
51
100
AcDbSymbolTableRecord
100
AcDbLinetypeTableRecord
  2
DIVIDEX2
 70
0
  3
Divide (2x) ________  .  .  ________  .  .  _
 72
65
 73
6
 40
63.5
 49
25.3999999999999986
 74
0
 49
-12.6499999999999986
 74
0
 49
0.1
 74
0
 49
-12.5999999999999979
 74
0
 49
0.1
 74
0
 49
-12.6499999999999986
 74
0
  0
LTYPE
  5
52
100
AcDbSymbolTableRecord
100
AcDbLinetypeTableRecord
  2
BORDER
 70
0
  3
Border __ __ . __ __ . __ __ . __ __ . __ __ .
 72
65
 73
6
 40
44.4499999999999957
 49
12.6999999999999993
 74
0
 49
-6.3499999999999996
 74
0
 49
12.6999999999999993
 74
0
 49
-6.2999999999999998
 74
0
 49
0.1
 74
0
 49
-6.2999999999999998
 74
0
  0
LTYPE
  5
53
100
AcDbSymbolTableRecord
100
AcDbLinetypeTableRecord
  2
DIVIDE2
 70
0
  3
Divide (.5x) __..__..__..__..__..__..__..__.._
 72
65
 73
6
 40
15.8749999999999982
 49
6.3499999999999996
 74
0
 49
-3.125
 74
0
 49
0.1
 74
0
 49
-3.0750000000000002
 74
0
 49
0.1
 74
0
 49
-3.125
 74
0
  0
LTYPE
  5
54
100
AcDbSymbolTableRecord
100
AcDbLinetypeTableRecord
  2
DOT
 70
0
  3
Dot . . . . . . . . . . . . . . . . . . . . . . . .
 72
65
 73
2
 40
6.3499999999999996
 49
0.1
 74
0
 49
-6.25
 74
0
  0
LTYPE
  5
55
100
AcDbSymbolTableRecord
100
AcDbLinetypeTableRecord
  2
DASHDOT
 70
0
  3
Dash dot __ . __ . __ . __ . __ . __ . __ . __
 72
65
 73
4
 40
25.4000000000000021
 49
12.6999999999999993
 74
0
 49
-6.2999999999999998
 74
0
 49
0.1
 74
0
 49
-6.2999999999999998
 74
0
  0
LTYPE
  5
56
100
AcDbSymbolTableRecord
100
AcDbLinetypeTableRecord
  2
ACAD_ISO03W100
 70
0
  3
ISO dash space __    __    __    __    __    __
 72
65
 73
2
 40
30.0
 49
12.0
 74
0
 49
-18.0
 74
0
  0
ENDTAB
  0
TABLE
  2
LAYER
  5
2
100
AcDbSymbolTable
 70
1
  0
LAYER
  5
10
100
AcDbSymbolTableRecord
100
AcDbLayerTableRecord
  2
0
 70
0
 62
7
420
16777215
  6
CONTINUOUS
370
5
390
F
  0
ENDTAB
  0
TABLE
  2
STYLE
  5
3
100
AcDbSymbolTable
 70
1
  0
STYLE
  5
57
100
AcDbSymbolTableRecord
100
AcDbTextStyleTableRecord
  2
Standard
 70
0
 40
0.0
 41
1.0
 50
0.0
 71
0
 42
2.5
  3

  4

1001
ACAD
1000
txt
1071
0
  0
ENDTAB
  0
TABLE
  2
VIEW
  5
6
100
AcDbSymbolTable
 70
0
  0
ENDTAB
  0
TABLE
  2
UCS
  5
7
100
AcDbSymbolTable
 70
0
  0
ENDTAB
  0
TABLE
  2
APPID
  5
9
100
AcDbSymbolTable
 70
1
  0
APPID
  5
12
100
AcDbSymbolTableRecord
100
AcDbRegAppTableRecord
  2
ACAD
 70
0
  0
APPID
  5
58
100
AcDbSymbolTableRecord
100
AcDbRegAppTableRecord
  2
QCAD
 70
0
  0
ENDTAB
  0
TABLE
  2
DIMSTYLE
  5
A
100
AcDbSymbolTable
 70
1
100
AcDbDimStyleTable
 71
0
  0
DIMSTYLE
105
27
100
AcDbSymbolTableRecord
100
AcDbDimStyleTableRecord
  2
Standard
 41
0.18
 42
0.0625
 43
3.75
 44
0.18
 70
0
 73
0
 74
0
 77
1
 78
8
140
0.18
141
2.5
143
0.03937007874016
147
0.09
171
3
172
1
271
2
272
2
274
3
278
44
283
0
284
8
340
57
  0
ENDTAB
  0
TABLE
  2
BLOCK_RECORD
  5
1
100
AcDbSymbolTable
 70
1
  0
BLOCK_RECORD
  5
1F
100
AcDbSymbolTableRecord
100
AcDbBlockTableRecord
  2
*Model_Space
340
22
  0
BLOCK_RECORD
  5
1B
100
AcDbSymbolTableRecord
100
AcDbBlockTableRecord
  2
*Paper_Space
340
1E
  0
BLOCK_RECORD
  5
23
100
AcDbSymbolTableRecord
100
AcDbBlockTableRecord
  2
*Paper_Space0
340
26
  0
BLOCK_RECORD
  5
59
100
AcDbSymbolTableRecord
100
AcDbBlockTableRecord
  2
FILLET001
340
0
  0
ENDTAB
  0
ENDSEC
  0
SECTION
  2
BLOCKS
  0
BLOCK
  5
20
100
AcDbEntity
  8
0
100
AcDbBlockBegin
  2
*Model_Space
 70
0
 10
0.0
 20
0.0
 30
0.0
  3
*Model_Space
  1

  0
ENDBLK
  5
21
100
AcDbEntity
  8
0
100
AcDbBlockEnd
  0
BLOCK
  5
1C
100
AcDbEntity
 67
1
  8
0
100
AcDbBlockBegin
  2
*Paper_Space
 70
0
 10
0.0
 20
0.0
 30
0.0
  3
*Paper_Space
  1

  0
ENDBLK
  5
1D
100
AcDbEntity
 67
1
  8
0
100
AcDbBlockEnd
  0
BLOCK
  5
24
100
AcDbEntity
  8
0
100
AcDbBlockBegin
  2
*Paper_Space0
 70
0
 10
0.0
 20
0.0
 30
0.0
  3
*Paper_Space0
  1

  0
ENDBLK
  5
25
100
AcDbEntity
  8
0
100
AcDbBlockEnd
  0
BLOCK
  5
5A
100
AcDbEntity
  8
0
100
AcDbBlockBegin
  2
FILLET001
 70
0
 10
0.0
 20
0.0
 30
0.0
  3
FILLET001
  1

  0
LINE
  5
5B
100
AcDbEntity
  8
0
 62
0
370
-1
 48
1.0
  6
BYLAYER
100
AcDbLine
 10
-2.5
 20
-35.3066565961999999
 30
0.0
 11
-2.5
 21
-11.1242977306000004
 31
0.0
  0
ARC
  5
5C
100
AcDbEntity
  8
0
 62
0
370
-1
 48
1.0
  6
BYLAYER
100
AcDbCircle
 10
-6.5
 20
-35.3066565961999999
 30
0.0
 40
4.0
100
AcDbArc
 50
-100.431420256999985
 51
-0.0
  0
ARC
  5
5D
100
AcDbEntity
  8
0
 62
0
370
-1
 48
1.0
  6
BYLAYER
100
AcDbCircle
 10
-4.5
 20
-11.1242977306000004
 30
0.0
 40
2.0
100
AcDbArc
 50
-0.0
 51
67.9756871630000035
  0
ARC
  5
5E
100
AcDbEntity
  8
0
 62
0
370
-1
 48
1.0
  6
BYLAYER
100
AcDbCircle
 10
0.0
 20
0.0
 30
0.0
 40
39.8999999999999986
100
AcDbArc
 50
-151.5685797429999866
 51
-100.431420256999985
  0
ARC
  5
5F
100
AcDbEntity
  8
0
 62
0
370
-1
 48
1.0
  6
BYLAYER
100
AcDbCircle
 10
0.0
 20
0.0
 30
0.0
 40
10.0
100
AcDbArc
 50
-139.9756871630000035
 51
-112.0243128370000107
  0
ARC
  5
60
100
AcDbEntity
  8
0
 62
0
370
-1
 48
1.0
  6
BYLAYER
100
AcDbCircle
 10
-31.5700153609000012
 20
-17.0922242587
 30
0.0
 40
4.0
100
AcDbArc
 50
108.0
 51
-151.5685797429999866
  0
ARC
  5
61
100
AcDbEntity
  8
0
 62
0
370
-1
 48
1.0
  6
BYLAYER
100
AcDbCircle
 10
-9.1892593712499995
 20
-7.7173513725799996
 30
0.0
 40
2.0
100
AcDbArc
 50
40.0243128369999894
 51
108.0
  0
LINE
  5
62
100
AcDbEntity
  8
0
 62
0
370
-1
 48
1.0
  6
BYLAYER
100
AcDbLine
 10
-32.8060833384000006
 20
-13.2879981935
 30
0.0
 11
-9.8072933599999992
 21
-5.8152383399899996
 31
0.0
  0
CIRCLE
  5
63
100
AcDbEntity
  8
0
 62
0
370
-1
 48
1.0
  6
BYLAYER
100
AcDbCircle
 10
0.0
 20
0.0
 30
0.0
 40
44.8500000000000014
  0
LINE
  5
64
100
AcDbEntity
  8
0
 62
0
370
-1
 48
1.0
  6
BYLAYER
100
AcDbLine
 10
-34.3511683102999967
 20
-8.5327156120400005
 30
0.0
 11
-11.3523783319000007
 21
-1.0599557585199999
 31
0.0
  0
ARC
  5
65
100
AcDbEntity
  8
0
 62
0
370
-1
 48
1.0
  6
BYLAYER
100
AcDbCircle
 10
-35.5872362878000033
 20
-4.7284895468599997
 30
0.0
 40
4.0
100
AcDbArc
 50
-172.4314202570000134
 51
-72.0
  0
ARC
  5
66
100
AcDbEntity
  8
0
 62
0
370
-1
 48
1.0
  6
BYLAYER
100
AcDbCircle
 10
-11.9704123205999995
 20
0.842157274073
 30
0.0
 40
2.0
100
AcDbArc
 50
-72.0
 51
-4.0243128370400001
  0
ARC
  5
67
100
AcDbEntity
  8
0
 62
0
370
-1
 48
1.0
  6
BYLAYER
100
AcDbCircle
 10
0.0
 20
0.0
 30
0.0
 40
39.8999999999999986
100
AcDbArc
 50
136.4314202570000134
 51
-172.4314202570000134
  0
ARC
  5
68
100
AcDbEntity
  8
0
 62
0
370
-1
 48
1.0
  6
BYLAYER
100
AcDbCircle
 10
0.0
 20
0.0
 30
0.0
 40
10.0
100
AcDbArc
 50
148.0243128369999965
 51
175.9756871630000035
  0
ARC
  5
69
100
AcDbEntity
  8
0
 62
0
370
-1
 48
1.0
  6
BYLAYER
100
AcDbCircle
 10
-26.0113425183999993
 20
24.7430810610000016
 30
0.0
 40
4.0
100
AcDbArc
 50
36.0
 51
136.4314202570000134
  0
ARC
  5
6A
100
AcDbEntity
  8
0
 62
0
370
-1
 48
1.0
  6
BYLAYER
100
AcDbCircle
 10
-10.1792746228999995
 20
6.3547122792600002
 30
0.0
 40
2.0
100
AcDbArc
 50
-31.9756871629999999
 51
36.0
  0
LINE
  5
6B
100
AcDbEntity
  8
0
 62
0
370
-1
 48
1.0
  6
BYLAYER
100
AcDbLine
 10
-22.7752745408999999
 20
27.0942220700999989
 30
0.0
 11
-8.5612406341200007
 21
7.5302827838499997
 31
0.0
  0
LINE
  5
6C
100
AcDbEntity
  8
0
 62
0
370
-1
 48
1.0
  6
BYLAYER
100
AcDbLine
 10
32.8060833384000006
 20
-13.2879981935
 30
0.0
 11
9.8072933599999992
 21
-5.8152383399899996
 31
0.0
  0
ARC
  5
6D
100
AcDbEntity
  8
0
 62
0
370
-1
 48
1.0
  6
BYLAYER
100
AcDbCircle
 10
31.5700153609000012
 20
-17.0922242587
 30
0.0
 40
4.0
100
AcDbArc
 50
-28.4314202568000027
 51
72.0
  0
ARC
  5
6E
100
AcDbEntity
  8
0
 62
0
370
-1
 48
1.0
  6
BYLAYER
100
AcDbCircle
 10
9.1892593712499995
 20
-7.7173513725799996
 30
0.0
 40
2.0
100
AcDbArc
 50
72.0
 51
139.9756871630000035
  0
ARC
  5
6F
100
AcDbEntity
  8
0
 62
0
370
-1
 48
1.0
  6
BYLAYER
100
AcDbCircle
 10
0.0
 20
0.0
 30
0.0
 40
39.8999999999999986
100
AcDbArc
 50
-79.5685797432000044
 51
-28.4314202568000027
  0
ARC
  5
70
100
AcDbEntity
  8
0
 62
0
370
-1
 48
1.0
  6
BYLAYER
100
AcDbCircle
 10
0.0
 20
0.0
 30
0.0
 40
10.0
100
AcDbArc
 50
-67.9756871630000035
 51
-40.0243128369999894
  0
ARC
  5
71
100
AcDbEntity
  8
0
 62
0
370
-1
 48
1.0
  6
BYLAYER
100
AcDbCircle
 10
6.5
 20
-35.3066565961999999
 30
0.0
 40
4.0
100
AcDbArc
 50
-180.0
 51
-79.5685797432000044
  0
ARC
  5
72
100
AcDbEntity
  8
0
 62
0
370
-1
 48
1.0
  6
BYLAYER
100
AcDbCircle
 10
4.5
 20
-11.1242977306000004
 30
0.0
 40
2.0
100
AcDbArc
 50
112.0243128370000107
 51
-180.0
  0
LINE
  5
73
100
AcDbEntity
  8
0
 62
0
370
-1
 48
1.0
  6
BYLAYER
100
AcDbLine
 10
2.5
 20
-35.3066565961999999
 30
0.0
 11
2.5
 21
-11.1242977306000004
 31
0.0
  0
LINE
  5
74
100
AcDbEntity
  8
0
 62
0
370
-1
 48
1.0
  6
BYLAYER
100
AcDbLine
 10
22.7752745408999999
 20
27.0942220700999989
 30
0.0
 11
8.5612406341200007
 21
7.5302827838499997
 31
0.0
  0
ARC
  5
75
100
AcDbEntity
  8
0
 62
0
370
-1
 48
1.0
  6
BYLAYER
100
AcDbCircle
 10
26.0113425183999993
 20
24.7430810610000016
 30
0.0
 40
4.0
100
AcDbArc
 50
43.5685797432000044
 51
144.0
  0
ARC
  5
76
100
AcDbEntity
  8
0
 62
0
370
-1
 48
1.0
  6
BYLAYER
100
AcDbCircle
 10
10.1792746228999995
 20
6.3547122792600002
 30
0.0
 40
2.0
100
AcDbArc
 50
144.0
 51
-148.0243128369999965
  0
ARC
  5
77
100
AcDbEntity
  8
0
 62
0
370
-1
 48
1.0
  6
BYLAYER
100
AcDbCircle
 10
0.0
 20
0.0
 30
0.0
 40
39.8999999999999986
100
AcDbArc
 50
-7.5685797432300017
 51
43.5685797432000044
  0
ARC
  5
78
100
AcDbEntity
  8
0
 62
0
370
-1
 48
1.0
  6
BYLAYER
100
AcDbCircle
 10
0.0
 20
0.0
 30
0.0
 40
10.0
100
AcDbArc
 50
4.0243128370400001
 51
31.9756871629999999
  0
ARC
  5
79
100
AcDbEntity
  8
0
 62
0
370
-1
 48
1.0
  6
BYLAYER
100
AcDbCircle
 10
35.5872362878000033
 20
-4.7284895468599997
 30
0.0
 40
4.0
100
AcDbArc
 50
-108.0
 51
-7.5685797432300017
  0
ARC
  5
7A
100
AcDbEntity
  8
0
 62
0
370
-1
 48
1.0
  6
BYLAYER
100
AcDbCircle
 10
11.9704123205999995
 20
0.842157274072
 30
0.0
 40
2.0
100
AcDbArc
 50
-175.9756871630000035
 51
-108.0
  0
LINE
  5
7B
100
AcDbEntity
  8
0
 62
0
370
-1
 48
1.0
  6
BYLAYER
100
AcDbLine
 10
34.3511683102999967
 20
-8.5327156120400005
 30
0.0
 11
11.3523783319000007
 21
-1.0599557585199999
 31
0.0
  0
LINE
  5
7C
100
AcDbEntity
  8
0
 62
0
370
-1
 48
1.0
  6
BYLAYER
100
AcDbLine
 10
-18.7301895690000002
 20
30.0331483315999996
 30
0.0
 11
-4.5161556622500001
 21
10.4692090452999995
 31
0.0
  0
ARC
  5
7D
100
AcDbEntity
  8
0
 62
0
370
-1
 48
1.0
  6
BYLAYER
100
AcDbCircle
 10
-15.4941215915000008
 20
32.3842893408000023
 30
0.0
 40
4.0
100
AcDbArc
 50
115.5685797430000008
 51
-144.0
  0
ARC
  5
7E
100
AcDbEntity
  8
0
 62
0
370
-1
 48
1.0
  6
BYLAYER
100
AcDbCircle
 10
-2.8981216734999999
 20
11.6447795499000009
 30
0.0
 40
2.0
100
AcDbArc
 50
-144.0
 51
-76.0243128369999965
  0
ARC
  5
7F
100
AcDbEntity
  8
0
 62
0
370
-1
 48
1.0
  6
BYLAYER
100
AcDbCircle
 10
0.0
 20
0.0
 30
0.0
 40
39.8999999999999986
100
AcDbArc
 50
64.4314202567999956
 51
115.5685797430000008
  0
ARC
  5
80
100
AcDbEntity
  8
0
 62
0
370
-1
 48
1.0
  6
BYLAYER
100
AcDbCircle
 10
0.0
 20
0.0
 30
0.0
 40
10.0
100
AcDbArc
 50
76.0243128369999965
 51
103.9756871630000035
  0
ARC
  5
81
100
AcDbEntity
  8
0
 62
0
370
-1
 48
1.0
  6
BYLAYER
100
AcDbCircle
 10
15.4941215915000008
 20
32.3842893408000023
 30
0.0
 40
4.0
100
AcDbArc
 50
-36.0
 51
64.4314202567999956
  0
ARC
  5
82
100
AcDbEntity
  8
0
 62
0
370
-1
 48
1.0
  6
BYLAYER
100
AcDbCircle
 10
2.8981216734999999
 20
11.6447795499000009
 30
0.0
 40
2.0
100
AcDbArc
 50
-103.9756871630000035
 51
-36.0
  0
LINE
  5
83
100
AcDbEntity
  8
0
 62
0
370
-1
 48
1.0
  6
BYLAYER
100
AcDbLine
 10
18.7301895690000002
 20
30.0331483315999996
 30
0.0
 11
4.5161556622500001
 21
10.4692090452999995
 31
0.0
  0
CIRCLE
  5
84
100
AcDbEntity
  8
0
 62
0
370
-1
 48
1.0
  6
BYLAYER
100
AcDbCircle
 10
0.0
 20
0.0
 30
0.0
 40
5.0
  0
ARC
  5
85
100
AcDbEntity
  8
0
 62
0
370
-1
 48
1.0
  6
BYLAYER
100
AcDbCircle
 10
0.0
 20
0.0
 30
0.0
 40
2.4500000000000002
100
AcDbArc
 50
53.7125429148999984
 51
126.2874570849999998
  0
LINE
  5
86
100
AcDbEntity
  8
0
 62
0
370
-1
 48
1.0
  6
BYLAYER
100
AcDbLine
 10
-1.45
 20
1.9748417658099999
 30
0.0
 11
-1.45
 21
-1.9748417658099999
 31
0.0
  0
ARC
  5
87
100
AcDbEntity
  8
0
 62
0
370
-1
 48
1.0
  6
BYLAYER
100
AcDbCircle
 10
0.0
 20
0.0
 30
0.0
 40
2.4500000000000002
100
AcDbArc
 50
-126.2874570849999998
 51
-53.7125429148999984
  0
LINE
  5
88
100
AcDbEntity
  8
0
 62
0
370
-1
 48
1.0
  6
BYLAYER
100
AcDbLine
 10
1.45
 20
1.9748417658099999
 30
0.0
 11
1.45
 21
-1.9748417658099999
 31
0.0
  0
ENDBLK
  5
89
100
AcDbEntity
  8
0
100
AcDbBlockEnd
  0
ENDSEC
  0
SECTION
  2
ENTITIES
  0
LINE
  5
8A
100
AcDbEntity
  8
0
 62
0
370
-1
 48
1.0
  6
BYLAYER
100
AcDbLine
 10
-2.5
 20
-35.3066565961999999
 30
0.0
 11
-2.5
 21
-11.1242977306000004
 31
0.0
  0
ARC
  5
8B
100
AcDbEntity
  8
0
 62
0
370
-1
 48
1.0
  6
BYLAYER
100
AcDbCircle
 10
-6.5
 20
-35.3066565961999999
 30
0.0
 40
4.0
100
AcDbArc
 50
259.5685797429999866
 51
0.0
  0
ARC
  5
8C
100
AcDbEntity
  8
0
 62
0
370
-1
 48
1.0
  6
BYLAYER
100
AcDbCircle
 10
-4.5
 20
-11.1242977306000004
 30
0.0
 40
2.0
100
AcDbArc
 50
-0.0
 51
67.9756871630000035
  0
ARC
  5
8D
100
AcDbEntity
  8
0
 62
0
370
-1
 48
1.0
  6
BYLAYER
100
AcDbCircle
 10
0.0
 20
0.0
 30
0.0
 40
39.8999999999999986
100
AcDbArc
 50
208.4314202570000134
 51
259.5685797432341246
  0
ARC
  5
8E
100
AcDbEntity
  8
0
 62
0
370
-1
 48
1.0
  6
BYLAYER
100
AcDbCircle
 10
0.0
 20
0.0
 30
0.0
 40
10.0
100
AcDbArc
 50
220.0243128370243824
 51
247.975687162999975
  0
ARC
  5
8F
100
AcDbEntity
  8
0
 62
0
370
-1
 48
1.0
  6
BYLAYER
100
AcDbCircle
 10
-31.5700153609000012
 20
-17.0922242587
 30
0.0
 40
4.0
100
AcDbArc
 50
108.0000000000086686
 51
208.4314202570000134
  0
ARC
  5
90
100
AcDbEntity
  8
0
 62
0
370
-1
 48
1.0
  6
BYLAYER
100
AcDbCircle
 10
-9.1892593712499995
 20
-7.7173513725799996
 30
0.0
 40
2.0
100
AcDbArc
 50
40.0243128369999894
 51
108.0
  0
LINE
  5
91
100
AcDbEntity
  8
0
 62
0
370
-1
 48
1.0
  6
BYLAYER
100
AcDbLine
 10
-32.8060833384000006
 20
-13.2879981935
 30
0.0
 11
-9.8072933599999992
 21
-5.8152383399899996
 31
0.0
  0
CIRCLE
  5
92
100
AcDbEntity
  8
0
 62
0
370
-1
 48
1.0
  6
BYLAYER
100
AcDbCircle
 10
0.0
 20
0.0
 30
0.0
 40
44.8500000000000014
  0
LINE
  5
93
100
AcDbEntity
  8
0
 62
0
370
-1
 48
1.0
  6
BYLAYER
100
AcDbLine
 10
-34.3511683102999967
 20
-8.5327156120400005
 30
0.0
 11
-11.3523783319000007
 21
-1.0599557585199999
 31
0.0
  0
ARC
  5
94
100
AcDbEntity
  8
0
 62
0
370
-1
 48
1.0
  6
BYLAYER
100
AcDbCircle
 10
-35.5872362878000033
 20
-4.7284895468599997
 30
0.0
 40
4.0
100
AcDbArc
 50
187.5685797432315951
 51
288.0
  0
ARC
  5
95
100
AcDbEntity
  8
0
 62
0
370
-1
 48
1.0
  6
BYLAYER
100
AcDbCircle
 10
-11.9704123205999995
 20
0.842157274073
 30
0.0
 40
2.0
100
AcDbArc
 50
288.0000000000311502
 51
355.9756871629599573
  0
ARC
  5
96
100
AcDbEntity
  8
0
 62
0
370
-1
 48
1.0
  6
BYLAYER
100
AcDbCircle
 10
0.0
 20
0.0
 30
0.0
 40
39.8999999999999986
100
AcDbArc
 50
136.4314202570000134
 51
187.5685797432321067
  0
ARC
  5
97
100
AcDbEntity
  8
0
 62
0
370
-1
 48
1.0
  6
BYLAYER
100
AcDbCircle
 10
0.0
 20
0.0
 30
0.0
 40
10.0
100
AcDbArc
 50
148.0243128369999965
 51
175.9756871630000035
  0
ARC
  5
98
100
AcDbEntity
  8
0
 62
0
370
-1
 48
1.0
  6
BYLAYER
100
AcDbCircle
 10
-26.0113425183999993
 20
24.7430810610000016
 30
0.0
 40
4.0
100
AcDbArc
 50
36.0
 51
136.4314202570000134
  0
ARC
  5
99
100
AcDbEntity
  8
0
 62
0
370
-1
 48
1.0
  6
BYLAYER
100
AcDbCircle
 10
-10.1792746228999995
 20
6.3547122792600002
 30
0.0
 40
2.0
100
AcDbArc
 50
328.0243128371221246
 51
36.0
  0
LINE
  5
9A
100
AcDbEntity
  8
0
 62
0
370
-1
 48
1.0
  6
BYLAYER
100
AcDbLine
 10
-22.7752745408999999
 20
27.0942220700999989
 30
0.0
 11
-8.5612406341200007
 21
7.5302827838499997
 31
0.0
  0
LINE
  5
9B
100
AcDbEntity
  8
0
 62
0
370
-1
 48
1.0
  6
BYLAYER
100
AcDbLine
 10
32.8060833384000006
 20
-13.2879981935
 30
0.0
 11
9.8072933599999992
 21
-5.8152383399899996
 31
0.0
  0
ARC
  5
9C
100
AcDbEntity
  8
0
 62
0
370
-1
 48
1.0
  6
BYLAYER
100
AcDbCircle
 10
31.5700153609000012
 20
-17.0922242587
 30
0.0
 40
4.0
100
AcDbArc
 50
331.5685797432000186
 51
71.9999999999913456
  0
ARC
  5
9D
100
AcDbEntity
  8
0
 62
0
370
-1
 48
1.0
  6
BYLAYER
100
AcDbCircle
 10
9.1892593712499995
 20
-7.7173513725799996
 30
0.0
 40
2.0
100
AcDbArc
 50
72.0
 51
139.9756871630000035
  0
ARC
  5
9E
100
AcDbEntity
  8
0
 62
0
370
-1
 48
1.0
  6
BYLAYER
100
AcDbCircle
 10
0.0
 20
0.0
 30
0.0
 40
39.8999999999999986
100
AcDbArc
 50
280.4314202567999814
 51
331.5685797431843298
  0
ARC
  5
9F
100
AcDbEntity
  8
0
 62
0
370
-1
 48
1.0
  6
BYLAYER
100
AcDbCircle
 10
0.0
 20
0.0
 30
0.0
 40
10.0
100
AcDbArc
 50
292.0243128371200214
 51
319.9756871630000319
  0
ARC
  5
A0
100
AcDbEntity
  8
0
 62
0
370
-1
 48
1.0
  6
BYLAYER
100
AcDbCircle
 10
6.5
 20
-35.3066565961999999
 30
0.0
 40
4.0
100
AcDbArc
 50
180.0
 51
280.4314202567999814
  0
ARC
  5
A1
100
AcDbEntity
  8
0
 62
0
370
-1
 48
1.0
  6
BYLAYER
100
AcDbCircle
 10
4.5
 20
-11.1242977306000004
 30
0.0
 40
2.0
100
AcDbArc
 50
112.0243128370000107
 51
180.0
  0
LINE
  5
A2
100
AcDbEntity
  8
0
 62
0
370
-1
 48
1.0
  6
BYLAYER
100
AcDbLine
 10
2.5
 20
-35.3066565961999999
 30
0.0
 11
2.5
 21
-11.1242977306000004
 31
0.0
  0
LINE
  5
A3
100
AcDbEntity
  8
0
 62
0
370
-1
 48
1.0
  6
BYLAYER
100
AcDbLine
 10
22.7752745408999999
 20
27.0942220700999989
 30
0.0
 11
8.5612406341200007
 21
7.5302827838499997
 31
0.0
  0
ARC
  5
A4
100
AcDbEntity
  8
0
 62
0
370
-1
 48
1.0
  6
BYLAYER
100
AcDbCircle
 10
26.0113425183999993
 20
24.7430810610000016
 30
0.0
 40
4.0
100
AcDbArc
 50
43.5685797432000044
 51
144.0
  0
ARC
  5
A5
100
AcDbEntity
  8
0
 62
0
370
-1
 48
1.0
  6
BYLAYER
100
AcDbCircle
 10
10.1792746228999995
 20
6.3547122792600002
 30
0.0
 40
2.0
100
AcDbArc
 50
144.0
 51
211.9756871628777901
  0
ARC
  5
A6
100
AcDbEntity
  8
0
 62
0
370
-1
 48
1.0
  6
BYLAYER
100
AcDbCircle
 10
0.0
 20
0.0
 30
0.0
 40
39.8999999999999986
100
AcDbArc
 50
352.4314202567699681
 51
43.5685797432935402
  0
ARC
  5
A7
100
AcDbEntity
  8
0
 62
0
370
-1
 48
1.0
  6
BYLAYER
100
AcDbCircle
 10
0.0
 20
0.0
 30
0.0
 40
10.0
100
AcDbArc
 50
4.0243128370400001
 51
31.9756871629999999
  0
ARC
  5
A8
100
AcDbEntity
  8
0
 62
0
370
-1
 48
1.0
  6
BYLAYER
100
AcDbCircle
 10
35.5872362878000033
 20
-4.7284895468599997
 30
0.0
 40
4.0
100
AcDbArc
 50
251.9999999999999716
 51
352.4314202567678649
  0
ARC
  5
A9
100
AcDbEntity
  8
0
 62
0
370
-1
 48
1.0
  6
BYLAYER
100
AcDbCircle
 10
11.9704123205999995
 20
0.842157274072
 30
0.0
 40
2.0
100
AcDbArc
 50
184.0243128369999965
 51
251.9999999999688498
  0
LINE
  5
AA
100
AcDbEntity
  8
0
 62
0
370
-1
 48
1.0
  6
BYLAYER
100
AcDbLine
 10
34.3511683102999967
 20
-8.5327156120400005
 30
0.0
 11
11.3523783319000007
 21
-1.0599557585199999
 31
0.0
  0
LINE
  5
AB
100
AcDbEntity
  8
0
 62
0
370
-1
 48
1.0
  6
BYLAYER
100
AcDbLine
 10
-18.7301895690000002
 20
30.0331483315999996
 30
0.0
 11
-4.5161556622500001
 21
10.4692090452999995
 31
0.0
  0
ARC
  5
AC
100
AcDbEntity
  8
0
 62
0
370
-1
 48
1.0
  6
BYLAYER
100
AcDbCircle
 10
-15.4941215915000008
 20
32.3842893408000023
 30
0.0
 40
4.0
100
AcDbArc
 50
115.5685797430000008
 51
215.9999999998815667
  0
ARC
  5
AD
100
AcDbEntity
  8
0
 62
0
370
-1
 48
1.0
  6
BYLAYER
100
AcDbCircle
 10
-2.8981216734999999
 20
11.6447795499000009
 30
0.0
 40
2.0
100
AcDbArc
 50
216.0
 51
283.9756871629705302
  0
ARC
  5
AE
100
AcDbEntity
  8
0
 62
0
370
-1
 48
1.0
  6
BYLAYER
100
AcDbCircle
 10
0.0
 20
0.0
 30
0.0
 40
39.8999999999999986
100
AcDbArc
 50
64.4314202567999956
 51
115.5685797430000008
  0
ARC
  5
AF
100
AcDbEntity
  8
0
 62
0
370
-1
 48
1.0
  6
BYLAYER
100
AcDbCircle
 10
0.0
 20
0.0
 30
0.0
 40
10.0
100
AcDbArc
 50
76.0243128369999965
 51
103.9756871630000035
  0
ARC
  5
B0
100
AcDbEntity
  8
0
 62
0
370
-1
 48
1.0
  6
BYLAYER
100
AcDbCircle
 10
15.4941215915000008
 20
32.3842893408000023
 30
0.0
 40
4.0
100
AcDbArc
 50
324.0
 51
64.4314202568667298
  0
ARC
  5
B1
100
AcDbEntity
  8
0
 62
0
370
-1
 48
1.0
  6
BYLAYER
100
AcDbCircle
 10
2.8981216734999999
 20
11.6447795499000009
 30
0.0
 40
2.0
100
AcDbArc
 50
256.0243128369999681
 51
324.0000000001184617
  0
LINE
  5
B2
100
AcDbEntity
  8
0
 62
0
370
-1
 48
1.0
  6
BYLAYER
100
AcDbLine
 10
18.7301895690000002
 20
30.0331483315999996
 30
0.0
 11
4.5161556622500001
 21
10.4692090452999995
 31
0.0
  0
ARC
  5
B3
100
AcDbEntity
  8
0
 62
0
370
-1
 48
1.0
  6
BYLAYER
100
AcDbCircle
 10
0.0
 20
0.0
 30
0.0
 40
2.4500000000000002
100
AcDbArc
 50
53.7125429148999984
 51
126.2874570849999998
  0
LINE
  5
B4
100
AcDbEntity
  8
0
 62
0
370
-1
 48
1.0
  6
BYLAYER
100
AcDbLine
 10
-1.45
 20
1.9748417658099999
 30
0.0
 11
-1.45
 21
-1.9748417658099999
 31
0.0
  0
ARC
  5
B5
100
AcDbEntity
  8
0
 62
0
370
-1
 48
1.0
  6
BYLAYER
100
AcDbCircle
 10
0.0
 20
0.0
 30
0.0
 40
2.4500000000000002
100
AcDbArc
 50
233.7125429150000002
 51
306.2874570851098497
  0
LINE
  5
B6
100
AcDbEntity
  8
0
 62
0
370
-1
 48
1.0
  6
BYLAYER
100
AcDbLine
 10
1.45
 20
1.9748417658099999
 30
0.0
 11
1.45
 21
-1.9748417658099999
 31
0.0
  0
ENDSEC
  0
SECTION
  2
OBJECTS
  0
DICTIONARY
  5
C
100
AcDbDictionary
280
0
281
1
  3
ACAD_GROUP
350
D
  3
ACAD_LAYOUT
350
1A
  3
ACAD_MLINESTYLE
350
17
  3
ACAD_PLOTSETTINGS
350
19
  3
ACAD_PLOTSTYLENAME
350
E
  3
AcDbVariableDictionary
350
B7
  3
QCAD_OBJECTS
350
B8
  0
DICTIONARY
  5
D
100
AcDbDictionary
280
0
281
1
  0
ACDBDICTIONARYWDFLT
  5
E
100
AcDbDictionary
281
1
  3
Normal
350
F
100
AcDbDictionaryWithDefault
340
F
  0
ACDBPLACEHOLDER
  5
F
  0
DICTIONARY
  5
17
100
AcDbDictionary
280
0
281
1
  3
Standard
350
18
  0
MLINESTYLE
  5
18
100
AcDbMlineStyle
  2
STANDARD
 70
0
  3

 62
256
 51
90.0
 52
90.0
 71
2
 49
0.5
 62
256
  6
BYLAYER
 49
-0.5
 62
256
  6
BYLAYER
  0
DICTIONARY
  5
19
100
AcDbDictionary
280
0
281
1
  0
DICTIONARY
  5
1A
100
AcDbDictionary
281
1
  3
Layout1
350
1E
  3
Layout2
350
26
  3
Model
350
22
  0
LAYOUT
  5
1E
100
AcDbPlotSettings
  1

  2
none_device
  4

  6

 40
0.0
 41
0.0
 42
0.0
 43
0.0
 44
0.0
 45
0.0
 46
0.0
 47
0.0
 48
0.0
 49
0.0
140
0.0
141
0.0
142
1.0
143
1.0
 70
688
 72
0
 73
0
 74
5
  7

 75
16
147
1.0
148
0.0
149
0.0
100
AcDbLayout
  1
Layout1
 70
1
 71
1
 10
0.0
 20
0.0
 11
420.0
 21
297.0
 12
0.0
 22
0.0
 32
0.0
 14
100000000000000000000.0
 24
100000000000000000000.0
 34
100000000000000000000.0
 15
-100000000000000000000.0
 25
-100000000000000000000.0
 35
-100000000000000000000.0
146
0.0
 13
0.0
 23
0.0
 33
0.0
 16
1.0
 26
0.0
 36
0.0
 17
0.0
 27
1.0
 37
0.0
 76
0
330
1B
  0
LAYOUT
  5
22
100
AcDbPlotSettings
  1

  2
none_device
  4

  6

 40
0.0
 41
0.0
 42
0.0
 43
0.0
 44
0.0
 45
0.0
 46
0.0
 47
0.0
 48
0.0
 49
0.0
140
0.0
141
0.0
142
1.0
143
1.0
 70
1712
 72
0
 73
0
 74
0
  7

 75
0
147
1.0
148
0.0
149
0.0
100
AcDbLayout
  1
Model
 70
1
 71
0
 10
0.0
 20
0.0
 11
12.0
 21
9.0
 12
0.0
 22
0.0
 32
0.0
 14
0.0
 24
0.0
 34
0.0
 15
0.0
 25
0.0
 35
0.0
146
0.0
 13
0.0
 23
0.0
 33
0.0
 16
1.0
 26
0.0
 36
0.0
 17
0.0
 27
1.0
 37
0.0
 76
0
330
1F
  0
LAYOUT
  5
26
100
AcDbPlotSettings
  1

  2
none_device
  4

  6

 40
0.0
 41
0.0
 42
0.0
 43
0.0
 44
0.0
 45
0.0
 46
0.0
 47
0.0
 48
0.0
 49
0.0
140
0.0
141
0.0
142
1.0
143
1.0
 70
688
 72
0
 73
0
 74
5
  7

 75
16
147
1.0
148
0.0
149
0.0
100
AcDbLayout
  1
Layout2
 70
1
 71
2
 10
0.0
 20
0.0
 11
12.0
 21
9.0
 12
0.0
 22
0.0
 32
0.0
 14
0.0
 24
0.0
 34
0.0
 15
0.0
 25
0.0
 35
0.0
146
0.0
 13
0.0
 23
0.0
 33
0.0
 16
1.0
 26
0.0
 36
0.0
 17
0.0
 27
1.0
 37
0.0
 76
0
330
23
  0
DICTIONARY
  5
B7
100
AcDbDictionary
281
1
  3
DIMASSOC
350
BA
  3
HIDETEXT
350
B9
  0
DICTIONARYVAR
  5
B9
100
DictionaryVariables
280
0
  1
2
  0
DICTIONARYVAR
  5
BA
100
DictionaryVariables
280
0
  1
1
  0
DICTIONARY
  5
B8
100
AcDbDictionary
281
1
  3
ColorSettings/BackgroundColor
350
BB
  3
ColorSettings/ColorMode
350
BC
  3
Grid/DisplayGrid00
350
BD
  3
Grid/DisplayGrid01
350
BE
  3
Grid/DisplayGrid02
350
BF
  3
Grid/DisplayGrid03
350
C0
  3
Grid/GridSpacingX00
350
C1
  3
Grid/GridSpacingX01
350
C2
  3
Grid/GridSpacingX02
350
C3
  3
Grid/GridSpacingX03
350
C4
  3
Grid/GridSpacingY00
350
C5
  3
Grid/GridSpacingY01
350
C6
  3
Grid/GridSpacingY02
350
C7
  3
Grid/GridSpacingY03
350
C8
  3
Grid/IsometricGrid00
350
C9
  3
Grid/IsometricGrid01
350
CA
  3
Grid/IsometricGrid02
350
CB
  3
Grid/IsometricGrid03
350
CC
  3
Grid/IsometricProjection00
350
CD
  3
Grid/IsometricProjection01
350
CE
  3
Grid/IsometricProjection02
350
CF
  3
Grid/IsometricProjection03
350
D0
  3
Grid/MetaGridSpacingX00
350
D1
  3
Grid/MetaGridSpacingX01
350
D2
  3
Grid/MetaGridSpacingX02
350
D3
  3
Grid/MetaGridSpacingX03
350
D4
  3
Grid/MetaGridSpacingY00
350
D5
  3
Grid/MetaGridSpacingY01
350
D6
  3
Grid/MetaGridSpacingY02
350
D7
  3
Grid/MetaGridSpacingY03
350
D8
  3
MultiPageSettings/Columns
350
D9
  3
MultiPageSettings/GlueMarginsBottom
350
DA
  3
MultiPageSettings/GlueMarginsLeft
350
DB
  3
MultiPageSettings/GlueMarginsRight
350
DC
  3
MultiPageSettings/GlueMarginsTop
350
DD
  3
MultiPageSettings/PrintCropMarks
350
DE
  3
MultiPageSettings/Rows
350
DF
  3
PageSettings/OffsetX
350
E0
  3
PageSettings/OffsetY
350
E1
  3
PageSettings/PageOrientation
350
E2
  3
PageSettings/PaperHeight
350
E3
  3
PageSettings/PaperWidth
350
E4
  3
PageSettings/Scale
350
E5
  3
PageSettings/ShowPaperBorders
350
E6
  3
QCADVersion
350
E7
  3
UnitSettings/PaperUnit
350
E8
  3
ViewportCenter
350
E9
  3
ViewportHeight
350
EA
  3
ViewportWidth
350
EB
  0
XRECORD
  5
BB
330
B8
100
AcDbXrecord
280
1
1000
Blanc
  0
XRECORD
  5
BC
330
B8
100
AcDbXrecord
280
1
1000
FullColor
  0
XRECORD
  5
BD
330
B8
100
AcDbXrecord
280
1
290
1
  0
XRECORD
  5
BE
330
B8
100
AcDbXrecord
280
1
290
1
  0
XRECORD
  5
BF
330
B8
100
AcDbXrecord
280
1
290
1
  0
XRECORD
  5
C0
330
B8
100
AcDbXrecord
280
1
290
1
  0
XRECORD
  5
C1
330
B8
100
AcDbXrecord
280
1
1000
auto
  0
XRECORD
  5
C2
330
B8
100
AcDbXrecord
280
1
1000
auto
  0
XRECORD
  5
C3
330
B8
100
AcDbXrecord
280
1
1000
auto
  0
XRECORD
  5
C4
330
B8
100
AcDbXrecord
280
1
1000
auto
  0
XRECORD
  5
C5
330
B8
100
AcDbXrecord
280
1
1000
auto
  0
XRECORD
  5
C6
330
B8
100
AcDbXrecord
280
1
1000
auto
  0
XRECORD
  5
C7
330
B8
100
AcDbXrecord
280
1
1000
auto
  0
XRECORD
  5
C8
330
B8
100
AcDbXrecord
280
1
1000
auto
  0
XRECORD
  5
C9
330
B8
100
AcDbXrecord
280
1
290
0
  0
XRECORD
  5
CA
330
B8
100
AcDbXrecord
280
1
290
0
  0
XRECORD
  5
CB
330
B8
100
AcDbXrecord
280
1
290
0
  0
XRECORD
  5
CC
330
B8
100
AcDbXrecord
280
1
290
0
  0
XRECORD
  5
CD
330
B8
100
AcDbXrecord
280
1
 90
65537
  0
XRECORD
  5
CE
330
B8
100
AcDbXrecord
280
1
 90
65537
  0
XRECORD
  5
CF
330
B8
100
AcDbXrecord
280
1
 90
65537
  0
XRECORD
  5
D0
330
B8
100
AcDbXrecord
280
1
 90
65537
  0
XRECORD
  5
D1
330
B8
100
AcDbXrecord
280
1
1000
auto
  0
XRECORD
  5
D2
330
B8
100
AcDbXrecord
280
1
1000
auto
  0
XRECORD
  5
D3
330
B8
100
AcDbXrecord
280
1
1000
auto
  0
XRECORD
  5
D4
330
B8
100
AcDbXrecord
280
1
1000
auto
  0
XRECORD
  5
D5
330
B8
100
AcDbXrecord
280
1
1000
auto
  0
XRECORD
  5
D6
330
B8
100
AcDbXrecord
280
1
1000
auto
  0
XRECORD
  5
D7
330
B8
100
AcDbXrecord
280
1
1000
auto
  0
XRECORD
  5
D8
330
B8
100
AcDbXrecord
280
1
1000
auto
  0
XRECORD
  5
D9
330
B8
100
AcDbXrecord
280
1
 90
1
  0
XRECORD
  5
DA
330
B8
100
AcDbXrecord
280
1
 40
0.0
  0
XRECORD
  5
DB
330
B8
100
AcDbXrecord
280
1
 40
0.0
  0
XRECORD
  5
DC
330
B8
100
AcDbXrecord
280
1
 40
0.0
  0
XRECORD
  5
DD
330
B8
100
AcDbXrecord
280
1
 40
0.0
  0
XRECORD
  5
DE
330
B8
100
AcDbXrecord
280
1
290
0
  0
XRECORD
  5
DF
330
B8
100
AcDbXrecord
280
1
 90
1
  0
XRECORD
  5
E0
330
B8
100
AcDbXrecord
280
1
 40
0.0
  0
XRECORD
  5
E1
330
B8
100
AcDbXrecord
280
1
 40
0.0
  0
XRECORD
  5
E2
330
B8
100
AcDbXrecord
280
1
1000
Portrait
  0
XRECORD
  5
E3
330
B8
100
AcDbXrecord
280
1
 40
297.0
  0
XRECORD
  5
E4
330
B8
100
AcDbXrecord
280
1
 40
210.0
  0
XRECORD
  5
E5
330
B8
100
AcDbXrecord
280
1
1000
1:1
  0
XRECORD
  5
E6
330
B8
100
AcDbXrecord
280
1
290
1
  0
XRECORD
  5
E7
330
B8
100
AcDbXrecord
280
1
1000
3.19.2.2
  0
XRECORD
  5
E8
330
B8
100
AcDbXrecord
280
1
 90
4
  0
XRECORD
  5
EA
330
B8
100
AcDbXrecord
280
1
 40
116.220569620253201
  0
XRECORD
  5
EB
330
B8
100
AcDbXrecord
280
1
 40
139.0556962025316921
  0
ENDSEC
  0
EOF
