999
dxflib 3.17.0.0
  0
SECTION
  2
HEADER
  9
$ACADVER
  1
AC1015
  9
$HANDSEED
  5
FFFF
  9
$DIMADEC
 70
0
  9
$DIMASZ
 40
0.18
  9
$DIMAUNIT
 70
0
  9
$DIMAZIN
 70
0
  9
$DIMDEC
 70
4
  9
$DIMDLI
 40
0.36
  9
$DIMDSEP
 70
46
  9
$DIMEXE
 40
0.18
  9
$DIMEXO
 40
0.0625
  9
$DIMGAP
 40
0.09
  9
$DIMLUNIT
 70
2
  9
$DIMSCALE
 40
1.0
  9
$DIMTSZ
 40
0.0
  9
$DIMTXT
 40
0.18
  9
$DIMZIN
 70
0
  9
$DWGCODEPAGE
  3
ANSI_1252
  9
$EXTMAX
 10
0.0
 20
0.0
 30
0.0
  9
$EXTMIN
 10
0.0
 20
0.0
 30
0.0
  9
$INSBASE
 10
0.0
 20
0.0
 30
0.0
  9
$INSUNITS
 70
0
  9
$LTSCALE
 40
1.0
  9
$MAXACTVP
 70
64
  9
$MEASUREMENT
 70
1
  9
$PDMODE
 70
0
  9
$PDSIZE
 40
0.0
  0
ENDSEC
  0
SECTION
  2
TABLES
  0
TABLE
  2
VPORT
  5
8
100
AcDbSymbolTable
 70
1
  0
VPORT
  5
30
100
AcDbSymbolTableRecord
100
AcDbViewportTableRecord
  2
*Active
 70
0
 10
0.0
 20
0.0
 11
1.0
 21
1.0
 12
286.3055555555554861
 22
148.5
 13
0.0
 23
0.0
 14
10.0
 24
10.0
 15
10.0
 25
10.0
 16
0.0
 26
0.0
 36
1.0
 17
0.0
 27
0.0
 37
0.0
 40
297.0
 41
1.92798353909465
 42
50.0
 43
0.0
 44
0.0
 50
0.0
 51
0.0
 71
0
 72
100
 73
1
 74
3
 75
1
 76
1
 77
0
 78
0
281
0
 65
1
110
0.0
120
0.0
130
0.0
111
1.0
121
0.0
131
0.0
112
0.0
122
1.0
132
0.0
 79
0
146
0.0
  0
ENDTAB
  0
TABLE
  2
LTYPE
  5
5
100
AcDbSymbolTable
 70
41
  0
LTYPE
  5
16
100
AcDbSymbolTableRecord
100
AcDbLinetypeTableRecord
  2
CONTINUOUS
 70
0
  3
Solid line
 72
65
 73
0
 40
0.0
  0
LTYPE
  5
31
100
AcDbSymbolTableRecord
100
AcDbLinetypeTableRecord
  2
ACAD_ISO15W100
 70
0
  3
ISO double-dash triple-dot __ __ . . . __ __ . .
 72
65
 73
10
 40
39.0000000000000071
 49
12.0
 74
0
 49
-3.0
 74
0
 49
12.0
 74
0
 49
-2.9500000000000002
 74
0
 49
0.1
 74
0
 49
-2.9000000000000004
 74
0
 49
0.1
 74
0
 49
-2.9000000000000004
 74
0
 49
0.1
 74
0
 49
-2.9500000000000002
 74
0
  0
LTYPE
  5
32
100
AcDbSymbolTableRecord
100
AcDbLinetypeTableRecord
  2
DIVIDE
 70
0
  3
Divide ____ . . ____ . . ____ . . ____ . . ____
 72
65
 73
6
 40
31.7500000000000036
 49
12.6999999999999993
 74
0
 49
-6.2999999999999998
 74
0
 49
0.1
 74
0
 49
-6.25
 74
0
 49
0.1
 74
0
 49
-6.2999999999999998
 74
0
  0
LTYPE
  5
33
100
AcDbSymbolTableRecord
100
AcDbLinetypeTableRecord
  2
ACAD_ISO10W100
 70
0
  3
ISO dash dot __ . __ . __ . __ . __ . __ . __ . 
 72
65
 73
4
 40
18.0
 49
12.0
 74
0
 49
-2.9500000000000002
 74
0
 49
0.1
 74
0
 49
-2.9500000000000002
 74
0
  0
LTYPE
  5
34
100
AcDbSymbolTableRecord
100
AcDbLinetypeTableRecord
  2
ACAD_ISO04W100
 70
0
  3
ISO long-dash dot ____ . ____ . ____ . ____ . _
 72
65
 73
4
 40
30.0
 49
24.0
 74
0
 49
-2.9500000000000002
 74
0
 49
0.1
 74
0
 49
-2.9500000000000002
 74
0
  0
LTYPE
  5
35
100
AcDbSymbolTableRecord
100
AcDbLinetypeTableRecord
  2
CENTER2
 70
0
  3
Center (.5x) ___ _ ___ _ ___ _ ___ _ ___ _ ___
 72
65
 73
4
 40
28.5750000000000028
 49
19.0500000000000007
 74
0
 49
-3.1749999999999998
 74
0
 49
3.1749999999999998
 74
0
 49
-3.1749999999999998
 74
0
  0
LTYPE
  5
36
100
AcDbSymbolTableRecord
100
AcDbLinetypeTableRecord
  2
ACAD_ISO11W100
 70
0
  3
ISO double-dash dot __ __ . __ __ . __ __ . __ _
 72
65
 73
6
 40
33.0
 49
12.0
 74
0
 49
-3.0
 74
0
 49
12.0
 74
0
 49
-2.9500000000000002
 74
0
 49
0.1
 74
0
 49
-2.9500000000000002
 74
0
  0
LTYPE
  5
37
100
AcDbSymbolTableRecord
100
AcDbLinetypeTableRecord
  2
HIDDEN2
 70
0
  3
Hidden (.5x) _ _ _ _ _ _ _ _ _ _ _ _ _ _ _ _ _ 
 72
65
 73
2
 40
4.7624999999999993
 49
3.1749999999999998
 74
0
 49
-1.5874999999999999
 74
0
  0
LTYPE
  5
38
100
AcDbSymbolTableRecord
100
AcDbLinetypeTableRecord
  2
BORDERX2
 70
0
  3
Border (2x) ____  ____  .  ____  ____  .  ___
 72
65
 73
6
 40
88.8999999999999773
 49
25.3999999999999986
 74
0
 49
-12.6999999999999993
 74
0
 49
25.3999999999999986
 74
0
 49
-12.6499999999999986
 74
0
 49
0.1
 74
0
 49
-12.6499999999999986
 74
0
  0
LTYPE
  5
39
100
AcDbSymbolTableRecord
100
AcDbLinetypeTableRecord
  2
ACAD_ISO05W100
 70
0
  3
ISO long-dash double-dot ____ .. ____ .. ____ . 
 72
65
 73
6
 40
33.0000000000000071
 49
24.0
 74
0
 49
-2.9500000000000002
 74
0
 49
0.1
 74
0
 49
-2.9000000000000004
 74
0
 49
0.1
 74
0
 49
-2.9500000000000002
 74
0
  0
LTYPE
  5
3A
100
AcDbSymbolTableRecord
100
AcDbLinetypeTableRecord
  2
DASHDOTX2
 70
0
  3
Dash dot (2x) ____  .  ____  .  ____  .  ___
 72
65
 73
4
 40
50.7999999999999972
 49
25.3999999999999986
 74
0
 49
-12.6499999999999986
 74
0
 49
0.1
 74
0
 49
-12.6499999999999986
 74
0
  0
LTYPE
  5
3B
100
AcDbSymbolTableRecord
100
AcDbLinetypeTableRecord
  2
HIDDENX2
 70
0
  3
Hidden (2x) ____ ____ ____ ____ ____ ____ ____ 
 72
65
 73
2
 40
19.0499999999999972
 49
12.6999999999999993
 74
0
 49
-6.3499999999999996
 74
0
  0
LTYPE
  5
3C
100
AcDbSymbolTableRecord
100
AcDbLinetypeTableRecord
  2
CENTERX2
 70
0
  3
Center (2x) ________  __  ________  __  _____
 72
65
 73
4
 40
101.6000000000000085
 49
63.5
 74
0
 49
-12.6999999999999993
 74
0
 49
12.6999999999999993
 74
0
 49
-12.6999999999999993
 74
0
  0
LTYPE
  5
3D
100
AcDbSymbolTableRecord
100
AcDbLinetypeTableRecord
  2
BORDER2
 70
0
  3
Border (.5x) __.__.__.__.__.__.__.__.__.__.__.
 72
65
 73
6
 40
22.2250000000000014
 49
6.3499999999999996
 74
0
 49
-3.1749999999999998
 74
0
 49
6.3499999999999996
 74
0
 49
-3.125
 74
0
 49
0.1
 74
0
 49
-3.125
 74
0
  0
LTYPE
  5
3E
100
AcDbSymbolTableRecord
100
AcDbLinetypeTableRecord
  2
DASHDOT2
 70
0
  3
Dash dot (.5x) _._._._._._._._._._._._._._._.
 72
65
 73
4
 40
12.6999999999999993
 49
6.3499999999999996
 74
0
 49
-3.125
 74
0
 49
0.1
 74
0
 49
-3.125
 74
0
  0
LTYPE
  5
3F
100
AcDbSymbolTableRecord
100
AcDbLinetypeTableRecord
  2
ACAD_ISO12W100
 70
0
  3
ISO dash double-dot __ . . __ . . __ . . __ . . 
 72
65
 73
6
 40
21.0
 49
12.0
 74
0
 49
-2.9500000000000002
 74
0
 49
0.1
 74
0
 49
-2.9000000000000004
 74
0
 49
0.1
 74
0
 49
-2.9500000000000002
 74
0
  0
LTYPE
  5
40
100
AcDbSymbolTableRecord
100
AcDbLinetypeTableRecord
  2
ACAD_ISO07W100
 70
0
  3
ISO dot . . . . . . . . . . . . . . . . . . . . 
 72
65
 73
2
 40
3.0
 49
0.1
 74
0
 49
-2.8999999999999999
 74
0
  0
LTYPE
  5
41
100
AcDbSymbolTableRecord
100
AcDbLinetypeTableRecord
  2
HIDDEN
 70
0
  3
Hidden __ __ __ __ __ __ __ __ __ __ __ __ __ __
 72
65
 73
2
 40
9.5249999999999986
 49
6.3499999999999996
 74
0
 49
-3.1749999999999998
 74
0
  0
LTYPE
  5
42
100
AcDbSymbolTableRecord
100
AcDbLinetypeTableRecord
  2
ACAD_ISO06W100
 70
0
  3
ISO long-dash triple-dot ____ ... ____ ... ____
 72
65
 73
8
 40
36.0000000000000071
 49
24.0
 74
0
 49
-2.9500000000000002
 74
0
 49
0.1
 74
0
 49
-2.9000000000000004
 74
0
 49
0.1
 74
0
 49
-2.9000000000000004
 74
0
 49
0.1
 74
0
 49
-2.9500000000000002
 74
0
  0
LTYPE
  5
43
100
AcDbSymbolTableRecord
100
AcDbLinetypeTableRecord
  2
CENTER
 70
0
  3
Center ____ _ ____ _ ____ _ ____ _ ____ _ ____
 72
65
 73
4
 40
50.8000000000000043
 49
31.75
 74
0
 49
-6.3499999999999996
 74
0
 49
6.3499999999999996
 74
0
 49
-6.3499999999999996
 74
0
  0
LTYPE
  5
44
100
AcDbSymbolTableRecord
100
AcDbLinetypeTableRecord
  2
DOTX2
 70
0
  3
Dot (2x) .  .  .  .  .  .  .  .  .  .  .  .  .  .
 72
65
 73
2
 40
12.6999999999999993
 49
0.1
 74
0
 49
-12.5999999999999996
 74
0
  0
LTYPE
  5
45
100
AcDbSymbolTableRecord
100
AcDbLinetypeTableRecord
  2
PHANTOM
 70
0
  3
Phantom ______  __  __  ______  __  __  ______ 
 72
65
 73
6
 40
63.5000000000000071
 49
31.75
 74
0
 49
-6.3499999999999996
 74
0
 49
6.3499999999999996
 74
0
 49
-6.3499999999999996
 74
0
 49
6.3499999999999996
 74
0
 49
-6.3499999999999996
 74
0
  0
LTYPE
  5
46
100
AcDbSymbolTableRecord
100
AcDbLinetypeTableRecord
  2
ACAD_ISO08W100
 70
0
  3
ISO long-dash short-dash ____ __ ____ __ ____ _
 72
65
 73
4
 40
36.0
 49
24.0
 74
0
 49
-3.0
 74
0
 49
6.0
 74
0
 49
-3.0
 74
0
  0
LTYPE
  5
47
100
AcDbSymbolTableRecord
100
AcDbLinetypeTableRecord
  2
DASHEDX2
 70
0
  3
Dashed (2x) ____  ____  ____  ____  ____  ___
 72
65
 73
2
 40
38.0999999999999943
 49
25.3999999999999986
 74
0
 49
-12.6999999999999993
 74
0
  0
LTYPE
  5
48
100
AcDbSymbolTableRecord
100
AcDbLinetypeTableRecord
  2
ACAD_ISO02W100
 70
0
  3
ISO dash __ __ __ __ __ __ __ __ __ __ __ __ __
 72
65
 73
2
 40
15.0
 49
12.0
 74
0
 49
-3.0
 74
0
  0
LTYPE
  5
49
100
AcDbSymbolTableRecord
100
AcDbLinetypeTableRecord
  2
PHANTOM2
 70
0
  3
Phantom (.5x) ___ _ _ ___ _ _ ___ _ _ ___ _ _
 72
65
 73
6
 40
31.7500000000000036
 49
15.875
 74
0
 49
-3.1749999999999998
 74
0
 49
3.1749999999999998
 74
0
 49
-3.1749999999999998
 74
0
 49
3.1749999999999998
 74
0
 49
-3.1749999999999998
 74
0
  0
LTYPE
  5
4A
100
AcDbSymbolTableRecord
100
AcDbLinetypeTableRecord
  2
DASHED2
 70
0
  3
Dashed (.5x) _ _ _ _ _ _ _ _ _ _ _ _ _ _ _ _ _ 
 72
65
 73
2
 40
9.5249999999999986
 49
6.3499999999999996
 74
0
 49
-3.1749999999999998
 74
0
  0
LTYPE
  5
4B
100
AcDbSymbolTableRecord
100
AcDbLinetypeTableRecord
  2
ACAD_ISO09W100
 70
0
  3
ISO long-dash double-short-dash ____ __ __ ____
 72
65
 73
6
 40
45.0
 49
24.0
 74
0
 49
-3.0
 74
0
 49
6.0
 74
0
 49
-3.0
 74
0
 49
6.0
 74
0
 49
-3.0
 74
0
  0
LTYPE
  5
4C
100
AcDbSymbolTableRecord
100
AcDbLinetypeTableRecord
  2
ACAD_ISO13W100
 70
0
  3
ISO double-dash double-dot __ __ . . __ __ . . _
 72
65
 73
8
 40
36.0000000000000071
 49
12.0
 74
0
 49
-3.0
 74
0
 49
12.0
 74
0
 49
-2.9500000000000002
 74
0
 49
0.1
 74
0
 49
-2.9000000000000004
 74
0
 49
0.1
 74
0
 49
-2.9500000000000002
 74
0
  0
LTYPE
  5
4D
100
AcDbSymbolTableRecord
100
AcDbLinetypeTableRecord
  2
DOT2
 70
0
  3
Dot (.5x) ........................................
 72
65
 73
2
 40
3.1749999999999998
 49
0.1
 74
0
 49
-3.0749999999999997
 74
0
  0
LTYPE
  5
4E
100
AcDbSymbolTableRecord
100
AcDbLinetypeTableRecord
  2
DASHED
 70
0
  3
Dashed __ __ __ __ __ __ __ __ __ __ __ __ __ _
 72
65
 73
2
 40
19.0499999999999972
 49
12.6999999999999993
 74
0
 49
-6.3499999999999996
 74
0
  0
LTYPE
  5
4F
100
AcDbSymbolTableRecord
100
AcDbLinetypeTableRecord
  2
ACAD_ISO14W100
 70
0
  3
ISO dash triple-dot __ . . . __ . . . __ . . . _
 72
65
 73
8
 40
24.0000000000000036
 49
12.0
 74
0
 49
-2.9500000000000002
 74
0
 49
0.1
 74
0
 49
-2.9000000000000004
 74
0
 49
0.1
 74
0
 49
-2.9000000000000004
 74
0
 49
0.1
 74
0
 49
-2.9500000000000002
 74
0
  0
LTYPE
  5
15
100
AcDbSymbolTableRecord
100
AcDbLinetypeTableRecord
  2
BYLAYER
 70
0
  3

 72
65
 73
0
 40
0.0
  0
LTYPE
  5
50
100
AcDbSymbolTableRecord
100
AcDbLinetypeTableRecord
  2
PHANTOMX2
 70
0
  3
Phantom (2x) ____________    ____    ____   _
 72
65
 73
6
 40
127.0000000000000142
 49
63.5
 74
0
 49
-12.6999999999999993
 74
0
 49
12.6999999999999993
 74
0
 49
-12.6999999999999993
 74
0
 49
12.6999999999999993
 74
0
 49
-12.6999999999999993
 74
0
  0
LTYPE
  5
14
100
AcDbSymbolTableRecord
100
AcDbLinetypeTableRecord
  2
BYBLOCK
 70
0
  3

 72
65
 73
0
 40
0.0
  0
LTYPE
  5
51
100
AcDbSymbolTableRecord
100
AcDbLinetypeTableRecord
  2
DIVIDEX2
 70
0
  3
Divide (2x) ________  .  .  ________  .  .  _
 72
65
 73
6
 40
63.5
 49
25.3999999999999986
 74
0
 49
-12.6499999999999986
 74
0
 49
0.1
 74
0
 49
-12.5999999999999979
 74
0
 49
0.1
 74
0
 49
-12.6499999999999986
 74
0
  0
LTYPE
  5
52
100
AcDbSymbolTableRecord
100
AcDbLinetypeTableRecord
  2
BORDER
 70
0
  3
Border __ __ . __ __ . __ __ . __ __ . __ __ .
 72
65
 73
6
 40
44.4499999999999957
 49
12.6999999999999993
 74
0
 49
-6.3499999999999996
 74
0
 49
12.6999999999999993
 74
0
 49
-6.2999999999999998
 74
0
 49
0.1
 74
0
 49
-6.2999999999999998
 74
0
  0
LTYPE
  5
53
100
AcDbSymbolTableRecord
100
AcDbLinetypeTableRecord
  2
DIVIDE2
 70
0
  3
Divide (.5x) __..__..__..__..__..__..__..__.._
 72
65
 73
6
 40
15.8749999999999982
 49
6.3499999999999996
 74
0
 49
-3.125
 74
0
 49
0.1
 74
0
 49
-3.0750000000000002
 74
0
 49
0.1
 74
0
 49
-3.125
 74
0
  0
LTYPE
  5
54
100
AcDbSymbolTableRecord
100
AcDbLinetypeTableRecord
  2
DOT
 70
0
  3
Dot . . . . . . . . . . . . . . . . . . . . . . . .
 72
65
 73
2
 40
6.3499999999999996
 49
0.1
 74
0
 49
-6.25
 74
0
  0
LTYPE
  5
55
100
AcDbSymbolTableRecord
100
AcDbLinetypeTableRecord
  2
DASHDOT
 70
0
  3
Dash dot __ . __ . __ . __ . __ . __ . __ . __
 72
65
 73
4
 40
25.4000000000000021
 49
12.6999999999999993
 74
0
 49
-6.2999999999999998
 74
0
 49
0.1
 74
0
 49
-6.2999999999999998
 74
0
  0
LTYPE
  5
56
100
AcDbSymbolTableRecord
100
AcDbLinetypeTableRecord
  2
ACAD_ISO03W100
 70
0
  3
ISO dash space __    __    __    __    __    __
 72
65
 73
2
 40
30.0
 49
12.0
 74
0
 49
-18.0
 74
0
  0
ENDTAB
  0
TABLE
  2
LAYER
  5
2
100
AcDbSymbolTable
 70
1
  0
LAYER
  5
10
100
AcDbSymbolTableRecord
100
AcDbLayerTableRecord
  2
0
 70
0
 62
7
420
16777215
  6
CONTINUOUS
370
5
390
F
  0
ENDTAB
  0
TABLE
  2
STYLE
  5
3
100
AcDbSymbolTable
 70
1
  0
STYLE
  5
57
100
AcDbSymbolTableRecord
100
AcDbTextStyleTableRecord
  2
Standard
 70
0
 40
0.0
 41
1.0
 50
0.0
 71
0
 42
2.5
  3

  4

1001
ACAD
1000
txt
1071
0
  0
ENDTAB
  0
TABLE
  2
VIEW
  5
6
100
AcDbSymbolTable
 70
0
  0
ENDTAB
  0
TABLE
  2
UCS
  5
7
100
AcDbSymbolTable
 70
0
  0
ENDTAB
  0
TABLE
  2
APPID
  5
9
100
AcDbSymbolTable
 70
1
  0
APPID
  5
12
100
AcDbSymbolTableRecord
100
AcDbRegAppTableRecord
  2
ACAD
 70
0
  0
APPID
  5
58
100
AcDbSymbolTableRecord
100
AcDbRegAppTableRecord
  2
QCAD
 70
0
  0
ENDTAB
  0
TABLE
  2
DIMSTYLE
  5
A
100
AcDbSymbolTable
 70
1
100
AcDbDimStyleTable
 71
0
  0
DIMSTYLE
105
27
100
AcDbSymbolTableRecord
100
AcDbDimStyleTableRecord
  2
Standard
 41
0.18
 42
0.0625
 43
3.75
 44
0.18
 70
0
 73
0
 74
0
 77
1
 78
8
140
0.18
141
2.5
143
0.03937007874016
147
0.09
171
3
172
1
271
2
272
2
274
3
278
44
283
0
284
8
340
57
  0
ENDTAB
  0
TABLE
  2
BLOCK_RECORD
  5
1
100
AcDbSymbolTable
 70
1
  0
BLOCK_RECORD
  5
1F
100
AcDbSymbolTableRecord
100
AcDbBlockTableRecord
  2
*Model_Space
340
22
  0
BLOCK_RECORD
  5
1B
100
AcDbSymbolTableRecord
100
AcDbBlockTableRecord
  2
*Paper_Space
340
1E
  0
BLOCK_RECORD
  5
23
100
AcDbSymbolTableRecord
100
AcDbBlockTableRecord
  2
*Paper_Space0
340
26
  0
BLOCK_RECORD
  5
59
100
AcDbSymbolTableRecord
100
AcDbBlockTableRecord
  2
FILLET001
340
0
  0
ENDTAB
  0
ENDSEC
  0
SECTION
  2
BLOCKS
  0
BLOCK
  5
20
100
AcDbEntity
  8
0
100
AcDbBlockBegin
  2
*Model_Space
 70
0
 10
0.0
 20
0.0
 30
0.0
  3
*Model_Space
  1

  0
ENDBLK
  5
21
100
AcDbEntity
  8
0
100
AcDbBlockEnd
  0
BLOCK
  5
1C
100
AcDbEntity
 67
1
  8
0
100
AcDbBlockBegin
  2
*Paper_Space
 70
0
 10
0.0
 20
0.0
 30
0.0
  3
*Paper_Space
  1

  0
ENDBLK
  5
1D
100
AcDbEntity
 67
1
  8
0
100
AcDbBlockEnd
  0
BLOCK
  5
24
100
AcDbEntity
  8
0
100
AcDbBlockBegin
  2
*Paper_Space0
 70
0
 10
0.0
 20
0.0
 30
0.0
  3
*Paper_Space0
  1

  0
ENDBLK
  5
25
100
AcDbEntity
  8
0
100
AcDbBlockEnd
  0
BLOCK
  5
5A
100
AcDbEntity
  8
0
100
AcDbBlockBegin
  2
FILLET001
 70
0
 10
0.0
 20
0.0
 30
0.0
  3
FILLET001
  1

  0
LINE
  5
5B
100
AcDbEntity
  8
0
 62
0
370
-1
 48
1.0
  6
BYLAYER
100
AcDbLine
 10
-2.5
 20
-35.3066565961999999
 30
0.0
 11
-2.5
 21
-11.1242977306000004
 31
0.0
  0
ARC
  5
5C
100
AcDbEntity
  8
0
 62
0
370
-1
 48
1.0
  6
BYLAYER
100
AcDbCircle
 10
-6.5
 20
-35.3066565961999999
 30
0.0
 40
4.0
100
AcDbArc
 50
-100.431420256999985
 51
-0.0
  0
ARC
  5
5D
100
AcDbEntity
  8
0
 62
0
370
-1
 48
1.0
  6
BYLAYER
100
AcDbCircle
 10
-4.5
 20
-11.1242977306000004
 30
0.0
 40
2.0
100
AcDbArc
 50
-0.0
 51
67.9756871630000035
  0
ARC
  5
5E
100
AcDbEntity
  8
0
 62
0
370
-1
 48
1.0
  6
BYLAYER
100
AcDbCircle
 10
0.0
 20
0.0
 30
0.0
 40
39.8999999999999986
100
AcDbArc
 50
-151.5685797429999866
 51
-100.431420256999985
  0
ARC
  5
5F
100
AcDbEntity
  8
0
 62
0
370
-1
 48
1.0
  6
BYLAYER
100
AcDbCircle
 10
0.0
 20
0.0
 30
0.0
 40
10.0
100
AcDbArc
 50
-139.9756871630000035
 51
-112.0243128370000107
  0
ARC
  5
60
100
AcDbEntity
  8
0
 62
0
370
-1
 48
1.0
  6
BYLAYER
100
AcDbCircle
 10
-31.5700153609000012
 20
-17.0922242587
 30
0.0
 40
4.0
100
AcDbArc
 50
108.0
 51
-151.5685797429999866
  0
ARC
  5
61
100
AcDbEntity
  8
0
 62
0
370
-1
 48
1.0
  6
BYLAYER
100
AcDbCircle
 10
-9.1892593712499995
 20
-7.7173513725799996
 30
0.0
 40
2.0
100
AcDbArc
 50
40.0243128369999894
 51
108.0
  0
LINE
  5
62
100
AcDbEntity
  8
0
 62
0
370
-1
 48
1.0
  6
BYLAYER
100
AcDbLine
 10
-32.8060833384000006
 20
-13.2879981935
 30
0.0
 11
-9.8072933599999992
 21
-5.8152383399899996
 31
0.0
  0
CIRCLE
  5
63
100
AcDbEntity
  8
0
 62
0
370
-1
 48
1.0
  6
BYLAYER
100
AcDbCircle
 10
0.0
 20
0.0
 30
0.0
 40
44.8500000000000014
  0
LINE
  5
64
100
AcDbEntity
  8
0
 62
0
370
-1
 48
1.0
  6
BYLAYER
100
AcDbLine
 10
-34.3511683102999967
 20
-8.5327156120400005
 30
0.0
 11
-11.3523783319000007
 21
-1.0599557585199999
 31
0.0
  0
ARC
  5
65
100
AcDbEntity
  8
0
 62
0
370
-1
 48
1.0
  6
BYLAYER
100
AcDbCircle
 10
-35.5872362878000033
 20
-4.7284895468599997
 30
0.0
 40
4.0
100
AcDbArc
 50
-172.4314202570000134
 51
-72.0
  0
ARC
  5
66
100
AcDbEntity
  8
0
 62
0
370
-1
 48
1.0
  6
BYLAYER
100
AcDbCircle
 10
-11.9704123205999995
 20
0.842157274073
 30
0.0
 40
2.0
100
AcDbArc
 50
-72.0
 51
-4.0243128370400001
  0
ARC
  5
67
100
AcDbEntity
  8
0
 62
0
370
-1
 48
1.0
  6
BYLAYER
100
AcDbCircle
 10
0.0
 20
0.0
 30
0.0
 40
39.8999999999999986
100
AcDbArc
 50
136.4314202570000134
 51
-172.4314202570000134
  0
ARC
  5
68
100
AcDbEntity
  8
0
 62
0
370
-1
 48
1.0
  6
BYLAYER
100
AcDbCircle
 10
0.0
 20
0.0
 30
0.0
 40
10.0
100
AcDbArc
 50
148.0243128369999965
 51
175.9756871630000035
  0
ARC
  5
69
100
AcDbEntity
  8
0
 62
0
370
-1
 48
1.0
  6
BYLAYER
100
AcDbCircle
 10
-26.0113425183999993
 20
24.7430810610000016
 30
0.0
 40
4.0
100
AcDbArc
 50
36.0
 51
136.4314202570000134
  0
ARC
  5
6A
100
AcDbEntity
  8
0
 62
0
370
-1
 48
1.0
  6
BYLAYER
100
AcDbCircle
 10
-10.1792746228999995
 20
6.3547122792600002
 30
0.0
 40
2.0
100
AcDbArc
 50
-31.9756871629999999
 51
36.0
  0
LINE
  5
6B
100
AcDbEntity
  8
0
 62
0
370
-1
 48
1.0
  6
BYLAYER
100
AcDbLine
 10
-22.7752745408999999
 20
27.0942220700999989
 30
0.0
 11
-8.5612406341200007
 21
7.5302827838499997
 31
0.0
  0
LINE
  5
6C
100
AcDbEntity
  8
0
 62
0
370
-1
 48
1.0
  6
BYLAYER
100
AcDbLine
 10
32.8060833384000006
 20
-13.2879981935
 30
0.0
 11
9.8072933599999992
 21
-5.8152383399899996
 31
0.0
  0
ARC
  5
6D
100
AcDbEntity
  8
0
 62
0
370
-1
 48
1.0
  6
BYLAYER
100
AcDbCircle
 10
31.5700153609000012
 20
-17.0922242587
 30
0.0
 40
4.0
100
AcDbArc
 50
-28.4314202568000027
 51
72.0
  0
ARC
  5
6E
100
AcDbEntity
  8
0
 62
0
370
-1
 48
1.0
  6
BYLAYER
100
AcDbCircle
 10
9.1892593712499995
 20
-7.7173513725799996
 30
0.0
 40
2.0
100
AcDbArc
 50
72.0
 51
139.9756871630000035
  0
ARC
  5
6F
100
AcDbEntity
  8
0
 62
0
370
-1
 48
1.0
  6
BYLAYER
100
AcDbCircle
 10
0.0
 20
0.0
 30
0.0
 40
39.8999999999999986
100
AcDbArc
 50
-79.5685797432000044
 51
-28.4314202568000027
  0
ARC
  5
70
100
AcDbEntity
  8
0
 62
0
370
-1
 48
1.0
  6
BYLAYER
100
AcDbCircle
 10
0.0
 20
0.0
 30
0.0
 40
10.0
100
AcDbArc
 50
-67.9756871630000035
 51
-40.0243128369999894
  0
ARC
  5
71
100
AcDbEntity
  8
0
 62
0
370
-1
 48
1.0
  6
BYLAYER
100
AcDbCircle
 10
6.5
 20
-35.3066565961999999
 30
0.0
 40
4.0
100
AcDbArc
 50
-180.0
 51
-79.5685797432000044
  0
ARC
  5
72
100
AcDbEntity
  8
0
 62
0
370
-1
 48
1.0
  6
BYLAYER
100
AcDbCircle
 10
4.5
 20
-11.1242977306000004
 30
0.0
 40
2.0
100
AcDbArc
 50
112.0243128370000107
 51
-180.0
  0
LINE
  5
73
100
AcDbEntity
  8
0
 62
0
370
-1
 48
1.0
  6
BYLAYER
100
AcDbLine
 10
2.5
 20
-35.3066565961999999
 30
0.0
 11
2.5
 21
-11.1242977306000004
 31
0.0
  0
LINE
  5
74
100
AcDbEntity
  8
0
 62
0
370
-1
 48
1.0
  6
BYLAYER
100
AcDbLine
 10
22.7752745408999999
 20
27.0942220700999989
 30
0.0
 11
8.5612406341200007
 21
7.5302827838499997
 31
0.0
  0
ARC
  5
75
100
AcDbEntity
  8
0
 62
0
370
-1
 48
1.0
  6
BYLAYER
100
AcDbCircle
 10
26.0113425183999993
 20
24.7430810610000016
 30
0.0
 40
4.0
100
AcDbArc
 50
43.5685797432000044
 51
144.0
  0
ARC
  5
76
100
AcDbEntity
  8
0
 62
0
370
-1
 48
1.0
  6
BYLAYER
100
AcDbCircle
 10
10.1792746228999995
 20
6.3547122792600002
 30
0.0
 40
2.0
100
AcDbArc
 50
144.0
 51
-148.0243128369999965
  0
ARC
  5
77
100
AcDbEntity
  8
0
 62
0
370
-1
 48
1.0
  6
BYLAYER
100
AcDbCircle
 10
0.0
 20
0.0
 30
0.0
 40
39.8999999999999986
100
AcDbArc
 50
-7.5685797432300017
 51
43.5685797432000044
  0
ARC
  5
78
100
AcDbEntity
  8
0
 62
0
370
-1
 48
1.0
  6
BYLAYER
100
AcDbCircle
 10
0.0
 20
0.0
 30
0.0
 40
10.0
100
AcDbArc
 50
4.0243128370400001
 51
31.9756871629999999
  0
ARC
  5
79
100
AcDbEntity
  8
0
 62
0
370
-1
 48
1.0
  6
BYLAYER
100
AcDbCircle
 10
35.5872362878000033
 20
-4.7284895468599997
 30
0.0
 40
4.0
100
AcDbArc
 50
-108.0
 51
-7.5685797432300017
  0
ARC
  5
7A
100
AcDbEntity
  8
0
 62
0
370
-1
 48
1.0
  6
BYLAYER
100
AcDbCircle
 10
11.9704123205999995
 20
0.842157274072
 30
0.0
 40
2.0
100
AcDbArc
 50
-175.9756871630000035
 51
-108.0
  0
LINE
  5
7B
100
AcDbEntity
  8
0
 62
0
370
-1
 48
1.0
  6
BYLAYER
100
AcDbLine
 10
34.3511683102999967
 20
-8.5327156120400005
 30
0.0
 11
11.3523783319000007
 21
-1.0599557585199999
 31
0.0
  0
LINE
  5
7C
100
AcDbEntity
  8
0
 62
0
370
-1
 48
1.0
  6
BYLAYER
100
AcDbLine
 10
-18.7301895690000002
 20
30.0331483315999996
 30
0.0
 11
-4.5161556622500001
 21
10.4692090452999995
 31
0.0
  0
ARC
  5
7D
100
AcDbEntity
  8
0
 62
0
370
-1
 48
1.0
  6
BYLAYER
100
AcDbCircle
 10
-15.4941215915000008
 20
32.3842893408000023
 30
0.0
 40
4.0
100
AcDbArc
 50
115.5685797430000008
 51
-144.0
  0
ARC
  5
7E
100
AcDbEntity
  8
0
 62
0
370
-1
 48
1.0
  6
BYLAYER
100
AcDbCircle
 10
-2.8981216734999999
 20
11.6447795499000009
 30
0.0
 40
2.0
100
AcDbArc
 50
-144.0
 51
-76.0243128369999965
  0
ARC
  5
7F
100
AcDbEntity
  8
0
 62
0
370
-1
 48
1.0
  6
BYLAYER
100
AcDbCircle
 10
0.0
 20
0.0
 30
0.0
 40
39.8999999999999986
100
AcDbArc
 50
64.4314202567999956
 51
115.5685797430000008
  0
ARC
  5
80
100
AcDbEntity
  8
0
 62
0
370
-1
 48
1.0
  6
BYLAYER
100
AcDbCircle
 10
0.0
 20
0.0
 30
0.0
 40
10.0
100
AcDbArc
 50
76.0243128369999965
 51
103.9756871630000035
  0
ARC
  5
81
100
AcDbEntity
  8
0
 62
0
370
-1
 48
1.0
  6
BYLAYER
100
AcDbCircle
 10
15.4941215915000008
 20
32.3842893408000023
 30
0.0
 40
4.0
100
AcDbArc
 50
-36.0
 51
64.4314202567999956
  0
ARC
  5
82
100
AcDbEntity
  8
0
 62
0
370
-1
 48
1.0
  6
BYLAYER
100
AcDbCircle
 10
2.8981216734999999
 20
11.6447795499000009
 30
0.0
 40
2.0
100
AcDbArc
 50
-103.9756871630000035
 51
-36.0
  0
LINE
  5
83
100
AcDbEntity
  8
0
 62
0
370
-1
 48
1.0
  6
BYLAYER
100
AcDbLine
 10
18.7301895690000002
 20
30.0331483315999996
 30
0.0
 11
4.5161556622500001
 21
10.4692090452999995
 31
0.0
  0
CIRCLE
  5
84
100
AcDbEntity
  8
0
 62
0
370
-1
 48
1.0
  6
BYLAYER
100
AcDbCircle
 10
0.0
 20
0.0
 30
0.0
 40
5.0
  0
ARC
  5
85
100
AcDbEntity
  8
0
 62
0
370
-1
 48
1.0
  6
BYLAYER
100
AcDbCircle
 10
0.0
 20
0.0
 30
0.0
 40
2.4500000000000002
100
AcDbArc
 50
53.7125429148999984
 51
126.2874570849999998
  0
LINE
  5
86
100
AcDbEntity
  8
0
 62
0
370
-1
 48
1.0
  6
BYLAYER
100
AcDbLine
 10
-1.45
 20
1.9748417658099999
 30
0.0
 11
-1.45
 21
-1.9748417658099999
 31
0.0
  0
ARC
  5
87
100
AcDbEntity
  8
0
 62
0
370
-1
 48
1.0
  6
BYLAYER
100
AcDbCircle
 10
0.0
 20
0.0
 30
0.0
 40
2.4500000000000002
100
AcDbArc
 50
-126.2874570849999998
 51
-53.7125429148999984
  0
LINE
  5
88
100
AcDbEntity
  8
0
 62
0
370
-1
 48
1.0
  6
BYLAYER
100
AcDbLine
 10
1.45
 20
1.9748417658099999
 30
0.0
 11
1.45
 21
-1.9748417658099999
 31
0.0
  0
ENDBLK
  5
89
100
AcDbEntity
  8
0
100
AcDbBlockEnd
  0
ENDSEC
  0
SECTION
  2
ENTITIES
  0
LINE
  5
8A
100
AcDbEntity
  8
0
 62
0
370
-1
 48
1.0
  6
BYLAYER
100
AcDbLine
 10
-2.5
 20
-35.3066565961999999
 30
0.0
 11
-2.5
 21
-11.1242977306000004
 31
0.0
  0
LINE
  5
8B
100
AcDbEntity
  8
0
 62
0
370
-1
 48
1.0
  6
BYLAYER
100
AcDbLine
 10
97.5
 20
-35.3066565961999999
 30
0.0
 11
97.5
 21
-11.1242977306000004
 31
0.0
  0
LINE
  5
8C
100
AcDbEntity
  8
0
 62
0
370
-1
 48
1.0
  6
BYLAYER
100
AcDbLine
 10
-2.2217658416945767
 20
59.5299878334419788
 30
0.0
 11
-2.2217658416945767
 21
83.7123466990419729
 31
0.0
  0
LINE
  5
8D
100
AcDbEntity
  8
0
 62
0
370
-1
 48
1.0
  6
BYLAYER
100
AcDbLine
 10
97.7782341583054233
 20
59.5299878334419788
 30
0.0
 11
97.7782341583054233
 21
83.7123466990419729
 31
0.0
  0
LINE
  5
8E
100
AcDbEntity
  8
0
 62
0
370
-1
 48
1.0
  6
BYLAYER
100
AcDbLine
 10
197.2215535425457915
 20
-35.8884708623480151
 30
0.0
 11
197.2215535425457915
 21
-11.7061119967480067
 31
0.0
  0
LINE
  5
8F
100
AcDbEntity
  8
0
 62
0
370
-1
 48
1.0
  6
BYLAYER
100
AcDbLine
 10
297.2215535425457915
 20
-35.8884708623480151
 30
0.0
 11
297.2215535425457915
 21
-11.7061119967480067
 31
0.0
  0
LINE
  5
90
100
AcDbEntity
  8
0
 62
0
370
-1
 48
1.0
  6
BYLAYER
100
AcDbLine
 10
197.4997877008512432
 20
58.9481735672939777
 30
0.0
 11
197.4997877008512432
 21
83.1305324328939719
 31
0.0
  0
LINE
  5
91
100
AcDbEntity
  8
0
 62
0
370
-1
 48
1.0
  6
BYLAYER
100
AcDbLine
 10
297.4997877008512432
 20
58.9481735672939777
 30
0.0
 11
297.4997877008512432
 21
83.1305324328939719
 31
0.0
  0
LINE
  5
92
100
AcDbEntity
  8
0
 62
0
370
-1
 48
1.0
  6
BYLAYER
100
AcDbLine
 10
401.7749968465727193
 20
-33.6726873809492417
 30
0.0
 11
401.7749968465727193
 21
-9.4903285153492334
 31
0.0
  0
LINE
  5
93
100
AcDbEntity
  8
0
 62
0
370
-1
 48
1.0
  6
BYLAYER
100
AcDbLine
 10
402.053231004878171
 20
61.1639570486927511
 30
0.0
 11
402.053231004878171
 21
85.3463159142927452
 31
0.0
  0
ARC
  5
94
100
AcDbEntity
  8
0
 62
0
370
-1
 48
1.0
  6
BYLAYER
100
AcDbCircle
 10
-6.5
 20
-35.3066565961999999
 30
0.0
 40
4.0
100
AcDbArc
 50
259.5685797429999866
 51
0.0
  0
ARC
  5
95
100
AcDbEntity
  8
0
 62
0
370
-1
 48
1.0
  6
BYLAYER
100
AcDbCircle
 10
93.5
 20
-35.3066565961999999
 30
0.0
 40
4.0
100
AcDbArc
 50
259.5685797429999866
 51
0.0
  0
ARC
  5
96
100
AcDbEntity
  8
0
 62
0
370
-1
 48
1.0
  6
BYLAYER
100
AcDbCircle
 10
-6.2217658416945767
 20
59.5299878334419788
 30
0.0
 40
4.0
100
AcDbArc
 50
259.5685797429999866
 51
0.0
  0
ARC
  5
97
100
AcDbEntity
  8
0
 62
0
370
-1
 48
1.0
  6
BYLAYER
100
AcDbCircle
 10
93.7782341583054233
 20
59.5299878334419788
 30
0.0
 40
4.0
100
AcDbArc
 50
259.5685797429999866
 51
0.0
  0
ARC
  5
98
100
AcDbEntity
  8
0
 62
0
370
-1
 48
1.0
  6
BYLAYER
100
AcDbCircle
 10
193.2215535425457915
 20
-35.8884708623480151
 30
0.0
 40
4.0
100
AcDbArc
 50
259.5685797429999866
 51
0.0
  0
ARC
  5
99
100
AcDbEntity
  8
0
 62
0
370
-1
 48
1.0
  6
BYLAYER
100
AcDbCircle
 10
293.2215535425457915
 20
-35.8884708623480151
 30
0.0
 40
4.0
100
AcDbArc
 50
259.5685797429999866
 51
0.0
  0
ARC
  5
9A
100
AcDbEntity
  8
0
 62
0
370
-1
 48
1.0
  6
BYLAYER
100
AcDbCircle
 10
193.4997877008512432
 20
58.9481735672939777
 30
0.0
 40
4.0
100
AcDbArc
 50
259.5685797429999866
 51
0.0
  0
ARC
  5
9B
100
AcDbEntity
  8
0
 62
0
370
-1
 48
1.0
  6
BYLAYER
100
AcDbCircle
 10
293.4997877008512432
 20
58.9481735672939777
 30
0.0
 40
4.0
100
AcDbArc
 50
259.5685797429999866
 51
0.0
  0
ARC
  5
9C
100
AcDbEntity
  8
0
 62
0
370
-1
 48
1.0
  6
BYLAYER
100
AcDbCircle
 10
397.7749968465727193
 20
-33.6726873809492417
 30
0.0
 40
4.0
100
AcDbArc
 50
259.5685797429999866
 51
0.0
  0
ARC
  5
9D
100
AcDbEntity
  8
0
 62
0
370
-1
 48
1.0
  6
BYLAYER
100
AcDbCircle
 10
398.053231004878171
 20
61.1639570486927511
 30
0.0
 40
4.0
100
AcDbArc
 50
259.5685797429999866
 51
0.0
  0
ARC
  5
9E
100
AcDbEntity
  8
0
 62
0
370
-1
 48
1.0
  6
BYLAYER
100
AcDbCircle
 10
-4.5
 20
-11.1242977306000004
 30
0.0
 40
2.0
100
AcDbArc
 50
-0.0
 51
67.9756871630000035
  0
ARC
  5
9F
100
AcDbEntity
  8
0
 62
0
370
-1
 48
1.0
  6
BYLAYER
100
AcDbCircle
 10
95.5
 20
-11.1242977306000004
 30
0.0
 40
2.0
100
AcDbArc
 50
-0.0
 51
67.9756871630000035
  0
ARC
  5
A0
100
AcDbEntity
  8
0
 62
0
370
-1
 48
1.0
  6
BYLAYER
100
AcDbCircle
 10
-4.2217658416945767
 20
83.7123466990419729
 30
0.0
 40
2.0
100
AcDbArc
 50
-0.0
 51
67.9756871630000035
  0
ARC
  5
A1
100
AcDbEntity
  8
0
 62
0
370
-1
 48
1.0
  6
BYLAYER
100
AcDbCircle
 10
95.7782341583054233
 20
83.7123466990419729
 30
0.0
 40
2.0
100
AcDbArc
 50
-0.0
 51
67.9756871630000035
  0
ARC
  5
A2
100
AcDbEntity
  8
0
 62
0
370
-1
 48
1.0
  6
BYLAYER
100
AcDbCircle
 10
195.2215535425457915
 20
-11.7061119967480067
 30
0.0
 40
2.0
100
AcDbArc
 50
-0.0
 51
67.9756871630000035
  0
ARC
  5
A3
100
AcDbEntity
  8
0
 62
0
370
-1
 48
1.0
  6
BYLAYER
100
AcDbCircle
 10
295.2215535425457915
 20
-11.7061119967480067
 30
0.0
 40
2.0
100
AcDbArc
 50
-0.0
 51
67.9756871630000035
  0
ARC
  5
A4
100
AcDbEntity
  8
0
 62
0
370
-1
 48
1.0
  6
BYLAYER
100
AcDbCircle
 10
195.4997877008512432
 20
83.1305324328939719
 30
0.0
 40
2.0
100
AcDbArc
 50
-0.0
 51
67.9756871630000035
  0
ARC
  5
A5
100
AcDbEntity
  8
0
 62
0
370
-1
 48
1.0
  6
BYLAYER
100
AcDbCircle
 10
295.4997877008512432
 20
83.1305324328939719
 30
0.0
 40
2.0
100
AcDbArc
 50
-0.0
 51
67.9756871630000035
  0
ARC
  5
A6
100
AcDbEntity
  8
0
 62
0
370
-1
 48
1.0
  6
BYLAYER
100
AcDbCircle
 10
399.7749968465727193
 20
-9.4903285153492334
 30
0.0
 40
2.0
100
AcDbArc
 50
-0.0
 51
67.9756871630000035
  0
ARC
  5
A7
100
AcDbEntity
  8
0
 62
0
370
-1
 48
1.0
  6
BYLAYER
100
AcDbCircle
 10
400.053231004878171
 20
85.3463159142927452
 30
0.0
 40
2.0
100
AcDbArc
 50
-0.0
 51
67.9756871630000035
  0
ARC
  5
A8
100
AcDbEntity
  8
0
 62
0
370
-1
 48
1.0
  6
BYLAYER
100
AcDbCircle
 10
0.0
 20
0.0
 30
0.0
 40
39.8999999999999986
100
AcDbArc
 50
208.4314202570000134
 51
259.5685797432341246
  0
ARC
  5
A9
100
AcDbEntity
  8
0
 62
0
370
-1
 48
1.0
  6
BYLAYER
100
AcDbCircle
 10
100.0
 20
0.0
 30
0.0
 40
39.8999999999999986
100
AcDbArc
 50
208.4314202570000134
 51
259.5685797432341246
  0
ARC
  5
AA
100
AcDbEntity
  8
0
 62
0
370
-1
 48
1.0
  6
BYLAYER
100
AcDbCircle
 10
0.2782341583054233
 20
94.8366444296419786
 30
0.0
 40
39.8999999999999986
100
AcDbArc
 50
208.4314202570000134
 51
259.5685797432341246
  0
ARC
  5
AB
100
AcDbEntity
  8
0
 62
0
370
-1
 48
1.0
  6
BYLAYER
100
AcDbCircle
 10
100.2782341583054233
 20
94.8366444296419786
 30
0.0
 40
39.8999999999999986
100
AcDbArc
 50
208.4314202570000134
 51
259.5685797432341246
  0
ARC
  5
AC
100
AcDbEntity
  8
0
 62
0
370
-1
 48
1.0
  6
BYLAYER
100
AcDbCircle
 10
199.7215535425457915
 20
-0.581814266148001
 30
0.0
 40
39.8999999999999986
100
AcDbArc
 50
208.4314202570000134
 51
259.5685797432341246
  0
ARC
  5
AD
100
AcDbEntity
  8
0
 62
0
370
-1
 48
1.0
  6
BYLAYER
100
AcDbCircle
 10
299.7215535425457915
 20
-0.581814266148001
 30
0.0
 40
39.8999999999999986
100
AcDbArc
 50
208.4314202570000134
 51
259.5685797432341246
  0
ARC
  5
AE
100
AcDbEntity
  8
0
 62
0
370
-1
 48
1.0
  6
BYLAYER
100
AcDbCircle
 10
199.9997877008512432
 20
94.2548301634939776
 30
0.0
 40
39.8999999999999986
100
AcDbArc
 50
208.4314202570000134
 51
259.5685797432341246
  0
ARC
  5
AF
100
AcDbEntity
  8
0
 62
0
370
-1
 48
1.0
  6
BYLAYER
100
AcDbCircle
 10
299.9997877008512432
 20
94.2548301634939776
 30
0.0
 40
39.8999999999999986
100
AcDbArc
 50
208.4314202570000134
 51
259.5685797432341246
  0
ARC
  5
B0
100
AcDbEntity
  8
0
 62
0
370
-1
 48
1.0
  6
BYLAYER
100
AcDbCircle
 10
404.2749968465727193
 20
1.6339692152507723
 30
0.0
 40
39.8999999999999986
100
AcDbArc
 50
208.4314202570000134
 51
259.5685797432341246
  0
ARC
  5
B1
100
AcDbEntity
  8
0
 62
0
370
-1
 48
1.0
  6
BYLAYER
100
AcDbCircle
 10
404.553231004878171
 20
96.4706136448927509
 30
0.0
 40
39.8999999999999986
100
AcDbArc
 50
208.4314202570000134
 51
259.5685797432341246
  0
ARC
  5
B2
100
AcDbEntity
  8
0
 62
0
370
-1
 48
1.0
  6
BYLAYER
100
AcDbCircle
 10
0.0
 20
0.0
 30
0.0
 40
10.0
100
AcDbArc
 50
220.0243128370243824
 51
247.975687162999975
  0
ARC
  5
B3
100
AcDbEntity
  8
0
 62
0
370
-1
 48
1.0
  6
BYLAYER
100
AcDbCircle
 10
100.0
 20
0.0
 30
0.0
 40
10.0
100
AcDbArc
 50
220.0243128370243824
 51
247.975687162999975
  0
ARC
  5
B4
100
AcDbEntity
  8
0
 62
0
370
-1
 48
1.0
  6
BYLAYER
100
AcDbCircle
 10
0.2782341583054233
 20
94.8366444296419786
 30
0.0
 40
10.0
100
AcDbArc
 50
220.0243128370243824
 51
247.975687162999975
  0
ARC
  5
B5
100
AcDbEntity
  8
0
 62
0
370
-1
 48
1.0
  6
BYLAYER
100
AcDbCircle
 10
100.2782341583054233
 20
94.8366444296419786
 30
0.0
 40
10.0
100
AcDbArc
 50
220.0243128370243824
 51
247.975687162999975
  0
ARC
  5
B6
100
AcDbEntity
  8
0
 62
0
370
-1
 48
1.0
  6
BYLAYER
100
AcDbCircle
 10
199.7215535425457915
 20
-0.581814266148001
 30
0.0
 40
10.0
100
AcDbArc
 50
220.0243128370243824
 51
247.975687162999975
  0
ARC
  5
B7
100
AcDbEntity
  8
0
 62
0
370
-1
 48
1.0
  6
BYLAYER
100
AcDbCircle
 10
299.7215535425457915
 20
-0.581814266148001
 30
0.0
 40
10.0
100
AcDbArc
 50
220.0243128370243824
 51
247.975687162999975
  0
ARC
  5
B8
100
AcDbEntity
  8
0
 62
0
370
-1
 48
1.0
  6
BYLAYER
100
AcDbCircle
 10
199.9997877008512432
 20
94.2548301634939776
 30
0.0
 40
10.0
100
AcDbArc
 50
220.0243128370243824
 51
247.975687162999975
  0
ARC
  5
B9
100
AcDbEntity
  8
0
 62
0
370
-1
 48
1.0
  6
BYLAYER
100
AcDbCircle
 10
299.9997877008512432
 20
94.2548301634939776
 30
0.0
 40
10.0
100
AcDbArc
 50
220.0243128370243824
 51
247.975687162999975
  0
ARC
  5
BA
100
AcDbEntity
  8
0
 62
0
370
-1
 48
1.0
  6
BYLAYER
100
AcDbCircle
 10
404.2749968465727193
 20
1.6339692152507723
 30
0.0
 40
10.0
100
AcDbArc
 50
220.0243128370243824
 51
247.975687162999975
  0
ARC
  5
BB
100
AcDbEntity
  8
0
 62
0
370
-1
 48
1.0
  6
BYLAYER
100
AcDbCircle
 10
404.553231004878171
 20
96.4706136448927509
 30
0.0
 40
10.0
100
AcDbArc
 50
220.0243128370243824
 51
247.975687162999975
  0
ARC
  5
BC
100
AcDbEntity
  8
0
 62
0
370
-1
 48
1.0
  6
BYLAYER
100
AcDbCircle
 10
-31.5700153609000012
 20
-17.0922242587
 30
0.0
 40
4.0
100
AcDbArc
 50
108.0000000000086686
 51
208.4314202570000134
  0
ARC
  5
BD
100
AcDbEntity
  8
0
 62
0
370
-1
 48
1.0
  6
BYLAYER
100
AcDbCircle
 10
68.4299846390999988
 20
-17.0922242587
 30
0.0
 40
4.0
100
AcDbArc
 50
108.0000000000086686
 51
208.4314202570000134
  0
ARC
  5
BE
100
AcDbEntity
  8
0
 62
0
370
-1
 48
1.0
  6
BYLAYER
100
AcDbCircle
 10
-31.2917812025945778
 20
77.7444201709419787
 30
0.0
 40
4.0
100
AcDbArc
 50
108.0000000000086686
 51
208.4314202570000134
  0
ARC
  5
BF
100
AcDbEntity
  8
0
 62
0
370
-1
 48
1.0
  6
BYLAYER
100
AcDbCircle
 10
68.7082187974054222
 20
77.7444201709419787
 30
0.0
 40
4.0
100
AcDbArc
 50
108.0000000000086686
 51
208.4314202570000134
  0
ARC
  5
C0
100
AcDbEntity
  8
0
 62
0
370
-1
 48
1.0
  6
BYLAYER
100
AcDbCircle
 10
168.1515381816458046
 20
-17.6740385248480152
 30
0.0
 40
4.0
100
AcDbArc
 50
108.0000000000086686
 51
208.4314202570000134
  0
ARC
  5
C1
100
AcDbEntity
  8
0
 62
0
370
-1
 48
1.0
  6
BYLAYER
100
AcDbCircle
 10
268.151538181645833
 20
-17.6740385248480152
 30
0.0
 40
4.0
100
AcDbArc
 50
108.0000000000086686
 51
208.4314202570000134
  0
ARC
  5
C2
100
AcDbEntity
  8
0
 62
0
370
-1
 48
1.0
  6
BYLAYER
100
AcDbCircle
 10
168.4297723399512279
 20
77.1626059047939776
 30
0.0
 40
4.0
100
AcDbArc
 50
108.0000000000086686
 51
208.4314202570000134
  0
ARC
  5
C3
100
AcDbEntity
  8
0
 62
0
370
-1
 48
1.0
  6
BYLAYER
100
AcDbCircle
 10
268.4297723399512279
 20
77.1626059047939776
 30
0.0
 40
4.0
100
AcDbArc
 50
108.0000000000086686
 51
208.4314202570000134
  0
ARC
  5
C4
100
AcDbEntity
  8
0
 62
0
370
-1
 48
1.0
  6
BYLAYER
100
AcDbCircle
 10
372.7049814856727608
 20
-15.4582550434492418
 30
0.0
 40
4.0
100
AcDbArc
 50
108.0000000000086686
 51
208.4314202570000134
  0
ARC
  5
C5
100
AcDbEntity
  8
0
 62
0
370
-1
 48
1.0
  6
BYLAYER
100
AcDbCircle
 10
372.9832156439781556
 20
79.378389386192751
 30
0.0
 40
4.0
100
AcDbArc
 50
108.0000000000086686
 51
208.4314202570000134
  0
ARC
  5
C6
100
AcDbEntity
  8
0
 62
0
370
-1
 48
1.0
  6
BYLAYER
100
AcDbCircle
 10
-9.1892593712499995
 20
-7.7173513725799996
 30
0.0
 40
2.0
100
AcDbArc
 50
40.0243128369999894
 51
108.0
  0
ARC
  5
C7
100
AcDbEntity
  8
0
 62
0
370
-1
 48
1.0
  6
BYLAYER
100
AcDbCircle
 10
90.810740628749997
 20
-7.7173513725799996
 30
0.0
 40
2.0
100
AcDbArc
 50
40.0243128369999894
 51
108.0
  0
ARC
  5
C8
100
AcDbEntity
  8
0
 62
0
370
-1
 48
1.0
  6
BYLAYER
100
AcDbCircle
 10
-8.9110252129445797
 20
87.1192930570619808
 30
0.0
 40
2.0
100
AcDbArc
 50
40.0243128369999894
 51
108.0
  0
ARC
  5
C9
100
AcDbEntity
  8
0
 62
0
370
-1
 48
1.0
  6
BYLAYER
100
AcDbCircle
 10
91.0889747870554203
 20
87.1192930570619808
 30
0.0
 40
2.0
100
AcDbArc
 50
40.0243128369999894
 51
108.0
  0
ARC
  5
CA
100
AcDbEntity
  8
0
 62
0
370
-1
 48
1.0
  6
BYLAYER
100
AcDbCircle
 10
190.5322941712958027
 20
-8.2991656387279988
 30
0.0
 40
2.0
100
AcDbArc
 50
40.0243128369999894
 51
108.0
  0
ARC
  5
CB
100
AcDbEntity
  8
0
 62
0
370
-1
 48
1.0
  6
BYLAYER
100
AcDbCircle
 10
290.5322941712958027
 20
-8.2991656387279988
 30
0.0
 40
2.0
100
AcDbArc
 50
40.0243128369999894
 51
108.0
  0
ARC
  5
CC
100
AcDbEntity
  8
0
 62
0
370
-1
 48
1.0
  6
BYLAYER
100
AcDbCircle
 10
190.810528329601226
 20
86.5374787909139798
 30
0.0
 40
2.0
100
AcDbArc
 50
40.0243128369999894
 51
108.0
  0
ARC
  5
CD
100
AcDbEntity
  8
0
 62
0
370
-1
 48
1.0
  6
BYLAYER
100
AcDbCircle
 10
290.8105283296011976
 20
86.5374787909139798
 30
0.0
 40
2.0
100
AcDbArc
 50
40.0243128369999894
 51
108.0
  0
ARC
  5
CE
100
AcDbEntity
  8
0
 62
0
370
-1
 48
1.0
  6
BYLAYER
100
AcDbCircle
 10
395.0857374753227305
 20
-6.0833821573292255
 30
0.0
 40
2.0
100
AcDbArc
 50
40.0243128369999894
 51
108.0
  0
ARC
  5
CF
100
AcDbEntity
  8
0
 62
0
370
-1
 48
1.0
  6
BYLAYER
100
AcDbCircle
 10
395.3639716336281253
 20
88.7532622723127531
 30
0.0
 40
2.0
100
AcDbArc
 50
40.0243128369999894
 51
108.0
  0
LINE
  5
D0
100
AcDbEntity
  8
0
 62
0
370
-1
 48
1.0
  6
BYLAYER
100
AcDbLine
 10
-32.8060833384000006
 20
-13.2879981935
 30
0.0
 11
-9.8072933599999992
 21
-5.8152383399899996
 31
0.0
  0
LINE
  5
D1
100
AcDbEntity
  8
0
 62
0
370
-1
 48
1.0
  6
BYLAYER
100
AcDbLine
 10
67.1939166615999994
 20
-13.2879981935
 30
0.0
 11
90.1927066399999973
 21
-5.8152383399899996
 31
0.0
  0
LINE
  5
D2
100
AcDbEntity
  8
0
 62
0
370
-1
 48
1.0
  6
BYLAYER
100
AcDbLine
 10
-32.5278491800945773
 20
81.5486462361419768
 30
0.0
 11
-9.5290592016945794
 21
89.0214060896519754
 31
0.0
  0
LINE
  5
D3
100
AcDbEntity
  8
0
 62
0
370
-1
 48
1.0
  6
BYLAYER
100
AcDbLine
 10
67.4721508199054227
 20
81.5486462361419768
 30
0.0
 11
90.4709407983054206
 21
89.0214060896519754
 31
0.0
  0
LINE
  5
D4
100
AcDbEntity
  8
0
 62
0
370
-1
 48
1.0
  6
BYLAYER
100
AcDbLine
 10
166.9154702041458052
 20
-13.8698124596479886
 30
0.0
 11
189.914260182545803
 21
-6.3970526061380042
 31
0.0
  0
LINE
  5
D5
100
AcDbEntity
  8
0
 62
0
370
-1
 48
1.0
  6
BYLAYER
100
AcDbLine
 10
266.9154702041457767
 20
-13.8698124596479886
 30
0.0
 11
289.9142601825458314
 21
-6.3970526061380042
 31
0.0
  0
LINE
  5
D6
100
AcDbEntity
  8
0
 62
0
370
-1
 48
1.0
  6
BYLAYER
100
AcDbLine
 10
167.1937043624512285
 20
80.9668319699939758
 30
0.0
 11
190.1924943408512263
 21
88.4395918235039744
 31
0.0
  0
LINE
  5
D7
100
AcDbEntity
  8
0
 62
0
370
-1
 48
1.0
  6
BYLAYER
100
AcDbLine
 10
267.1937043624512285
 20
80.9668319699939758
 30
0.0
 11
290.1924943408512263
 21
88.4395918235039744
 31
0.0
  0
LINE
  5
D8
100
AcDbEntity
  8
0
 62
0
370
-1
 48
1.0
  6
BYLAYER
100
AcDbLine
 10
371.4689135081727045
 20
-11.6540289782492152
 30
0.0
 11
394.4677034865727592
 21
-4.1812691247392308
 31
0.0
  0
LINE
  5
D9
100
AcDbEntity
  8
0
 62
0
370
-1
 48
1.0
  6
BYLAYER
100
AcDbLine
 10
371.7471476664781562
 20
83.1826154513927492
 30
0.0
 11
394.7459376448781541
 21
90.6553753049027478
 31
0.0
  0
CIRCLE
  5
DA
100
AcDbEntity
  8
0
 62
0
370
-1
 48
1.0
  6
BYLAYER
100
AcDbCircle
 10
0.0
 20
0.0
 30
0.0
 40
44.8500000000000014
  0
CIRCLE
  5
DB
100
AcDbEntity
  8
0
 62
0
370
-1
 48
1.0
  6
BYLAYER
100
AcDbCircle
 10
100.0
 20
0.0
 30
0.0
 40
44.8500000000000014
  0
CIRCLE
  5
DC
100
AcDbEntity
  8
0
 62
0
370
-1
 48
1.0
  6
BYLAYER
100
AcDbCircle
 10
0.2782341583054233
 20
94.8366444296419786
 30
0.0
 40
44.8500000000000014
  0
CIRCLE
  5
DD
100
AcDbEntity
  8
0
 62
0
370
-1
 48
1.0
  6
BYLAYER
100
AcDbCircle
 10
100.2782341583054233
 20
94.8366444296419786
 30
0.0
 40
44.8500000000000014
  0
CIRCLE
  5
DE
100
AcDbEntity
  8
0
 62
0
370
-1
 48
1.0
  6
BYLAYER
100
AcDbCircle
 10
199.7215535425457915
 20
-0.581814266148001
 30
0.0
 40
44.8500000000000014
  0
CIRCLE
  5
DF
100
AcDbEntity
  8
0
 62
0
370
-1
 48
1.0
  6
BYLAYER
100
AcDbCircle
 10
299.7215535425457915
 20
-0.581814266148001
 30
0.0
 40
44.8500000000000014
  0
CIRCLE
  5
E0
100
AcDbEntity
  8
0
 62
0
370
-1
 48
1.0
  6
BYLAYER
100
AcDbCircle
 10
199.9997877008512432
 20
94.2548301634939776
 30
0.0
 40
44.8500000000000014
  0
CIRCLE
  5
E1
100
AcDbEntity
  8
0
 62
0
370
-1
 48
1.0
  6
BYLAYER
100
AcDbCircle
 10
299.9997877008512432
 20
94.2548301634939776
 30
0.0
 40
44.8500000000000014
  0
CIRCLE
  5
E2
100
AcDbEntity
  8
0
 62
0
370
-1
 48
1.0
  6
BYLAYER
100
AcDbCircle
 10
404.2749968465727193
 20
1.6339692152507723
 30
0.0
 40
44.8500000000000014
  0
CIRCLE
  5
E3
100
AcDbEntity
  8
0
 62
0
370
-1
 48
1.0
  6
BYLAYER
100
AcDbCircle
 10
404.553231004878171
 20
96.4706136448927509
 30
0.0
 40
44.8500000000000014
  0
LINE
  5
E4
100
AcDbEntity
  8
0
 62
0
370
-1
 48
1.0
  6
BYLAYER
100
AcDbLine
 10
-34.3511683102999967
 20
-8.5327156120400005
 30
0.0
 11
-11.3523783319000007
 21
-1.0599557585199999
 31
0.0
  0
LINE
  5
E5
100
AcDbEntity
  8
0
 62
0
370
-1
 48
1.0
  6
BYLAYER
100
AcDbLine
 10
65.6488316897000033
 20
-8.5327156120400005
 30
0.0
 11
88.6476216681000011
 21
-1.0599557585199999
 31
0.0
  0
LINE
  5
E6
100
AcDbEntity
  8
0
 62
0
370
-1
 48
1.0
  6
BYLAYER
100
AcDbLine
 10
-34.0729341519945734
 20
86.3039288176019852
 30
0.0
 11
-11.0741441735945756
 21
93.776688671121974
 31
0.0
  0
LINE
  5
E7
100
AcDbEntity
  8
0
 62
0
370
-1
 48
1.0
  6
BYLAYER
100
AcDbLine
 10
65.9270658480054266
 20
86.3039288176019852
 30
0.0
 11
88.9258558264054244
 21
93.776688671121974
 31
0.0
  0
LINE
  5
E8
100
AcDbEntity
  8
0
 62
0
370
-1
 48
1.0
  6
BYLAYER
100
AcDbLine
 10
165.370385232245809
 20
-9.1145298781879944
 30
0.0
 11
188.3691752106458068
 21
-1.6417700246680056
 31
0.0
  0
LINE
  5
E9
100
AcDbEntity
  8
0
 62
0
370
-1
 48
1.0
  6
BYLAYER
100
AcDbLine
 10
265.3703852322457806
 20
-9.1145298781879944
 30
0.0
 11
288.3691752106458353
 21
-1.6417700246680056
 31
0.0
  0
LINE
  5
EA
100
AcDbEntity
  8
0
 62
0
370
-1
 48
1.0
  6
BYLAYER
100
AcDbLine
 10
165.6486193905512323
 20
85.7221145514539842
 30
0.0
 11
188.6474093689512301
 21
93.194874404973973
 31
0.0
  0
LINE
  5
EB
100
AcDbEntity
  8
0
 62
0
370
-1
 48
1.0
  6
BYLAYER
100
AcDbLine
 10
265.6486193905512323
 20
85.7221145514539842
 30
0.0
 11
288.6474093689512301
 21
93.194874404973973
 31
0.0
  0
LINE
  5
EC
100
AcDbEntity
  8
0
 62
0
370
-1
 48
1.0
  6
BYLAYER
100
AcDbLine
 10
369.9238285362727083
 20
-6.8987463967892211
 30
0.0
 11
392.922618514672763
 21
0.5740134567307678
 31
0.0
  0
LINE
  5
ED
100
AcDbEntity
  8
0
 62
0
370
-1
 48
1.0
  6
BYLAYER
100
AcDbLine
 10
370.2020626945781601
 20
87.9378980328527575
 30
0.0
 11
393.2008526729781579
 21
95.4106578863727464
 31
0.0
  0
ARC
  5
EE
100
AcDbEntity
  8
0
 62
0
370
-1
 48
1.0
  6
BYLAYER
100
AcDbCircle
 10
-35.5872362878000033
 20
-4.7284895468599997
 30
0.0
 40
4.0
100
AcDbArc
 50
187.5685797432315951
 51
288.0
  0
ARC
  5
EF
100
AcDbEntity
  8
0
 62
0
370
-1
 48
1.0
  6
BYLAYER
100
AcDbCircle
 10
64.4127637121999896
 20
-4.7284895468599997
 30
0.0
 40
4.0
100
AcDbArc
 50
187.5685797432315951
 51
288.0
  0
ARC
  5
F0
100
AcDbEntity
  8
0
 62
0
370
-1
 48
1.0
  6
BYLAYER
100
AcDbCircle
 10
-35.3090021294945871
 20
90.1081548827819745
 30
0.0
 40
4.0
100
AcDbArc
 50
187.5685797432315951
 51
288.0
  0
ARC
  5
F1
100
AcDbEntity
  8
0
 62
0
370
-1
 48
1.0
  6
BYLAYER
100
AcDbCircle
 10
64.6909978705054129
 20
90.1081548827819745
 30
0.0
 40
4.0
100
AcDbArc
 50
187.5685797432315951
 51
288.0
  0
ARC
  5
F2
100
AcDbEntity
  8
0
 62
0
370
-1
 48
1.0
  6
BYLAYER
100
AcDbCircle
 10
164.1343172547458096
 20
-5.3103038130080051
 30
0.0
 40
4.0
100
AcDbArc
 50
187.5685797432315951
 51
288.0
  0
ARC
  5
F3
100
AcDbEntity
  8
0
 62
0
370
-1
 48
1.0
  6
BYLAYER
100
AcDbCircle
 10
264.1343172547457812
 20
-5.3103038130080051
 30
0.0
 40
4.0
100
AcDbArc
 50
187.5685797432315951
 51
288.0
  0
ARC
  5
F4
100
AcDbEntity
  8
0
 62
0
370
-1
 48
1.0
  6
BYLAYER
100
AcDbCircle
 10
164.4125514130512329
 20
89.5263406166339735
 30
0.0
 40
4.0
100
AcDbArc
 50
187.5685797432315951
 51
288.0
  0
ARC
  5
F5
100
AcDbEntity
  8
0
 62
0
370
-1
 48
1.0
  6
BYLAYER
100
AcDbCircle
 10
264.4125514130512329
 20
89.5263406166339735
 30
0.0
 40
4.0
100
AcDbArc
 50
187.5685797432315951
 51
288.0
  0
ARC
  5
F6
100
AcDbEntity
  8
0
 62
0
370
-1
 48
1.0
  6
BYLAYER
100
AcDbCircle
 10
368.6877605587727089
 20
-3.0945203316092318
 30
0.0
 40
4.0
100
AcDbArc
 50
187.5685797432315951
 51
288.0
  0
ARC
  5
F7
100
AcDbEntity
  8
0
 62
0
370
-1
 48
1.0
  6
BYLAYER
100
AcDbCircle
 10
368.9659947170781606
 20
91.7421240980327468
 30
0.0
 40
4.0
100
AcDbArc
 50
187.5685797432315951
 51
288.0
  0
ARC
  5
F8
100
AcDbEntity
  8
0
 62
0
370
-1
 48
1.0
  6
BYLAYER
100
AcDbCircle
 10
-11.9704123205999995
 20
0.842157274073
 30
0.0
 40
2.0
100
AcDbArc
 50
288.0000000000311502
 51
355.9756871629599573
  0
ARC
  5
F9
100
AcDbEntity
  8
0
 62
0
370
-1
 48
1.0
  6
BYLAYER
100
AcDbCircle
 10
88.0295876793999952
 20
0.842157274073
 30
0.0
 40
2.0
100
AcDbArc
 50
288.0000000000311502
 51
355.9756871629599573
  0
ARC
  5
FA
100
AcDbEntity
  8
0
 62
0
370
-1
 48
1.0
  6
BYLAYER
100
AcDbCircle
 10
-11.6921781622945744
 20
95.6788017037149814
 30
0.0
 40
2.0
100
AcDbArc
 50
288.0000000000311502
 51
355.9756871629599573
  0
ARC
  5
FB
100
AcDbEntity
  8
0
 62
0
370
-1
 48
1.0
  6
BYLAYER
100
AcDbCircle
 10
88.3078218377054185
 20
95.6788017037149814
 30
0.0
 40
2.0
100
AcDbArc
 50
288.0000000000311502
 51
355.9756871629599573
  0
ARC
  5
FC
100
AcDbEntity
  8
0
 62
0
370
-1
 48
1.0
  6
BYLAYER
100
AcDbCircle
 10
187.7511412219458009
 20
0.2603430079250018
 30
0.0
 40
2.0
100
AcDbArc
 50
288.0000000000311502
 51
355.9756871629599573
  0
ARC
  5
FD
100
AcDbEntity
  8
0
 62
0
370
-1
 48
1.0
  6
BYLAYER
100
AcDbCircle
 10
287.7511412219457725
 20
0.2603430079250018
 30
0.0
 40
2.0
100
AcDbArc
 50
288.0000000000311502
 51
355.9756871629599573
  0
ARC
  5
FE
100
AcDbEntity
  8
0
 62
0
370
-1
 48
1.0
  6
BYLAYER
100
AcDbCircle
 10
188.0293753802512242
 20
95.0969874375669804
 30
0.0
 40
2.0
100
AcDbArc
 50
288.0000000000311502
 51
355.9756871629599573
  0
ARC
  5
FF
100
AcDbEntity
  8
0
 62
0
370
-1
 48
1.0
  6
BYLAYER
100
AcDbCircle
 10
288.0293753802512242
 20
95.0969874375669804
 30
0.0
 40
2.0
100
AcDbArc
 50
288.0000000000311502
 51
355.9756871629599573
  0
ARC
  5
100
100
AcDbEntity
  8
0
 62
0
370
-1
 48
1.0
  6
BYLAYER
100
AcDbCircle
 10
392.3045845259727002
 20
2.4761264893237751
 30
0.0
 40
2.0
100
AcDbArc
 50
288.0000000000311502
 51
355.9756871629599573
  0
ARC
  5
101
100
AcDbEntity
  8
0
 62
0
370
-1
 48
1.0
  6
BYLAYER
100
AcDbCircle
 10
392.582818684278152
 20
97.3127709189657537
 30
0.0
 40
2.0
100
AcDbArc
 50
288.0000000000311502
 51
355.9756871629599573
  0
ARC
  5
102
100
AcDbEntity
  8
0
 62
0
370
-1
 48
1.0
  6
BYLAYER
100
AcDbCircle
 10
0.0
 20
0.0
 30
0.0
 40
39.8999999999999986
100
AcDbArc
 50
136.4314202570000134
 51
187.5685797432321067
  0
ARC
  5
103
100
AcDbEntity
  8
0
 62
0
370
-1
 48
1.0
  6
BYLAYER
100
AcDbCircle
 10
100.0
 20
0.0
 30
0.0
 40
39.8999999999999986
100
AcDbArc
 50
136.4314202570000134
 51
187.5685797432321067
  0
ARC
  5
104
100
AcDbEntity
  8
0
 62
0
370
-1
 48
1.0
  6
BYLAYER
100
AcDbCircle
 10
0.2782341583054233
 20
94.8366444296419786
 30
0.0
 40
39.8999999999999986
100
AcDbArc
 50
136.4314202570000134
 51
187.5685797432321067
  0
ARC
  5
105
100
AcDbEntity
  8
0
 62
0
370
-1
 48
1.0
  6
BYLAYER
100
AcDbCircle
 10
100.2782341583054233
 20
94.8366444296419786
 30
0.0
 40
39.8999999999999986
100
AcDbArc
 50
136.4314202570000134
 51
187.5685797432321067
  0
ARC
  5
106
100
AcDbEntity
  8
0
 62
0
370
-1
 48
1.0
  6
BYLAYER
100
AcDbCircle
 10
199.7215535425457915
 20
-0.581814266148001
 30
0.0
 40
39.8999999999999986
100
AcDbArc
 50
136.4314202570000134
 51
187.5685797432321067
  0
ARC
  5
107
100
AcDbEntity
  8
0
 62
0
370
-1
 48
1.0
  6
BYLAYER
100
AcDbCircle
 10
299.7215535425457915
 20
-0.581814266148001
 30
0.0
 40
39.8999999999999986
100
AcDbArc
 50
136.4314202570000134
 51
187.5685797432321067
  0
ARC
  5
108
100
AcDbEntity
  8
0
 62
0
370
-1
 48
1.0
  6
BYLAYER
100
AcDbCircle
 10
199.9997877008512432
 20
94.2548301634939776
 30
0.0
 40
39.8999999999999986
100
AcDbArc
 50
136.4314202570000134
 51
187.5685797432321067
  0
ARC
  5
109
100
AcDbEntity
  8
0
 62
0
370
-1
 48
1.0
  6
BYLAYER
100
AcDbCircle
 10
299.9997877008512432
 20
94.2548301634939776
 30
0.0
 40
39.8999999999999986
100
AcDbArc
 50
136.4314202570000134
 51
187.5685797432321067
  0
ARC
  5
10A
100
AcDbEntity
  8
0
 62
0
370
-1
 48
1.0
  6
BYLAYER
100
AcDbCircle
 10
404.2749968465727193
 20
1.6339692152507723
 30
0.0
 40
39.8999999999999986
100
AcDbArc
 50
136.4314202570000134
 51
187.5685797432321067
  0
ARC
  5
10B
100
AcDbEntity
  8
0
 62
0
370
-1
 48
1.0
  6
BYLAYER
100
AcDbCircle
 10
404.553231004878171
 20
96.4706136448927509
 30
0.0
 40
39.8999999999999986
100
AcDbArc
 50
136.4314202570000134
 51
187.5685797432321067
  0
ARC
  5
10C
100
AcDbEntity
  8
0
 62
0
370
-1
 48
1.0
  6
BYLAYER
100
AcDbCircle
 10
0.0
 20
0.0
 30
0.0
 40
10.0
100
AcDbArc
 50
148.0243128369999965
 51
175.9756871630000035
  0
ARC
  5
10D
100
AcDbEntity
  8
0
 62
0
370
-1
 48
1.0
  6
BYLAYER
100
AcDbCircle
 10
100.0
 20
0.0
 30
0.0
 40
10.0
100
AcDbArc
 50
148.0243128369999965
 51
175.9756871630000035
  0
ARC
  5
10E
100
AcDbEntity
  8
0
 62
0
370
-1
 48
1.0
  6
BYLAYER
100
AcDbCircle
 10
0.2782341583054233
 20
94.8366444296419786
 30
0.0
 40
10.0
100
AcDbArc
 50
148.0243128369999965
 51
175.9756871630000035
  0
ARC
  5
10F
100
AcDbEntity
  8
0
 62
0
370
-1
 48
1.0
  6
BYLAYER
100
AcDbCircle
 10
100.2782341583054233
 20
94.8366444296419786
 30
0.0
 40
10.0
100
AcDbArc
 50
148.0243128369999965
 51
175.9756871630000035
  0
ARC
  5
110
100
AcDbEntity
  8
0
 62
0
370
-1
 48
1.0
  6
BYLAYER
100
AcDbCircle
 10
199.7215535425457915
 20
-0.581814266148001
 30
0.0
 40
10.0
100
AcDbArc
 50
148.0243128369999965
 51
175.9756871630000035
  0
ARC
  5
111
100
AcDbEntity
  8
0
 62
0
370
-1
 48
1.0
  6
BYLAYER
100
AcDbCircle
 10
299.7215535425457915
 20
-0.581814266148001
 30
0.0
 40
10.0
100
AcDbArc
 50
148.0243128369999965
 51
175.9756871630000035
  0
ARC
  5
112
100
AcDbEntity
  8
0
 62
0
370
-1
 48
1.0
  6
BYLAYER
100
AcDbCircle
 10
199.9997877008512432
 20
94.2548301634939776
 30
0.0
 40
10.0
100
AcDbArc
 50
148.0243128369999965
 51
175.9756871630000035
  0
ARC
  5
113
100
AcDbEntity
  8
0
 62
0
370
-1
 48
1.0
  6
BYLAYER
100
AcDbCircle
 10
299.9997877008512432
 20
94.2548301634939776
 30
0.0
 40
10.0
100
AcDbArc
 50
148.0243128369999965
 51
175.9756871630000035
  0
ARC
  5
114
100
AcDbEntity
  8
0
 62
0
370
-1
 48
1.0
  6
BYLAYER
100
AcDbCircle
 10
404.2749968465727193
 20
1.6339692152507723
 30
0.0
 40
10.0
100
AcDbArc
 50
148.0243128369999965
 51
175.9756871630000035
  0
ARC
  5
115
100
AcDbEntity
  8
0
 62
0
370
-1
 48
1.0
  6
BYLAYER
100
AcDbCircle
 10
404.553231004878171
 20
96.4706136448927509
 30
0.0
 40
10.0
100
AcDbArc
 50
148.0243128369999965
 51
175.9756871630000035
  0
ARC
  5
116
100
AcDbEntity
  8
0
 62
0
370
-1
 48
1.0
  6
BYLAYER
100
AcDbCircle
 10
-26.0113425183999993
 20
24.7430810610000016
 30
0.0
 40
4.0
100
AcDbArc
 50
36.0
 51
136.4314202570000134
  0
ARC
  5
117
100
AcDbEntity
  8
0
 62
0
370
-1
 48
1.0
  6
BYLAYER
100
AcDbCircle
 10
73.9886574816000007
 20
24.7430810610000016
 30
0.0
 40
4.0
100
AcDbArc
 50
36.0
 51
136.4314202570000134
  0
ARC
  5
118
100
AcDbEntity
  8
0
 62
0
370
-1
 48
1.0
  6
BYLAYER
100
AcDbCircle
 10
-25.733108360094576
 20
119.5797254906419766
 30
0.0
 40
4.0
100
AcDbArc
 50
36.0
 51
136.4314202570000134
  0
ARC
  5
119
100
AcDbEntity
  8
0
 62
0
370
-1
 48
1.0
  6
BYLAYER
100
AcDbCircle
 10
74.266891639905424
 20
119.5797254906419766
 30
0.0
 40
4.0
100
AcDbArc
 50
36.0
 51
136.4314202570000134
  0
ARC
  5
11A
100
AcDbEntity
  8
0
 62
0
370
-1
 48
1.0
  6
BYLAYER
100
AcDbCircle
 10
173.7102110241457922
 20
24.161266794851997
 30
0.0
 40
4.0
100
AcDbArc
 50
36.0
 51
136.4314202570000134
  0
ARC
  5
11B
100
AcDbEntity
  8
0
 62
0
370
-1
 48
1.0
  6
BYLAYER
100
AcDbCircle
 10
273.7102110241457922
 20
24.161266794851997
 30
0.0
 40
4.0
100
AcDbArc
 50
36.0
 51
136.4314202570000134
  0
ARC
  5
11C
100
AcDbEntity
  8
0
 62
0
370
-1
 48
1.0
  6
BYLAYER
100
AcDbCircle
 10
173.9884451824512439
 20
118.9979112244939756
 30
0.0
 40
4.0
100
AcDbArc
 50
36.0
 51
136.4314202570000134
  0
ARC
  5
11D
100
AcDbEntity
  8
0
 62
0
370
-1
 48
1.0
  6
BYLAYER
100
AcDbCircle
 10
273.9884451824512439
 20
118.9979112244939756
 30
0.0
 40
4.0
100
AcDbArc
 50
36.0
 51
136.4314202570000134
  0
ARC
  5
11E
100
AcDbEntity
  8
0
 62
0
370
-1
 48
1.0
  6
BYLAYER
100
AcDbCircle
 10
378.2636543281727199
 20
26.3770502762507704
 30
0.0
 40
4.0
100
AcDbArc
 50
36.0
 51
136.4314202570000134
  0
ARC
  5
11F
100
AcDbEntity
  8
0
 62
0
370
-1
 48
1.0
  6
BYLAYER
100
AcDbCircle
 10
378.5418884864781717
 20
121.213694705892749
 30
0.0
 40
4.0
100
AcDbArc
 50
36.0
 51
136.4314202570000134
  0
ARC
  5
120
100
AcDbEntity
  8
0
 62
0
370
-1
 48
1.0
  6
BYLAYER
100
AcDbCircle
 10
-10.1792746228999995
 20
6.3547122792600002
 30
0.0
 40
2.0
100
AcDbArc
 50
328.0243128371221246
 51
36.0
  0
ARC
  5
121
100
AcDbEntity
  8
0
 62
0
370
-1
 48
1.0
  6
BYLAYER
100
AcDbCircle
 10
89.820725377100004
 20
6.3547122792600002
 30
0.0
 40
2.0
100
AcDbArc
 50
328.0243128371221246
 51
36.0
  0
ARC
  5
122
100
AcDbEntity
  8
0
 62
0
370
-1
 48
1.0
  6
BYLAYER
100
AcDbCircle
 10
-9.9010404645945727
 20
101.1913567089019779
 30
0.0
 40
2.0
100
AcDbArc
 50
328.0243128371221246
 51
36.0
  0
ARC
  5
123
100
AcDbEntity
  8
0
 62
0
370
-1
 48
1.0
  6
BYLAYER
100
AcDbCircle
 10
90.0989595354054273
 20
101.1913567089019779
 30
0.0
 40
2.0
100
AcDbArc
 50
328.0243128371221246
 51
36.0
  0
ARC
  5
124
100
AcDbEntity
  8
0
 62
0
370
-1
 48
1.0
  6
BYLAYER
100
AcDbCircle
 10
189.5422789196458098
 20
5.7728980131120124
 30
0.0
 40
2.0
100
AcDbArc
 50
328.0243128371221246
 51
36.0
  0
ARC
  5
125
100
AcDbEntity
  8
0
 62
0
370
-1
 48
1.0
  6
BYLAYER
100
AcDbCircle
 10
289.5422789196458098
 20
5.7728980131120124
 30
0.0
 40
2.0
100
AcDbArc
 50
328.0243128371221246
 51
36.0
  0
ARC
  5
126
100
AcDbEntity
  8
0
 62
0
370
-1
 48
1.0
  6
BYLAYER
100
AcDbCircle
 10
189.8205130779512331
 20
100.6095424427539768
 30
0.0
 40
2.0
100
AcDbArc
 50
328.0243128371221246
 51
36.0
  0
ARC
  5
127
100
AcDbEntity
  8
0
 62
0
370
-1
 48
1.0
  6
BYLAYER
100
AcDbCircle
 10
289.8205130779512047
 20
100.6095424427539768
 30
0.0
 40
2.0
100
AcDbArc
 50
328.0243128371221246
 51
36.0
  0
ARC
  5
128
100
AcDbEntity
  8
0
 62
0
370
-1
 48
1.0
  6
BYLAYER
100
AcDbCircle
 10
394.0957222236727375
 20
7.9886814945107858
 30
0.0
 40
2.0
100
AcDbArc
 50
328.0243128371221246
 51
36.0
  0
ARC
  5
129
100
AcDbEntity
  8
0
 62
0
370
-1
 48
1.0
  6
BYLAYER
100
AcDbCircle
 10
394.3739563819781324
 20
102.8253259241527502
 30
0.0
 40
2.0
100
AcDbArc
 50
328.0243128371221246
 51
36.0
  0
LINE
  5
12A
100
AcDbEntity
  8
0
 62
0
370
-1
 48
1.0
  6
BYLAYER
100
AcDbLine
 10
-22.7752745408999999
 20
27.0942220700999989
 30
0.0
 11
-8.5612406341200007
 21
7.5302827838499997
 31
0.0
  0
LINE
  5
12B
100
AcDbEntity
  8
0
 62
0
370
-1
 48
1.0
  6
BYLAYER
100
AcDbLine
 10
77.2247254591000001
 20
27.0942220700999989
 30
0.0
 11
91.4387593658800029
 21
7.5302827838499997
 31
0.0
  0
LINE
  5
12C
100
AcDbEntity
  8
0
 62
0
370
-1
 48
1.0
  6
BYLAYER
100
AcDbLine
 10
-22.4970403825945766
 20
121.9308664997419811
 30
0.0
 11
-8.2830064758145738
 21
102.3669272134919765
 31
0.0
  0
LINE
  5
12D
100
AcDbEntity
  8
0
 62
0
370
-1
 48
1.0
  6
BYLAYER
100
AcDbLine
 10
77.5029596174054234
 20
121.9308664997419811
 30
0.0
 11
91.7169935241854262
 21
102.3669272134919765
 31
0.0
  0
LINE
  5
12E
100
AcDbEntity
  8
0
 62
0
370
-1
 48
1.0
  6
BYLAYER
100
AcDbLine
 10
176.9462790016457916
 20
26.5124078039520015
 30
0.0
 11
191.1603129084257944
 21
6.9484685177019969
 31
0.0
  0
LINE
  5
12F
100
AcDbEntity
  8
0
 62
0
370
-1
 48
1.0
  6
BYLAYER
100
AcDbLine
 10
276.9462790016457916
 20
26.5124078039520015
 30
0.0
 11
291.1603129084257944
 21
6.9484685177019969
 31
0.0
  0
LINE
  5
130
100
AcDbEntity
  8
0
 62
0
370
-1
 48
1.0
  6
BYLAYER
100
AcDbLine
 10
177.2245131599512433
 20
121.3490522335939801
 30
0.0
 11
191.4385470667312461
 21
101.7851129473439755
 31
0.0
  0
LINE
  5
131
100
AcDbEntity
  8
0
 62
0
370
-1
 48
1.0
  6
BYLAYER
100
AcDbLine
 10
277.2245131599512433
 20
121.3490522335939801
 30
0.0
 11
291.4385470667312461
 21
101.7851129473439755
 31
0.0
  0
LINE
  5
132
100
AcDbEntity
  8
0
 62
0
370
-1
 48
1.0
  6
BYLAYER
100
AcDbLine
 10
381.4997223056727194
 20
28.7281912853507748
 30
0.0
 11
395.7137562124527221
 21
9.1642519991007703
 31
0.0
  0
LINE
  5
133
100
AcDbEntity
  8
0
 62
0
370
-1
 48
1.0
  6
BYLAYER
100
AcDbLine
 10
381.7779564639781711
 20
123.5648357149927534
 30
0.0
 11
395.9919903707581739
 21
104.0008964287427489
 31
0.0
  0
LINE
  5
134
100
AcDbEntity
  8
0
 62
0
370
-1
 48
1.0
  6
BYLAYER
100
AcDbLine
 10
32.8060833384000006
 20
-13.2879981935
 30
0.0
 11
9.8072933599999992
 21
-5.8152383399899996
 31
0.0
  0
LINE
  5
135
100
AcDbEntity
  8
0
 62
0
370
-1
 48
1.0
  6
BYLAYER
100
AcDbLine
 10
132.8060833384000148
 20
-13.2879981935
 30
0.0
 11
109.8072933600000027
 21
-5.8152383399899996
 31
0.0
  0
LINE
  5
136
100
AcDbEntity
  8
0
 62
0
370
-1
 48
1.0
  6
BYLAYER
100
AcDbLine
 10
33.0843174967054239
 20
81.5486462361419768
 30
0.0
 11
10.085527518305426
 21
89.0214060896519754
 31
0.0
  0
LINE
  5
137
100
AcDbEntity
  8
0
 62
0
370
-1
 48
1.0
  6
BYLAYER
100
AcDbLine
 10
133.0843174967054381
 20
81.5486462361419768
 30
0.0
 11
110.085527518305426
 21
89.0214060896519754
 31
0.0
  0
LINE
  5
138
100
AcDbEntity
  8
0
 62
0
370
-1
 48
1.0
  6
BYLAYER
100
AcDbLine
 10
232.5276368809458063
 20
-13.8698124596479886
 30
0.0
 11
209.5288469025458085
 21
-6.3970526061380042
 31
0.0
  0
LINE
  5
139
100
AcDbEntity
  8
0
 62
0
370
-1
 48
1.0
  6
BYLAYER
100
AcDbLine
 10
332.5276368809458063
 20
-13.8698124596479886
 30
0.0
 11
309.5288469025458085
 21
-6.3970526061380042
 31
0.0
  0
LINE
  5
13A
100
AcDbEntity
  8
0
 62
0
370
-1
 48
1.0
  6
BYLAYER
100
AcDbLine
 10
232.8058710392512296
 20
80.9668319699939758
 30
0.0
 11
209.8070810608512318
 21
88.4395918235039744
 31
0.0
  0
LINE
  5
13B
100
AcDbEntity
  8
0
 62
0
370
-1
 48
1.0
  6
BYLAYER
100
AcDbLine
 10
332.805871039251258
 20
80.9668319699939758
 30
0.0
 11
309.8070810608512602
 21
88.4395918235039744
 31
0.0
  0
LINE
  5
13C
100
AcDbEntity
  8
0
 62
0
370
-1
 48
1.0
  6
BYLAYER
100
AcDbLine
 10
437.0810801849727341
 20
-11.6540289782492152
 30
0.0
 11
414.0822902065727362
 21
-4.1812691247392308
 31
0.0
  0
LINE
  5
13D
100
AcDbEntity
  8
0
 62
0
370
-1
 48
1.0
  6
BYLAYER
100
AcDbLine
 10
437.3593143432781858
 20
83.1826154513927492
 30
0.0
 11
414.360524364878188
 21
90.6553753049027478
 31
0.0
  0
ARC
  5
13E
100
AcDbEntity
  8
0
 62
0
370
-1
 48
1.0
  6
BYLAYER
100
AcDbCircle
 10
31.5700153609000012
 20
-17.0922242587
 30
0.0
 40
4.0
100
AcDbArc
 50
331.5685797432000186
 51
71.9999999999913456
  0
ARC
  5
13F
100
AcDbEntity
  8
0
 62
0
370
-1
 48
1.0
  6
BYLAYER
100
AcDbCircle
 10
131.5700153609000154
 20
-17.0922242587
 30
0.0
 40
4.0
100
AcDbArc
 50
331.5685797432000186
 51
71.9999999999913456
  0
ARC
  5
140
100
AcDbEntity
  8
0
 62
0
370
-1
 48
1.0
  6
BYLAYER
100
AcDbCircle
 10
31.8482495192054245
 20
77.7444201709419787
 30
0.0
 40
4.0
100
AcDbArc
 50
331.5685797432000186
 51
71.9999999999913456
  0
ARC
  5
141
100
AcDbEntity
  8
0
 62
0
370
-1
 48
1.0
  6
BYLAYER
100
AcDbCircle
 10
131.8482495192054387
 20
77.7444201709419787
 30
0.0
 40
4.0
100
AcDbArc
 50
331.5685797432000186
 51
71.9999999999913456
  0
ARC
  5
142
100
AcDbEntity
  8
0
 62
0
370
-1
 48
1.0
  6
BYLAYER
100
AcDbCircle
 10
231.2915689034458069
 20
-17.6740385248480152
 30
0.0
 40
4.0
100
AcDbArc
 50
331.5685797432000186
 51
71.9999999999913456
  0
ARC
  5
143
100
AcDbEntity
  8
0
 62
0
370
-1
 48
1.0
  6
BYLAYER
100
AcDbCircle
 10
331.2915689034458069
 20
-17.6740385248480152
 30
0.0
 40
4.0
100
AcDbArc
 50
331.5685797432000186
 51
71.9999999999913456
  0
ARC
  5
144
100
AcDbEntity
  8
0
 62
0
370
-1
 48
1.0
  6
BYLAYER
100
AcDbCircle
 10
231.5698030617512302
 20
77.1626059047939776
 30
0.0
 40
4.0
100
AcDbArc
 50
331.5685797432000186
 51
71.9999999999913456
  0
ARC
  5
145
100
AcDbEntity
  8
0
 62
0
370
-1
 48
1.0
  6
BYLAYER
100
AcDbCircle
 10
331.5698030617512586
 20
77.1626059047939776
 30
0.0
 40
4.0
100
AcDbArc
 50
331.5685797432000186
 51
71.9999999999913456
  0
ARC
  5
146
100
AcDbEntity
  8
0
 62
0
370
-1
 48
1.0
  6
BYLAYER
100
AcDbCircle
 10
435.8450122074727346
 20
-15.4582550434492418
 30
0.0
 40
4.0
100
AcDbArc
 50
331.5685797432000186
 51
71.9999999999913456
  0
ARC
  5
147
100
AcDbEntity
  8
0
 62
0
370
-1
 48
1.0
  6
BYLAYER
100
AcDbCircle
 10
436.1232463657781864
 20
79.378389386192751
 30
0.0
 40
4.0
100
AcDbArc
 50
331.5685797432000186
 51
71.9999999999913456
  0
ARC
  5
148
100
AcDbEntity
  8
0
 62
0
370
-1
 48
1.0
  6
BYLAYER
100
AcDbCircle
 10
9.1892593712499995
 20
-7.7173513725799996
 30
0.0
 40
2.0
100
AcDbArc
 50
72.0
 51
139.9756871630000035
  0
ARC
  5
149
100
AcDbEntity
  8
0
 62
0
370
-1
 48
1.0
  6
BYLAYER
100
AcDbCircle
 10
109.189259371250003
 20
-7.7173513725799996
 30
0.0
 40
2.0
100
AcDbArc
 50
72.0
 51
139.9756871630000035
  0
ARC
  5
14A
100
AcDbEntity
  8
0
 62
0
370
-1
 48
1.0
  6
BYLAYER
100
AcDbCircle
 10
9.4674935295554263
 20
87.1192930570619808
 30
0.0
 40
2.0
100
AcDbArc
 50
72.0
 51
139.9756871630000035
  0
ARC
  5
14B
100
AcDbEntity
  8
0
 62
0
370
-1
 48
1.0
  6
BYLAYER
100
AcDbCircle
 10
109.4674935295554263
 20
87.1192930570619808
 30
0.0
 40
2.0
100
AcDbArc
 50
72.0
 51
139.9756871630000035
  0
ARC
  5
14C
100
AcDbEntity
  8
0
 62
0
370
-1
 48
1.0
  6
BYLAYER
100
AcDbCircle
 10
208.9108129137958088
 20
-8.2991656387279988
 30
0.0
 40
2.0
100
AcDbArc
 50
72.0
 51
139.9756871630000035
  0
ARC
  5
14D
100
AcDbEntity
  8
0
 62
0
370
-1
 48
1.0
  6
BYLAYER
100
AcDbCircle
 10
308.9108129137957803
 20
-8.2991656387279988
 30
0.0
 40
2.0
100
AcDbArc
 50
72.0
 51
139.9756871630000035
  0
ARC
  5
14E
100
AcDbEntity
  8
0
 62
0
370
-1
 48
1.0
  6
BYLAYER
100
AcDbCircle
 10
209.1890470721012321
 20
86.5374787909139798
 30
0.0
 40
2.0
100
AcDbArc
 50
72.0
 51
139.9756871630000035
  0
ARC
  5
14F
100
AcDbEntity
  8
0
 62
0
370
-1
 48
1.0
  6
BYLAYER
100
AcDbCircle
 10
309.1890470721012321
 20
86.5374787909139798
 30
0.0
 40
2.0
100
AcDbArc
 50
72.0
 51
139.9756871630000035
  0
ARC
  5
150
100
AcDbEntity
  8
0
 62
0
370
-1
 48
1.0
  6
BYLAYER
100
AcDbCircle
 10
413.4642562178227081
 20
-6.0833821573292255
 30
0.0
 40
2.0
100
AcDbArc
 50
72.0
 51
139.9756871630000035
  0
ARC
  5
151
100
AcDbEntity
  8
0
 62
0
370
-1
 48
1.0
  6
BYLAYER
100
AcDbCircle
 10
413.7424903761281598
 20
88.7532622723127531
 30
0.0
 40
2.0
100
AcDbArc
 50
72.0
 51
139.9756871630000035
  0
ARC
  5
152
100
AcDbEntity
  8
0
 62
0
370
-1
 48
1.0
  6
BYLAYER
100
AcDbCircle
 10
0.0
 20
0.0
 30
0.0
 40
39.8999999999999986
100
AcDbArc
 50
280.4314202567999814
 51
331.5685797431843298
  0
ARC
  5
153
100
AcDbEntity
  8
0
 62
0
370
-1
 48
1.0
  6
BYLAYER
100
AcDbCircle
 10
100.0
 20
0.0
 30
0.0
 40
39.8999999999999986
100
AcDbArc
 50
280.4314202567999814
 51
331.5685797431843298
  0
ARC
  5
154
100
AcDbEntity
  8
0
 62
0
370
-1
 48
1.0
  6
BYLAYER
100
AcDbCircle
 10
0.2782341583054233
 20
94.8366444296419786
 30
0.0
 40
39.8999999999999986
100
AcDbArc
 50
280.4314202567999814
 51
331.5685797431843298
  0
ARC
  5
155
100
AcDbEntity
  8
0
 62
0
370
-1
 48
1.0
  6
BYLAYER
100
AcDbCircle
 10
100.2782341583054233
 20
94.8366444296419786
 30
0.0
 40
39.8999999999999986
100
AcDbArc
 50
280.4314202567999814
 51
331.5685797431843298
  0
ARC
  5
156
100
AcDbEntity
  8
0
 62
0
370
-1
 48
1.0
  6
BYLAYER
100
AcDbCircle
 10
199.7215535425457915
 20
-0.581814266148001
 30
0.0
 40
39.8999999999999986
100
AcDbArc
 50
280.4314202567999814
 51
331.5685797431843298
  0
ARC
  5
157
100
AcDbEntity
  8
0
 62
0
370
-1
 48
1.0
  6
BYLAYER
100
AcDbCircle
 10
299.7215535425457915
 20
-0.581814266148001
 30
0.0
 40
39.8999999999999986
100
AcDbArc
 50
280.4314202567999814
 51
331.5685797431843298
  0
ARC
  5
158
100
AcDbEntity
  8
0
 62
0
370
-1
 48
1.0
  6
BYLAYER
100
AcDbCircle
 10
199.9997877008512432
 20
94.2548301634939776
 30
0.0
 40
39.8999999999999986
100
AcDbArc
 50
280.4314202567999814
 51
331.5685797431843298
  0
ARC
  5
159
100
AcDbEntity
  8
0
 62
0
370
-1
 48
1.0
  6
BYLAYER
100
AcDbCircle
 10
299.9997877008512432
 20
94.2548301634939776
 30
0.0
 40
39.8999999999999986
100
AcDbArc
 50
280.4314202567999814
 51
331.5685797431843298
  0
ARC
  5
15A
100
AcDbEntity
  8
0
 62
0
370
-1
 48
1.0
  6
BYLAYER
100
AcDbCircle
 10
404.2749968465727193
 20
1.6339692152507723
 30
0.0
 40
39.8999999999999986
100
AcDbArc
 50
280.4314202567999814
 51
331.5685797431843298
  0
ARC
  5
15B
100
AcDbEntity
  8
0
 62
0
370
-1
 48
1.0
  6
BYLAYER
100
AcDbCircle
 10
404.553231004878171
 20
96.4706136448927509
 30
0.0
 40
39.8999999999999986
100
AcDbArc
 50
280.4314202567999814
 51
331.5685797431843298
  0
ARC
  5
15C
100
AcDbEntity
  8
0
 62
0
370
-1
 48
1.0
  6
BYLAYER
100
AcDbCircle
 10
0.0
 20
0.0
 30
0.0
 40
10.0
100
AcDbArc
 50
292.0243128371200214
 51
319.9756871630000319
  0
ARC
  5
15D
100
AcDbEntity
  8
0
 62
0
370
-1
 48
1.0
  6
BYLAYER
100
AcDbCircle
 10
100.0
 20
0.0
 30
0.0
 40
10.0
100
AcDbArc
 50
292.0243128371200214
 51
319.9756871630000319
  0
ARC
  5
15E
100
AcDbEntity
  8
0
 62
0
370
-1
 48
1.0
  6
BYLAYER
100
AcDbCircle
 10
0.2782341583054233
 20
94.8366444296419786
 30
0.0
 40
10.0
100
AcDbArc
 50
292.0243128371200214
 51
319.9756871630000319
  0
ARC
  5
15F
100
AcDbEntity
  8
0
 62
0
370
-1
 48
1.0
  6
BYLAYER
100
AcDbCircle
 10
100.2782341583054233
 20
94.8366444296419786
 30
0.0
 40
10.0
100
AcDbArc
 50
292.0243128371200214
 51
319.9756871630000319
  0
ARC
  5
160
100
AcDbEntity
  8
0
 62
0
370
-1
 48
1.0
  6
BYLAYER
100
AcDbCircle
 10
199.7215535425457915
 20
-0.581814266148001
 30
0.0
 40
10.0
100
AcDbArc
 50
292.0243128371200214
 51
319.9756871630000319
  0
ARC
  5
161
100
AcDbEntity
  8
0
 62
0
370
-1
 48
1.0
  6
BYLAYER
100
AcDbCircle
 10
299.7215535425457915
 20
-0.581814266148001
 30
0.0
 40
10.0
100
AcDbArc
 50
292.0243128371200214
 51
319.9756871630000319
  0
ARC
  5
162
100
AcDbEntity
  8
0
 62
0
370
-1
 48
1.0
  6
BYLAYER
100
AcDbCircle
 10
199.9997877008512432
 20
94.2548301634939776
 30
0.0
 40
10.0
100
AcDbArc
 50
292.0243128371200214
 51
319.9756871630000319
  0
ARC
  5
163
100
AcDbEntity
  8
0
 62
0
370
-1
 48
1.0
  6
BYLAYER
100
AcDbCircle
 10
299.9997877008512432
 20
94.2548301634939776
 30
0.0
 40
10.0
100
AcDbArc
 50
292.0243128371200214
 51
319.9756871630000319
  0
ARC
  5
164
100
AcDbEntity
  8
0
 62
0
370
-1
 48
1.0
  6
BYLAYER
100
AcDbCircle
 10
404.2749968465727193
 20
1.6339692152507723
 30
0.0
 40
10.0
100
AcDbArc
 50
292.0243128371200214
 51
319.9756871630000319
  0
ARC
  5
165
100
AcDbEntity
  8
0
 62
0
370
-1
 48
1.0
  6
BYLAYER
100
AcDbCircle
 10
404.553231004878171
 20
96.4706136448927509
 30
0.0
 40
10.0
100
AcDbArc
 50
292.0243128371200214
 51
319.9756871630000319
  0
ARC
  5
166
100
AcDbEntity
  8
0
 62
0
370
-1
 48
1.0
  6
BYLAYER
100
AcDbCircle
 10
6.5
 20
-35.3066565961999999
 30
0.0
 40
4.0
100
AcDbArc
 50
180.0
 51
280.4314202567999814
  0
ARC
  5
167
100
AcDbEntity
  8
0
 62
0
370
-1
 48
1.0
  6
BYLAYER
100
AcDbCircle
 10
106.5
 20
-35.3066565961999999
 30
0.0
 40
4.0
100
AcDbArc
 50
180.0
 51
280.4314202567999814
  0
ARC
  5
168
100
AcDbEntity
  8
0
 62
0
370
-1
 48
1.0
  6
BYLAYER
100
AcDbCircle
 10
6.7782341583054233
 20
59.5299878334419788
 30
0.0
 40
4.0
100
AcDbArc
 50
180.0
 51
280.4314202567999814
  0
ARC
  5
169
100
AcDbEntity
  8
0
 62
0
370
-1
 48
1.0
  6
BYLAYER
100
AcDbCircle
 10
106.7782341583054233
 20
59.5299878334419788
 30
0.0
 40
4.0
100
AcDbArc
 50
180.0
 51
280.4314202567999814
  0
ARC
  5
16A
100
AcDbEntity
  8
0
 62
0
370
-1
 48
1.0
  6
BYLAYER
100
AcDbCircle
 10
206.2215535425457915
 20
-35.8884708623480151
 30
0.0
 40
4.0
100
AcDbArc
 50
180.0
 51
280.4314202567999814
  0
ARC
  5
16B
100
AcDbEntity
  8
0
 62
0
370
-1
 48
1.0
  6
BYLAYER
100
AcDbCircle
 10
306.2215535425457915
 20
-35.8884708623480151
 30
0.0
 40
4.0
100
AcDbArc
 50
180.0
 51
280.4314202567999814
  0
ARC
  5
16C
100
AcDbEntity
  8
0
 62
0
370
-1
 48
1.0
  6
BYLAYER
100
AcDbCircle
 10
206.4997877008512432
 20
58.9481735672939777
 30
0.0
 40
4.0
100
AcDbArc
 50
180.0
 51
280.4314202567999814
  0
ARC
  5
16D
100
AcDbEntity
  8
0
 62
0
370
-1
 48
1.0
  6
BYLAYER
100
AcDbCircle
 10
306.4997877008512432
 20
58.9481735672939777
 30
0.0
 40
4.0
100
AcDbArc
 50
180.0
 51
280.4314202567999814
  0
ARC
  5
16E
100
AcDbEntity
  8
0
 62
0
370
-1
 48
1.0
  6
BYLAYER
100
AcDbCircle
 10
410.7749968465727193
 20
-33.6726873809492417
 30
0.0
 40
4.0
100
AcDbArc
 50
180.0
 51
280.4314202567999814
  0
ARC
  5
16F
100
AcDbEntity
  8
0
 62
0
370
-1
 48
1.0
  6
BYLAYER
100
AcDbCircle
 10
411.053231004878171
 20
61.1639570486927511
 30
0.0
 40
4.0
100
AcDbArc
 50
180.0
 51
280.4314202567999814
  0
ARC
  5
170
100
AcDbEntity
  8
0
 62
0
370
-1
 48
1.0
  6
BYLAYER
100
AcDbCircle
 10
4.5
 20
-11.1242977306000004
 30
0.0
 40
2.0
100
AcDbArc
 50
112.0243128370000107
 51
180.0
  0
ARC
  5
171
100
AcDbEntity
  8
0
 62
0
370
-1
 48
1.0
  6
BYLAYER
100
AcDbCircle
 10
104.5
 20
-11.1242977306000004
 30
0.0
 40
2.0
100
AcDbArc
 50
112.0243128370000107
 51
180.0
  0
ARC
  5
172
100
AcDbEntity
  8
0
 62
0
370
-1
 48
1.0
  6
BYLAYER
100
AcDbCircle
 10
4.7782341583054233
 20
83.7123466990419729
 30
0.0
 40
2.0
100
AcDbArc
 50
112.0243128370000107
 51
180.0
  0
ARC
  5
173
100
AcDbEntity
  8
0
 62
0
370
-1
 48
1.0
  6
BYLAYER
100
AcDbCircle
 10
104.7782341583054233
 20
83.7123466990419729
 30
0.0
 40
2.0
100
AcDbArc
 50
112.0243128370000107
 51
180.0
  0
ARC
  5
174
100
AcDbEntity
  8
0
 62
0
370
-1
 48
1.0
  6
BYLAYER
100
AcDbCircle
 10
204.2215535425457915
 20
-11.7061119967480067
 30
0.0
 40
2.0
100
AcDbArc
 50
112.0243128370000107
 51
180.0
  0
ARC
  5
175
100
AcDbEntity
  8
0
 62
0
370
-1
 48
1.0
  6
BYLAYER
100
AcDbCircle
 10
304.2215535425457915
 20
-11.7061119967480067
 30
0.0
 40
2.0
100
AcDbArc
 50
112.0243128370000107
 51
180.0
  0
ARC
  5
176
100
AcDbEntity
  8
0
 62
0
370
-1
 48
1.0
  6
BYLAYER
100
AcDbCircle
 10
204.4997877008512432
 20
83.1305324328939719
 30
0.0
 40
2.0
100
AcDbArc
 50
112.0243128370000107
 51
180.0
  0
ARC
  5
177
100
AcDbEntity
  8
0
 62
0
370
-1
 48
1.0
  6
BYLAYER
100
AcDbCircle
 10
304.4997877008512432
 20
83.1305324328939719
 30
0.0
 40
2.0
100
AcDbArc
 50
112.0243128370000107
 51
180.0
  0
ARC
  5
178
100
AcDbEntity
  8
0
 62
0
370
-1
 48
1.0
  6
BYLAYER
100
AcDbCircle
 10
408.7749968465727193
 20
-9.4903285153492334
 30
0.0
 40
2.0
100
AcDbArc
 50
112.0243128370000107
 51
180.0
  0
ARC
  5
179
100
AcDbEntity
  8
0
 62
0
370
-1
 48
1.0
  6
BYLAYER
100
AcDbCircle
 10
409.053231004878171
 20
85.3463159142927452
 30
0.0
 40
2.0
100
AcDbArc
 50
112.0243128370000107
 51
180.0
  0
LINE
  5
17A
100
AcDbEntity
  8
0
 62
0
370
-1
 48
1.0
  6
BYLAYER
100
AcDbLine
 10
2.5
 20
-35.3066565961999999
 30
0.0
 11
2.5
 21
-11.1242977306000004
 31
0.0
  0
LINE
  5
17B
100
AcDbEntity
  8
0
 62
0
370
-1
 48
1.0
  6
BYLAYER
100
AcDbLine
 10
102.5
 20
-35.3066565961999999
 30
0.0
 11
102.5
 21
-11.1242977306000004
 31
0.0
  0
LINE
  5
17C
100
AcDbEntity
  8
0
 62
0
370
-1
 48
1.0
  6
BYLAYER
100
AcDbLine
 10
2.7782341583054233
 20
59.5299878334419788
 30
0.0
 11
2.7782341583054233
 21
83.7123466990419729
 31
0.0
  0
LINE
  5
17D
100
AcDbEntity
  8
0
 62
0
370
-1
 48
1.0
  6
BYLAYER
100
AcDbLine
 10
102.7782341583054233
 20
59.5299878334419788
 30
0.0
 11
102.7782341583054233
 21
83.7123466990419729
 31
0.0
  0
LINE
  5
17E
100
AcDbEntity
  8
0
 62
0
370
-1
 48
1.0
  6
BYLAYER
100
AcDbLine
 10
202.2215535425457915
 20
-35.8884708623480151
 30
0.0
 11
202.2215535425457915
 21
-11.7061119967480067
 31
0.0
  0
LINE
  5
17F
100
AcDbEntity
  8
0
 62
0
370
-1
 48
1.0
  6
BYLAYER
100
AcDbLine
 10
302.2215535425457915
 20
-35.8884708623480151
 30
0.0
 11
302.2215535425457915
 21
-11.7061119967480067
 31
0.0
  0
LINE
  5
180
100
AcDbEntity
  8
0
 62
0
370
-1
 48
1.0
  6
BYLAYER
100
AcDbLine
 10
202.4997877008512432
 20
58.9481735672939777
 30
0.0
 11
202.4997877008512432
 21
83.1305324328939719
 31
0.0
  0
LINE
  5
181
100
AcDbEntity
  8
0
 62
0
370
-1
 48
1.0
  6
BYLAYER
100
AcDbLine
 10
302.4997877008512432
 20
58.9481735672939777
 30
0.0
 11
302.4997877008512432
 21
83.1305324328939719
 31
0.0
  0
LINE
  5
182
100
AcDbEntity
  8
0
 62
0
370
-1
 48
1.0
  6
BYLAYER
100
AcDbLine
 10
406.7749968465727193
 20
-33.6726873809492417
 30
0.0
 11
406.7749968465727193
 21
-9.4903285153492334
 31
0.0
  0
LINE
  5
183
100
AcDbEntity
  8
0
 62
0
370
-1
 48
1.0
  6
BYLAYER
100
AcDbLine
 10
407.053231004878171
 20
61.1639570486927511
 30
0.0
 11
407.053231004878171
 21
85.3463159142927452
 31
0.0
  0
LINE
  5
184
100
AcDbEntity
  8
0
 62
0
370
-1
 48
1.0
  6
BYLAYER
100
AcDbLine
 10
22.7752745408999999
 20
27.0942220700999989
 30
0.0
 11
8.5612406341200007
 21
7.5302827838499997
 31
0.0
  0
LINE
  5
185
100
AcDbEntity
  8
0
 62
0
370
-1
 48
1.0
  6
BYLAYER
100
AcDbLine
 10
122.7752745408999999
 20
27.0942220700999989
 30
0.0
 11
108.5612406341199971
 21
7.5302827838499997
 31
0.0
  0
LINE
  5
186
100
AcDbEntity
  8
0
 62
0
370
-1
 48
1.0
  6
BYLAYER
100
AcDbLine
 10
23.0535086992054232
 20
121.9308664997419811
 30
0.0
 11
8.8394747924254204
 21
102.3669272134919765
 31
0.0
  0
LINE
  5
187
100
AcDbEntity
  8
0
 62
0
370
-1
 48
1.0
  6
BYLAYER
100
AcDbLine
 10
123.0535086992054232
 20
121.9308664997419811
 30
0.0
 11
108.8394747924254204
 21
102.3669272134919765
 31
0.0
  0
LINE
  5
188
100
AcDbEntity
  8
0
 62
0
370
-1
 48
1.0
  6
BYLAYER
100
AcDbLine
 10
222.4968280834457914
 20
26.5124078039520015
 30
0.0
 11
208.2827941766657887
 21
6.9484685177019969
 31
0.0
  0
LINE
  5
189
100
AcDbEntity
  8
0
 62
0
370
-1
 48
1.0
  6
BYLAYER
100
AcDbLine
 10
322.4968280834457914
 20
26.5124078039520015
 30
0.0
 11
308.2827941766657887
 21
6.9484685177019969
 31
0.0
  0
LINE
  5
18A
100
AcDbEntity
  8
0
 62
0
370
-1
 48
1.0
  6
BYLAYER
100
AcDbLine
 10
222.7750622417512432
 20
121.3490522335939801
 30
0.0
 11
208.5610283349712404
 21
101.7851129473439755
 31
0.0
  0
LINE
  5
18B
100
AcDbEntity
  8
0
 62
0
370
-1
 48
1.0
  6
BYLAYER
100
AcDbLine
 10
322.7750622417512432
 20
121.3490522335939801
 30
0.0
 11
308.5610283349712404
 21
101.7851129473439755
 31
0.0
  0
LINE
  5
18C
100
AcDbEntity
  8
0
 62
0
370
-1
 48
1.0
  6
BYLAYER
100
AcDbLine
 10
427.0502713874727192
 20
28.7281912853507748
 30
0.0
 11
412.8362374806927164
 21
9.1642519991007703
 31
0.0
  0
LINE
  5
18D
100
AcDbEntity
  8
0
 62
0
370
-1
 48
1.0
  6
BYLAYER
100
AcDbLine
 10
427.3285055457781709
 20
123.5648357149927534
 30
0.0
 11
413.1144716389981681
 21
104.0008964287427489
 31
0.0
  0
ARC
  5
18E
100
AcDbEntity
  8
0
 62
0
370
-1
 48
1.0
  6
BYLAYER
100
AcDbCircle
 10
26.0113425183999993
 20
24.7430810610000016
 30
0.0
 40
4.0
100
AcDbArc
 50
43.5685797432000044
 51
144.0
  0
ARC
  5
18F
100
AcDbEntity
  8
0
 62
0
370
-1
 48
1.0
  6
BYLAYER
100
AcDbCircle
 10
126.0113425183999993
 20
24.7430810610000016
 30
0.0
 40
4.0
100
AcDbArc
 50
43.5685797432000044
 51
144.0
  0
ARC
  5
190
100
AcDbEntity
  8
0
 62
0
370
-1
 48
1.0
  6
BYLAYER
100
AcDbCircle
 10
26.2895766767054226
 20
119.5797254906419766
 30
0.0
 40
4.0
100
AcDbArc
 50
43.5685797432000044
 51
144.0
  0
ARC
  5
191
100
AcDbEntity
  8
0
 62
0
370
-1
 48
1.0
  6
BYLAYER
100
AcDbCircle
 10
126.2895766767054226
 20
119.5797254906419766
 30
0.0
 40
4.0
100
AcDbArc
 50
43.5685797432000044
 51
144.0
  0
ARC
  5
192
100
AcDbEntity
  8
0
 62
0
370
-1
 48
1.0
  6
BYLAYER
100
AcDbCircle
 10
225.7328960609457909
 20
24.161266794851997
 30
0.0
 40
4.0
100
AcDbArc
 50
43.5685797432000044
 51
144.0
  0
ARC
  5
193
100
AcDbEntity
  8
0
 62
0
370
-1
 48
1.0
  6
BYLAYER
100
AcDbCircle
 10
325.7328960609457909
 20
24.161266794851997
 30
0.0
 40
4.0
100
AcDbArc
 50
43.5685797432000044
 51
144.0
  0
ARC
  5
194
100
AcDbEntity
  8
0
 62
0
370
-1
 48
1.0
  6
BYLAYER
100
AcDbCircle
 10
226.0111302192512426
 20
118.9979112244939756
 30
0.0
 40
4.0
100
AcDbArc
 50
43.5685797432000044
 51
144.0
  0
ARC
  5
195
100
AcDbEntity
  8
0
 62
0
370
-1
 48
1.0
  6
BYLAYER
100
AcDbCircle
 10
326.0111302192512426
 20
118.9979112244939756
 30
0.0
 40
4.0
100
AcDbArc
 50
43.5685797432000044
 51
144.0
  0
ARC
  5
196
100
AcDbEntity
  8
0
 62
0
370
-1
 48
1.0
  6
BYLAYER
100
AcDbCircle
 10
430.2863393649727186
 20
26.3770502762507704
 30
0.0
 40
4.0
100
AcDbArc
 50
43.5685797432000044
 51
144.0
  0
ARC
  5
197
100
AcDbEntity
  8
0
 62
0
370
-1
 48
1.0
  6
BYLAYER
100
AcDbCircle
 10
430.5645735232781703
 20
121.213694705892749
 30
0.0
 40
4.0
100
AcDbArc
 50
43.5685797432000044
 51
144.0
  0
ARC
  5
198
100
AcDbEntity
  8
0
 62
0
370
-1
 48
1.0
  6
BYLAYER
100
AcDbCircle
 10
10.1792746228999995
 20
6.3547122792600002
 30
0.0
 40
2.0
100
AcDbArc
 50
144.0
 51
211.9756871628777901
  0
ARC
  5
199
100
AcDbEntity
  8
0
 62
0
370
-1
 48
1.0
  6
BYLAYER
100
AcDbCircle
 10
110.179274622899996
 20
6.3547122792600002
 30
0.0
 40
2.0
100
AcDbArc
 50
144.0
 51
211.9756871628777901
  0
ARC
  5
19A
100
AcDbEntity
  8
0
 62
0
370
-1
 48
1.0
  6
BYLAYER
100
AcDbCircle
 10
10.4575087812054193
 20
101.1913567089019779
 30
0.0
 40
2.0
100
AcDbArc
 50
144.0
 51
211.9756871628777901
  0
ARC
  5
19B
100
AcDbEntity
  8
0
 62
0
370
-1
 48
1.0
  6
BYLAYER
100
AcDbCircle
 10
110.4575087812054193
 20
101.1913567089019779
 30
0.0
 40
2.0
100
AcDbArc
 50
144.0
 51
211.9756871628777901
  0
ARC
  5
19C
100
AcDbEntity
  8
0
 62
0
370
-1
 48
1.0
  6
BYLAYER
100
AcDbCircle
 10
209.9008281654458017
 20
5.7728980131120124
 30
0.0
 40
2.0
100
AcDbArc
 50
144.0
 51
211.9756871628777901
  0
ARC
  5
19D
100
AcDbEntity
  8
0
 62
0
370
-1
 48
1.0
  6
BYLAYER
100
AcDbCircle
 10
309.9008281654457733
 20
5.7728980131120124
 30
0.0
 40
2.0
100
AcDbArc
 50
144.0
 51
211.9756871628777901
  0
ARC
  5
19E
100
AcDbEntity
  8
0
 62
0
370
-1
 48
1.0
  6
BYLAYER
100
AcDbCircle
 10
210.179062323751225
 20
100.6095424427539768
 30
0.0
 40
2.0
100
AcDbArc
 50
144.0
 51
211.9756871628777901
  0
ARC
  5
19F
100
AcDbEntity
  8
0
 62
0
370
-1
 48
1.0
  6
BYLAYER
100
AcDbCircle
 10
310.179062323751225
 20
100.6095424427539768
 30
0.0
 40
2.0
100
AcDbArc
 50
144.0
 51
211.9756871628777901
  0
ARC
  5
1A0
100
AcDbEntity
  8
0
 62
0
370
-1
 48
1.0
  6
BYLAYER
100
AcDbCircle
 10
414.454271469472701
 20
7.9886814945107858
 30
0.0
 40
2.0
100
AcDbArc
 50
144.0
 51
211.9756871628777901
  0
ARC
  5
1A1
100
AcDbEntity
  8
0
 62
0
370
-1
 48
1.0
  6
BYLAYER
100
AcDbCircle
 10
414.7325056277781528
 20
102.8253259241527502
 30
0.0
 40
2.0
100
AcDbArc
 50
144.0
 51
211.9756871628777901
  0
ARC
  5
1A2
100
AcDbEntity
  8
0
 62
0
370
-1
 48
1.0
  6
BYLAYER
100
AcDbCircle
 10
0.0
 20
0.0
 30
0.0
 40
39.8999999999999986
100
AcDbArc
 50
352.4314202567699681
 51
43.5685797432935402
  0
ARC
  5
1A3
100
AcDbEntity
  8
0
 62
0
370
-1
 48
1.0
  6
BYLAYER
100
AcDbCircle
 10
100.0
 20
0.0
 30
0.0
 40
39.8999999999999986
100
AcDbArc
 50
352.4314202567699681
 51
43.5685797432935402
  0
ARC
  5
1A4
100
AcDbEntity
  8
0
 62
0
370
-1
 48
1.0
  6
BYLAYER
100
AcDbCircle
 10
0.2782341583054233
 20
94.8366444296419786
 30
0.0
 40
39.8999999999999986
100
AcDbArc
 50
352.4314202567699681
 51
43.5685797432935402
  0
ARC
  5
1A5
100
AcDbEntity
  8
0
 62
0
370
-1
 48
1.0
  6
BYLAYER
100
AcDbCircle
 10
100.2782341583054233
 20
94.8366444296419786
 30
0.0
 40
39.8999999999999986
100
AcDbArc
 50
352.4314202567699681
 51
43.5685797432935402
  0
ARC
  5
1A6
100
AcDbEntity
  8
0
 62
0
370
-1
 48
1.0
  6
BYLAYER
100
AcDbCircle
 10
199.7215535425457915
 20
-0.581814266148001
 30
0.0
 40
39.8999999999999986
100
AcDbArc
 50
352.4314202567699681
 51
43.5685797432935402
  0
ARC
  5
1A7
100
AcDbEntity
  8
0
 62
0
370
-1
 48
1.0
  6
BYLAYER
100
AcDbCircle
 10
299.7215535425457915
 20
-0.581814266148001
 30
0.0
 40
39.8999999999999986
100
AcDbArc
 50
352.4314202567699681
 51
43.5685797432935402
  0
ARC
  5
1A8
100
AcDbEntity
  8
0
 62
0
370
-1
 48
1.0
  6
BYLAYER
100
AcDbCircle
 10
199.9997877008512432
 20
94.2548301634939776
 30
0.0
 40
39.8999999999999986
100
AcDbArc
 50
352.4314202567699681
 51
43.5685797432935402
  0
ARC
  5
1A9
100
AcDbEntity
  8
0
 62
0
370
-1
 48
1.0
  6
BYLAYER
100
AcDbCircle
 10
299.9997877008512432
 20
94.2548301634939776
 30
0.0
 40
39.8999999999999986
100
AcDbArc
 50
352.4314202567699681
 51
43.5685797432935402
  0
ARC
  5
1AA
100
AcDbEntity
  8
0
 62
0
370
-1
 48
1.0
  6
BYLAYER
100
AcDbCircle
 10
404.2749968465727193
 20
1.6339692152507723
 30
0.0
 40
39.8999999999999986
100
AcDbArc
 50
352.4314202567699681
 51
43.5685797432935402
  0
ARC
  5
1AB
100
AcDbEntity
  8
0
 62
0
370
-1
 48
1.0
  6
BYLAYER
100
AcDbCircle
 10
404.553231004878171
 20
96.4706136448927509
 30
0.0
 40
39.8999999999999986
100
AcDbArc
 50
352.4314202567699681
 51
43.5685797432935402
  0
ARC
  5
1AC
100
AcDbEntity
  8
0
 62
0
370
-1
 48
1.0
  6
BYLAYER
100
AcDbCircle
 10
0.0
 20
0.0
 30
0.0
 40
10.0
100
AcDbArc
 50
4.0243128370400001
 51
31.9756871629999999
  0
ARC
  5
1AD
100
AcDbEntity
  8
0
 62
0
370
-1
 48
1.0
  6
BYLAYER
100
AcDbCircle
 10
100.0
 20
0.0
 30
0.0
 40
10.0
100
AcDbArc
 50
4.0243128370400001
 51
31.9756871629999999
  0
ARC
  5
1AE
100
AcDbEntity
  8
0
 62
0
370
-1
 48
1.0
  6
BYLAYER
100
AcDbCircle
 10
0.2782341583054233
 20
94.8366444296419786
 30
0.0
 40
10.0
100
AcDbArc
 50
4.0243128370400001
 51
31.9756871629999999
  0
ARC
  5
1AF
100
AcDbEntity
  8
0
 62
0
370
-1
 48
1.0
  6
BYLAYER
100
AcDbCircle
 10
100.2782341583054233
 20
94.8366444296419786
 30
0.0
 40
10.0
100
AcDbArc
 50
4.0243128370400001
 51
31.9756871629999999
  0
ARC
  5
1B0
100
AcDbEntity
  8
0
 62
0
370
-1
 48
1.0
  6
BYLAYER
100
AcDbCircle
 10
199.7215535425457915
 20
-0.581814266148001
 30
0.0
 40
10.0
100
AcDbArc
 50
4.0243128370400001
 51
31.9756871629999999
  0
ARC
  5
1B1
100
AcDbEntity
  8
0
 62
0
370
-1
 48
1.0
  6
BYLAYER
100
AcDbCircle
 10
299.7215535425457915
 20
-0.581814266148001
 30
0.0
 40
10.0
100
AcDbArc
 50
4.0243128370400001
 51
31.9756871629999999
  0
ARC
  5
1B2
100
AcDbEntity
  8
0
 62
0
370
-1
 48
1.0
  6
BYLAYER
100
AcDbCircle
 10
199.9997877008512432
 20
94.2548301634939776
 30
0.0
 40
10.0
100
AcDbArc
 50
4.0243128370400001
 51
31.9756871629999999
  0
ARC
  5
1B3
100
AcDbEntity
  8
0
 62
0
370
-1
 48
1.0
  6
BYLAYER
100
AcDbCircle
 10
299.9997877008512432
 20
94.2548301634939776
 30
0.0
 40
10.0
100
AcDbArc
 50
4.0243128370400001
 51
31.9756871629999999
  0
ARC
  5
1B4
100
AcDbEntity
  8
0
 62
0
370
-1
 48
1.0
  6
BYLAYER
100
AcDbCircle
 10
404.2749968465727193
 20
1.6339692152507723
 30
0.0
 40
10.0
100
AcDbArc
 50
4.0243128370400001
 51
31.9756871629999999
  0
ARC
  5
1B5
100
AcDbEntity
  8
0
 62
0
370
-1
 48
1.0
  6
BYLAYER
100
AcDbCircle
 10
404.553231004878171
 20
96.4706136448927509
 30
0.0
 40
10.0
100
AcDbArc
 50
4.0243128370400001
 51
31.9756871629999999
  0
ARC
  5
1B6
100
AcDbEntity
  8
0
 62
0
370
-1
 48
1.0
  6
BYLAYER
100
AcDbCircle
 10
35.5872362878000033
 20
-4.7284895468599997
 30
0.0
 40
4.0
100
AcDbArc
 50
251.9999999999999716
 51
352.4314202567678649
  0
ARC
  5
1B7
100
AcDbEntity
  8
0
 62
0
370
-1
 48
1.0
  6
BYLAYER
100
AcDbCircle
 10
135.5872362878000104
 20
-4.7284895468599997
 30
0.0
 40
4.0
100
AcDbArc
 50
251.9999999999999716
 51
352.4314202567678649
  0
ARC
  5
1B8
100
AcDbEntity
  8
0
 62
0
370
-1
 48
1.0
  6
BYLAYER
100
AcDbCircle
 10
35.8654704461054266
 20
90.1081548827819745
 30
0.0
 40
4.0
100
AcDbArc
 50
251.9999999999999716
 51
352.4314202567678649
  0
ARC
  5
1B9
100
AcDbEntity
  8
0
 62
0
370
-1
 48
1.0
  6
BYLAYER
100
AcDbCircle
 10
135.8654704461054337
 20
90.1081548827819745
 30
0.0
 40
4.0
100
AcDbArc
 50
251.9999999999999716
 51
352.4314202567678649
  0
ARC
  5
1BA
100
AcDbEntity
  8
0
 62
0
370
-1
 48
1.0
  6
BYLAYER
100
AcDbCircle
 10
235.3087898303458019
 20
-5.3103038130080051
 30
0.0
 40
4.0
100
AcDbArc
 50
251.9999999999999716
 51
352.4314202567678649
  0
ARC
  5
1BB
100
AcDbEntity
  8
0
 62
0
370
-1
 48
1.0
  6
BYLAYER
100
AcDbCircle
 10
335.3087898303458019
 20
-5.3103038130080051
 30
0.0
 40
4.0
100
AcDbArc
 50
251.9999999999999716
 51
352.4314202567678649
  0
ARC
  5
1BC
100
AcDbEntity
  8
0
 62
0
370
-1
 48
1.0
  6
BYLAYER
100
AcDbCircle
 10
235.5870239886512252
 20
89.5263406166339735
 30
0.0
 40
4.0
100
AcDbArc
 50
251.9999999999999716
 51
352.4314202567678649
  0
ARC
  5
1BD
100
AcDbEntity
  8
0
 62
0
370
-1
 48
1.0
  6
BYLAYER
100
AcDbCircle
 10
335.5870239886512536
 20
89.5263406166339735
 30
0.0
 40
4.0
100
AcDbArc
 50
251.9999999999999716
 51
352.4314202567678649
  0
ARC
  5
1BE
100
AcDbEntity
  8
0
 62
0
370
-1
 48
1.0
  6
BYLAYER
100
AcDbCircle
 10
439.8622331343727296
 20
-3.0945203316092318
 30
0.0
 40
4.0
100
AcDbArc
 50
251.9999999999999716
 51
352.4314202567678649
  0
ARC
  5
1BF
100
AcDbEntity
  8
0
 62
0
370
-1
 48
1.0
  6
BYLAYER
100
AcDbCircle
 10
440.1404672926781814
 20
91.7421240980327468
 30
0.0
 40
4.0
100
AcDbArc
 50
251.9999999999999716
 51
352.4314202567678649
  0
ARC
  5
1C0
100
AcDbEntity
  8
0
 62
0
370
-1
 48
1.0
  6
BYLAYER
100
AcDbCircle
 10
11.9704123205999995
 20
0.842157274072
 30
0.0
 40
2.0
100
AcDbArc
 50
184.0243128369999965
 51
251.9999999999688498
  0
ARC
  5
1C1
100
AcDbEntity
  8
0
 62
0
370
-1
 48
1.0
  6
BYLAYER
100
AcDbCircle
 10
111.9704123206000048
 20
0.842157274072
 30
0.0
 40
2.0
100
AcDbArc
 50
184.0243128369999965
 51
251.9999999999688498
  0
ARC
  5
1C2
100
AcDbEntity
  8
0
 62
0
370
-1
 48
1.0
  6
BYLAYER
100
AcDbCircle
 10
12.248646478905421
 20
95.6788017037139724
 30
0.0
 40
2.0
100
AcDbArc
 50
184.0243128369999965
 51
251.9999999999688498
  0
ARC
  5
1C3
100
AcDbEntity
  8
0
 62
0
370
-1
 48
1.0
  6
BYLAYER
100
AcDbCircle
 10
112.2486464789054281
 20
95.6788017037139724
 30
0.0
 40
2.0
100
AcDbArc
 50
184.0243128369999965
 51
251.9999999999688498
  0
ARC
  5
1C4
100
AcDbEntity
  8
0
 62
0
370
-1
 48
1.0
  6
BYLAYER
100
AcDbCircle
 10
211.6919658631458105
 20
0.260343007924007
 30
0.0
 40
2.0
100
AcDbArc
 50
184.0243128369999965
 51
251.9999999999688498
  0
ARC
  5
1C5
100
AcDbEntity
  8
0
 62
0
370
-1
 48
1.0
  6
BYLAYER
100
AcDbCircle
 10
311.6919658631458105
 20
0.260343007924007
 30
0.0
 40
2.0
100
AcDbArc
 50
184.0243128369999965
 51
251.9999999999688498
  0
ARC
  5
1C6
100
AcDbEntity
  8
0
 62
0
370
-1
 48
1.0
  6
BYLAYER
100
AcDbCircle
 10
211.9702000214512339
 20
95.0969874375659714
 30
0.0
 40
2.0
100
AcDbArc
 50
184.0243128369999965
 51
251.9999999999688498
  0
ARC
  5
1C7
100
AcDbEntity
  8
0
 62
0
370
-1
 48
1.0
  6
BYLAYER
100
AcDbCircle
 10
311.9702000214512054
 20
95.0969874375659714
 30
0.0
 40
2.0
100
AcDbArc
 50
184.0243128369999965
 51
251.9999999999688498
  0
ARC
  5
1C8
100
AcDbEntity
  8
0
 62
0
370
-1
 48
1.0
  6
BYLAYER
100
AcDbCircle
 10
416.2454091671727383
 20
2.4761264893227803
 30
0.0
 40
2.0
100
AcDbArc
 50
184.0243128369999965
 51
251.9999999999688498
  0
ARC
  5
1C9
100
AcDbEntity
  8
0
 62
0
370
-1
 48
1.0
  6
BYLAYER
100
AcDbCircle
 10
416.5236433254781332
 20
97.3127709189647447
 30
0.0
 40
2.0
100
AcDbArc
 50
184.0243128369999965
 51
251.9999999999688498
  0
LINE
  5
1CA
100
AcDbEntity
  8
0
 62
0
370
-1
 48
1.0
  6
BYLAYER
100
AcDbLine
 10
34.3511683102999967
 20
-8.5327156120400005
 30
0.0
 11
11.3523783319000007
 21
-1.0599557585199999
 31
0.0
  0
LINE
  5
1CB
100
AcDbEntity
  8
0
 62
0
370
-1
 48
1.0
  6
BYLAYER
100
AcDbLine
 10
134.3511683103000109
 20
-8.5327156120400005
 30
0.0
 11
111.3523783318999989
 21
-1.0599557585199999
 31
0.0
  0
LINE
  5
1CC
100
AcDbEntity
  8
0
 62
0
370
-1
 48
1.0
  6
BYLAYER
100
AcDbLine
 10
34.62940246860542
 20
86.3039288176019852
 30
0.0
 11
11.6306124902054222
 21
93.776688671121974
 31
0.0
  0
LINE
  5
1CD
100
AcDbEntity
  8
0
 62
0
370
-1
 48
1.0
  6
BYLAYER
100
AcDbLine
 10
134.6294024686054343
 20
86.3039288176019852
 30
0.0
 11
111.6306124902054222
 21
93.776688671121974
 31
0.0
  0
LINE
  5
1CE
100
AcDbEntity
  8
0
 62
0
370
-1
 48
1.0
  6
BYLAYER
100
AcDbLine
 10
234.0727218528458025
 20
-9.1145298781879944
 30
0.0
 11
211.0739318744458046
 21
-1.6417700246680056
 31
0.0
  0
LINE
  5
1CF
100
AcDbEntity
  8
0
 62
0
370
-1
 48
1.0
  6
BYLAYER
100
AcDbLine
 10
334.0727218528458025
 20
-9.1145298781879944
 30
0.0
 11
311.0739318744458046
 21
-1.6417700246680056
 31
0.0
  0
LINE
  5
1D0
100
AcDbEntity
  8
0
 62
0
370
-1
 48
1.0
  6
BYLAYER
100
AcDbLine
 10
234.3509560111512258
 20
85.7221145514539842
 30
0.0
 11
211.3521660327512279
 21
93.194874404973973
 31
0.0
  0
LINE
  5
1D1
100
AcDbEntity
  8
0
 62
0
370
-1
 48
1.0
  6
BYLAYER
100
AcDbLine
 10
334.3509560111512542
 20
85.7221145514539842
 30
0.0
 11
311.3521660327512564
 21
93.194874404973973
 31
0.0
  0
LINE
  5
1D2
100
AcDbEntity
  8
0
 62
0
370
-1
 48
1.0
  6
BYLAYER
100
AcDbLine
 10
438.6261651568727302
 20
-6.8987463967892211
 30
0.0
 11
415.6273751784727324
 21
0.5740134567307678
 31
0.0
  0
LINE
  5
1D3
100
AcDbEntity
  8
0
 62
0
370
-1
 48
1.0
  6
BYLAYER
100
AcDbLine
 10
438.904399315178182
 20
87.9378980328527575
 30
0.0
 11
415.9056093367781841
 21
95.4106578863727464
 31
0.0
  0
LINE
  5
1D4
100
AcDbEntity
  8
0
 62
0
370
-1
 48
1.0
  6
BYLAYER
100
AcDbLine
 10
-18.7301895690000002
 20
30.0331483315999996
 30
0.0
 11
-4.5161556622500001
 21
10.4692090452999995
 31
0.0
  0
LINE
  5
1D5
100
AcDbEntity
  8
0
 62
0
370
-1
 48
1.0
  6
BYLAYER
100
AcDbLine
 10
81.2698104309999962
 20
30.0331483315999996
 30
0.0
 11
95.4838443377499999
 21
10.4692090452999995
 31
0.0
  0
LINE
  5
1D6
100
AcDbEntity
  8
0
 62
0
370
-1
 48
1.0
  6
BYLAYER
100
AcDbLine
 10
-18.4519554106945805
 20
124.8697927612419818
 30
0.0
 11
-4.2379215039445768
 21
105.3058534749419834
 31
0.0
  0
LINE
  5
1D7
100
AcDbEntity
  8
0
 62
0
370
-1
 48
1.0
  6
BYLAYER
100
AcDbLine
 10
81.5480445893054195
 20
124.8697927612419818
 30
0.0
 11
95.7620784960554232
 21
105.3058534749419834
 31
0.0
  0
LINE
  5
1D8
100
AcDbEntity
  8
0
 62
0
370
-1
 48
1.0
  6
BYLAYER
100
AcDbLine
 10
180.9913639735457878
 20
29.4513340654520022
 30
0.0
 11
195.2053978802958056
 21
9.8873947791520038
 31
0.0
  0
LINE
  5
1D9
100
AcDbEntity
  8
0
 62
0
370
-1
 48
1.0
  6
BYLAYER
100
AcDbLine
 10
280.9913639735457878
 20
29.4513340654520022
 30
0.0
 11
295.2053978802957772
 21
9.8873947791520038
 31
0.0
  0
LINE
  5
1DA
100
AcDbEntity
  8
0
 62
0
370
-1
 48
1.0
  6
BYLAYER
100
AcDbLine
 10
181.2695981318512395
 20
124.2879784950939808
 30
0.0
 11
195.4836320386012289
 21
104.7240392087939824
 31
0.0
  0
LINE
  5
1DB
100
AcDbEntity
  8
0
 62
0
370
-1
 48
1.0
  6
BYLAYER
100
AcDbLine
 10
281.2695981318512395
 20
124.2879784950939808
 30
0.0
 11
295.4836320386012289
 21
104.7240392087939824
 31
0.0
  0
LINE
  5
1DC
100
AcDbEntity
  8
0
 62
0
370
-1
 48
1.0
  6
BYLAYER
100
AcDbLine
 10
385.5448072775727155
 20
31.6671175468507755
 30
0.0
 11
399.758841184322705
 21
12.1031782605507772
 31
0.0
  0
LINE
  5
1DD
100
AcDbEntity
  8
0
 62
0
370
-1
 48
1.0
  6
BYLAYER
100
AcDbLine
 10
385.8230414358781672
 20
126.5037619764927541
 30
0.0
 11
400.0370753426281567
 21
106.9398226901927558
 31
0.0
  0
ARC
  5
1DE
100
AcDbEntity
  8
0
 62
0
370
-1
 48
1.0
  6
BYLAYER
100
AcDbCircle
 10
-15.4941215915000008
 20
32.3842893408000023
 30
0.0
 40
4.0
100
AcDbArc
 50
115.5685797430000008
 51
215.9999999998815667
  0
ARC
  5
1DF
100
AcDbEntity
  8
0
 62
0
370
-1
 48
1.0
  6
BYLAYER
100
AcDbCircle
 10
84.5058784084999957
 20
32.3842893408000023
 30
0.0
 40
4.0
100
AcDbArc
 50
115.5685797430000008
 51
215.9999999998815667
  0
ARC
  5
1E0
100
AcDbEntity
  8
0
 62
0
370
-1
 48
1.0
  6
BYLAYER
100
AcDbCircle
 10
-15.215887433194581
 20
127.2209337704419738
 30
0.0
 40
4.0
100
AcDbArc
 50
115.5685797430000008
 51
215.9999999998815667
  0
ARC
  5
1E1
100
AcDbEntity
  8
0
 62
0
370
-1
 48
1.0
  6
BYLAYER
100
AcDbCircle
 10
84.784112566805419
 20
127.2209337704419738
 30
0.0
 40
4.0
100
AcDbArc
 50
115.5685797430000008
 51
215.9999999998815667
  0
ARC
  5
1E2
100
AcDbEntity
  8
0
 62
0
370
-1
 48
1.0
  6
BYLAYER
100
AcDbCircle
 10
184.2274319510457872
 20
31.8024750746519942
 30
0.0
 40
4.0
100
AcDbArc
 50
115.5685797430000008
 51
215.9999999998815667
  0
ARC
  5
1E3
100
AcDbEntity
  8
0
 62
0
370
-1
 48
1.0
  6
BYLAYER
100
AcDbCircle
 10
284.2274319510457872
 20
31.8024750746519942
 30
0.0
 40
4.0
100
AcDbArc
 50
115.5685797430000008
 51
215.9999999998815667
  0
ARC
  5
1E4
100
AcDbEntity
  8
0
 62
0
370
-1
 48
1.0
  6
BYLAYER
100
AcDbCircle
 10
184.5056661093512389
 20
126.6391195042939728
 30
0.0
 40
4.0
100
AcDbArc
 50
115.5685797430000008
 51
215.9999999998815667
  0
ARC
  5
1E5
100
AcDbEntity
  8
0
 62
0
370
-1
 48
1.0
  6
BYLAYER
100
AcDbCircle
 10
284.5056661093512389
 20
126.6391195042939728
 30
0.0
 40
4.0
100
AcDbArc
 50
115.5685797430000008
 51
215.9999999998815667
  0
ARC
  5
1E6
100
AcDbEntity
  8
0
 62
0
370
-1
 48
1.0
  6
BYLAYER
100
AcDbCircle
 10
388.7808752550727149
 20
34.0182585560507675
 30
0.0
 40
4.0
100
AcDbArc
 50
115.5685797430000008
 51
215.9999999998815667
  0
ARC
  5
1E7
100
AcDbEntity
  8
0
 62
0
370
-1
 48
1.0
  6
BYLAYER
100
AcDbCircle
 10
389.0591094133781667
 20
128.8549029856927461
 30
0.0
 40
4.0
100
AcDbArc
 50
115.5685797430000008
 51
215.9999999998815667
  0
ARC
  5
1E8
100
AcDbEntity
  8
0
 62
0
370
-1
 48
1.0
  6
BYLAYER
100
AcDbCircle
 10
-2.8981216734999999
 20
11.6447795499000009
 30
0.0
 40
2.0
100
AcDbArc
 50
216.0
 51
283.9756871629705302
  0
ARC
  5
1E9
100
AcDbEntity
  8
0
 62
0
370
-1
 48
1.0
  6
BYLAYER
100
AcDbCircle
 10
97.1018783264999996
 20
11.6447795499000009
 30
0.0
 40
2.0
100
AcDbArc
 50
216.0
 51
283.9756871629705302
  0
ARC
  5
1EA
100
AcDbEntity
  8
0
 62
0
370
-1
 48
1.0
  6
BYLAYER
100
AcDbCircle
 10
-2.6198875151945771
 20
106.4814239795419724
 30
0.0
 40
2.0
100
AcDbArc
 50
216.0
 51
283.9756871629705302
  0
ARC
  5
1EB
100
AcDbEntity
  8
0
 62
0
370
-1
 48
1.0
  6
BYLAYER
100
AcDbCircle
 10
97.3801124848054229
 20
106.4814239795419724
 30
0.0
 40
2.0
100
AcDbArc
 50
216.0
 51
283.9756871629705302
  0
ARC
  5
1EC
100
AcDbEntity
  8
0
 62
0
370
-1
 48
1.0
  6
BYLAYER
100
AcDbCircle
 10
196.8234318690458053
 20
11.0629652837519927
 30
0.0
 40
2.0
100
AcDbArc
 50
216.0
 51
283.9756871629705302
  0
ARC
  5
1ED
100
AcDbEntity
  8
0
 62
0
370
-1
 48
1.0
  6
BYLAYER
100
AcDbCircle
 10
296.8234318690458053
 20
11.0629652837519927
 30
0.0
 40
2.0
100
AcDbArc
 50
216.0
 51
283.9756871629705302
  0
ARC
  5
1EE
100
AcDbEntity
  8
0
 62
0
370
-1
 48
1.0
  6
BYLAYER
100
AcDbCircle
 10
197.1016660273512286
 20
105.8996097133939713
 30
0.0
 40
2.0
100
AcDbArc
 50
216.0
 51
283.9756871629705302
  0
ARC
  5
1EF
100
AcDbEntity
  8
0
 62
0
370
-1
 48
1.0
  6
BYLAYER
100
AcDbCircle
 10
297.1016660273512571
 20
105.8996097133939713
 30
0.0
 40
2.0
100
AcDbArc
 50
216.0
 51
283.9756871629705302
  0
ARC
  5
1F0
100
AcDbEntity
  8
0
 62
0
370
-1
 48
1.0
  6
BYLAYER
100
AcDbCircle
 10
401.3768751730727331
 20
13.2787487651507661
 30
0.0
 40
2.0
100
AcDbArc
 50
216.0
 51
283.9756871629705302
  0
ARC
  5
1F1
100
AcDbEntity
  8
0
 62
0
370
-1
 48
1.0
  6
BYLAYER
100
AcDbCircle
 10
401.6551093313781848
 20
108.1153931947927447
 30
0.0
 40
2.0
100
AcDbArc
 50
216.0
 51
283.9756871629705302
  0
ARC
  5
1F2
100
AcDbEntity
  8
0
 62
0
370
-1
 48
1.0
  6
BYLAYER
100
AcDbCircle
 10
0.0
 20
0.0
 30
0.0
 40
39.8999999999999986
100
AcDbArc
 50
64.4314202567999956
 51
115.5685797430000008
  0
ARC
  5
1F3
100
AcDbEntity
  8
0
 62
0
370
-1
 48
1.0
  6
BYLAYER
100
AcDbCircle
 10
100.0
 20
0.0
 30
0.0
 40
39.8999999999999986
100
AcDbArc
 50
64.4314202567999956
 51
115.5685797430000008
  0
ARC
  5
1F4
100
AcDbEntity
  8
0
 62
0
370
-1
 48
1.0
  6
BYLAYER
100
AcDbCircle
 10
0.2782341583054233
 20
94.8366444296419786
 30
0.0
 40
39.8999999999999986
100
AcDbArc
 50
64.4314202567999956
 51
115.5685797430000008
  0
ARC
  5
1F5
100
AcDbEntity
  8
0
 62
0
370
-1
 48
1.0
  6
BYLAYER
100
AcDbCircle
 10
100.2782341583054233
 20
94.8366444296419786
 30
0.0
 40
39.8999999999999986
100
AcDbArc
 50
64.4314202567999956
 51
115.5685797430000008
  0
ARC
  5
1F6
100
AcDbEntity
  8
0
 62
0
370
-1
 48
1.0
  6
BYLAYER
100
AcDbCircle
 10
199.7215535425457915
 20
-0.581814266148001
 30
0.0
 40
39.8999999999999986
100
AcDbArc
 50
64.4314202567999956
 51
115.5685797430000008
  0
ARC
  5
1F7
100
AcDbEntity
  8
0
 62
0
370
-1
 48
1.0
  6
BYLAYER
100
AcDbCircle
 10
299.7215535425457915
 20
-0.581814266148001
 30
0.0
 40
39.8999999999999986
100
AcDbArc
 50
64.4314202567999956
 51
115.5685797430000008
  0
ARC
  5
1F8
100
AcDbEntity
  8
0
 62
0
370
-1
 48
1.0
  6
BYLAYER
100
AcDbCircle
 10
199.9997877008512432
 20
94.2548301634939776
 30
0.0
 40
39.8999999999999986
100
AcDbArc
 50
64.4314202567999956
 51
115.5685797430000008
  0
ARC
  5
1F9
100
AcDbEntity
  8
0
 62
0
370
-1
 48
1.0
  6
BYLAYER
100
AcDbCircle
 10
299.9997877008512432
 20
94.2548301634939776
 30
0.0
 40
39.8999999999999986
100
AcDbArc
 50
64.4314202567999956
 51
115.5685797430000008
  0
ARC
  5
1FA
100
AcDbEntity
  8
0
 62
0
370
-1
 48
1.0
  6
BYLAYER
100
AcDbCircle
 10
404.2749968465727193
 20
1.6339692152507723
 30
0.0
 40
39.8999999999999986
100
AcDbArc
 50
64.4314202567999956
 51
115.5685797430000008
  0
ARC
  5
1FB
100
AcDbEntity
  8
0
 62
0
370
-1
 48
1.0
  6
BYLAYER
100
AcDbCircle
 10
404.553231004878171
 20
96.4706136448927509
 30
0.0
 40
39.8999999999999986
100
AcDbArc
 50
64.4314202567999956
 51
115.5685797430000008
  0
ARC
  5
1FC
100
AcDbEntity
  8
0
 62
0
370
-1
 48
1.0
  6
BYLAYER
100
AcDbCircle
 10
0.0
 20
0.0
 30
0.0
 40
10.0
100
AcDbArc
 50
76.0243128369999965
 51
103.9756871630000035
  0
ARC
  5
1FD
100
AcDbEntity
  8
0
 62
0
370
-1
 48
1.0
  6
BYLAYER
100
AcDbCircle
 10
100.0
 20
0.0
 30
0.0
 40
10.0
100
AcDbArc
 50
76.0243128369999965
 51
103.9756871630000035
  0
ARC
  5
1FE
100
AcDbEntity
  8
0
 62
0
370
-1
 48
1.0
  6
BYLAYER
100
AcDbCircle
 10
0.2782341583054233
 20
94.8366444296419786
 30
0.0
 40
10.0
100
AcDbArc
 50
76.0243128369999965
 51
103.9756871630000035
  0
ARC
  5
1FF
100
AcDbEntity
  8
0
 62
0
370
-1
 48
1.0
  6
BYLAYER
100
AcDbCircle
 10
100.2782341583054233
 20
94.8366444296419786
 30
0.0
 40
10.0
100
AcDbArc
 50
76.0243128369999965
 51
103.9756871630000035
  0
ARC
  5
200
100
AcDbEntity
  8
0
 62
0
370
-1
 48
1.0
  6
BYLAYER
100
AcDbCircle
 10
199.7215535425457915
 20
-0.581814266148001
 30
0.0
 40
10.0
100
AcDbArc
 50
76.0243128369999965
 51
103.9756871630000035
  0
ARC
  5
201
100
AcDbEntity
  8
0
 62
0
370
-1
 48
1.0
  6
BYLAYER
100
AcDbCircle
 10
299.7215535425457915
 20
-0.581814266148001
 30
0.0
 40
10.0
100
AcDbArc
 50
76.0243128369999965
 51
103.9756871630000035
  0
ARC
  5
202
100
AcDbEntity
  8
0
 62
0
370
-1
 48
1.0
  6
BYLAYER
100
AcDbCircle
 10
199.9997877008512432
 20
94.2548301634939776
 30
0.0
 40
10.0
100
AcDbArc
 50
76.0243128369999965
 51
103.9756871630000035
  0
ARC
  5
203
100
AcDbEntity
  8
0
 62
0
370
-1
 48
1.0
  6
BYLAYER
100
AcDbCircle
 10
299.9997877008512432
 20
94.2548301634939776
 30
0.0
 40
10.0
100
AcDbArc
 50
76.0243128369999965
 51
103.9756871630000035
  0
ARC
  5
204
100
AcDbEntity
  8
0
 62
0
370
-1
 48
1.0
  6
BYLAYER
100
AcDbCircle
 10
404.2749968465727193
 20
1.6339692152507723
 30
0.0
 40
10.0
100
AcDbArc
 50
76.0243128369999965
 51
103.9756871630000035
  0
ARC
  5
205
100
AcDbEntity
  8
0
 62
0
370
-1
 48
1.0
  6
BYLAYER
100
AcDbCircle
 10
404.553231004878171
 20
96.4706136448927509
 30
0.0
 40
10.0
100
AcDbArc
 50
76.0243128369999965
 51
103.9756871630000035
  0
ARC
  5
206
100
AcDbEntity
  8
0
 62
0
370
-1
 48
1.0
  6
BYLAYER
100
AcDbCircle
 10
15.4941215915000008
 20
32.3842893408000023
 30
0.0
 40
4.0
100
AcDbArc
 50
324.0
 51
64.4314202568667298
  0
ARC
  5
207
100
AcDbEntity
  8
0
 62
0
370
-1
 48
1.0
  6
BYLAYER
100
AcDbCircle
 10
115.4941215915000043
 20
32.3842893408000023
 30
0.0
 40
4.0
100
AcDbArc
 50
324.0
 51
64.4314202568667298
  0
ARC
  5
208
100
AcDbEntity
  8
0
 62
0
370
-1
 48
1.0
  6
BYLAYER
100
AcDbCircle
 10
15.7723557498054276
 20
127.2209337704419738
 30
0.0
 40
4.0
100
AcDbArc
 50
324.0
 51
64.4314202568667298
  0
ARC
  5
209
100
AcDbEntity
  8
0
 62
0
370
-1
 48
1.0
  6
BYLAYER
100
AcDbCircle
 10
115.7723557498054276
 20
127.2209337704419738
 30
0.0
 40
4.0
100
AcDbArc
 50
324.0
 51
64.4314202568667298
  0
ARC
  5
20A
100
AcDbEntity
  8
0
 62
0
370
-1
 48
1.0
  6
BYLAYER
100
AcDbCircle
 10
215.2156751340457959
 20
31.8024750746519942
 30
0.0
 40
4.0
100
AcDbArc
 50
324.0
 51
64.4314202568667298
  0
ARC
  5
20B
100
AcDbEntity
  8
0
 62
0
370
-1
 48
1.0
  6
BYLAYER
100
AcDbCircle
 10
315.2156751340457959
 20
31.8024750746519942
 30
0.0
 40
4.0
100
AcDbArc
 50
324.0
 51
64.4314202568667298
  0
ARC
  5
20C
100
AcDbEntity
  8
0
 62
0
370
-1
 48
1.0
  6
BYLAYER
100
AcDbCircle
 10
215.4939092923512476
 20
126.6391195042939728
 30
0.0
 40
4.0
100
AcDbArc
 50
324.0
 51
64.4314202568667298
  0
ARC
  5
20D
100
AcDbEntity
  8
0
 62
0
370
-1
 48
1.0
  6
BYLAYER
100
AcDbCircle
 10
315.4939092923512476
 20
126.6391195042939728
 30
0.0
 40
4.0
100
AcDbArc
 50
324.0
 51
64.4314202568667298
  0
ARC
  5
20E
100
AcDbEntity
  8
0
 62
0
370
-1
 48
1.0
  6
BYLAYER
100
AcDbCircle
 10
419.7691184380727236
 20
34.0182585560507675
 30
0.0
 40
4.0
100
AcDbArc
 50
324.0
 51
64.4314202568667298
  0
ARC
  5
20F
100
AcDbEntity
  8
0
 62
0
370
-1
 48
1.0
  6
BYLAYER
100
AcDbCircle
 10
420.0473525963781753
 20
128.8549029856927461
 30
0.0
 40
4.0
100
AcDbArc
 50
324.0
 51
64.4314202568667298
  0
ARC
  5
210
100
AcDbEntity
  8
0
 62
0
370
-1
 48
1.0
  6
BYLAYER
100
AcDbCircle
 10
2.8981216734999999
 20
11.6447795499000009
 30
0.0
 40
2.0
100
AcDbArc
 50
256.0243128369999681
 51
324.0000000001184617
  0
ARC
  5
211
100
AcDbEntity
  8
0
 62
0
370
-1
 48
1.0
  6
BYLAYER
100
AcDbCircle
 10
102.8981216735000004
 20
11.6447795499000009
 30
0.0
 40
2.0
100
AcDbArc
 50
256.0243128369999681
 51
324.0000000001184617
  0
ARC
  5
212
100
AcDbEntity
  8
0
 62
0
370
-1
 48
1.0
  6
BYLAYER
100
AcDbCircle
 10
3.1763558318054237
 20
106.4814239795419724
 30
0.0
 40
2.0
100
AcDbArc
 50
256.0243128369999681
 51
324.0000000001184617
  0
ARC
  5
213
100
AcDbEntity
  8
0
 62
0
370
-1
 48
1.0
  6
BYLAYER
100
AcDbCircle
 10
103.1763558318054237
 20
106.4814239795419724
 30
0.0
 40
2.0
100
AcDbArc
 50
256.0243128369999681
 51
324.0000000001184617
  0
ARC
  5
214
100
AcDbEntity
  8
0
 62
0
370
-1
 48
1.0
  6
BYLAYER
100
AcDbCircle
 10
202.6196752160458061
 20
11.0629652837519927
 30
0.0
 40
2.0
100
AcDbArc
 50
256.0243128369999681
 51
324.0000000001184617
  0
ARC
  5
215
100
AcDbEntity
  8
0
 62
0
370
-1
 48
1.0
  6
BYLAYER
100
AcDbCircle
 10
302.6196752160458345
 20
11.0629652837519927
 30
0.0
 40
2.0
100
AcDbArc
 50
256.0243128369999681
 51
324.0000000001184617
  0
ARC
  5
216
100
AcDbEntity
  8
0
 62
0
370
-1
 48
1.0
  6
BYLAYER
100
AcDbCircle
 10
202.8979093743512294
 20
105.8996097133939713
 30
0.0
 40
2.0
100
AcDbArc
 50
256.0243128369999681
 51
324.0000000001184617
  0
ARC
  5
217
100
AcDbEntity
  8
0
 62
0
370
-1
 48
1.0
  6
BYLAYER
100
AcDbCircle
 10
302.8979093743512294
 20
105.8996097133939713
 30
0.0
 40
2.0
100
AcDbArc
 50
256.0243128369999681
 51
324.0000000001184617
  0
ARC
  5
218
100
AcDbEntity
  8
0
 62
0
370
-1
 48
1.0
  6
BYLAYER
100
AcDbCircle
 10
407.1731185200727623
 20
13.2787487651507661
 30
0.0
 40
2.0
100
AcDbArc
 50
256.0243128369999681
 51
324.0000000001184617
  0
ARC
  5
219
100
AcDbEntity
  8
0
 62
0
370
-1
 48
1.0
  6
BYLAYER
100
AcDbCircle
 10
407.4513526783781572
 20
108.1153931947927447
 30
0.0
 40
2.0
100
AcDbArc
 50
256.0243128369999681
 51
324.0000000001184617
  0
LINE
  5
21A
100
AcDbEntity
  8
0
 62
0
370
-1
 48
1.0
  6
BYLAYER
100
AcDbLine
 10
18.7301895690000002
 20
30.0331483315999996
 30
0.0
 11
4.5161556622500001
 21
10.4692090452999995
 31
0.0
  0
LINE
  5
21B
100
AcDbEntity
  8
0
 62
0
370
-1
 48
1.0
  6
BYLAYER
100
AcDbLine
 10
118.7301895690000038
 20
30.0331483315999996
 30
0.0
 11
104.5161556622500001
 21
10.4692090452999995
 31
0.0
  0
LINE
  5
21C
100
AcDbEntity
  8
0
 62
0
370
-1
 48
1.0
  6
BYLAYER
100
AcDbLine
 10
19.0084237273054235
 20
124.8697927612419818
 30
0.0
 11
4.7943898205554234
 21
105.3058534749419834
 31
0.0
  0
LINE
  5
21D
100
AcDbEntity
  8
0
 62
0
370
-1
 48
1.0
  6
BYLAYER
100
AcDbLine
 10
119.0084237273054271
 20
124.8697927612419818
 30
0.0
 11
104.7943898205554234
 21
105.3058534749419834
 31
0.0
  0
LINE
  5
21E
100
AcDbEntity
  8
0
 62
0
370
-1
 48
1.0
  6
BYLAYER
100
AcDbLine
 10
218.4517431115457953
 20
29.4513340654520022
 30
0.0
 11
204.2377092047958058
 21
9.8873947791520038
 31
0.0
  0
LINE
  5
21F
100
AcDbEntity
  8
0
 62
0
370
-1
 48
1.0
  6
BYLAYER
100
AcDbLine
 10
318.4517431115457953
 20
29.4513340654520022
 30
0.0
 11
304.2377092047958058
 21
9.8873947791520038
 31
0.0
  0
LINE
  5
220
100
AcDbEntity
  8
0
 62
0
370
-1
 48
1.0
  6
BYLAYER
100
AcDbLine
 10
218.7299772698512186
 20
124.2879784950939808
 30
0.0
 11
204.5159433631012291
 21
104.7240392087939824
 31
0.0
  0
LINE
  5
221
100
AcDbEntity
  8
0
 62
0
370
-1
 48
1.0
  6
BYLAYER
100
AcDbLine
 10
318.729977269851247
 20
124.2879784950939808
 30
0.0
 11
304.5159433631012007
 21
104.7240392087939824
 31
0.0
  0
LINE
  5
222
100
AcDbEntity
  8
0
 62
0
370
-1
 48
1.0
  6
BYLAYER
100
AcDbLine
 10
423.005186415572723
 20
31.6671175468507755
 30
0.0
 11
408.7911525088227336
 21
12.1031782605507772
 31
0.0
  0
LINE
  5
223
100
AcDbEntity
  8
0
 62
0
370
-1
 48
1.0
  6
BYLAYER
100
AcDbLine
 10
423.2834205738781748
 20
126.5037619764927541
 30
0.0
 11
409.0693866671281285
 21
106.9398226901927558
 31
0.0
  0
ARC
  5
224
100
AcDbEntity
  8
0
 62
0
370
-1
 48
1.0
  6
BYLAYER
100
AcDbCircle
 10
0.0
 20
0.0
 30
0.0
 40
2.4500000000000002
100
AcDbArc
 50
53.7125429148999984
 51
126.2874570849999998
  0
ARC
  5
225
100
AcDbEntity
  8
0
 62
0
370
-1
 48
1.0
  6
BYLAYER
100
AcDbCircle
 10
100.0
 20
0.0
 30
0.0
 40
2.4500000000000002
100
AcDbArc
 50
53.7125429148999984
 51
126.2874570849999998
  0
ARC
  5
226
100
AcDbEntity
  8
0
 62
0
370
-1
 48
1.0
  6
BYLAYER
100
AcDbCircle
 10
0.2782341583054233
 20
94.8366444296419786
 30
0.0
 40
2.4500000000000002
100
AcDbArc
 50
53.7125429148999984
 51
126.2874570849999998
  0
ARC
  5
227
100
AcDbEntity
  8
0
 62
0
370
-1
 48
1.0
  6
BYLAYER
100
AcDbCircle
 10
100.2782341583054233
 20
94.8366444296419786
 30
0.0
 40
2.4500000000000002
100
AcDbArc
 50
53.7125429148999984
 51
126.2874570849999998
  0
ARC
  5
228
100
AcDbEntity
  8
0
 62
0
370
-1
 48
1.0
  6
BYLAYER
100
AcDbCircle
 10
199.7215535425457915
 20
-0.581814266148001
 30
0.0
 40
2.4500000000000002
100
AcDbArc
 50
53.7125429148999984
 51
126.2874570849999998
  0
ARC
  5
229
100
AcDbEntity
  8
0
 62
0
370
-1
 48
1.0
  6
BYLAYER
100
AcDbCircle
 10
299.7215535425457915
 20
-0.581814266148001
 30
0.0
 40
2.4500000000000002
100
AcDbArc
 50
53.7125429148999984
 51
126.2874570849999998
  0
ARC
  5
22A
100
AcDbEntity
  8
0
 62
0
370
-1
 48
1.0
  6
BYLAYER
100
AcDbCircle
 10
199.9997877008512432
 20
94.2548301634939776
 30
0.0
 40
2.4500000000000002
100
AcDbArc
 50
53.7125429148999984
 51
126.2874570849999998
  0
ARC
  5
22B
100
AcDbEntity
  8
0
 62
0
370
-1
 48
1.0
  6
BYLAYER
100
AcDbCircle
 10
299.9997877008512432
 20
94.2548301634939776
 30
0.0
 40
2.4500000000000002
100
AcDbArc
 50
53.7125429148999984
 51
126.2874570849999998
  0
ARC
  5
22C
100
AcDbEntity
  8
0
 62
0
370
-1
 48
1.0
  6
BYLAYER
100
AcDbCircle
 10
404.2749968465727193
 20
1.6339692152507723
 30
0.0
 40
2.4500000000000002
100
AcDbArc
 50
53.7125429148999984
 51
126.2874570849999998
  0
ARC
  5
22D
100
AcDbEntity
  8
0
 62
0
370
-1
 48
1.0
  6
BYLAYER
100
AcDbCircle
 10
404.553231004878171
 20
96.4706136448927509
 30
0.0
 40
2.4500000000000002
100
AcDbArc
 50
53.7125429148999984
 51
126.2874570849999998
  0
LINE
  5
22E
100
AcDbEntity
  8
0
 62
0
370
-1
 48
1.0
  6
BYLAYER
100
AcDbLine
 10
-1.45
 20
1.9748417658099999
 30
0.0
 11
-1.45
 21
-1.9748417658099999
 31
0.0
  0
LINE
  5
22F
100
AcDbEntity
  8
0
 62
0
370
-1
 48
1.0
  6
BYLAYER
100
AcDbLine
 10
98.5499999999999972
 20
1.9748417658099999
 30
0.0
 11
98.5499999999999972
 21
-1.9748417658099999
 31
0.0
  0
LINE
  5
230
100
AcDbEntity
  8
0
 62
0
370
-1
 48
1.0
  6
BYLAYER
100
AcDbLine
 10
-1.1717658416945795
 20
96.8114861954519768
 30
0.0
 11
-1.1717658416945795
 21
92.8618026638319805
 31
0.0
  0
LINE
  5
231
100
AcDbEntity
  8
0
 62
0
370
-1
 48
1.0
  6
BYLAYER
100
AcDbLine
 10
98.8282341583054205
 20
96.8114861954519768
 30
0.0
 11
98.8282341583054205
 21
92.8618026638319805
 31
0.0
  0
LINE
  5
232
100
AcDbEntity
  8
0
 62
0
370
-1
 48
1.0
  6
BYLAYER
100
AcDbLine
 10
198.2715535425458029
 20
1.3930274996619971
 30
0.0
 11
198.2715535425458029
 21
-2.5566560319579992
 31
0.0
  0
LINE
  5
233
100
AcDbEntity
  8
0
 62
0
370
-1
 48
1.0
  6
BYLAYER
100
AcDbLine
 10
298.2715535425458029
 20
1.3930274996619971
 30
0.0
 11
298.2715535425458029
 21
-2.5566560319579992
 31
0.0
  0
LINE
  5
234
100
AcDbEntity
  8
0
 62
0
370
-1
 48
1.0
  6
BYLAYER
100
AcDbLine
 10
198.5497877008512262
 20
96.2296719293039757
 30
0.0
 11
198.5497877008512262
 21
92.2799883976839794
 31
0.0
  0
LINE
  5
235
100
AcDbEntity
  8
0
 62
0
370
-1
 48
1.0
  6
BYLAYER
100
AcDbLine
 10
298.5497877008511978
 20
96.2296719293039757
 30
0.0
 11
298.5497877008511978
 21
92.2799883976839794
 31
0.0
  0
LINE
  5
236
100
AcDbEntity
  8
0
 62
0
370
-1
 48
1.0
  6
BYLAYER
100
AcDbLine
 10
402.8249968465727306
 20
3.6088109810607705
 30
0.0
 11
402.8249968465727306
 21
-0.3408725505592258
 31
0.0
  0
LINE
  5
237
100
AcDbEntity
  8
0
 62
0
370
-1
 48
1.0
  6
BYLAYER
100
AcDbLine
 10
403.1032310048781255
 20
98.4454554107027491
 30
0.0
 11
403.1032310048781255
 21
94.4957718790827528
 31
0.0
  0
ARC
  5
238
100
AcDbEntity
  8
0
 62
0
370
-1
 48
1.0
  6
BYLAYER
100
AcDbCircle
 10
0.0
 20
0.0
 30
0.0
 40
2.4500000000000002
100
AcDbArc
 50
233.7125429150000002
 51
306.2874570851098497
  0
ARC
  5
239
100
AcDbEntity
  8
0
 62
0
370
-1
 48
1.0
  6
BYLAYER
100
AcDbCircle
 10
100.0
 20
0.0
 30
0.0
 40
2.4500000000000002
100
AcDbArc
 50
233.7125429150000002
 51
306.2874570851098497
  0
ARC
  5
23A
100
AcDbEntity
  8
0
 62
0
370
-1
 48
1.0
  6
BYLAYER
100
AcDbCircle
 10
0.2782341583054233
 20
94.8366444296419786
 30
0.0
 40
2.4500000000000002
100
AcDbArc
 50
233.7125429150000002
 51
306.2874570851098497
  0
ARC
  5
23B
100
AcDbEntity
  8
0
 62
0
370
-1
 48
1.0
  6
BYLAYER
100
AcDbCircle
 10
100.2782341583054233
 20
94.8366444296419786
 30
0.0
 40
2.4500000000000002
100
AcDbArc
 50
233.7125429150000002
 51
306.2874570851098497
  0
ARC
  5
23C
100
AcDbEntity
  8
0
 62
0
370
-1
 48
1.0
  6
BYLAYER
100
AcDbCircle
 10
199.7215535425457915
 20
-0.581814266148001
 30
0.0
 40
2.4500000000000002
100
AcDbArc
 50
233.7125429150000002
 51
306.2874570851098497
  0
ARC
  5
23D
100
AcDbEntity
  8
0
 62
0
370
-1
 48
1.0
  6
BYLAYER
100
AcDbCircle
 10
299.7215535425457915
 20
-0.581814266148001
 30
0.0
 40
2.4500000000000002
100
AcDbArc
 50
233.7125429150000002
 51
306.2874570851098497
  0
ARC
  5
23E
100
AcDbEntity
  8
0
 62
0
370
-1
 48
1.0
  6
BYLAYER
100
AcDbCircle
 10
199.9997877008512432
 20
94.2548301634939776
 30
0.0
 40
2.4500000000000002
100
AcDbArc
 50
233.7125429150000002
 51
306.2874570851098497
  0
ARC
  5
23F
100
AcDbEntity
  8
0
 62
0
370
-1
 48
1.0
  6
BYLAYER
100
AcDbCircle
 10
299.9997877008512432
 20
94.2548301634939776
 30
0.0
 40
2.4500000000000002
100
AcDbArc
 50
233.7125429150000002
 51
306.2874570851098497
  0
ARC
  5
240
100
AcDbEntity
  8
0
 62
0
370
-1
 48
1.0
  6
BYLAYER
100
AcDbCircle
 10
404.2749968465727193
 20
1.6339692152507723
 30
0.0
 40
2.4500000000000002
100
AcDbArc
 50
233.7125429150000002
 51
306.2874570851098497
  0
ARC
  5
241
100
AcDbEntity
  8
0
 62
0
370
-1
 48
1.0
  6
BYLAYER
100
AcDbCircle
 10
404.553231004878171
 20
96.4706136448927509
 30
0.0
 40
2.4500000000000002
100
AcDbArc
 50
233.7125429150000002
 51
306.2874570851098497
  0
LINE
  5
242
100
AcDbEntity
  8
0
 62
0
370
-1
 48
1.0
  6
BYLAYER
100
AcDbLine
 10
1.45
 20
1.9748417658099999
 30
0.0
 11
1.45
 21
-1.9748417658099999
 31
0.0
  0
LINE
  5
243
100
AcDbEntity
  8
0
 62
0
370
-1
 48
1.0
  6
BYLAYER
100
AcDbLine
 10
101.4500000000000028
 20
1.9748417658099999
 30
0.0
 11
101.4500000000000028
 21
-1.9748417658099999
 31
0.0
  0
LINE
  5
244
100
AcDbEntity
  8
0
 62
0
370
-1
 48
1.0
  6
BYLAYER
100
AcDbLine
 10
1.7282341583054261
 20
96.8114861954519768
 30
0.0
 11
1.7282341583054261
 21
92.8618026638319805
 31
0.0
  0
LINE
  5
245
100
AcDbEntity
  8
0
 62
0
370
-1
 48
1.0
  6
BYLAYER
100
AcDbLine
 10
101.7282341583054261
 20
96.8114861954519768
 30
0.0
 11
101.7282341583054261
 21
92.8618026638319805
 31
0.0
  0
LINE
  5
246
100
AcDbEntity
  8
0
 62
0
370
-1
 48
1.0
  6
BYLAYER
100
AcDbLine
 10
201.1715535425458086
 20
1.3930274996619971
 30
0.0
 11
201.1715535425458086
 21
-2.5566560319579992
 31
0.0
  0
LINE
  5
247
100
AcDbEntity
  8
0
 62
0
370
-1
 48
1.0
  6
BYLAYER
100
AcDbLine
 10
301.1715535425457801
 20
1.3930274996619971
 30
0.0
 11
301.1715535425457801
 21
-2.5566560319579992
 31
0.0
  0
LINE
  5
248
100
AcDbEntity
  8
0
 62
0
370
-1
 48
1.0
  6
BYLAYER
100
AcDbLine
 10
201.4497877008512319
 20
96.2296719293039757
 30
0.0
 11
201.4497877008512319
 21
92.2799883976839794
 31
0.0
  0
LINE
  5
249
100
AcDbEntity
  8
0
 62
0
370
-1
 48
1.0
  6
BYLAYER
100
AcDbLine
 10
301.4497877008512319
 20
96.2296719293039757
 30
0.0
 11
301.4497877008512319
 21
92.2799883976839794
 31
0.0
  0
LINE
  5
24A
100
AcDbEntity
  8
0
 62
0
370
-1
 48
1.0
  6
BYLAYER
100
AcDbLine
 10
405.7249968465727079
 20
3.6088109810607705
 30
0.0
 11
405.7249968465727079
 21
-0.3408725505592258
 31
0.0
  0
LINE
  5
24B
100
AcDbEntity
  8
0
 62
0
370
-1
 48
1.0
  6
BYLAYER
100
AcDbLine
 10
406.0032310048781596
 20
98.4454554107027491
 30
0.0
 11
406.0032310048781596
 21
94.4957718790827528
 31
0.0
  0
ENDSEC
  0
SECTION
  2
OBJECTS
  0
DICTIONARY
  5
C
100
AcDbDictionary
280
0
281
1
  3
ACAD_GROUP
350
D
  3
ACAD_LAYOUT
350
1A
  3
ACAD_MLINESTYLE
350
17
  3
ACAD_PLOTSETTINGS
350
19
  3
ACAD_PLOTSTYLENAME
350
E
  3
AcDbVariableDictionary
350
24C
  3
QCAD_OBJECTS
350
24D
  0
DICTIONARY
  5
D
100
AcDbDictionary
280
0
281
1
  0
ACDBDICTIONARYWDFLT
  5
E
100
AcDbDictionary
281
1
  3
Normal
350
F
100
AcDbDictionaryWithDefault
340
F
  0
ACDBPLACEHOLDER
  5
F
  0
DICTIONARY
  5
17
100
AcDbDictionary
280
0
281
1
  3
Standard
350
18
  0
MLINESTYLE
  5
18
100
AcDbMlineStyle
  2
STANDARD
 70
0
  3

 62
256
 51
90.0
 52
90.0
 71
2
 49
0.5
 62
256
  6
BYLAYER
 49
-0.5
 62
256
  6
BYLAYER
  0
DICTIONARY
  5
19
100
AcDbDictionary
280
0
281
1
  0
DICTIONARY
  5
1A
100
AcDbDictionary
281
1
  3
Layout1
350
1E
  3
Layout2
350
26
  3
Model
350
22
  0
LAYOUT
  5
1E
100
AcDbPlotSettings
  1

  2
none_device
  4

  6

 40
0.0
 41
0.0
 42
0.0
 43
0.0
 44
0.0
 45
0.0
 46
0.0
 47
0.0
 48
0.0
 49
0.0
140
0.0
141
0.0
142
1.0
143
1.0
 70
688
 72
0
 73
0
 74
5
  7

 75
16
147
1.0
148
0.0
149
0.0
100
AcDbLayout
  1
Layout1
 70
1
 71
1
 10
0.0
 20
0.0
 11
420.0
 21
297.0
 12
0.0
 22
0.0
 32
0.0
 14
100000000000000000000.0
 24
100000000000000000000.0
 34
100000000000000000000.0
 15
-100000000000000000000.0
 25
-100000000000000000000.0
 35
-100000000000000000000.0
146
0.0
 13
0.0
 23
0.0
 33
0.0
 16
1.0
 26
0.0
 36
0.0
 17
0.0
 27
1.0
 37
0.0
 76
0
330
1B
  0
LAYOUT
  5
22
100
AcDbPlotSettings
  1

  2
none_device
  4

  6

 40
0.0
 41
0.0
 42
0.0
 43
0.0
 44
0.0
 45
0.0
 46
0.0
 47
0.0
 48
0.0
 49
0.0
140
0.0
141
0.0
142
1.0
143
1.0
 70
1712
 72
0
 73
0
 74
0
  7

 75
0
147
1.0
148
0.0
149
0.0
100
AcDbLayout
  1
Model
 70
1
 71
0
 10
0.0
 20
0.0
 11
12.0
 21
9.0
 12
0.0
 22
0.0
 32
0.0
 14
0.0
 24
0.0
 34
0.0
 15
0.0
 25
0.0
 35
0.0
146
0.0
 13
0.0
 23
0.0
 33
0.0
 16
1.0
 26
0.0
 36
0.0
 17
0.0
 27
1.0
 37
0.0
 76
0
330
1F
  0
LAYOUT
  5
26
100
AcDbPlotSettings
  1

  2
none_device
  4

  6

 40
0.0
 41
0.0
 42
0.0
 43
0.0
 44
0.0
 45
0.0
 46
0.0
 47
0.0
 48
0.0
 49
0.0
140
0.0
141
0.0
142
1.0
143
1.0
 70
688
 72
0
 73
0
 74
5
  7

 75
16
147
1.0
148
0.0
149
0.0
100
AcDbLayout
  1
Layout2
 70
1
 71
2
 10
0.0
 20
0.0
 11
12.0
 21
9.0
 12
0.0
 22
0.0
 32
0.0
 14
0.0
 24
0.0
 34
0.0
 15
0.0
 25
0.0
 35
0.0
146
0.0
 13
0.0
 23
0.0
 33
0.0
 16
1.0
 26
0.0
 36
0.0
 17
0.0
 27
1.0
 37
0.0
 76
0
330
23
  0
DICTIONARY
  5
24C
100
AcDbDictionary
281
1
  3
DIMASSOC
350
24F
  3
HIDETEXT
350
24E
  0
DICTIONARYVAR
  5
24E
100
DictionaryVariables
280
0
  1
2
  0
DICTIONARYVAR
  5
24F
100
DictionaryVariables
280
0
  1
1
  0
DICTIONARY
  5
24D
100
AcDbDictionary
281
1
  3
ColorSettings/BackgroundColor
350
250
  3
ColorSettings/ColorMode
350
251
  3
Grid/DisplayGrid00
350
252
  3
Grid/DisplayGrid01
350
253
  3
Grid/DisplayGrid02
350
254
  3
Grid/DisplayGrid03
350
255
  3
Grid/GridSpacingX00
350
256
  3
Grid/GridSpacingX01
350
257
  3
Grid/GridSpacingX02
350
258
  3
Grid/GridSpacingX03
350
259
  3
Grid/GridSpacingY00
350
25A
  3
Grid/GridSpacingY01
350
25B
  3
Grid/GridSpacingY02
350
25C
  3
Grid/GridSpacingY03
350
25D
  3
Grid/IsometricGrid00
350
25E
  3
Grid/IsometricGrid01
350
25F
  3
Grid/IsometricGrid02
350
260
  3
Grid/IsometricGrid03
350
261
  3
Grid/IsometricProjection00
350
262
  3
Grid/IsometricProjection01
350
263
  3
Grid/IsometricProjection02
350
264
  3
Grid/IsometricProjection03
350
265
  3
Grid/MetaGridSpacingX00
350
266
  3
Grid/MetaGridSpacingX01
350
267
  3
Grid/MetaGridSpacingX02
350
268
  3
Grid/MetaGridSpacingX03
350
269
  3
Grid/MetaGridSpacingY00
350
26A
  3
Grid/MetaGridSpacingY01
350
26B
  3
Grid/MetaGridSpacingY02
350
26C
  3
Grid/MetaGridSpacingY03
350
26D
  3
MultiPageSettings/Columns
350
26E
  3
MultiPageSettings/GlueMarginsBottom
350
26F
  3
MultiPageSettings/GlueMarginsLeft
350
270
  3
MultiPageSettings/GlueMarginsRight
350
271
  3
MultiPageSettings/GlueMarginsTop
350
272
  3
MultiPageSettings/PrintCropMarks
350
273
  3
MultiPageSettings/Rows
350
274
  3
PageSettings/OffsetX
350
275
  3
PageSettings/OffsetY
350
276
  3
PageSettings/PageOrientation
350
277
  3
PageSettings/PaperHeight
350
278
  3
PageSettings/PaperWidth
350
279
  3
PageSettings/Scale
350
27A
  3
PageSettings/ShowPaperBorders
350
27B
  3
QCADVersion
350
27C
  3
UnitSettings/PaperUnit
350
27D
  3
ViewportCenter
350
27E
  3
ViewportHeight
350
27F
  3
ViewportWidth
350
280
  0
XRECORD
  5
250
330
24D
100
AcDbXrecord
280
1
1000
Blanc
  0
XRECORD
  5
251
330
24D
100
AcDbXrecord
280
1
1000
FullColor
  0
XRECORD
  5
252
330
24D
100
AcDbXrecord
280
1
290
1
  0
XRECORD
  5
253
330
24D
100
AcDbXrecord
280
1
290
1
  0
XRECORD
  5
254
330
24D
100
AcDbXrecord
280
1
290
1
  0
XRECORD
  5
255
330
24D
100
AcDbXrecord
280
1
290
1
  0
XRECORD
  5
256
330
24D
100
AcDbXrecord
280
1
1000
auto
  0
XRECORD
  5
257
330
24D
100
AcDbXrecord
280
1
1000
auto
  0
XRECORD
  5
258
330
24D
100
AcDbXrecord
280
1
1000
auto
  0
XRECORD
  5
259
330
24D
100
AcDbXrecord
280
1
1000
auto
  0
XRECORD
  5
25A
330
24D
100
AcDbXrecord
280
1
1000
auto
  0
XRECORD
  5
25B
330
24D
100
AcDbXrecord
280
1
1000
auto
  0
XRECORD
  5
25C
330
24D
100
AcDbXrecord
280
1
1000
auto
  0
XRECORD
  5
25D
330
24D
100
AcDbXrecord
280
1
1000
auto
  0
XRECORD
  5
25E
330
24D
100
AcDbXrecord
280
1
290
0
  0
XRECORD
  5
25F
330
24D
100
AcDbXrecord
280
1
290
0
  0
XRECORD
  5
260
330
24D
100
AcDbXrecord
280
1
290
0
  0
XRECORD
  5
261
330
24D
100
AcDbXrecord
280
1
290
0
  0
XRECORD
  5
262
330
24D
100
AcDbXrecord
280
1
 90
65537
  0
XRECORD
  5
263
330
24D
100
AcDbXrecord
280
1
 90
65537
  0
XRECORD
  5
264
330
24D
100
AcDbXrecord
280
1
 90
65537
  0
XRECORD
  5
265
330
24D
100
AcDbXrecord
280
1
 90
65537
  0
XRECORD
  5
266
330
24D
100
AcDbXrecord
280
1
1000
auto
  0
XRECORD
  5
267
330
24D
100
AcDbXrecord
280
1
1000
auto
  0
XRECORD
  5
268
330
24D
100
AcDbXrecord
280
1
1000
auto
  0
XRECORD
  5
269
330
24D
100
AcDbXrecord
280
1
1000
auto
  0
XRECORD
  5
26A
330
24D
100
AcDbXrecord
280
1
1000
auto
  0
XRECORD
  5
26B
330
24D
100
AcDbXrecord
280
1
1000
auto
  0
XRECORD
  5
26C
330
24D
100
AcDbXrecord
280
1
1000
auto
  0
XRECORD
  5
26D
330
24D
100
AcDbXrecord
280
1
1000
auto
  0
XRECORD
  5
26E
330
24D
100
AcDbXrecord
280
1
 90
1
  0
XRECORD
  5
26F
330
24D
100
AcDbXrecord
280
1
 40
0.0
  0
XRECORD
  5
270
330
24D
100
AcDbXrecord
280
1
 40
0.0
  0
XRECORD
  5
271
330
24D
100
AcDbXrecord
280
1
 40
0.0
  0
XRECORD
  5
272
330
24D
100
AcDbXrecord
280
1
 40
0.0
  0
XRECORD
  5
273
330
24D
100
AcDbXrecord
280
1
290
0
  0
XRECORD
  5
274
330
24D
100
AcDbXrecord
280
1
 90
1
  0
XRECORD
  5
275
330
24D
100
AcDbXrecord
280
1
 40
0.0
  0
XRECORD
  5
276
330
24D
100
AcDbXrecord
280
1
 40
0.0
  0
XRECORD
  5
277
330
24D
100
AcDbXrecord
280
1
1000
Portrait
  0
XRECORD
  5
278
330
24D
100
AcDbXrecord
280
1
 40
297.0
  0
XRECORD
  5
279
330
24D
100
AcDbXrecord
280
1
 40
210.0
  0
XRECORD
  5
27A
330
24D
100
AcDbXrecord
280
1
1000
1:1
  0
XRECORD
  5
27B
330
24D
100
AcDbXrecord
280
1
290
1
  0
XRECORD
  5
27C
330
24D
100
AcDbXrecord
280
1
1000
3.21.3.16
  0
XRECORD
  5
27D
330
24D
100
AcDbXrecord
280
1
 90
4
  0
XRECORD
  5
27F
330
24D
100
AcDbXrecord
280
1
 40
722.6067027169347057
  0
XRECORD
  5
280
330
24D
100
AcDbXrecord
280
1
 40
1219.9563777350717828
  0
ENDSEC
  0
EOF
